<?xml version="1.0" encoding="utf-8"?>
<!-- Generator: Adobe Illustrator 27.3.1, SVG Export Plug-In . SVG Version: 6.00 Build 0)  -->
<svg version="1.1" id="Layer_1" xmlns="http://www.w3.org/2000/svg" xmlns:xlink="http://www.w3.org/1999/xlink" x="0px" y="0px"
	 viewBox="0 0 799.2 570" style="enable-background:new 0 0 799.2 570;" xml:space="preserve">
<style type="text/css">
	.st0{fill:#00DCAA;}
</style>
<g>
	<g>
		<path class="st0" d="M548.6,45.4c-0.2,0-0.4,0-0.6,0c-6.3,0.3-11.5,5.8-11.5,12.4c0,8-1.8,13.3-3.5,16.6
			c4.9-2.2,10.2-3.4,15.6-3.4c5.4,0,10.7,1.1,15.6,3.3c-1.7-3.3-3.5-8.7-3.5-16.9c0-3.3-1.3-6.4-3.7-8.7
			C554.7,46.6,551.7,45.4,548.6,45.4 M567.7,79.1c-5.7-3.6-12.3-5.6-19.1-5.6s-13.4,1.9-19.1,5.6l-1.4-2c0,0,0.5-0.4,1.1-1.2
			c1.8-2.3,4.8-7.7,4.9-18.1c0-7.8,6.3-14.5,13.8-14.8c4-0.2,7.8,1.2,10.7,4s4.5,6.5,4.5,10.5c0,14.6,5.9,19.6,6,19.6L567.7,79.1z"
			/>
		<path class="st0" d="M548.7,85.3c-3.7,0-7.2-1.4-9.9-4l1.7-1.8c2.3,2.1,5.2,3.3,8.3,3.3s6-1.2,8.3-3.3l1.7,1.8
			C555.9,83.9,552.4,85.3,548.7,85.3"/>
	</g>
	<g>
		<polygon class="st0" points="477.1,82.9 459,82.9 459,80.5 474.7,80.5 474.7,47.8 433.6,47.8 433.6,56.3 431.2,56.3 431.2,45.4 
			477.1,45.4 		"/>
		<path class="st0" d="M453.1,82.9h-2.4c0-10.8-8.8-19.5-19.5-19.5V61C443.3,61,453.1,70.8,453.1,82.9"/>
		<path class="st0" d="M445.8,82.9h-2.4c0-6.7-5.5-12.2-12.2-12.2v-2.4C439.2,68.3,445.8,74.9,445.8,82.9"/>
		<path class="st0" d="M438.5,82.9h-2.4c0-2.7-2.2-4.9-4.9-4.9v-2.4C435.2,75.6,438.5,78.9,438.5,82.9"/>
	</g>
	<g>
		<path class="st0" d="M54.5,53.9c-7.3,0-13.3,6-13.3,13.3s6,13.3,13.3,13.3h21.8c6,0,10.9-4.9,10.9-10.9c0-5.2-3.7-9.6-8.7-10.7
			l-1-0.2v-1.2c0-5.4-4.3-9.7-9.7-9.7c-3.8,0-7.3,2.3-8.8,5.7l-0.4,0.9l-1-0.2C56.5,54,55.5,53.9,54.5,53.9 M76.3,82.9H54.5
			c-8.7,0-15.7-7.1-15.7-15.7c0-8.7,7.1-15.7,15.7-15.7c0.9,0,1.8,0.1,2.7,0.2c2.1-3.9,6.2-6.3,10.6-6.3c6.4,0,11.7,5,12.1,11.4
			c5.7,1.6,9.7,6.8,9.7,12.8C89.6,77,83.6,82.9,76.3,82.9"/>
		<path class="st0" d="M89.6,69.6h-2.4c0-6-4.9-10.9-10.9-10.9c-3.9,0-7.5,2.1-9.5,5.5L64.7,63c2.4-4.2,6.8-6.8,11.6-6.8
			C83.6,56.3,89.6,62.3,89.6,69.6"/>
	</g>
	<g>
		<path class="st0" d="M541.9,507.7c2.7,0,4.9,0.6,7,1.3c2,0.6,3.9,1.2,6.3,1.2c3.2,0,5.1-0.5,6-0.8v-18c-1.3,0.3-3.2,0.7-6,0.7
			c-2.7,0-4.9-0.6-7-1.3c-2-0.6-3.9-1.2-6.3-1.2c-3.2,0-5.1,0.5-6,0.8v18C537.1,508,539.1,507.7,541.9,507.7 M555.2,512.5
			c-2.7,0-4.9-0.6-7-1.3c-2-0.6-3.9-1.2-6.3-1.2c-4.6,0-6.7,1.1-6.7,1.1l-1.8,0.9v-2v-21.3l0.6-0.3c0.2-0.1,2.6-1.4,7.8-1.4
			c2.7,0,4.9,0.6,7,1.3c2,0.6,3.9,1.2,6.3,1.2c4.6,0,6.7-1.1,6.7-1.1l1.8-0.9v2v21.3l-0.6,0.3C562.8,511.3,560.5,512.5,555.2,512.5"
			/>
		<rect x="533.5" y="510.1" class="st0" width="2.4" height="14.5"/>
	</g>
	<g>
		<path class="st0" d="M721.7,53.9c-0.1-0.4-0.1-0.8-0.1-1.2c0-3.3,2.7-6,6-6s6,2.7,6,6c0,0.4,0,0.8-0.1,1.2h3
			c-0.1-0.4-0.1-0.8-0.1-1.2c0-3.3,2.7-6,6-6s6,2.7,6,6c0,0.4,0,0.8-0.1,1.2h2.4c0.1-0.4,0.1-0.8,0.1-1.2c0-4.7-3.8-8.5-8.5-8.5
			c-3.2,0-6,1.8-7.5,4.4c-1.4-2.6-4.2-4.4-7.5-4.4c-4.7,0-8.5,3.8-8.5,8.5c0,0.4,0,0.8,0.1,1.2H721.7z"/>
		<path class="st0" d="M753.2,62.4h-16.9v-7.3h16.9V62.4z M749.3,81.7h-13.1V64.8h13.1V81.7z M720.8,64.8h13.1v16.9h-13.1V64.8z
			 M716.9,55.1h16.9v7.3h-16.9V55.1z M755.6,52.7h-41.1v12.1h3.9v19.4h33.4V64.8h3.9V52.7H755.6z"/>
	</g>
	<g>
		<polygon class="st0" points="257.6,167.2 255.1,167.2 255.1,138.3 283.4,133.6 283.4,162.9 280.9,162.9 280.9,136.4 257.6,140.3 
					"/>
		<path class="st0" d="M249.9,162c-2.9,0-5.2,2.4-5.2,5.2c0,2.9,2.4,5.2,5.2,5.2s5.2-2.4,5.2-5.2C255.1,164.3,252.8,162,249.9,162
			 M249.9,174.9c-4.2,0-7.7-3.4-7.7-7.7c0-4.2,3.4-7.7,7.7-7.7s7.7,3.4,7.7,7.7S254.1,174.9,249.9,174.9"/>
		<path class="st0" d="M275.7,157.7c-2.9,0-5.2,2.4-5.2,5.2c0,2.9,2.4,5.2,5.2,5.2s5.2-2.4,5.2-5.2
			C280.9,160,278.6,157.7,275.7,157.7 M275.7,170.6c-4.2,0-7.7-3.4-7.7-7.7c0-4.2,3.4-7.7,7.7-7.7s7.7,3.4,7.7,7.7
			C283.4,167.2,279.9,170.6,275.7,170.6"/>
	</g>
	<g>
		<path class="st0" d="M551.2,140c4,0,7.4,1.6,9.3,4.3l2-1.4c-2.4-3.4-6.5-5.4-11.3-5.4s-8.9,2-11.3,5.4l2,1.4
			C543.8,141.6,547.2,140,551.2,140"/>
		<polygon class="st0" points="566,161.1 537.8,161.1 533,137.6 526.7,137.6 526.7,135.2 535,135.2 539.8,158.7 563.9,158.7 
			566.1,143.5 568.5,143.8 		"/>
		<path class="st0" d="M545.6,166c-1.3,0-2.4,1.1-2.4,2.4c0,1.3,1.1,2.4,2.4,2.4s2.4-1.1,2.4-2.4S546.9,166,545.6,166 M545.6,173.2
			c-2.7,0-4.8-2.2-4.8-4.8c0-2.7,2.2-4.8,4.8-4.8s4.8,2.2,4.8,4.8C550.4,171.1,548.2,173.2,545.6,173.2"/>
		<path class="st0" d="M560.1,166c-1.3,0-2.4,1.1-2.4,2.4c0,1.3,1.1,2.4,2.4,2.4s2.4-1.1,2.4-2.4S561.4,166,560.1,166 M560.1,173.2
			c-2.7,0-4.8-2.2-4.8-4.8c0-2.7,2.2-4.8,4.8-4.8s4.8,2.2,4.8,4.8C564.9,171.1,562.7,173.2,560.1,173.2"/>
	</g>
	<g>
		<path class="st0" d="M72.1,348.3c-2.3-1.3-5-2-7.9-2s-5.6,0.7-7.9,2l2.1-11.4c1.8,0.8,3.7,1.3,5.8,1.3c2.1,0,4-0.5,5.8-1.3
			L72.1,348.3z M53.1,324.7c0-6.1,5-11.1,11.1-11.1s11.1,5,11.1,11.1s-5,11.1-11.1,11.1S53.1,330.8,53.1,324.7 M77.7,324.7
			c0-7.5-6.1-13.5-13.5-13.5c-7.5,0-13.5,6.1-13.5,13.5c0,4.5,2.2,8.4,5.5,10.9l-3.6,18.9l2.7-2.5c2.3-2.2,5.4-3.3,8.8-3.3
			c3.4,0,6.6,1.1,8.8,3.3l2.7,2.5L72,335.6C75.5,333.1,77.7,329.1,77.7,324.7"/>
	</g>
	<path class="st0" d="M437.3,171.2h33.8l-1.1-33.9h-31.5L437.3,171.2z M473.6,173.6h-38.8l1.3-38.7h36.2L473.6,173.6z"/>
	<g>
		<polygon class="st0" points="744.9,499 735,489.1 725.2,499 723.4,497.3 735,485.7 746.7,497.3 		"/>
		<rect x="733.8" y="487.4" class="st0" width="2.4" height="27.8"/>
		<path class="st0" d="M747.1,526.1H723c-6,0-10.9-4.9-10.9-10.9V514h2.4v1.2c0,4.7,3.8,8.5,8.5,8.5h24.2c4.7,0,8.5-3.8,8.5-8.5V514
			h2.4v1.2C758,521.2,753.1,526.1,747.1,526.1"/>
	</g>
	<g>
		<path class="st0" d="M149.1,501.5c0-8.2,6.7-14.9,14.9-14.9s14.9,6.7,14.9,14.9s-6.7,14.9-14.9,14.9S149.1,509.7,149.1,501.5
			 M185.1,520.8l-7.9-7.9c2.6-3,4.3-7,4.3-11.4c0-9.6-7.8-17.3-17.3-17.3c-9.6,0-17.3,7.8-17.3,17.3s7.8,17.3,17.3,17.3
			c4.3,0,8.3-1.6,11.4-4.3l7.9,7.9L185.1,520.8z"/>
		<polygon class="st0" points="165.3,495.4 162.9,495.4 162.9,500.3 158,500.3 158,502.7 162.9,502.7 162.9,507.5 165.3,507.5 
			165.3,502.7 170.1,502.7 170.1,500.3 165.3,500.3 		"/>
	</g>
	<g>
		<path class="st0" d="M246,501.5c0-8.2,6.7-14.9,14.9-14.9c8.2,0,14.9,6.7,14.9,14.9s-6.7,14.9-14.9,14.9
			C252.7,516.4,246,509.7,246,501.5 M282,520.8l-7.9-7.9c2.6-3,4.3-7,4.3-11.4c0-9.6-7.8-17.3-17.3-17.3c-9.6,0-17.3,7.8-17.3,17.3
			s7.8,17.3,17.3,17.3c4.3,0,8.3-1.6,11.4-4.3l7.9,7.9L282,520.8z"/>
		<rect x="254.9" y="500.3" class="st0" width="12.1" height="2.4"/>
	</g>
	<g>
		<path class="st0" d="M627.3,240v6c0,8,6.5,14.5,14.5,14.5s14.5-6.5,14.5-14.5v-6H627.3z M641.8,262.9c-9.3,0-16.9-7.6-16.9-16.9
			v-8.5h33.9v8.5C658.7,255.3,651.1,262.9,641.8,262.9"/>
		<path class="st0" d="M652.2,235.1h-2.4v-1.7c0-4.4-3.6-8-8-8s-8,3.6-8,8v1.7h-2.4v-1.7c0-5.7,4.7-10.4,10.4-10.4
			s10.4,4.7,10.4,10.4V235.1z"/>
		<rect x="640.6" y="244.7" class="st0" width="2.4" height="6.6"/>
	</g>
	<g>
		<path class="st0" d="M720.5,240v6c0,8,6.5,14.5,14.5,14.5s14.5-6.5,14.5-14.5v-6H720.5z M735,262.9c-9.3,0-16.9-7.6-16.9-16.9
			v-8.5H752v8.5C752,255.3,744.4,262.9,735,262.9"/>
		<path class="st0" d="M727.1,235.1h-2.4v-1.7c0-5.7,4.7-10.4,10.4-10.4c2.4,0,4.8,1,6.8,2.7l-1.6,1.8c-1.6-1.4-3.4-2.1-5.2-2.1
			c-4.4,0-8,3.6-8,8V235.1z"/>
		<rect x="733.8" y="244.7" class="st0" width="2.4" height="6.6"/>
	</g>
	<g>
		<path class="st0" d="M62.3,486.6c-8.2,0-14.9,6.7-14.9,14.9c0,8.2,6.7,14.9,14.9,14.9s14.9-6.7,14.9-14.9
			C77.3,493.3,70.6,486.6,62.3,486.6 M62.3,518.8c-9.6,0-17.3-7.8-17.3-17.3c0-9.6,7.8-17.3,17.3-17.3s17.3,7.8,17.3,17.3
			C79.7,511.1,71.9,518.8,62.3,518.8"/>
		
			<rect x="76.9" y="511.1" transform="matrix(0.7071 -0.7071 0.7071 0.7071 -342.9162 206.7461)" class="st0" width="2.4" height="12.4"/>
	</g>
	<g>
		<path class="st0" d="M653.9,344l-13-7.6h-5.2c-3.3,0-6-2.7-6-6s2.7-6,6-6h5.2l13-7.6V344z M640.2,321.9h-4.5
			c-4.7,0-8.5,3.8-8.5,8.5s3.8,8.5,8.5,8.5h4.5l16,9.4v-35.7L640.2,321.9z"/>
	</g>
	<g>
		<path class="st0" d="M753.2,320.8l-1.7,1.7c2.1,2.1,3.3,4.9,3.3,7.9s-1.2,5.8-3.3,7.9l1.7,1.7c2.6-2.6,4-6,4-9.6
			S755.8,323.4,753.2,320.8"/>
		<path class="st0" d="M746,325.6c1.3,1.3,2,3,2,4.8s-0.7,3.5-2,4.8l1.7,1.7c1.7-1.7,2.7-4.1,2.7-6.5c0-2.5-1-4.8-2.7-6.5L746,325.6
			z"/>
		<path class="st0" d="M739.5,316.8V344l-13-7.6h-5.2c-3.3,0-6-2.7-6-6s2.7-6,6-6h5.2L739.5,316.8z M721.4,321.9
			c-4.7,0-8.5,3.8-8.5,8.5s3.8,8.5,8.5,8.5h4.5l16.1,9.4v-35.7l-16.1,9.4L721.4,321.9L721.4,321.9z"/>
	</g>
	<g>
		<path class="st0" d="M81.1,260.2H47.2v-21.8h7.9l0.4-0.5c2-2.7,5.3-4.4,8.7-4.4s6.7,1.6,8.7,4.4l0.4,0.5h7.9v21.8H81.1z
			 M74.4,236.1c-2.5-3-6.3-4.8-10.3-4.8s-7.8,1.8-10.3,4.8h-9.1v26.6h38.7v-26.6H74.4z"/>
		<path class="st0" d="M64.2,242.1c-4,0-7.3,3.3-7.3,7.3h2.4c0-2.7,2.2-4.8,4.8-4.8s4.8,2.2,4.8,4.8h2.4
			C71.4,245.4,68.2,242.1,64.2,242.1"/>
	</g>
	<g>
		<path class="st0" d="M735,165.1c-7.2,0-13.7-4.3-16.8-10.9c3.1-6.6,9.7-10.9,16.8-10.9c7.2,0,13.7,4.3,16.8,10.9
			C748.7,160.9,742.2,165.1,735,165.1 M754.3,153.7c-3.4-7.8-11-12.8-19.2-12.8c-8.3,0-15.8,5-19.3,12.8l-0.2,0.5l0.2,0.5
			c3.4,7.8,11,12.8,19.3,12.8s15.8-5,19.2-12.8l0.2-0.5L754.3,153.7z"/>
		<path class="st0" d="M735,159.1c-2.7,0-4.8-2.2-4.8-4.8c0-2.7,2.2-4.8,4.8-4.8s4.8,2.2,4.8,4.8C739.9,156.9,737.7,159.1,735,159.1
			 M735,147c-4,0-7.3,3.3-7.3,7.3s3.3,7.3,7.3,7.3s7.3-3.3,7.3-7.3C742.3,150.2,739.1,147,735,147"/>
	</g>
	<g>
		<path class="st0" d="M81.1,437.7H47.2v-24.2h26.6h7.3C81.1,413.5,81.1,437.7,81.1,437.7z M50.9,408.6h20.6v2.4h-24
			C47.9,409.6,49.3,408.6,50.9,408.6 M73.8,411v-4.8h-23c-2.9,0-5.4,2.1-5.9,4.8h-0.1v1.2v1.2V440h38.7v-29H73.8L73.8,411z"/>
		<path class="st0" d="M81.1,431.6c-3.3,0-6-2.7-6-6s2.7-6,6-6v2.4c-2,0-3.6,1.6-3.6,3.6s1.6,3.6,3.6,3.6V431.6z"/>
	</g>
	<g>
		<path class="st0" d="M650.7,419.5h4.8V405h-4.8V419.5z M638.6,405c-4.4,0-8.3,3-9.3,7.3l-1.1,4.9c-0.3,1.4,0,2.9,0.9,4
			s2.3,1.8,3.7,1.8h7v7.4c0,1.7,1.2,3.2,2.9,3.5l5.6-13.5V405H638.6z M644.2,436.4h-0.8c-3.3,0-6.1-2.7-6.1-6v-5h-4.6
			c-2.2,0-4.2-1-5.6-2.7c-1.4-1.7-1.9-3.9-1.4-6.1l1.1-4.9c1.3-5.4,6.1-9.2,11.6-9.2h19.3v19.4H650L644.2,436.4z"/>
	</g>
	<g>
		<rect x="640" y="169.9" class="st0" width="3.6" height="2.4"/>
		<path class="st0" d="M638.2,142.1c0-2,1.6-3.6,3.6-3.6s3.6,1.6,3.6,3.6v13.3c0,2-1.6,3.6-3.6,3.6s-3.6-1.6-3.6-3.6V142.1z
			 M641.9,161.5c3.3,0,6-2.7,6-6v-13.3c0-3.3-2.7-6-6-6s-6,2.7-6,6v13.3C635.8,158.8,638.5,161.5,641.9,161.5"/>
		<path class="st0" d="M651.7,160.1c-2.2,3.5-5.9,5.6-9.9,5.6c-3.9,0-7.6-2.1-9.9-5.6l-2,1.3c2.7,4.2,7.1,6.7,11.9,6.7
			s9.2-2.5,11.9-6.7L651.7,160.1z"/>
	</g>
	<g>
		<path class="st0" d="M719.6,416.4l7.1,7.2l-2.1,11.5l10.5-5.2l10.5,5.2l-2.1-11.5l7.1-7.2l-10.2-0.9l-5.3-10.5l-5.3,10.5
			L719.6,416.4z M748.8,439.5l-13.7-6.9l-13.7,6.9l2.7-15.1l-9.8-10l13.9-1.2l6.8-13.7l6.8,13.7l13.9,1.2l-9.8,10L748.8,439.5z"/>
	</g>
	<g>
		<path class="st0" d="M262.8,314.6c-8,0-14.5,6.6-14.5,14.6c0,10,11.6,19.2,14.5,21.4c2.9-2.2,14.5-11.3,14.5-21.4
			C277.3,321.1,270.8,314.6,262.8,314.6 M262.8,353.5l-0.7-0.5c-0.7-0.4-16.3-11.1-16.3-23.8c0-9.4,7.6-17.1,16.9-17.1
			c9.3,0,16.9,7.7,16.9,17.1c0,12.7-15.6,23.4-16.3,23.8L262.8,353.5z"/>
		<path class="st0" d="M270.1,327.9h-2.4c0-2.7-2.2-4.8-4.8-4.8s-4.8,2.2-4.8,4.8h-2.4c0-4,3.3-7.3,7.3-7.3
			C266.8,320.6,270.1,323.9,270.1,327.9"/>
	</g>
	<g>
		<path class="st0" d="M246.9,262.7l-2-1.3c4-6.3,10.9-10.2,18-10.2c7,0,13.9,3.9,17.9,10.2l-2,1.3c-3.6-5.6-9.7-9.1-15.9-9.1
			S250.5,257,246.9,262.7"/>
		<path class="st0" d="M262.8,228.1c-4.7,0-8.5,3.8-8.5,8.5s3.8,8.5,8.5,8.5s8.5-3.8,8.5-8.5C271.3,231.9,267.5,228.1,262.8,228.1
			 M262.8,247.5c-6,0-10.9-4.9-10.9-10.9s4.9-10.9,10.9-10.9s10.9,4.9,10.9,10.9C273.7,242.6,268.8,247.5,262.8,247.5"/>
	</g>
	<g>
		<path class="st0" d="M565.2,346h-2.4c0-16.7-13.6-30.3-30.3-30.3v-2.4C550.5,313.2,565.2,327.9,565.2,346"/>
		<path class="st0" d="M554.6,346.4h-2.4c0-11.1-9-20.1-20.1-20.1v-2.4C544.4,323.8,554.6,333.9,554.6,346.4"/>
		<path class="st0" d="M543.5,346H541c0-4.8-3.9-8.6-8.6-8.6V335C538.5,334.9,543.5,339.9,543.5,346"/>
	</g>
	<g>
		<path class="st0" d="M534.8,434h4.8v-14.5h-4.8V434z M542.1,434h9.6c4.4,0,8.3-3,9.3-7.3l1.1-4.9c0.3-1.4,0-2.9-0.9-4
			s-2.3-1.8-3.7-1.8h-7v-7.4c0-1.7-1.2-3.2-2.9-3.5l-5.6,13.5V434H542.1z M551.7,436.4h-19.3V417h7.7l6-14.5h0.8
			c3.3,0,6.1,2.7,6.1,6v5h4.6c2.2,0,4.2,1,5.6,2.7c1.4,1.7,1.9,3.9,1.3,6.1l-1.1,4.9C562.1,432.7,557.3,436.4,551.7,436.4"/>
	</g>
	<g>
		<path class="st0" d="M622.4,78.7h38.7v-7.3c-3.5-0.5-6-3.4-6-7.2c0-3.7,2.5-6.6,6-7.2v-7.3h-38.7V57c3.5,0.5,6,3.4,6,7.2
			c0,3.7-2.5,6.6-6,7.2V78.7z M663.6,81.1H620V69h1.2c2.8,0,4.8-2,4.8-4.8c0-2.8-2-4.8-4.8-4.8H620V47.2h43.5v12.1h-1.2
			c-2.8,0-4.8,2-4.8,4.8s2,4.8,4.8,4.8h1.2L663.6,81.1L663.6,81.1z"/>
		<path class="st0" d="M641.8,68.3c-4.3,0-8.3-2.2-10.7-5.9l2-1.3c1.9,3,5.1,4.7,8.7,4.7s6.8-1.8,8.7-4.7l2,1.3
			C650.1,66.1,646.1,68.3,641.8,68.3"/>
	</g>
	<g>
		<polygon class="st0" points="164.7,320.7 164.7,333.6 176.3,338.8 177.3,336.6 167.1,332 167.1,320.7 		"/>
		<path class="st0" d="M165.9,314.7c7.8,0,14.8,5,17.2,12.5l2.3-0.8c-2.8-8.5-10.6-14.1-19.5-14.1s-16.7,5.7-19.5,14.1l2.3,0.8
			C151.1,319.7,158.1,314.7,165.9,314.7"/>
		<path class="st0" d="M186.4,331.8v-0.3l-2.4,0.1v0.3c0,0.3,0,0.6,0,0.8c0,10-8.1,18.1-18.1,18.1s-18.1-8.1-18.1-18.1
			c0-0.3,0-0.6,0-0.8v-0.3l-2.4-0.1v0.3c0,0.3,0,0.7,0,1c0,11.3,9.2,20.6,20.6,20.6c11.3,0,20.6-9.2,20.6-20.6
			C186.5,332.5,186.4,332.1,186.4,331.8"/>
	</g>
	<g>
		<path class="st0" d="M454.3,433.9c-2,0-4-0.4-5.8-1.2l-0.3-0.1l-8.1,1.2l1.2-8.1l-0.1-0.3c-0.8-1.9-1.2-3.8-1.2-5.8
			c0-8,6.5-14.5,14.5-14.5s14.5,6.5,14.5,14.5C468.8,427.4,462.3,433.9,454.3,433.9 M454.3,402.5c-9.3,0-16.9,7.6-16.9,16.9
			c0,2.2,0.4,4.4,1.3,6.5l-1.5,10.6l10.6-1.5c2.1,0.9,4.3,1.3,6.5,1.3c9.3,0,16.9-7.6,16.9-16.9
			C471.2,410.1,463.6,402.5,454.3,402.5"/>
		<rect x="453.1" y="415.8" class="st0" width="2.4" height="12.1"/>
		<path class="st0" d="M454.3,410.3c-1,0-1.8,0.8-1.8,1.8s0.8,1.8,1.8,1.8s1.8-0.8,1.8-1.8C456.1,411.1,455.3,410.3,454.3,410.3"/>
	</g>
	<g>
		<path class="st0" d="M363.5,250.8c1.8,0.9,3.4,2,5,3.3c4.2,1.4,8,4.3,10.5,8.2l2-1.3C377.1,254.8,370.4,251,363.5,250.8"/>
		<path class="st0" d="M363.1,225.4c-0.6,0-1.2,0.1-1.8,0.2c0.9,0.7,1.7,1.4,2.4,2.3c4.4,0.3,7.9,4,7.9,8.4c0,4.5-3.5,8.1-7.9,8.4
			c-0.7,0.9-1.5,1.6-2.4,2.3c0.6,0.1,1.2,0.2,1.8,0.2c6,0,10.9-4.9,10.9-10.9C374,230.3,369.1,225.4,363.1,225.4"/>
		<path class="st0" d="M337.5,262.3l-2-1.3c4-6.3,10.9-10.2,18-10.2c7,0,13.9,3.9,18,10.2l-2,1.3c-3.6-5.6-9.7-9.1-15.9-9.1
			S341.1,256.7,337.5,262.3"/>
		<path class="st0" d="M353.5,227.8c-4.7,0-8.5,3.8-8.5,8.5s3.8,8.5,8.5,8.5s8.5-3.8,8.5-8.5C361.9,231.6,358.1,227.8,353.5,227.8
			 M353.5,247.2c-6,0-10.9-4.9-10.9-10.9s4.9-10.9,10.9-10.9s10.9,4.9,10.9,10.9C364.3,242.3,359.5,247.2,353.5,247.2"/>
	</g>
	<g>
		<path class="st0" d="M451,250.2c-7,0-13.9,3.9-18,10.2l2,1.3c3.6-5.6,9.7-9.1,15.9-9.1c6.2,0,12.3,3.5,15.9,9.1l2-1.3
			C464.9,254.2,458.1,250.2,451,250.2"/>
		<path class="st0" d="M451,227.3c4.7,0,8.5,3.8,8.5,8.5s-3.8,8.5-8.5,8.5s-8.5-3.8-8.5-8.5C442.6,231.1,446.4,227.3,451,227.3
			 M451,246.6c6,0,10.9-4.9,10.9-10.9s-4.9-10.9-10.9-10.9s-10.9,4.9-10.9,10.9C440.2,241.7,445,246.6,451,246.6"/>
		<polygon class="st0" points="475.2,241.8 470.4,241.8 470.4,236.9 468,236.9 468,241.8 463.1,241.8 463.1,244.2 468,244.2 
			468,249 470.4,249 470.4,244.2 475.2,244.2 		"/>
	</g>
	<g>
		<path class="st0" d="M470.4,319.1l-0.7-1.7l-5.6,5.6c-0.9,0.9-2.5,0.9-3.4,0s-0.9-2.5,0-3.4l5.6-5.6l-1.7-0.7
			c-3.7-1.5-8.2-0.5-11.2,2.5c-2.7,2.7-3.7,6.6-2.6,10.3l-10.5,10.5l1.7,1.7l11.6-11.6l-0.3-0.7c-1.1-2.9-0.5-6.2,1.8-8.4
			c1.8-1.8,4.3-2.6,6.7-2.4L459,318c-1.9,1.9-1.9,5,0,6.8c1.9,1.9,5,1.9,6.8,0l2.8-2.8c0.2,2.4-0.6,4.9-2.4,6.7
			c-2.2,2.2-5.5,2.9-8.4,1.8l-0.7-0.3l-11.6,11.6l1.7,1.7l10.5-10.5c3.6,1.1,7.6,0.1,10.3-2.6C470.9,327.4,471.9,322.9,470.4,319.1"
			/>
		<path class="st0" d="M440.4,343.4c-0.9-0.9-0.9-2.5,0-3.4l-1.7-1.7c-1.9,1.9-1.9,5,0,6.8c0.9,0.9,2.2,1.4,3.4,1.4
			c1.2,0,2.5-0.5,3.4-1.4l-1.7-1.7C442.8,344.3,441.3,344.3,440.4,343.4"/>
	</g>
	<g>
		<polygon class="st0" points="652.4,522.8 623.4,522.8 623.4,488.9 652.4,488.9 652.4,496.2 654.8,496.2 654.8,486.5 621,486.5 
			621,525.2 654.8,525.2 654.8,515.5 652.4,515.5 		"/>
		<polygon class="st0" points="655.7,498.9 654,500.6 658,504.7 637.9,504.7 637.9,507.1 658,507.1 654,511.1 655.7,512.8 
			662.6,505.9 		"/>
	</g>
	<g>
		<path class="st0" d="M529.5,261.8l-2-1.3c4-6.3,10.9-10.2,18-10.2s13.9,3.9,18,10.2l-2,1.3c-3.6-5.6-9.7-9.1-15.9-9.1
			S533.2,256.2,529.5,261.8"/>
		<path class="st0" d="M545.5,227.3c-4.7,0-8.5,3.8-8.5,8.5s3.8,8.5,8.5,8.5s8.5-3.8,8.5-8.5C553.9,231.1,550.1,227.3,545.5,227.3
			 M545.5,246.6c-6,0-10.9-4.9-10.9-10.9s4.9-10.9,10.9-10.9s10.9,4.9,10.9,10.9C556.3,241.7,551.5,246.6,545.5,246.6"/>
		<rect x="557.6" y="241.8" class="st0" width="12.1" height="2.4"/>
	</g>
	<g>
		<polygon class="st0" points="334.3,44.3 334.3,78.1 342.9,78.1 342.9,75.6 336.7,75.6 336.7,46.7 377.8,46.7 377.8,75.6 
			371.7,75.6 371.7,78.1 380.2,78.1 380.2,44.3 		"/>
		<path class="st0" d="M357.3,75.6c-5.2,0-10.1,2.7-12.9,7.1l2,1.3c2.4-3.7,6.5-6,10.9-6s8.5,2.2,10.9,6l2-1.3
			C367.4,78.3,362.5,75.6,357.3,75.6"/>
	</g>
	<g>
		<path class="st0" d="M52,158.8l-1-6h26.5l-1,6l-0.9,5l-1.3,7.8h-20l-1.3-7.8L52,158.8z M51.7,142.4c0.6,0,1.1,0.1,1.6,0.4l2.2,1.1
			l-0.2-2.4c0-0.1,0-0.3,0-0.4c0-2.3,1.9-4.2,4.2-4.2c1.5,0,2.8,0.7,3.6,2l1.1,1.9l1.1-1.9c0.8-1.3,2.1-2,3.6-2
			c2.3,0,4.2,1.9,4.2,4.2c0,0.1,0,0.3,0,0.4l-0.2,2.4l2.2-1.1c0.5-0.3,1.1-0.4,1.6-0.4c2,0,3.7,1.6,3.7,3.7s-1.6,3.7-3.7,3.7h-25
			c-2,0-3.7-1.6-3.7-3.7S49.6,142.4,51.7,142.4 M83,146.1c0-3.5-2.9-6.4-6.4-6.4c-0.3,0-0.7,0-1,0.1c-0.6-3.2-3.4-5.6-6.8-5.6
			c-1.8,0-3.5,0.7-4.7,1.9c-1.3-1.2-2.9-1.9-4.7-1.9c-3.4,0-6.2,2.4-6.8,5.6c-0.3-0.1-0.7-0.1-1-0.1c-3.5,0-6.4,2.9-6.4,6.4
			c0,2.1,1.1,4,2.6,5.1l4,23.1h24.5l4-23.1C82,150.1,83,148.2,83,146.1"/>
		<path class="st0" d="M76.4,158.8c-2.7,4.1-7.3,6.6-12.2,6.6c-4.9,0-9.5-2.5-12.2-6.6l0.9,5c3.1,2.7,7.1,4.2,11.3,4.2
			s8.2-1.5,11.3-4.2L76.4,158.8z"/>
	</g>
	<g>
		<path class="st0" d="M191.2,65.4c0-0.2,0-0.3-0.1-0.5c0-0.3-0.1-0.5-0.1-0.7s-0.1-0.4-0.1-0.5c0-0.2-0.1-0.4-0.2-0.6
			c-0.1-0.2-0.1-0.4-0.2-0.6c-0.1-0.2-0.1-0.3-0.2-0.5c-0.1-0.2-0.1-0.4-0.2-0.6c0-0.1-0.1-0.2-0.1-0.2c-0.2-0.4-0.4-0.9-0.7-1.3
			c-0.1-0.1-0.2-0.3-0.3-0.4c-0.1-0.2-0.2-0.3-0.4-0.5c-0.1-0.2-0.2-0.3-0.3-0.5s-0.2-0.3-0.4-0.5c-0.1-0.2-0.3-0.3-0.4-0.5
			c-0.1-0.1-0.2-0.2-0.4-0.4s-0.4-0.4-0.6-0.6c-0.1-0.1-0.2-0.1-0.2-0.2c-0.3-0.3-0.6-0.5-1-0.7c-0.1,0-0.1-0.1-0.2-0.1
			c-0.3-0.2-0.6-0.4-0.9-0.5c-0.1-0.1-0.2-0.1-0.3-0.2c-0.3-0.1-0.5-0.3-0.8-0.4c-0.1-0.1-0.2-0.1-0.4-0.2c-0.3-0.1-0.5-0.2-0.8-0.3
			c-0.1,0-0.3-0.1-0.4-0.1c-0.1,0-0.1,0-0.2-0.1c-0.4-6.3-5.6-11.4-12.1-11.4c-4.4,0-8.5,2.4-10.6,6.3c-0.9-0.2-1.8-0.2-2.7-0.2
			c-8.7,0-15.7,7.1-15.7,15.7c0,8.7,7.1,15.7,15.7,15.7v-2.4c-7.3,0-13.3-6-13.3-13.3s6-13.3,13.3-13.3c1,0,2,0.1,3.1,0.4l1,0.2
			l0.4-0.9c1.6-3.5,5-5.7,8.8-5.7c4.9,0,9,3.7,9.6,8.5c-0.4,0-0.7-0.1-1.1-0.1c-4.8,0-9.2,2.6-11.6,6.8l2.1,1.2
			c1.9-3.4,5.6-5.5,9.5-5.5c0.7,0,1.5,0.1,2.2,0.2h0.1c0.3,0.1,0.6,0.1,0.9,0.2c0.1,0,0.2,0.1,0.3,0.1c0.2,0.1,0.5,0.2,0.7,0.3
			c0.1,0,0.2,0.1,0.3,0.1c0.2,0.1,0.4,0.2,0.6,0.3c0.1,0.1,0.2,0.1,0.3,0.2c0.2,0.1,0.4,0.2,0.6,0.4c0.1,0.1,0.2,0.1,0.3,0.2
			c0.2,0.1,0.4,0.3,0.5,0.4c0.1,0.1,0.2,0.1,0.3,0.2c0.2,0.1,0.3,0.3,0.5,0.4c0.1,0.1,0.2,0.2,0.3,0.3s0.3,0.3,0.4,0.5
			c0.2,0.2,0.3,0.4,0.5,0.6c0.1,0.1,0.2,0.3,0.3,0.4c0.1,0.2,0.2,0.3,0.3,0.5c0.1,0.1,0.1,0.2,0.2,0.3c0.1,0.2,0.2,0.3,0.3,0.5
			c0.1,0.1,0.1,0.2,0.2,0.4c0.1,0.2,0.1,0.3,0.2,0.5c0.1,0.1,0.1,0.3,0.1,0.4c0.1,0.2,0.1,0.3,0.2,0.5c0,0.2,0.1,0.3,0.1,0.5
			c0,0.2,0.1,0.3,0.1,0.5s0.1,0.4,0.1,0.6c0,0.1,0,0.3,0.1,0.4c0,0.3,0.1,0.7,0.1,1c0,6-4.9,10.9-10.9,10.9v2.4
			c7.3,0,13.3-6,13.3-13.3C191.3,66.2,191.3,65.8,191.2,65.4"/>
		<polygon class="st0" points="159,73 160.7,74.7 164.7,70.7 164.7,85.9 167.1,85.9 167.1,70.7 171.1,74.7 172.8,73 165.9,66.1 		
			"/>
		<path class="st0" d="M191.3,66.6h-2.4c0-6-4.9-10.9-10.9-10.9c-3.9,0-7.5,2.1-9.5,5.5l-2.1-1.2c2.4-4.2,6.8-6.8,11.6-6.8
			C185.3,53.3,191.3,59.3,191.3,66.6"/>
	</g>
	<g>
		<path class="st0" d="M340.3,171.2v-6.7c9.1-8.8,24.7-8.8,33.9,0v6.7H340.3z M374.2,137.3v23.9c-9.6-7.7-24.3-7.7-33.9,0v-23.9
			H374.2z M337.9,173.6h38.7v-38.7h-38.7V173.6z"/>
		<path class="st0" d="M364.5,143.3c2,0,3.6,1.6,3.6,3.6s-1.6,3.6-3.6,3.6s-3.6-1.6-3.6-3.6C360.9,145,362.5,143.3,364.5,143.3
			 M364.5,153c3.3,0,6-2.7,6-6s-2.7-6-6-6s-6,2.7-6,6S361.2,153,364.5,153"/>
		<path class="st0" d="M374.2,161.2c-9.6-7.7-24.3-7.7-33.9,0v3.2c9.1-8.8,24.7-8.8,33.9,0V161.2z"/>
	</g>
	<g>
		<path class="st0" d="M244.7,81.9v-4.4c4.4-5.7,11-8.9,18.1-8.9c7.2,0,13.7,3.3,18.1,8.9v4.4H244.7z M262.8,47.3l18.1,17v9.6
			c-4.8-4.9-11.2-7.7-18.1-7.7s-13.4,2.8-18.1,7.7v-9.6L262.8,47.3z M262.8,44l-20.6,19.3v21.1h41.1V63.3L262.8,44z"/>
		<path class="st0" d="M262.8,66.2c-6.9,0-13.4,2.8-18.1,7.7v3.7c4.4-5.7,11-8.9,18.1-8.9c7.2,0,13.7,3.3,18.1,8.9v-3.7
			C276.2,69,269.7,66.2,262.8,66.2"/>
	</g>
	<g>
		<polygon class="st0" points="178.3,262.9 143.9,262.9 143.9,240 154.1,240 154.1,242.6 146.5,242.6 146.5,260.4 175.8,260.4 
			175.8,240 178.3,240 		"/>
		<path class="st0" d="M185.7,258.5l-2.1-1.4c2.3-3.4,2.3-7.9,0-11.3l2.1-1.4C188.6,248.6,188.6,254.3,185.7,258.5"/>
		<path class="st0" d="M165,231.1c-3.2,0-5.7,2.6-5.7,5.7c0,3.2,2.6,5.7,5.7,5.7s5.7-2.6,5.7-5.7C170.7,233.7,168.1,231.1,165,231.1
			 M165,245.1c-4.6,0-8.3-3.7-8.3-8.3s3.7-8.3,8.3-8.3s8.3,3.7,8.3,8.3C173.2,241.4,169.5,245.1,165,245.1"/>
	</g>
	<g>
		<path class="st0" d="M181.1,158.5c-2.3,0-4.2,1.9-4.2,4.2v5.5c0,2.3,1.9,4.2,4.2,4.2s4.2-1.9,4.2-4.2v-5.5
			C185.2,160.4,183.4,158.5,181.1,158.5 M181.1,174.8c-3.6,0-6.6-3-6.6-6.6v-5.5c0-3.6,3-6.6,6.6-6.6s6.6,3,6.6,6.6v5.5
			C187.7,171.8,184.7,174.8,181.1,174.8"/>
		<path class="st0" d="M150.7,158.5c-2.3,0-4.2,1.9-4.2,4.2v5.5c0,2.3,1.9,4.2,4.2,4.2s4.2-1.9,4.2-4.2v-5.5
			C154.9,160.4,153,158.5,150.7,158.5 M150.7,174.8c-3.6,0-6.6-3-6.6-6.6v-5.5c0-3.6,3-6.6,6.6-6.6s6.6,3,6.6,6.6v5.5
			C157.3,171.8,154.4,174.8,150.7,174.8"/>
		<path class="st0" d="M186.4,154.2H184c0-10-8.1-18.1-18.1-18.1s-18.1,8.1-18.1,18.1h-2.4c0-11.3,9.2-20.5,20.5-20.5
			S186.4,142.9,186.4,154.2"/>
	</g>
	<g>
		<path class="st0" d="M363.6,321.6c-1.8-4.3-6.1-5.8-9.4-5.8c-3.4,0-7.6,1.5-9.4,5.8l-2.3-1c1.9-4.5,6.4-7.3,11.7-7.3
			c5.3,0,9.8,2.8,11.7,7.3L363.6,321.6z"/>
		<path class="st0" d="M348.6,345.9c-9,0-9.9-9.7-9.9-23.6h31c0,9.6,0.1,19.2,3.6,23.6H348.6z M368.4,350.9h-29.8v-8.8
			c1.8,3.8,4.8,6.4,9.9,6.4h19.9V350.9z M378.4,345.9c-6.2,0-6.2-13.2-6.2-24.8v-1.2h-36v1.2v32.3H371v-5h7.5L378.4,345.9
			L378.4,345.9z"/>
		<polygon class="st0" points="352.3,331 354.8,331 354.8,341 357.3,341 357.3,328.6 352.3,328.6 		"/>
	</g>
	<g>
		<path class="st0" d="M455.4,514.4c-0.4,0.2-0.8,0.4-1.3,0.4s-0.9-0.1-1.3-0.4c-0.8-0.4-1.3-1.2-1.3-2.2c0-0.9,0.5-1.7,1.3-2.2
			c0.4-0.2,0.8-0.4,1.3-0.4s0.9,0.1,1.3,0.4c0.8,0.4,1.3,1.2,1.3,2.2C456.7,513.1,456.2,513.9,455.4,514.4 M455.4,507.3v-17.9h-2.5
			v17.9c-2.2,0.6-3.8,2.5-3.8,4.9s1.6,4.3,3.8,4.9v5.2h2.5v-5.2c2.2-0.6,3.8-2.5,3.8-4.9C459.2,509.8,457.6,507.9,455.4,507.3"/>
		<path class="st0" d="M470.6,508.1c-0.4,0.2-0.8,0.4-1.3,0.4s-0.9-0.1-1.3-0.4c-0.8-0.4-1.3-1.2-1.3-2.2c0-0.9,0.5-1.7,1.3-2.2
			c0.4-0.2,0.8-0.4,1.3-0.4s0.9,0.1,1.3,0.4c0.8,0.4,1.3,1.2,1.3,2.2C471.9,506.8,471.4,507.6,470.6,508.1 M470.6,501v-11.6h-2.5
			V501c-2.2,0.6-3.8,2.5-3.8,4.9s1.6,4.3,3.8,4.9v11.6h2.5v-11.6c2.2-0.6,3.8-2.5,3.8-4.9C474.4,503.5,472.8,501.5,470.6,501"/>
		<path class="st0" d="M440.2,500.4c-0.4,0.2-0.8,0.4-1.3,0.4s-0.9-0.1-1.3-0.4c-0.8-0.4-1.3-1.2-1.3-2.2c0-0.9,0.5-1.7,1.3-2.2
			c0.4-0.2,0.8-0.4,1.3-0.4s0.9,0.1,1.3,0.4c0.8,0.4,1.3,1.2,1.3,2.2C441.5,499.2,441,500,440.2,500.4 M440.2,493.4v-4h-2.5v4
			c-2.2,0.6-3.8,2.5-3.8,4.9s1.6,4.3,3.8,4.9v19.2h2.5v-19.2c2.2-0.6,3.8-2.5,3.8-4.9C444,495.9,442.4,493.9,440.2,493.4"/>
	</g>
	<g>
		<path class="st0" d="M371.7,513.5c-1.3,0-2.4-1.1-2.4-2.4c0-1.3,1.1-2.4,2.4-2.4s2.4,1.1,2.4,2.4
			C374.1,512.5,373.1,513.5,371.7,513.5 M342.8,517.2c-1.3,0-2.4-1.1-2.4-2.4c0-1.3,1.1-2.4,2.4-2.4s2.4,1.1,2.4,2.4
			C345.2,516.1,344.1,517.2,342.8,517.2 M342.8,488.2c0-1.3,1.1-2.4,2.4-2.4s2.4,1.1,2.4,2.4s-1.1,2.4-2.4,2.4
			C343.9,490.7,342.8,489.6,342.8,488.2 M368.1,489.4c1.3,0,2.4,1.1,2.4,2.4s-1.1,2.4-2.4,2.4s-2.4-1.1-2.4-2.4
			S366.8,489.4,368.1,489.4 M371.7,506.3c-1.3,0-2.5,0.5-3.4,1.4l-6.4-3.7c0.1-0.4,0.2-0.9,0.2-1.3c0-0.9-0.2-1.7-0.7-2.4l4.3-4.3
			c0.7,0.4,1.6,0.7,2.4,0.7c2.7,0,4.8-2.2,4.8-4.8c0-2.7-2.2-4.8-4.8-4.8c-2.7,0-4.8,2.2-4.8,4.8c0,0.9,0.2,1.7,0.7,2.4l-4.3,4.3
			c-0.7-0.4-1.6-0.7-2.4-0.7c-0.7,0-1.4,0.2-2.1,0.5l-6.1-7.3c0.6-0.8,0.9-1.8,0.9-2.8c0-2.7-2.2-4.8-4.8-4.8
			c-2.7,0-4.8,2.2-4.8,4.8c0,2.7,2.2,4.8,4.8,4.8c0.7,0,1.4-0.2,2.1-0.5l6.1,7.3c-0.6,0.8-0.9,1.8-0.9,2.8c0,0.7,0.2,1.4,0.4,2
			l-7.4,6c-0.8-0.5-1.7-0.8-2.7-0.8c-2.7,0-4.8,2.2-4.8,4.8c0,2.7,2.2,4.8,4.8,4.8c2.7,0,4.8-2.2,4.8-4.8c0-0.8-0.2-1.5-0.5-2.2
			l7.3-6c0.8,0.6,1.8,0.9,2.8,0.9c1.3,0,2.5-0.5,3.4-1.4l6.4,3.7c-0.1,0.4-0.2,0.9-0.2,1.3c0,2.7,2.2,4.8,4.8,4.8
			c2.7,0,4.8-2.2,4.8-4.8C376.5,508.5,374.4,506.3,371.7,506.3"/>
	</g>
	<g>
		<path class="st0" d="M357.3,431.5c-1.3,0-2.4-1.1-2.4-2.4s1.1-2.4,2.4-2.4s2.4,1.1,2.4,2.4C359.7,430.4,358.6,431.5,357.3,431.5
			 M357.3,424.3c-2.7,0-4.8,2.2-4.8,4.8c0,2.2,1.5,4.1,3.6,4.7v8.6h2.4v-8.6c2.1-0.5,3.6-2.4,3.6-4.7
			C362.1,426.4,359.9,424.3,357.3,424.3"/>
		<path class="st0" d="M336.3,413.4l1.7,1.7c5.1-5.1,12-8,19.3-8s14.1,2.8,19.3,8l1.7-1.7c-5.6-5.6-13-8.7-21-8.7
			C349.3,404.7,341.9,407.8,336.3,413.4"/>
		<path class="st0" d="M343.2,420.3l1.7,1.7c3.3-3.3,7.7-5.1,12.4-5.1c4.7,0,9.1,1.8,12.4,5.1l1.7-1.7c-3.8-3.8-8.8-5.8-14.1-5.8
			C351.9,414.4,346.9,416.5,343.2,420.3"/>
	</g>
	<g>
		<path class="st0" d="M249.6,436.4c-3.4-3.2-5.4-8.5-2.9-13.7l15.6,15.6C257.5,441.1,252.6,439.1,249.6,436.4 M265.6,425.1
			c1.4-1.4,1.4-3.7,0-5.1s-3.7-1.4-5.1,0c-1.1,1.1-1.3,2.7-0.8,4l-4.3,4l-9.1-9.1l-0.8,1.2c-4.4,6.7-1.8,14,2.5,18.1
			c2.5,2.3,5.9,3.9,9.5,3.9c2.5,0,5.1-0.8,7.5-2.6l1.1-0.8l-9-9l4.3-3.9C262.8,426.4,264.5,426.2,265.6,425.1"/>
		<path class="st0" d="M263.1,403.2v2.4c10.2,0,16.9,6.6,16.9,16.9h2.4C282.4,411,274.6,403.2,263.1,403.2"/>
		<path class="st0" d="M263.1,410.5v2.4c5.3,0,9.6,4.3,9.6,9.6h2.4C275.1,415.9,269.7,410.5,263.1,410.5"/>
	</g>
	<g>
		<path class="st0" d="M180.4,415.2v3.9v3.6v2.1v1.9c0,6.9-11.9,13.1-14.5,14.3c-2.6-1.3-14.5-7.4-14.5-14.3v-1.9v-2.1v-3.6v-3.9
			v-5.4h28.9v5.4H180.4z M149,407.4v19.3c0,9.3,15.7,16.5,16.4,16.8l0.5,0.2l0.5-0.2c0.7-0.3,16.4-7.5,16.4-16.8v-19.3H149z"/>
		<path class="st0" d="M165.9,425.6c-5.8,0-11.5-2.6-14.5-6.6v3.6c3.6,3.3,9.1,5.4,14.5,5.4s10.9-2.1,14.5-5.4V419
			C177.4,423,171.7,425.6,165.9,425.6"/>
	</g>
</g>
</svg>
