<?xml version="1.0" encoding="utf-8"?>
<!-- Generator: Adobe Illustrator 27.3.1, SVG Export Plug-In . SVG Version: 6.00 Build 0)  -->
<svg version="1.1" id="Layer_1" xmlns="http://www.w3.org/2000/svg" xmlns:xlink="http://www.w3.org/1999/xlink" x="0px" y="0px"
	 viewBox="0 0 315.6 125.6" style="enable-background:new 0 0 315.6 125.6;" xml:space="preserve">
<style type="text/css">
	.st0{fill:#4400A3;}
	.st1{fill:#FF0000;}
</style>
<g>
	<polygon points="38.7,72.1 45.9,72.1 45.9,74.8 35.4,74.8 35.4,58.5 38.7,58.5 	"/>
	<g>
		<path d="M50.4,68.9c0,1.2,0.2,2,0.7,2.7c0.4,0.6,1.1,0.9,1.9,0.9c0.8,0,1.4-0.3,1.8-0.9c0.4-0.6,0.7-1.6,0.7-2.9
			c0-1.1-0.2-2-0.7-2.6c-0.4-0.6-1.1-0.9-1.9-0.9c-0.8,0-1.4,0.3-1.8,0.9C50.6,66.6,50.4,67.6,50.4,68.9 M47.1,68.6
			c0-1.2,0.2-2.3,0.7-3.2c0.5-0.9,1.1-1.7,2-2.2s1.9-0.8,3-0.8c1.6,0,3,0.5,4,1.5s1.6,2.4,1.7,4.1v0.8c0,1.9-0.5,3.4-1.6,4.5
			c-1,1.1-2.4,1.7-4.2,1.7s-3.2-0.6-4.2-1.7s-1.6-2.7-1.6-4.6v-0.1H47.1z"/>
		<path d="M67.5,65.7c-0.4-0.1-0.8-0.1-1.2-0.1c-1.2,0-2,0.4-2.4,1.2v8h-3.2V62.7h3.1l0.1,1.5c0.7-1.1,1.6-1.7,2.7-1.7
			c0.4,0,0.7,0,1,0.1L67.5,65.7z"/>
		<path d="M74,65.1c-0.6,0-1.2,0.2-1.6,0.7c-0.4,0.4-0.7,1.1-0.8,1.9h4.5v-0.3c0-0.7-0.2-1.3-0.6-1.7C75.3,65.3,74.7,65.1,74,65.1
			 M74.4,75.1c-1.8,0-3.2-0.5-4.4-1.6c-1.1-1.1-1.7-2.6-1.7-4.4v-0.3c0-1.2,0.2-2.3,0.7-3.3s1.1-1.7,2-2.2s1.9-0.8,3-0.8
			c1.7,0,3,0.5,3.9,1.6c1,1,1.4,2.5,1.4,4.5v1.3h-7.7c0.1,0.8,0.4,1.4,1,1.9c0.5,0.5,1.2,0.7,2,0.7c1.3,0,2.2-0.5,2.9-1.4l1.6,1.8
			c-0.5,0.7-1.1,1.2-2,1.6C76.3,74.9,75.4,75.1,74.4,75.1"/>
		<path d="M84.3,62.7l0.1,1.4c0.9-1.1,2-1.6,3.5-1.6c1.6,0,2.6,0.6,3.2,1.9c0.9-1.2,2.1-1.9,3.7-1.9c1.3,0,2.3,0.4,2.9,1.2
			s1,1.9,1,3.5V75h-3.3v-7.8c0-0.7-0.1-1.2-0.4-1.5s-0.7-0.5-1.4-0.5c-1,0-1.6,0.5-2,1.4V75h-3.2v-7.7c0-0.7-0.1-1.2-0.4-1.5
			s-0.8-0.5-1.4-0.5c-0.9,0-1.6,0.4-2,1.1V75h-3.2V62.7H84.3z"/>
		<path d="M110.3,74.8H107V62.7h3.3V74.8z M106.9,59.5c0-0.5,0.2-0.9,0.5-1.2s0.8-0.5,1.3-0.5c0.6,0,1,0.2,1.3,0.5s0.5,0.7,0.5,1.2
			s-0.2,0.9-0.5,1.2s-0.8,0.5-1.3,0.5s-1-0.2-1.3-0.5S106.9,60,106.9,59.5"/>
		<path d="M120.7,68.6c0-1.1-0.2-2-0.6-2.6s-1-0.9-1.7-0.9c-1,0-1.7,0.4-2.1,1.2v5c0.4,0.8,1.1,1.2,2.1,1.2
			C119.9,72.4,120.7,71.2,120.7,68.6 M124,68.9c0,1.9-0.4,3.4-1.3,4.5s-2,1.7-3.4,1.7c-1.2,0-2.2-0.4-3-1.3v5.7H113V62.7h3l0.1,1.2
			c0.8-0.9,1.8-1.4,3.1-1.4c1.5,0,2.7,0.6,3.5,1.7s1.2,2.6,1.2,4.6v0.1H124z"/>
		<path d="M132.6,71.5c0-0.4-0.2-0.7-0.6-0.9c-0.4-0.2-1-0.4-1.9-0.6c-2.9-0.6-4.3-1.8-4.3-3.7c0-1.1,0.4-2,1.3-2.7
			c0.9-0.7,2.1-1.1,3.5-1.1c1.5,0,2.8,0.4,3.7,1.1c0.9,0.7,1.4,1.7,1.4,2.8h-3.2c0-0.5-0.2-0.8-0.5-1.2c-0.3-0.3-0.8-0.5-1.4-0.5
			c-0.5,0-1,0.1-1.3,0.4c-0.3,0.2-0.5,0.6-0.5,0.9c0,0.4,0.2,0.7,0.5,0.9c0.3,0.2,0.9,0.4,1.7,0.6s1.5,0.3,2,0.5
			c1.7,0.6,2.6,1.7,2.6,3.3c0,1.1-0.5,2-1.4,2.7c-1,0.7-2.2,1-3.7,1c-1,0-1.9-0.2-2.7-0.5c-0.8-0.4-1.4-0.9-1.9-1.5
			c-0.4-0.6-0.7-1.3-0.7-2.1h3.1c0,0.6,0.2,1,0.6,1.3c0.4,0.3,0.9,0.5,1.6,0.5c0.6,0,1.1-0.1,1.4-0.4
			C132.4,72.2,132.6,71.8,132.6,71.5"/>
		<path d="M145.1,73.6c-0.8,1-1.9,1.5-3.3,1.5c-1.3,0-2.3-0.4-3-1.1s-1-1.8-1.1-3.3v-8h3.2v7.9c0,1.3,0.6,1.9,1.7,1.9
			c1.1,0,1.9-0.4,2.3-1.1v-8.6h3.3V75h-3.1L145.1,73.6z"/>
		<path d="M153.7,62.7l0.1,1.4c0.9-1.1,2-1.6,3.5-1.6c1.6,0,2.6,0.6,3.2,1.9c0.9-1.2,2.1-1.9,3.7-1.9c1.3,0,2.3,0.4,2.9,1.2
			c0.6,0.8,1,1.9,1,3.5V75h-3.3v-7.8c0-0.7-0.1-1.2-0.4-1.5c-0.3-0.3-0.7-0.5-1.4-0.5c-1,0-1.6,0.5-2,1.4V75h-3.2v-7.7
			c0-0.7-0.1-1.2-0.4-1.5c-0.3-0.3-0.8-0.5-1.4-0.5c-0.9,0-1.6,0.4-2,1.1V75h-3.2V62.7H153.7z"/>
		<path class="st0" d="M175.8,71.2c0,2.6,0.9,3.6,3.4,3.6h1.9v-2.4h-1.9c-0.4,0-0.6-0.3-0.6-0.7v-8h2.5v-2.4h-2.5v-3h-2.8v3H174v2.4
			h1.7v7.5H175.8z"/>
		<path class="st0" d="M198.8,73.8c0.6,0.7,1.5,1,2.8,1h2v-2.6h-2.4c-0.3,0-0.3,0-0.3-0.5V56.3H198v14.6
			C198.1,72.3,198.3,73.2,198.8,73.8"/>
		<path class="st0" d="M211.8,75.2c2.6,0,5-1.5,6.1-3.8l0.1-0.1l-2.4-1.1l-0.1,0.1c-0.8,1.4-2.1,2.2-3.8,2.2c-2.8,0-3.7-1.8-4-3.3
			h10.4v-1.4c0-2-0.6-3.7-1.6-4.9c-1.1-1.3-2.8-2-4.8-2c-1.9,0-3.7,0.7-5,2c-1.3,1.3-2,3.1-2,5.1c0,2.1,0.6,3.8,1.8,5.1
			C207.7,74.4,209.5,75.2,211.8,75.2 M207.8,66.9c0.3-2.2,1.7-3.4,3.8-3.4c1,0,1.9,0.3,2.5,0.9c0.6,0.6,1,1.5,1,2.5H207.8z"/>
		<path class="st0" d="M189.5,75.2c2.6,0,5-1.5,6.1-3.8l0.1-0.1l-2.4-1.1l-0.1,0.1c-0.8,1.4-2.1,2.2-3.8,2.2c-2.8,0-3.7-1.8-4-3.3
			h10.4v-1.4c0-2-0.6-3.7-1.6-4.9c-1.1-1.3-2.8-2-4.8-2c-1.9,0-3.7,0.7-5,2c-1.3,1.3-2,3.1-2,5.1c0,2.1,0.6,3.8,1.8,5.1
			C185.4,74.4,187.3,75.2,189.5,75.2 M185.5,66.9c0.3-2.2,1.7-3.4,3.8-3.4c1,0,1.9,0.3,2.5,0.9c0.6,0.6,1,1.5,1,2.5H185.5z"/>
		<path class="st0" d="M266.8,60.9c-2,0-3.8,1.3-4.6,3.5h-0.1c-0.6-2.2-2.2-3.5-4.4-3.5c-2,0-3.8,1.3-4.5,3.2v-2.8h-2.5v13.5h2.8
			v-6.6c0-1.3,0.3-2.5,0.9-3.3c0.6-0.9,1.6-1.3,2.8-1.3c1.6,0,2.6,1.2,2.6,3.1v8.1h2.8v-6.6c0-1.7,0.5-4.6,3.6-4.6
			c1.6,0,2.7,1.2,2.7,3.1v8.1h2.8v-8.1C271.7,63,270,60.9,266.8,60.9"/>
		<path class="st0" d="M233,65.2c-0.4-1.1-1.1-2.1-2-2.8c-1.1-0.9-2.6-1.4-4.1-1.4c-3.9,0-6.9,3.1-6.9,7.1c0,2.1,0.7,3.9,1.9,5.2
			c1.2,1.3,3,1.9,5.1,1.9c2.6,0,4.9-1.4,6-3.8l0.1-0.2l-2.5-0.9l-0.1,0.1c-0.9,1.5-1.8,2.1-3.6,2.1c-2.4,0-3.9-1.7-3.9-4.4
			c0-1.4,0.3-2.5,1-3.3c0.7-0.8,1.7-1.3,2.9-1.3c1.8,0,3,0.9,3.6,2.6L233,65.2z"/>
		<path class="st0" d="M246,68c0,2.5-2.1,4.6-4.6,4.6s-4.6-2-4.6-4.6c0-0.2,0-0.3,0-0.5h-2.6c0,0.2,0,0.3,0,0.5
			c0,3.9,3.2,7.1,7.2,7.1s7.2-3.2,7.2-7.1c0-0.2,0-0.3,0-0.5H246C246,67.6,246,67.8,246,68"/>
		<path class="st0" d="M241.4,63.4c1.7,0,3.2,0.9,4,2.2h2.9c-1-2.8-3.7-4.8-6.8-4.8c-3.2,0-5.9,2-6.8,4.8h2.9
			C238.3,64.3,239.7,63.4,241.4,63.4"/>
	</g>
	<g>
		<g>
			<path class="st1" d="M298,16.3l-281,91c-0.5,0.2-0.8,0.7-0.6,1.3c0.2,0.5,0.7,0.8,1.3,0.6l281-91c0.5-0.2,0.8-0.7,0.6-1.3
				C299.1,16.5,298.5,16.2,298,16.3"/>
		</g>
	</g>
</g>
</svg>
