<?xml version="1.0" encoding="utf-8"?>
<!-- Generator: Adobe Illustrator 27.3.1, SVG Export Plug-In . SVG Version: 6.00 Build 0)  -->
<svg version="1.1" id="Layer_1" xmlns="http://www.w3.org/2000/svg" xmlns:xlink="http://www.w3.org/1999/xlink" x="0px" y="0px"
	 viewBox="0 0 315.6 125.6" style="enable-background:new 0 0 315.6 125.6;" xml:space="preserve">
<style type="text/css">
	.st0{fill:#4400A3;}
	.st1{fill:#FF0000;}
</style>
<g>
	<g>
		<path class="st0" d="M49.7,53.3c-1,5.9,0.7,8.5,6.3,9.4l4.3,0.7l0.9-5.4L57,57.2c-0.9-0.2-1.3-0.8-1.2-1.8l3-18l5.6,0.9l0.9-5.4
			l-5.7-1l1.1-6.7l-6.3-1.1l-1.1,6.7l-3.9-0.6l-0.9,5.4l3.9,0.7L49.7,53.3z"/>
		<path class="st0" d="M100.5,67.8c1,1.7,2.9,2.8,5.9,3.3l4.5,0.8l1-5.9l-5.4-0.9c-0.6-0.1-0.7-0.1-0.5-1.1l5.7-34.6l-6.3-1.1
			l-5.5,33C99.5,64.2,99.7,66.2,100.5,67.8"/>
		<path class="st0" d="M129.3,75.7c5.9,1,11.9-1.4,15.2-6.2l0.2-0.3l-5.1-3.4l-0.2,0.3c-2.3,3-5.5,4.2-9.3,3.6
			c-6.3-1.1-7.7-5.4-7.7-9l23.3,3.9l0.5-3.2c0.7-4.5,0.1-8.5-1.9-11.6c-2.1-3.3-5.6-5.4-10.1-6.2c-4.3-0.7-8.6,0.2-12,2.6
			c-3.4,2.4-5.7,6.3-6.5,10.8c-0.8,4.6-0.1,8.8,2.1,12.1C120.3,72.6,124.2,74.9,129.3,75.7 M123.4,55.6c1.6-4.7,5.2-7,9.9-6.2
			c2.3,0.4,4.1,1.4,5.3,3.1c1.2,1.6,1.6,3.6,1.3,5.9L123.4,55.6z"/>
		<path class="st0" d="M79.2,67.4c5.9,1,11.9-1.4,15.2-6.2l0.2-0.3l-5.1-3.4l-0.2,0.3c-2.3,3-5.5,4.2-9.3,3.6
			c-6.3-1.1-7.7-5.4-7.7-9l23.3,3.9l0.5-3.2c0.7-4.5,0.1-8.5-1.9-11.6c-2.1-3.3-5.6-5.4-10.1-6.2c-4.3-0.7-8.6,0.2-12,2.6
			c-3.4,2.4-5.7,6.3-6.5,10.8c-0.8,4.6-0.1,8.8,2.1,12.1C70.3,64.2,74.2,66.5,79.2,67.4 M73.3,47.2c1.6-4.7,5.2-7,9.9-6.2
			c2.3,0.4,4.1,1.4,5.3,3.1c1.2,1.6,1.6,3.6,1.3,5.9L73.3,47.2z"/>
		<path class="st0" d="M258.6,64.4c-4.5-0.8-9,1.6-11.7,6h-0.2c-0.5-5.2-3.7-8.7-8.6-9.5c-4.6-0.8-8.9,1.4-11.3,5.6l1.1-6.4l-5.7-1
			l-5.1,30.4l6.3,1.1l2.5-14.9c0.5-3,1.6-5.5,3.2-7c1.8-1.7,4.1-2.4,6.8-1.9c3.5,0.6,5.4,3.7,4.6,7.9L237.4,93l6.3,1.1l2.5-14.9
			c0.6-3.9,2.8-10.2,9.9-9c3.7,0.6,5.5,3.7,4.8,8L258,96.5l6.3,1.1l3-18.1C268.8,70.9,265.7,65.6,258.6,64.4"/>
		<path class="st0" d="M180.9,61.3c-0.5-2.6-1.7-5.1-3.4-7.1c-2.2-2.6-5.2-4.2-8.7-4.8c-8.8-1.5-16.8,4.5-18.3,13.5
			c-0.8,4.8,0,9.1,2.3,12.4s6,5.5,10.7,6.2c6,1,11.5-1.4,14.9-6.3l0.2-0.3l-5.3-3.1l-0.2,0.2c-2.6,3.1-4.9,4-8.9,3.3
			c-5.4-0.9-8.1-5.3-7.1-11.4c0.5-3.1,1.7-5.5,3.5-7.1s4.3-2.2,7-1.8c4,0.7,6.5,3.1,7.2,7.1L180.9,61.3z"/>
		<path class="st0" d="M209.1,72.5c-0.9,5.7-6.4,9.5-12.1,8.5c-5.7-1-9.6-6.3-8.7-12c0.1-0.4,0.2-0.8,0.3-1.1l-5.9-1
			c-0.1,0.4-0.2,0.8-0.2,1.1c-1.5,8.9,4.6,17.3,13.6,18.8s17.5-4.5,19-13.4c0.1-0.4,0.1-0.8,0.1-1.2l-5.9-1
			C209.3,71.7,209.2,72.1,209.1,72.5"/>
		<path class="st0" d="M200.5,60.5c3.8,0.6,6.8,3.2,8.1,6.5l6.4,1.1c-1.1-6.7-6.4-12.2-13.6-13.4S187.5,57,184.2,63l6.4,1.1
			C193,61.3,196.7,59.8,200.5,60.5"/>
	</g>
	<g>
		<g>
			<path class="st1" d="M298,16.3l-281,91c-0.5,0.2-0.8,0.7-0.6,1.3c0.2,0.5,0.7,0.8,1.3,0.6l281-91c0.5-0.2,0.8-0.7,0.6-1.3
				C299.1,16.5,298.5,16.2,298,16.3"/>
		</g>
	</g>
</g>
</svg>
