<?xml version="1.0" encoding="utf-8"?>
<!-- Generator: Adobe Illustrator 27.3.1, SVG Export Plug-In . SVG Version: 6.00 Build 0)  -->
<svg version="1.1" id="Layer_1" xmlns="http://www.w3.org/2000/svg" xmlns:xlink="http://www.w3.org/1999/xlink" x="0px" y="0px"
	 viewBox="0 0 315.6 125.6" style="enable-background:new 0 0 315.6 125.6;" xml:space="preserve">
<style type="text/css">
	.st0{fill:#4400A3;}
	.st1{fill:#FF0000;}
</style>
<g>
	<path class="st0" d="M62.9,44.2v7.7h-5.4v14.7c0,3.2,0.1,5,0.2,5.5c0.3,0.9,1,1.4,1.9,1.4c0.7,0,1.8-0.3,3.1-0.9l0.7,7.5
		c-1.8,1-3.9,1.4-6.2,1.4c-2,0-3.6-0.5-4.8-1.4c-1.2-1-2-2.3-2.4-4.1c-0.3-1.3-0.5-4-0.5-8.1v-16h-3.6v-7.7h3.6V37l7.9-5.6v12.8
		H62.9z"/>
	<path class="st0" d="M87.6,59.3c-0.1-2.8-0.7-5-1.8-6.4c-1.1-1.4-2.5-2.1-4.1-2.1c-1.7,0-3.1,0.7-4.2,2.2c-1.2,1.5-1.7,3.6-1.7,6.3
		H87.6z M87.2,69l7.8,1.6c-1,3.6-2.7,6.4-4.9,8.1c-2.2,1.8-4.9,2.6-8.1,2.6c-4.4,0-7.8-1.5-10.2-4.4c-2.8-3.4-4.2-8.2-4.2-14.4
		c0-6.1,1.4-10.9,4.3-14.6c2.4-3.1,5.5-4.6,9.4-4.6c4.3,0,7.6,1.6,10,4.7c2.8,3.6,4.2,8.9,4.2,16v1.1H75.7c0,2.9,0.7,5.1,1.9,6.7
		c1.2,1.6,2.7,2.4,4.5,2.4C84.7,74.2,86.4,72.5,87.2,69"/>
	<rect x="103.3" y="30.4" class="st0" width="7.9" height="50.1"/>
	<g>
		<path class="st0" d="M138.5,59.3c-0.1-2.8-0.7-5-1.8-6.4s-2.5-2.1-4.1-2.1c-1.7,0-3.1,0.7-4.2,2.2c-1.2,1.5-1.7,3.6-1.7,6.3H138.5
			z M138,69l7.8,1.6c-1,3.6-2.7,6.4-4.9,8.1c-2.2,1.8-4.9,2.6-8.1,2.6c-4.4,0-7.8-1.5-10.2-4.4c-2.8-3.4-4.2-8.2-4.2-14.4
			c0-6.1,1.4-10.9,4.3-14.6c2.4-3.1,5.5-4.6,9.4-4.6c4.3,0,7.6,1.6,10,4.7c2.8,3.6,4.2,8.9,4.2,16v1.1h-19.7c0,2.9,0.7,5.1,1.9,6.7
			s2.7,2.4,4.5,2.4C135.5,74.2,137.2,72.5,138,69"/>
		<path class="st0" d="M180.1,54.9l-7.8,1.7c-0.6-3.8-2.4-5.7-5.4-5.7c-1.9,0-3.5,0.8-4.7,2.5c-1.2,1.6-1.8,4.4-1.8,8.3
			c0,4.3,0.6,7.4,1.8,9.2s2.8,2.7,4.8,2.7c1.5,0,2.7-0.5,3.7-1.5s1.6-2.8,2.1-5.4l7.8,1.6c-1.6,8.8-6.2,13.1-13.8,13.1
			c-4.9,0-8.5-1.8-10.8-5.5s-3.5-8.1-3.5-13.4c0-6.2,1.3-11,4-14.2s6.1-4.9,10.5-4.9c3.5,0,6.3,0.9,8.5,2.8
			C177.6,48,179.2,50.9,180.1,54.9"/>
		<path class="st0" d="M193.8,62.4c0,3.7,0.7,6.5,2.2,8.3c1.4,1.9,3.2,2.8,5.2,2.8s3.7-0.9,5.1-2.8c1.4-1.9,2.1-4.7,2.1-8.4
			c0-3.6-0.7-6.4-2.2-8.3c-1.4-1.9-3.2-2.8-5.2-2.8s-3.7,0.9-5.1,2.8S193.8,58.7,193.8,62.4 M185.7,61.9c0-3.6,0.7-6.8,2.1-9.7
			c1.4-2.9,3.3-5.1,5.5-6.6c2.3-1.5,4.8-2.2,7.7-2.2c4.8,0,8.5,1.9,11.3,5.6s4.1,8.1,4.1,13.2c0,3.7-0.7,7.1-2.1,10.1
			c-1.4,3-3.3,5.3-5.6,6.8s-4.8,2.3-7.6,2.3c-4.4,0-8.1-1.7-11-5.1C187.1,72.9,185.7,68.1,185.7,61.9"/>
		<path class="st0" d="M223.5,44.2h7.2v5c1.3-1.9,2.7-3.4,4.3-4.4c1.5-1,3.2-1.5,5-1.5c1.9,0,3.6,0.5,5,1.4c1.4,1,2.5,2.4,3.4,4.3
			c1.3-1.9,2.7-3.4,4.3-4.3c1.5-1,3.1-1.4,4.8-1.4c2,0,3.8,0.5,5.2,1.5c1.5,1,2.6,2.4,3.3,4.2c0.8,1.8,1.1,4.6,1.1,8.3v23.2h-7.9
			V59.7c0-3.6-0.3-6-1-7.2c-0.6-1.2-1.7-1.8-3.2-1.8c-1.8,0-3.2,0.8-4.2,2.5s-1.6,5-1.6,9.8v17.5h-7.9V60.6c0-3.9-0.2-6.5-0.6-7.6
			c-0.6-1.5-1.7-2.3-3.5-2.3c-1.2,0-2.2,0.4-3.2,1.2s-1.7,1.9-2.1,3.4c-0.4,1.5-0.6,4-0.6,7.6v17.7h-7.9L223.5,44.2L223.5,44.2z"/>
	</g>
	<g>
		<g>
			<path class="st1" d="M298,16.3l-281,91c-0.5,0.2-0.8,0.7-0.6,1.3c0.2,0.5,0.7,0.8,1.3,0.6l281-91c0.5-0.2,0.8-0.7,0.6-1.3
				C299.1,16.5,298.5,16.2,298,16.3"/>
		</g>
	</g>
</g>
</svg>
