<?xml version="1.0" encoding="utf-8"?>
<!-- Generator: Adobe Illustrator 26.5.0, SVG Export Plug-In . SVG Version: 6.00 Build 0)  -->
<svg version="1.1" id="Layer_1" xmlns="http://www.w3.org/2000/svg" xmlns:xlink="http://www.w3.org/1999/xlink" x="0px" y="0px"
	 viewBox="0 0 200 200" style="enable-background:new 0 0 200 200;" xml:space="preserve">
<style type="text/css">
	.st0{fill:#4400A3;}
	.st1{fill:none;stroke:#FF0000;stroke-width:1.407;stroke-linecap:round;stroke-linejoin:round;}
</style>
<g>
	<path class="st0" d="M28,106.7c0,4.2,1.4,5.8,5.2,5.8h2.9v-3.9h-2.9c-0.6,0-1-0.4-1-1.1V94.7h3.8v-3.9h-3.9V86h-4.3v4.8h-2.6v3.9
		H28V106.7z"/>
	<path class="st0" d="M63.3,110.9c0.8,1.1,2.2,1.6,4.2,1.6h3.1v-4.2h-3.7c-0.4,0-0.5,0-0.5-0.7l0-24.7h-4.3l0,23.5
		C62.2,108.5,62.5,109.9,63.3,110.9"/>
	<path class="st0" d="M83.2,113.1c4,0,7.7-2.4,9.4-6.1l0.1-0.2l-3.7-1.8l-0.1,0.2c-1.2,2.3-3.2,3.5-5.8,3.5c-4.3,0-5.7-2.8-6.1-5.3
		h15.9v-2.3c0-3.2-0.9-5.9-2.5-7.8c-1.7-2.1-4.3-3.1-7.4-3.1c-3,0-5.7,1.1-7.6,3.2c-2,2.1-3.1,5-3.1,8.2c0,3.3,0.9,6.1,2.7,8.1
		C76.9,111.9,79.7,113.1,83.2,113.1 M77,99.8c0.5-3.5,2.7-5.5,5.9-5.5c1.6,0,2.9,0.5,3.8,1.5c0.9,1,1.5,2.3,1.5,3.9H77z"/>
	<path class="st0" d="M49.1,113.1c4,0,7.7-2.4,9.4-6.1l0.1-0.2l-3.7-1.8l-0.1,0.2c-1.2,2.3-3.2,3.5-5.8,3.5c-4.3,0-5.7-2.8-6.1-5.3
		h15.9v-2.3c0-3.2-0.9-5.9-2.5-7.8c-1.7-2.1-4.3-3.1-7.4-3.1c-3,0-5.7,1.1-7.6,3.2c-2,2.1-3.1,5-3.1,8.2c0,3.3,0.9,6.1,2.7,8.1
		C42.8,111.9,45.7,113.1,49.1,113.1 M43,99.8c0.5-3.5,2.7-5.5,5.9-5.5c1.6,0,2.9,0.5,3.8,1.5c0.9,1,1.5,2.3,1.5,3.9H43z"/>
	<path class="st0" d="M167.6,90.2c-3.1,0-5.8,2.1-7.1,5.6h-0.1c-0.9-3.6-3.4-5.6-6.7-5.6c-3.1,0-5.8,2-6.9,5.2v-4.6h-3.9v21.7h4.3
		v-10.6c0-2.2,0.5-4,1.4-5.3c1-1.4,2.4-2.1,4.3-2.1c2.4,0,4,2,4,5v13.1h4.3v-10.6c0-2.8,0.7-7.4,5.6-7.4c2.5,0,4.1,1.9,4.1,5v13.1
		h4.3V99.6C175,93.5,172.4,90.2,167.6,90.2"/>
	<path class="st0" d="M115.7,97.1c-0.6-1.8-1.7-3.4-3.1-4.5c-1.8-1.5-3.9-2.3-6.3-2.3c-6,0-10.6,5-10.6,11.5c0,3.4,1,6.3,2.9,8.3
		c1.9,2,4.6,3.1,7.7,3.1c4.1,0,7.5-2.3,9.2-6.1l0.1-0.3l-3.8-1.5l-0.1,0.2c-1.4,2.5-2.8,3.4-5.5,3.4c-3.7,0-6-2.7-6-7.1
		c0-2.2,0.5-4,1.5-5.3c1-1.3,2.6-2,4.4-2c2.8,0,4.6,1.4,5.6,4.1L115.7,97.1z"/>
	<path class="st0" d="M135.7,101.5c0,4-3.2,7.3-7.1,7.3c-3.9,0-7.1-3.3-7.1-7.3c0-0.3,0-0.6,0-0.8h-4c0,0.3,0,0.5,0,0.8
		c0,6.3,5,11.5,11.1,11.5c6.1,0,11.1-5.1,11.1-11.5c0-0.3,0-0.5,0-0.8h-4C135.7,101,135.7,101.3,135.7,101.5"/>
	<path class="st0" d="M128.6,94.2c2.6,0,4.9,1.4,6.1,3.6h4.4c-1.5-4.5-5.6-7.7-10.5-7.7c-4.8,0-9,3.2-10.5,7.7h4.4
		C123.8,95.7,126.1,94.2,128.6,94.2"/>
</g>
<line class="st1" x1="196.2" y1="3.7" x2="4.2" y2="195.7"/>
</svg>
