<?xml version="1.0" encoding="utf-8"?>
<!-- Generator: Adobe Illustrator 26.5.0, SVG Export Plug-In . SVG Version: 6.00 Build 0)  -->
<svg version="1.1" id="Layer_1" xmlns="http://www.w3.org/2000/svg" xmlns:xlink="http://www.w3.org/1999/xlink" x="0px" y="0px"
	 viewBox="0 0 800 334" style="enable-background:new 0 0 800 334;" xml:space="preserve">
<style type="text/css">
	.st0{fill:#E5D6E7;}
	.st1{fill:none;stroke:#10002F;stroke-width:0.9435;}
	.st2{fill:none;stroke:#10002F;stroke-width:0.9435;stroke-dasharray:15.2746,15.2746;}
	.st3{fill:none;stroke:#10002F;stroke-width:1.258;}
	.st4{opacity:0.1;}
	.st5{clip-path:url(#SVGID_00000029744235353391021050000006324223375209677992_);fill:#DE0CE1;}
	.st6{clip-path:url(#SVGID_00000005971436808971975510000000038291937954886825_);fill:#DE0CE1;}
	.st7{clip-path:url(#SVGID_00000170968173584928171180000013097507540687671477_);fill:#DE0CE1;}
	.st8{clip-path:url(#SVGID_00000028294219701893573080000013192007688575583873_);fill:#DE0CE1;}
	.st9{fill:#4400A3;}
</style>
<g>
	<g>
		<path class="st0" d="M737.4,168.3c0,13.7-11.1,24.8-24.8,24.8c-13.7,0-24.8-11.1-24.8-24.8c0-13.7,11.1-24.8,24.8-24.8
			C726.3,143.5,737.4,154.6,737.4,168.3 M712.7,127.3c-22.6,0-41,18.4-41,41c0,22.6,18.4,41,41,41c22.6,0,41-18.4,41-41
			C753.7,145.7,735.3,127.3,712.7,127.3"/>
		<path class="st0" d="M424.3,87.4c0,13.7-11.1,24.8-24.8,24.8c-13.7,0-24.8-11.1-24.8-24.8c0-13.7,11.1-24.8,24.8-24.8
			C413.2,62.7,424.3,73.8,424.3,87.4 M399.5,46.5c-22.6,0-41,18.4-41,41c0,22.6,18.4,41,41,41c22.6,0,41-18.4,41-41
			C440.5,64.8,422.1,46.5,399.5,46.5"/>
		<path class="st0" d="M111.6,168.3c0,13.7-11.1,24.8-24.8,24.8c-13.7,0-24.8-11.1-24.8-24.8c0-13.7,11.1-24.8,24.8-24.8
			C100.5,143.5,111.6,154.6,111.6,168.3 M86.8,127.3c-22.6,0-41,18.4-41,41c0,22.6,18.4,41,41,41c22.6,0,41-18.4,41-41
			C127.8,145.7,109.4,127.3,86.8,127.3"/>
		<path class="st0" d="M424.3,250.4c0,13.7-11.1,24.8-24.8,24.8c-13.7,0-24.8-11.1-24.8-24.8c0-13.7,11.1-24.8,24.8-24.8
			C413.2,225.7,424.3,236.8,424.3,250.4 M399.5,209.4c-22.6,0-41,18.4-41,41c0,22.6,18.4,41,41,41c22.6,0,41-18.4,41-41
			C440.5,227.8,422.1,209.4,399.5,209.4"/>
	</g>
	<line class="st1" x1="753.2" y1="45.8" x2="753.2" y2="291.1"/>
	<line class="st2" x1="754.2" y1="209" x2="800" y2="209"/>
	<line class="st2" x1="754.2" y1="128.4" x2="800" y2="128.4"/>
	<line class="st1" x1="127" y1="45.2" x2="127" y2="288.9"/>
	<line class="st1" x1="671.7" y1="46.5" x2="671.7" y2="288.9"/>
	<line class="st1" x1="46.3" y1="45.2" x2="46.3" y2="290.7"/>
	<line class="st1" x1="752.5" y1="128.4" x2="46.5" y2="128.4"/>
	<line class="st2" x1="127" y1="0" x2="127" y2="45.8"/>
	<line class="st2" x1="671.7" y1="0" x2="671.7" y2="45.8"/>
	<line class="st2" x1="127" y1="288.2" x2="127" y2="334"/>
	<line class="st2" x1="671.7" y1="288.2" x2="671.7" y2="334"/>
	<line class="st3" x1="753.2" y1="45.8" x2="46.3" y2="45.8"/>
	<line class="st1" x1="752.7" y1="290.7" x2="46.3" y2="290.7"/>
	<line class="st1" x1="752.5" y1="209" x2="46.5" y2="209"/>
	<line class="st2" x1="0" y1="209" x2="45.8" y2="209"/>
	<line class="st2" x1="0" y1="128.4" x2="45.8" y2="128.4"/>
	<g class="st4">
		<g>
			<defs>
				<rect id="SVGID_1_" x="45" y="45.5" width="82.7" height="246.5"/>
			</defs>
			<clipPath id="SVGID_00000122710678010226842780000006885820871756914057_">
				<use xlink:href="#SVGID_1_"  style="overflow:visible;"/>
			</clipPath>
			
				<rect x="46.3" y="46.7" style="clip-path:url(#SVGID_00000122710678010226842780000006885820871756914057_);fill:#DE0CE1;" width="80.2" height="243.9"/>
		</g>
	</g>
	<g class="st4">
		<g>
			<defs>
				<rect id="SVGID_00000058549286298974296280000009792680621154506422_" x="125.2" y="45.5" width="548.4" height="84.5"/>
			</defs>
			<clipPath id="SVGID_00000025441502009282171880000004332273871063037615_">
				<use xlink:href="#SVGID_00000058549286298974296280000009792680621154506422_"  style="overflow:visible;"/>
			</clipPath>
			
				<rect x="126.5" y="46.7" style="clip-path:url(#SVGID_00000025441502009282171880000004332273871063037615_);fill:#DE0CE1;" width="545.9" height="82"/>
		</g>
	</g>
	<g class="st4">
		<g>
			<defs>
				<rect id="SVGID_00000067933055853690023930000005419785206695167643_" x="670.7" y="45.2" width="83.7" height="246.7"/>
			</defs>
			<clipPath id="SVGID_00000137089708086421439680000016477118056998576778_">
				<use xlink:href="#SVGID_00000067933055853690023930000005419785206695167643_"  style="overflow:visible;"/>
			</clipPath>
			
				<rect x="672" y="46.5" style="clip-path:url(#SVGID_00000137089708086421439680000016477118056998576778_);fill:#DE0CE1;" width="81.2" height="244.2"/>
		</g>
	</g>
	<g class="st4">
		<g>
			<defs>
				<rect id="SVGID_00000084495643395712502060000007699234198256718775_" x="125.2" y="208.2" width="547.8" height="84.5"/>
			</defs>
			<clipPath id="SVGID_00000044168040089130179950000003280763366301193624_">
				<use xlink:href="#SVGID_00000084495643395712502060000007699234198256718775_"  style="overflow:visible;"/>
			</clipPath>
			
				<rect x="126.5" y="209.4" style="clip-path:url(#SVGID_00000044168040089130179950000003280763366301193624_);fill:#DE0CE1;" width="545.3" height="82"/>
		</g>
	</g>
	<path class="st9" d="M156.3,113.3h-15.5l-1,17h-11.7v13.6h11.7l0.1,46.2c0,11.4,4.5,17.2,13.5,17.2h18.4v-15h-13
		c-1.8,0-2.3-0.4-2.3-3v-45.3h15.3v-13.6h-15.4V113.3z"/>
	<path class="st9" d="M234.9,162.5h-39.4c1.7-12.3,8.6-18.2,20.9-18.2C226.9,144.3,234.3,151.6,234.9,162.5 M216.1,128.1
		c-10.3,0-19.9,4.1-27,11.6c-7.1,7.5-11.1,17.9-11.1,29.1c0,11.6,3.7,21.6,10.6,28.9c7.2,7.5,17.2,11.5,29,11.5
		c6.2,0,12.4-1.3,17.9-3.9c5.7-2.7,10.6-6.5,14.4-11.4l0.3-0.4l-9.6-9.7l-0.5,0.6c-5.2,6.1-12.9,9.5-21,9.5c-14,0-21.8-6-23.6-18.2
		h55.6l0-0.6c0.1-5.4,0.1-7.3,0.1-10.1c0-9.9-3.3-19-9.3-25.8C235.6,132,226.6,128.1,216.1,128.1"/>
	<path class="st9" d="M356,162.5h-39.4c1.7-12.3,8.6-18.2,20.9-18.2C348,144.3,355.4,151.6,356,162.5 M337.2,128.1
		c-10.3,0-19.9,4.1-27,11.6c-7.1,7.5-11.1,17.9-11.1,29.1c0,11.6,3.7,21.6,10.6,28.9c7.2,7.5,17.2,11.5,29,11.5
		c6.2,0,12.4-1.3,17.9-3.9c5.7-2.7,10.6-6.5,14.4-11.4l0.3-0.4l-9.6-9.7l-0.5,0.6c-5.2,6.1-12.9,9.5-21,9.5c-14,0-21.8-6-23.6-18.2
		h55.6l0-0.6c0.1-5.4,0.1-7.3,0.1-10.1c0-9.9-3.3-19-9.3-25.8C356.7,132,347.7,128.1,337.2,128.1"/>
	<path class="st9" d="M280.7,191.7c-0.3-0.4-0.4-1.2-0.4-2.5v-87.1h-16.7v88c0,5.7,1.2,10,3.5,12.9c2.3,2.9,5.7,4.3,10.2,4.3h16v-15
		h-10.8C281.3,192.2,280.9,192,280.7,191.7"/>
	<path class="st9" d="M664.2,136.4c-4.5-5.4-11.1-8.3-19.2-8.3c-6.3,0-11.8,1.8-16.2,5.4c-3.8,3-6.9,7.5-9.4,13.2h-0.7
		c-3.2-12-11.5-18.5-23.3-18.5c-11.4,0-20.2,5.9-24.8,16.7h-0.6l-1.1-14.6h-14.2v77h16.7v-43c0-3.7,1.1-9.2,4.1-13.9
		c2.4-3.6,6.8-8,14.7-8c9.5,0,14.3,6.3,14.3,18.6v46.2h16.7v-43c0-4.9,1.6-10.2,4.3-14.1c2.4-3.5,6.9-7.7,14.7-7.7
		c4.6,0,8.1,1.5,10.4,4.3c2.5,3.1,3.8,7.9,3.8,14.3v46.2h16.7v-48.3C670.9,149.5,668.6,141.8,664.2,136.4"/>
	<path class="st9" d="M442.5,181.9c-4.9,7.5-12.7,11.9-21.5,11.9c-6.1,0-11.6-2.5-15.5-7c-3.9-4.5-6.1-10.9-6.1-18
		c0-7.4,2.2-13.6,6.4-18c3.7-3.9,8.7-6.1,14-6.1l0.2,0c0.1,0,0.2,0,0.3,0c2.7,0.1,15.4,1.1,20.7,13.3l13.7-6.1
		c0,0-6.4-23.8-35.5-23.8c-10.2,0-19.5,4.1-26.3,11.6c-6.8,7.5-10.5,17.9-10.5,29.4c0,23.3,15.6,40.1,37.1,40.1
		c7.4,0,14.1-1.6,19.9-4.8c6.1-3.4,11-8.4,14.7-14.9l0.3-0.5l-11.5-7.6L442.5,181.9z"/>
	<path class="st9" d="M503.1,144.2c9.3,0,17.4,5.2,21.5,12.9h17.2c-5-16.7-20.4-29-38.7-29c-18.3,0-33.8,12.2-38.7,29h17.2
		C485.7,149.4,493.8,144.2,503.1,144.2"/>
	<path class="st9" d="M527.5,168.7c0,13.5-10.9,24.5-24.4,24.5c-13.5,0-24.4-11-24.4-24.5c0-1.2,0.1-2.4,0.3-3.6h-16.1
		c-0.1,1.2-0.2,2.4-0.2,3.6c0,22.4,18.1,40.6,40.4,40.6c22.3,0,40.4-18.2,40.4-40.6c0-1.2-0.1-2.4-0.2-3.6h-16.1
		C527.4,166.3,527.5,167.5,527.5,168.7"/>
</g>
</svg>
