<?xml version="1.0" encoding="utf-8"?>
<!-- Generator: Adobe Illustrator 27.3.1, SVG Export Plug-In . SVG Version: 6.00 Build 0)  -->
<svg version="1.1" id="Layer_1" xmlns="http://www.w3.org/2000/svg" xmlns:xlink="http://www.w3.org/1999/xlink" x="0px" y="0px"
	 viewBox="0 0 315.6 125.6" style="enable-background:new 0 0 315.6 125.6;" xml:space="preserve">
<style type="text/css">
	.st0{fill:#4400A3;}
	.st1{fill:#FF0000;}
</style>
<g>
	<g>
		<path class="st0" d="M50.2,71.7c0,6.2,2.1,9,7.6,10.1c1.4,0.3,2.9,0.5,4.3,0.8v-6.4c-1.4-0.2-2.8-0.4-4.2-0.6
			c-0.9-0.1-1.4-0.9-1.4-2v-20c1.9-0.1,3.8-0.2,5.7-0.2V47c-1.9,0.2-3.8,0.4-5.7,0.5v-7.4c-2.1,0.3-4.2,0.7-6.3,1v7
			c-1.3,0.1-2.6,0.3-3.9,0.4V54c1.3-0.1,2.6-0.1,3.9-0.2C50.2,53.8,50.2,71.7,50.2,71.7z"/>
		<path class="st0" d="M102.6,85c1.3,2.4,3.3,3.7,6.3,4c1.5,0.1,3.1,0.3,4.6,0.4v-8.9c-1.8-0.1-3.6-0.2-5.5-0.3
			c-0.6,0-0.7,0-0.7-1.6c0-17,0-34-0.1-51.1c-2.1,0.2-4.3,0.4-6.4,0.7c0,15.9,0,31.8,0.1,47.6C100.9,80,101.4,83,102.6,85"/>
		<path class="st0" d="M132.3,91.9c6,0.3,11.6-4.8,14.1-13c0.1-0.2,0.1-0.4,0.2-0.5c-1.9-1.3-3.7-2.7-5.6-4
			c-0.1,0.2-0.1,0.3-0.2,0.5c-1.8,5.1-4.7,7.7-8.6,7.6c-6.4-0.3-8.5-6.5-9.1-11.9c7.9,0.2,15.8,0.3,23.8,0.4v-5.1
			c0-7.1-1.3-13.1-3.8-17.4c-2.6-4.5-6.4-6.9-11-6.7c-4.4,0.1-8.5,2.8-11.4,7.3c-3,4.6-4.6,10.8-4.6,17.6c0,7,1.4,13,4.1,17.5
			C122.9,88.8,127.2,91.6,132.3,91.9 M123.1,62.6c0.8-7.5,4-11.8,8.8-11.9c2.3,0,4.3,1.1,5.8,3.3c1.4,2.1,2.2,5.2,2.3,8.7
			C134.4,62.7,128.7,62.6,123.1,62.6"/>
		<path class="st0" d="M81.5,86.8c6,0.9,11.5-2.9,14-10.1c0.1-0.2,0.1-0.3,0.2-0.5c-1.9-1.3-3.7-2.6-5.6-3.8
			c-0.1,0.1-0.1,0.3-0.2,0.4c-1.7,4.4-4.7,6.4-8.6,6c-6.4-0.7-8.5-6-9-10.4c7.8,0.5,15.7,0.9,23.6,1.2v-4.5c0-6.3-1.3-11.7-3.7-15.4
			c-2.6-3.9-6.4-5.7-10.9-5.3c-4.4,0.4-8.4,2.8-11.3,6.5c-2.9,3.8-4.6,8.7-4.6,14c0,5.5,1.4,10.3,4,14.2
			C72.2,83.2,76.4,86,81.5,86.8 M72.4,61.9c0.8-6.1,3.9-9.8,8.7-10c2.3-0.1,4.3,0.8,5.7,2.7c1.4,1.8,2.2,4.5,2.2,7.6
			C83.5,62.1,77.9,62,72.4,61.9"/>
		<path class="st0" d="M258.3,46.5c-4.5-0.5-8.5,2.6-10.4,8.4c-0.1,0-0.1,0-0.2,0c-1.4-6.1-5-10-10-10.4c-4.6-0.4-8.6,3.1-10.2,9.2
			V45c-1.9-0.1-3.9-0.2-5.8-0.4v42.8c2.1-0.3,4.3-0.5,6.4-0.8V66.2c0-4.1,0.7-7.6,2-10c1.5-2.7,3.6-3.9,6.4-3.8
			c3.6,0.2,5.9,3.7,5.9,9v23.1c2.1-0.3,4.2-0.7,6.4-1.1v-18c0-4.7,1.1-12.6,8.2-12.2c3.7,0.2,6,3.2,6,7.8c0,6.6,0,13.2,0,19.7
			c2.1-0.4,4.2-0.9,6.3-1.3V61C269.3,52.6,265.4,47.4,258.3,46.5"/>
		<path class="st0" d="M181.1,56.8c-0.9-3.9-2.5-7.4-4.6-10.1c-2.6-3.4-5.9-5.2-9.4-5.3c-8.9-0.1-15.9,11.3-15.9,25.6
			c0,7.7,1.5,14.1,4.3,18.6s6.8,6.9,11.6,6.8c6.1-0.1,11.2-5.4,13.7-13.9c0.1-0.2,0.1-0.4,0.2-0.6c-1.9-1.1-3.8-2.1-5.7-3.2
			c-0.1,0.1-0.1,0.3-0.2,0.4c-2.1,5.5-4.2,7.5-8.2,7.6c-5.5,0.1-8.9-6-8.9-15.8c0-4.9,0.8-9,2.3-11.9c1.6-3,3.9-4.6,6.7-4.5
			c4.1,0,6.9,3.1,8.4,9.1C177.2,58.7,179.2,57.7,181.1,56.8"/>
		<path class="st0" d="M211,66c0,8.2-4.7,15.3-10.6,15.7c-5.8,0.4-10.6-6.5-10.6-15.3c0-0.6,0-1.2,0.1-1.8c-2,0-4,0-6,0.1
			c0,0.6,0,1.2,0,1.8c0,13.9,7.4,24.9,16.6,24c9.1-0.9,16.5-12.1,16.5-24.7c0-0.6,0-1.1,0-1.6c-2,0-4,0.1-6,0.1
			C210.9,64.9,211,65.5,211,66"/>
		<path class="st0" d="M200.4,50.7c3.9,0.1,7.2,3.2,9.1,7.6c2.2,0,4.4,0,6.5,0c-2.2-9-8.4-16.1-15.6-16.4
			c-7.2-0.4-13.4,6.5-15.7,16.4c2.2,0,4.4,0,6.6,0C193.1,53.7,196.5,50.7,200.4,50.7"/>
	</g>
	<g>
		<g>
			<path class="st1" d="M298,16.3l-281,91c-0.5,0.2-0.8,0.7-0.6,1.3c0.2,0.5,0.7,0.8,1.3,0.6l281-91c0.5-0.2,0.8-0.7,0.6-1.3
				C299.1,16.5,298.5,16.2,298,16.3"/>
		</g>
	</g>
</g>
</svg>
