<?xml version="1.0" encoding="utf-8"?>
<!-- Generator: Adobe Illustrator 27.3.1, SVG Export Plug-In . SVG Version: 6.00 Build 0)  -->
<svg version="1.1" id="Layer_1" xmlns="http://www.w3.org/2000/svg" xmlns:xlink="http://www.w3.org/1999/xlink" x="0px" y="0px"
	 viewBox="0 0 315.6 125.6" style="enable-background:new 0 0 315.6 125.6;" xml:space="preserve">
<style type="text/css">
	.st0{fill:none;stroke:#005EF9;stroke-linejoin:round;stroke-miterlimit:10;}
	.st1{fill:#FF0000;}
</style>
<g>
	<g>
		<path class="st0" d="M200.2,54.8c3.9,0,7.2,2.1,9.1,5.1h6.5c-2.2-6.4-8.4-11-15.6-11c-7.2,0-13.4,4.6-15.6,11h6.5
			C192.9,56.9,196.3,54.8,200.2,54.8z M210.6,64.1c0,0.4,0.1,0.8,0.1,1.2c0,5.7-4.7,10.4-10.5,10.4s-10.5-4.7-10.5-10.4
			c0-0.4,0-0.8,0.1-1.2h-6c0,0.4,0,0.8,0,1.2c0,9,7.4,16.3,16.5,16.3s16.5-7.3,16.5-16.3c0-0.4,0-0.8,0-1.2
			C216.8,64.1,210.6,64.1,210.6,64.1z M166.8,55c4.1,0,6.9,2,8.3,5.8l5.8-1.9c-0.9-2.5-2.5-4.8-4.5-6.5c-2.6-2.2-5.8-3.3-9.3-3.3
			c-8.9,0-15.8,7.2-15.8,16.3c0,4.9,1.5,9,4.3,11.9s6.8,4.4,11.5,4.4c6,0,11.1-3.2,13.6-8.7l0.2-0.4l-5.7-2.2l-0.2,0.3
			c-2.1,3.5-4.2,4.8-8.2,4.8c-5.5,0-8.9-3.9-8.9-10.1c0-3.1,0.8-5.7,2.3-7.5C161.8,56,164.1,55,166.8,55z M258.2,49.1
			c-4.6,0-8.6,3-10.5,7.9h-0.2c-1.4-5.1-5-7.9-10-7.9c-4.6,0-8.6,2.9-10.2,7.4V50h-5.8v30.9h6.4V65.7c0-3.1,0.7-5.7,2-7.5
			c1.5-2,3.6-3,6.4-3c3.6,0,5.9,2.8,5.9,7.1v18.6h6.4V65.7c0-3.9,1.1-10.5,8.3-10.5c3.7,0,6.1,2.7,6.1,7.1v18.6h6.4V62.5
			C269.3,53.9,265.3,49.1,258.2,49.1z M72.6,62.7c0.8-4.9,4-7.8,8.8-7.8c2.3,0,4.3,0.7,5.7,2.2c1.4,1.4,2.2,3.3,2.3,5.6H72.6z
			 M81.5,49.1c-4.4,0-8.4,1.6-11.4,4.6s-4.6,7.1-4.6,11.7c0,4.7,1.4,8.7,4,11.5c2.8,3.1,7,4.7,12.2,4.7c6,0,11.5-3.4,14-8.6l0.2-0.3
			l-5.6-2.5l-0.2,0.3c-1.7,3.3-4.7,5-8.6,5c-6.4,0-8.5-4-9.1-7.6h23.7v-3.2c0-4.5-1.3-8.4-3.7-11.1C89.8,50.7,86.1,49.1,81.5,49.1z
			 M123.3,62.7c0.8-4.9,4-7.8,8.8-7.8c2.3,0,4.3,0.7,5.7,2.2c1.4,1.4,2.2,3.3,2.2,5.6H123.3z M132.2,49.1c-4.4,0-8.4,1.6-11.4,4.6
			s-4.6,7.1-4.6,11.7c0,4.7,1.4,8.7,4,11.5c2.8,3.1,7,4.7,12.2,4.7c6,0,11.5-3.4,14-8.6l0.2-0.3l-5.6-2.5l-0.2,0.3
			c-1.7,3.3-4.7,5-8.6,5c-6.4,0-8.5-4-9.1-7.6h23.7v-3.2c0-4.5-1.3-8.4-3.7-11.1C140.6,50.7,136.8,49.1,132.2,49.1z M107.6,73.8
			l-0.1-35.1h-6.4l0.1,33.4c0,3,0.5,5,1.6,6.4c1.3,1.6,3.3,2.3,6.3,2.3h4.6v-6h-5.4C107.7,74.8,107.6,74.8,107.6,73.8z M56.6,43.2
			h-6.4V50h-3.9v5.5h4v17.1c0,6,2.1,8.3,7.7,8.3h4.4v-5.5h-4.2c-0.9,0-1.5-0.6-1.5-1.6V55.5h5.7V50h-5.8V43.2z"/>
	</g>
	<g>
		<g>
			<path class="st1" d="M298,16.3l-281,91c-0.5,0.2-0.8,0.7-0.6,1.3c0.2,0.5,0.7,0.8,1.3,0.6l281-91c0.5-0.2,0.8-0.7,0.6-1.3
				C299.1,16.5,298.5,16.2,298,16.3"/>
		</g>
	</g>
</g>
</svg>
