<?xml version="1.0" encoding="utf-8"?>
<!-- Generator: Adobe Illustrator 27.3.1, SVG Export Plug-In . SVG Version: 6.00 Build 0)  -->
<svg version="1.1" id="Layer_1" xmlns="http://www.w3.org/2000/svg" xmlns:xlink="http://www.w3.org/1999/xlink" x="0px" y="0px"
	 viewBox="0 0 800 334" style="enable-background:new 0 0 800 334;" xml:space="preserve">
<style type="text/css">
	.st0{fill:#FFFFFF;}
</style>
<polygon class="st0" points="468.3,228.4 468.3,247.4 331.6,247.4 331.6,228.4 330.8,228.4 330.8,267.2 331.6,267.2 331.6,248.2 
	468.3,248.2 468.3,267.2 469.1,267.2 469.1,228.4 "/>
<g>
	<g>
		<g>
			<path class="st0" d="M338.4,153.6h-3.9l-0.2,4.3h-3v3.4h2.9V173c0,2.9,1.1,4.3,3.4,4.3h4.6v-3.8H339c-0.5,0-0.6-0.1-0.6-0.8
				v-11.5h3.9v-3.4h-3.9V153.6z"/>
			<path class="st0" d="M353.5,157.4c-2.6,0-5.1,1-6.8,2.9c-1.8,1.9-2.8,4.5-2.8,7.4s0.9,5.5,2.7,7.3c1.8,1.9,4.3,2.9,7.3,2.9
				c1.6,0,3.1-0.3,4.5-1s2.7-1.6,3.6-2.9l0.1-0.1l-2.4-2.5l-0.1,0.2c-1.3,1.5-3.3,2.4-5.3,2.4c-3.5,0-5.5-1.5-6-4.6h14.1v-0.2
				c0-1.4,0-1.8,0-2.6c0-2.5-0.8-4.8-2.4-6.5C358.4,158.3,356.2,157.4,353.5,157.4z M348.3,166c0.4-3.1,2.2-4.6,5.3-4.6
				c2.7,0,4.6,1.8,4.7,4.6H348.3z"/>
			<path class="st0" d="M384.2,157.4c-2.6,0-5.1,1-6.8,2.9c-1.8,1.9-2.8,4.5-2.8,7.4s0.9,5.5,2.7,7.3c1.8,1.9,4.3,2.9,7.3,2.9
				c1.6,0,3.1-0.3,4.5-1s2.7-1.6,3.6-2.9l0.1-0.1l-2.4-2.5l-0.1,0.2c-1.3,1.5-3.3,2.4-5.3,2.4c-3.5,0-5.5-1.5-6-4.6h14v-0.2
				c0-1.4,0-1.8,0-2.6c0-2.5-0.8-4.8-2.4-6.5C389.1,158.3,386.8,157.4,384.2,157.4z M378.9,166c0.4-3.1,2.2-4.6,5.3-4.6
				c2.7,0,4.6,1.8,4.7,4.6H378.9z"/>
			<path class="st0" d="M369.9,173.4c-0.1-0.1-0.1-0.3-0.1-0.6v-22h-4.2V173c0,1.4,0.3,2.5,0.9,3.3c0.6,0.7,1.4,1.1,2.6,1.1h4.1
				v-3.8h-2.7C370,173.6,369.9,173.5,369.9,173.4z"/>
			<path class="st0" d="M466.9,159.4c-1.1-1.4-2.8-2.1-4.9-2.1c-1.6,0-3,0.5-4.1,1.4c-1,0.8-1.8,1.9-2.4,3.3h-0.2
				c-0.8-3-2.9-4.7-5.9-4.7c-2.9,0-5.1,1.5-6.3,4.2h-0.2l-0.3-3.7H439v19.5h4.2v-10.9c0-0.9,0.3-2.3,1-3.5c0.6-0.9,1.7-2,3.7-2
				c2.4,0,3.6,1.6,3.6,4.7v11.7h4.2v-10.9c0-1.2,0.4-2.6,1.1-3.6c0.6-0.9,1.8-2,3.7-2c1.1,0,2,0.4,2.6,1.1c0.6,0.8,1,2,1,3.6v11.7
				h4.2V165C468.6,162.7,468,160.8,466.9,159.4z"/>
			<path class="st0" d="M405.1,161.5L405.1,161.5h0.1c0.7,0,3.9,0.3,5.2,3.4l3.5-1.5c0,0-1.6-6-9-6c-2.6,0-5,1-6.7,3
				c-1.7,1.9-2.7,4.5-2.7,7.4c0,5.9,3.9,10.2,9.4,10.2c1.9,0,3.6-0.4,5.1-1.2c1.5-0.9,2.8-2.1,3.7-3.8l0.1-0.1l-2.9-1.9l-0.1,0.2
				c-1.2,1.9-3.2,3-5.5,3c-1.5,0-3-0.6-3.9-1.8c-1-1.1-1.5-2.8-1.5-4.6c0-1.9,0.6-3.4,1.6-4.6C402.4,162.1,403.7,161.5,405.1,161.5z
				"/>
			<path class="st0" d="M426.1,161.4c2.3,0,4.4,1.3,5.5,3.3h4.3c-1.3-4.2-5.2-7.3-9.8-7.3s-8.5,3.1-9.8,7.3h4.4
				C421.7,162.7,423.8,161.4,426.1,161.4z"/>
			<path class="st0" d="M432.3,166.7c0,0.3,0.1,0.6,0.1,0.9c0,3.4-2.8,6.2-6.2,6.2c-3.4,0-6.2-2.8-6.2-6.2c0-0.3,0-0.6,0.1-0.9H416
				c0,0.3,0,0.6,0,0.9c0,5.7,4.6,10.3,10.2,10.3s10.2-4.6,10.2-10.3c0-0.3,0-0.6,0-0.9H432.3z"/>
		</g>
	</g>
</g>
</svg>
