<?xml version="1.0" encoding="utf-8"?>
<!-- Generator: Adobe Illustrator 26.5.0, SVG Export Plug-In . SVG Version: 6.00 Build 0)  -->
<svg version="1.1" id="Layer_1" xmlns="http://www.w3.org/2000/svg" xmlns:xlink="http://www.w3.org/1999/xlink" x="0px" y="0px"
	 viewBox="0 0 799.2 570" style="enable-background:new 0 0 799.2 570;" xml:space="preserve">
<style type="text/css">
	.st0{fill:#FFFFFF;}
</style>
<g>
	<g>
		<path class="st0" d="M345.2,487.2c-0.9,0-1.7,0.8-1.7,1.7s0.8,1.7,1.7,1.7c0.9,0,1.7-0.8,1.7-1.7S346.2,487.2,345.2,487.2
			 M368.1,490.8c-0.9,0-1.7,0.8-1.7,1.7c0,0.9,0.8,1.7,1.7,1.7s1.7-0.8,1.7-1.7C369.8,491.6,369.1,490.8,368.1,490.8 M371.7,510.1
			c-0.9,0-1.7,0.8-1.7,1.7c0,0.9,0.8,1.7,1.7,1.7s1.7-0.8,1.7-1.7C373.4,510.9,372.7,510.1,371.7,510.1 M342.8,513.7
			c-0.9,0-1.7,0.8-1.7,1.7c0,0.9,0.8,1.7,1.7,1.7c0.9,0,1.7-0.8,1.7-1.7C344.5,514.5,343.8,513.7,342.8,513.7 M342.8,521
			c-3,0-5.5-2.5-5.5-5.5c0-3,2.5-5.5,5.5-5.5c0.9,0,1.8,0.2,2.6,0.7l6.6-5.4c-0.2-0.6-0.3-1.2-0.3-1.8c0-1,0.3-1.9,0.7-2.8l-5.4-6.5
			c-0.6,0.2-1.2,0.3-1.9,0.3c-3,0-5.5-2.5-5.5-5.5c0-3,2.5-5.5,5.5-5.5c3,0,5.5,2.5,5.5,5.5c0,1-0.3,1.9-0.7,2.8l5.4,6.5
			c0.6-0.2,1.2-0.3,1.8-0.3c0.8,0,1.6,0.2,2.3,0.5l3.5-3.5c-0.3-0.7-0.5-1.5-0.5-2.3c0-3,2.5-5.5,5.5-5.5c3,0,5.5,2.5,5.5,5.5
			c0,3-2.5,5.5-5.5,5.5c-0.8,0-1.6-0.2-2.3-0.5l-3.5,3.5c0.3,0.7,0.5,1.5,0.5,2.3c0,0.3,0,0.6-0.1,1l5.5,3.2c1-0.8,2.2-1.3,3.5-1.3
			c3,0,5.5,2.5,5.5,5.5c0,3-2.5,5.5-5.5,5.5c-3,0-5.5-2.5-5.5-5.5c0-0.3,0-0.6,0.1-1l-5.5-3.2c-1,0.8-2.2,1.3-3.5,1.3
			c-1,0-2-0.3-2.8-0.8l-6.5,5.3c0.2,0.6,0.4,1.3,0.4,2C348.3,518.5,345.9,521,342.8,521"/>
	</g>
	<g>
		<path class="st0" d="M357.3,428.1c-0.9,0-1.7,0.8-1.7,1.7c0,0.9,0.8,1.7,1.7,1.7s1.7-0.8,1.7-1.7
			C359,428.8,358.2,428.1,357.3,428.1 M355.4,443.7V435c-2.2-0.8-3.6-2.8-3.6-5.2c0-3,2.5-5.5,5.5-5.5c3,0,5.5,2.5,5.5,5.5
			c0,2.3-1.5,4.4-3.6,5.2v8.8H355.4z"/>
		<path class="st0" d="M376,416.3c-5-5-11.7-7.8-18.8-7.8c-7.1,0-13.8,2.8-18.8,7.8l-0.5,0.5l-2.7-2.7l0.5-0.5
			c5.7-5.7,13.4-8.9,21.5-8.9c8.1,0,15.7,3.2,21.5,8.9l0.5,0.5l-2.7,2.7L376,416.3z"/>
		<path class="st0" d="M369.2,423.2c-3.2-3.2-7.4-4.9-11.9-4.9s-8.7,1.8-11.9,4.9l-0.5,0.5l-2.7-2.7l0.5-0.5
			c3.9-3.9,9.1-6.1,14.6-6.1c5.5,0,10.7,2.1,14.6,6.1l0.5,0.5l-2.7,2.7L369.2,423.2z"/>
	</g>
	<g>
		<path class="st0" d="M247,424.6c-1.9,4.8,0.4,9.4,3.1,12c2.1,2,4.8,3.1,7.3,3.1c1.3,0,2.6-0.3,3.8-0.8L247,424.6z M257.5,443.4
			c-3.6,0-7.2-1.5-10-4.1c-4.5-4.2-7.2-12-2.6-19l1.3-2l9.2,9.2l3.5-3.2c-0.5-1.5-0.1-3.1,1.1-4.3c0.8-0.8,1.9-1.3,3.1-1.3
			c1.2,0,2.2,0.4,3.1,1.3c1.7,1.7,1.7,4.4,0,6.1c-0.8,0.8-1.9,1.3-3.1,1.3c-0.5,0-1.1-0.1-1.6-0.3l-3.4,3.1l9,9l-1.8,1.3
			C263,442.5,260.3,443.4,257.5,443.4"/>
		<path class="st0" d="M279.2,423.9v-0.7c0-9.8-6.3-16.2-16.2-16.2h-0.7v-3.8h0.7c11.9,0,20,8,20,20v0.7H279.2z"/>
		<path class="st0" d="M272,423.9v-0.7c0-4.9-4-8.9-8.9-8.9h-0.7v-3.8h0.7c7,0,12.7,5.7,12.7,12.7v0.7H272z"/>
	</g>
	<g>
		<path class="st0" d="M152.1,419.5c2.8,3.7,8.3,6.1,13.8,6.1s10.9-2.4,13.8-6.1v-8.3h-27.5V419.5z M152.1,427.4
			c0,6.3,10.9,12.1,13.8,13.6c2.9-1.4,13.8-7.3,13.8-13.6v-2.6c-3.7,2.9-8.8,4.6-13.8,4.6c-5,0-10-1.7-13.8-4.6V427.4z M165.1,444.8
			c-0.7-0.3-16.8-7.7-16.8-17.4v-20h35.2v20c0,9.7-16.1,17.1-16.8,17.4l-0.8,0.4L165.1,444.8z"/>
	</g>
	<g>
		<path class="st0" d="M548.6,71.2c5,0,9.8,0.9,14.4,2.8c-1.5-3.5-2.9-8.6-2.9-15.7c0-3.2-1.3-6.1-3.5-8.3c-2.3-2.2-5.3-3.3-8.5-3.2
			c-6,0.3-10.9,5.6-11,11.8c0,7-1.4,12-2.9,15.4C538.7,72.1,543.6,71.2,548.6,71.2 M567.3,80.3c-5.6-3.6-12.1-5.5-18.8-5.5
			s-13.2,1.9-18.8,5.5l-2.1-3c0,0,0.4-0.3,1-1.1c1.7-2.2,4.7-7.5,4.7-17.7c0-8.1,6.5-15.1,14.4-15.4c4.2-0.2,8.1,1.3,11.1,4.2
			c3,2.9,4.7,6.8,4.7,10.9c0,14.3,5.7,19.1,5.8,19.1L567.3,80.3z"/>
		<path class="st0" d="M548.7,86.6c-3.9,0-7.5-1.5-10.4-4.1l2.5-2.6c2.1,2,4.9,3.1,7.9,3.1s5.7-1.1,7.9-3.1l2.5,2.6
			C556.2,85.2,552.5,86.6,548.7,86.6"/>
	</g>
	<g>
		<polygon class="st0" points="380.9,79.5 371.7,79.5 371.7,75.9 377.2,75.9 377.2,48.2 337.3,48.2 337.3,75.9 342.9,75.9 
			342.9,79.5 333.7,79.5 333.7,44.5 380.9,44.5 		"/>
		<path class="st0" d="M346.9,85.2l-3.1-2c3-4.6,8-7.4,13.4-7.4c5.5,0,10.5,2.8,13.4,7.4l-3.1,2c-2.3-3.6-6.2-5.7-10.4-5.7
			C353.1,79.5,349.2,81.6,346.9,85.2"/>
	</g>
	<g>
		<polygon class="st0" points="477.7,84.2 459,84.2 459,80.6 474.1,80.6 474.1,49.1 434.2,49.1 434.2,57 430.6,57 430.6,45.5 
			477.7,45.5 		"/>
		<path class="st0" d="M453.1,84.2h-3.6c0-10.4-8.5-18.9-18.9-18.9v-3.6C443,61.7,453.1,71.8,453.1,84.2"/>
		<path class="st0" d="M445.8,84.2h-3.6c0-6.4-5.2-11.6-11.6-11.6V69C439,69,445.8,75.8,445.8,84.2"/>
		<path class="st0" d="M438.5,84.2h-3.6c0-2.4-1.9-4.3-4.3-4.3v-3.6C434.9,76.3,438.5,79.8,438.5,84.2"/>
	</g>
	<g>
		<path class="st0" d="M245.3,82.1v-3.6c4.3-5.4,10.6-8.5,17.5-8.5s13.3,3.1,17.5,8.5v3.6H245.3z M262.8,48.9l17.5,16.4v7.9
			c-4.8-4.4-10.9-6.8-17.5-6.8s-12.8,2.4-17.5,6.8v-7.9L262.8,48.9z M262.8,44l-21.2,19.8v22H284v-22L262.8,44z"/>
	</g>
	<g>
		<path class="st0" d="M54.5,55.2c-7,0-12.7,5.7-12.7,12.7c0,7,5.7,12.7,12.7,12.7h21.8c5.7,0,10.3-4.6,10.3-10.3
			c0-4.9-3.5-9.1-8.2-10.1l-1.5-0.3l0-1.7c0-5-4.1-9.1-9.1-9.1c-3.6,0-6.8,2.1-8.3,5.4l-0.6,1.4l-1.5-0.3
			C56.4,55.3,55.5,55.2,54.5,55.2 M76.3,84.2H54.5c-9,0-16.3-7.3-16.3-16.3c0-9,7.3-16.3,16.3-16.3c0.8,0,1.6,0.1,2.4,0.2
			c2.3-3.8,6.4-6.2,10.9-6.2c6.6,0,12.1,5.1,12.6,11.5c5.7,1.8,9.7,7.2,9.7,13.3C90.2,78,83.9,84.2,76.3,84.2"/>
		<path class="st0" d="M90.2,70.3h-3.6c0-5.7-4.6-10.3-10.3-10.3c-3.7,0-7.1,2-8.9,5.2l-3.2-1.8c2.5-4.4,7.1-7.1,12.1-7.1
			C83.9,56.4,90.2,62.6,90.2,70.3"/>
	</g>
	<g>
		<path class="st0" d="M560.7,509.8c-1,0.3-2.8,0.6-5.4,0.6c-2.3,0-4.2-0.6-6.1-1.1c-2.1-0.6-4.4-1.3-7.2-1.3
			c-2.3,0-4.1,0.2-5.4,0.5v-16.8c1-0.3,2.8-0.6,5.4-0.6c2.3,0,4.2,0.6,6.1,1.1c2.1,0.6,4.4,1.3,7.2,1.3c2.3,0,4.1-0.2,5.4-0.5V509.8
			z M564.3,487.6l-2.6,1.4c0,0-2,1-6.4,1c-2.3,0-4.2-0.6-6.1-1.1c-2.1-0.6-4.4-1.3-7.2-1.3c-5.4,0-7.9,1.3-8.1,1.4l-0.9,0.5v21.6
			v14.5h3.6v-13.3c1-0.3,2.8-0.7,5.4-0.7c2.3,0,4.2,0.6,6.1,1.1c2.1,0.6,4.4,1.3,7.2,1.3c5.4,0,7.9-1.3,8.1-1.4l0.9-0.5v-21.6
			L564.3,487.6z"/>
	</g>
	<g>
		<path class="st0" d="M752.6,62.7h-15.7v-6h15.7V62.7z M748.7,82.1h-11.9V66.4h11.9V82.1z M721.4,66.4h11.9v15.7h-11.9V66.4z
			 M717.5,56.7h15.7v6h-15.7V56.7z M727.8,47.6c3,0,5.4,2.4,5.4,5.4h-10.9C722.3,50.1,724.8,47.6,727.8,47.6 M742.3,47.6
			c3,0,5.4,2.4,5.4,5.4h-10.9C736.9,50.1,739.3,47.6,742.3,47.6 M756.2,53.1h-4.8c0-5-4.1-9.1-9.1-9.1c-3,0-5.6,1.4-7.3,3.7
			c-1.7-2.2-4.3-3.7-7.3-3.7c-5,0-9.1,4.1-9.1,9.1h-4.8v13.3h3.9v19.4h34.6V66.4h3.9V53.1z"/>
	</g>
	<g>
		<path class="st0" d="M340.9,171.2v-5.9c8.9-8.3,23.8-8.3,32.7,0v5.9H340.9z M373.6,138.6v22.1c-9.5-6.8-23.2-6.8-32.7,0v-22.1
			H373.6z M337.3,174.9h39.9V135h-39.9V174.9z"/>
		<path class="st0" d="M364.5,144.6c1.7,0,3,1.4,3,3c0,1.7-1.4,3-3,3c-1.7,0-3-1.4-3-3C361.5,146,362.9,144.6,364.5,144.6
			 M364.5,154.3c3.7,0,6.7-3,6.7-6.7c0-3.7-3-6.7-6.7-6.7c-3.7,0-6.7,3-6.7,6.7C357.9,151.3,360.9,154.3,364.5,154.3"/>
	</g>
	<g>
		<polygon class="st0" points="258.2,168 254.5,168 254.5,138.5 284,133.6 284,163.7 280.3,163.7 280.3,137.9 258.2,141.6 		"/>
		<path class="st0" d="M249.9,163.3c-2.6,0-4.6,2.1-4.6,4.6c0,2.6,2.1,4.6,4.6,4.6c2.6,0,4.6-2.1,4.6-4.6
			C254.5,165.4,252.5,163.3,249.9,163.3 M249.9,176.2c-4.6,0-8.3-3.7-8.3-8.3c0-4.6,3.7-8.3,8.3-8.3c4.6,0,8.3,3.7,8.3,8.3
			C258.2,172.5,254.5,176.2,249.9,176.2"/>
		<path class="st0" d="M275.7,159c-2.6,0-4.6,2.1-4.6,4.6c0,2.6,2.1,4.6,4.6,4.6s4.6-2.1,4.6-4.6C280.3,161.1,278.3,159,275.7,159
			 M275.7,171.9c-4.6,0-8.3-3.7-8.3-8.3c0-4.6,3.7-8.3,8.3-8.3s8.3,3.7,8.3,8.3C284,168.2,280.3,171.9,275.7,171.9"/>
	</g>
	<g>
		<path class="st0" d="M71.3,347.3c-2.1-1-4.6-1.5-7.1-1.5s-5,0.5-7.1,1.5l1.8-9.4c1.6,0.7,3.4,1,5.3,1c1.9,0,3.7-0.4,5.3-1
			L71.3,347.3z M53.7,324.8c0-5.8,4.7-10.5,10.5-10.5c5.8,0,10.5,4.7,10.5,10.5s-4.7,10.5-10.5,10.5
			C58.4,335.3,53.7,330.6,53.7,324.8 M78.3,324.8c0-7.8-6.3-14.1-14.1-14.1c-7.8,0-14.1,6.3-14.1,14.1c0,4.5,2.1,8.6,5.5,11.1
			l-3.8,20.4l4.1-3.8c2.2-2.1,5.1-3.1,8.4-3.1c3.3,0,6.3,1.1,8.4,3.1l4.1,3.8L72.8,336C76.2,333.4,78.3,329.3,78.3,324.8"/>
	</g>
	<g>
		<path class="st0" d="M437.9,171.2h32.5l-1.1-32.7H439L437.9,171.2z M474.2,174.9h-40l1.3-39.9h37.4L474.2,174.9z"/>
		<path class="st0" d="M454.2,154.4c-5,0-9.6-2.6-12.4-7l3.1-2c2.1,3.3,5.6,5.3,9.4,5.3s7.2-2,9.4-5.3l3.1,2
			C463.8,151.8,459.1,154.4,454.2,154.4"/>
	</g>
	<g>
		<polygon class="st0" points="733.2,492.6 733.2,516 736.9,516 736.9,492.6 744.5,500.2 747.1,497.7 735,485.6 723,497.7 
			725.6,500.2 		"/>
		<path class="st0" d="M755,514.2v1.8c0,4.3-3.5,7.9-7.9,7.9H723c-4.3,0-7.9-3.5-7.9-7.9v-1.8h-3.6v1.8c0,6.3,5.2,11.5,11.5,11.5
			h24.2c6.3,0,11.5-5.2,11.5-11.5v-1.8H755z"/>
	</g>
	<g>
		<path class="st0" d="M149.8,502.3c0-7.9,6.4-14.3,14.3-14.3c7.9,0,14.3,6.4,14.3,14.3c0,7.9-6.4,14.3-14.3,14.3
			C156.3,516.6,149.8,510.2,149.8,502.3 M185.6,521.1l-7.5-7.5c2.5-3.1,4-7,4-11.3c0-9.9-8-17.9-17.9-17.9c-9.9,0-17.9,8-17.9,17.9
			c0,9.9,8,17.9,17.9,17.9c4.3,0,8.2-1.5,11.3-4l7.5,7.5L185.6,521.1z"/>
		<polygon class="st0" points="166,496.2 162.3,496.2 162.3,500.5 158.1,500.5 158.1,504.1 162.3,504.1 162.3,508.3 166,508.3 
			166,504.1 170.2,504.1 170.2,500.5 166,500.5 		"/>
	</g>
	<g>
		<path class="st0" d="M246.7,502.3c0-7.9,6.4-14.3,14.3-14.3c7.9,0,14.3,6.4,14.3,14.3c0,7.9-6.4,14.3-14.3,14.3
			C253.2,516.6,246.7,510.2,246.7,502.3 M282.5,521.1l-7.5-7.5c2.5-3.1,4-7,4-11.3c0-9.9-8-17.9-17.9-17.9c-9.9,0-17.9,8-17.9,17.9
			c0,9.9,8,17.9,17.9,17.9c4.3,0,8.2-1.5,11.3-4l7.5,7.5L282.5,521.1z"/>
		<rect x="255" y="500.5" class="st0" width="12.1" height="3.6"/>
	</g>
	<g>
		<path class="st0" d="M627.9,241.3v5.4c0,7.7,6.2,13.9,13.9,13.9s13.9-6.2,13.9-13.9v-5.4H627.9z M641.8,264.2
			c-9.7,0-17.5-7.9-17.5-17.5v-9.1h35.1v9.1C659.3,256.4,651.5,264.2,641.8,264.2"/>
		<path class="st0" d="M652.8,234.6h-3.6v-0.5c0-4.1-3.3-7.4-7.4-7.4c-4.1,0-7.4,3.3-7.4,7.4v0.5h-3.6v-0.5c0-6.1,4.9-11,11-11
			c6.1,0,11,4.9,11,11V234.6z"/>
		<rect x="640" y="245.4" class="st0" width="3.6" height="6.6"/>
	</g>
	<g>
		<path class="st0" d="M721.1,241.3v5.4c0,7.7,6.2,13.9,13.9,13.9c7.7,0,13.9-6.2,13.9-13.9v-5.4H721.1z M735,264.2
			c-9.7,0-17.5-7.9-17.5-17.5v-9.1h35.1v9.1C752.6,256.4,744.7,264.2,735,264.2"/>
		<path class="st0" d="M727.7,234.6h-3.6v-0.5c0-6.1,4.9-11,11-11c2.6,0,5.1,1,7.2,2.9l-2.4,2.7c-1.4-1.3-3.2-2-4.9-2
			c-4.1,0-7.4,3.3-7.4,7.4V234.6z"/>
		<rect x="733.2" y="245.4" class="st0" width="3.6" height="6.6"/>
	</g>
	<g>
		<path class="st0" d="M48.1,502.3c0-7.9,6.4-14.3,14.3-14.3c7.9,0,14.3,6.4,14.3,14.3c0,7.9-6.4,14.3-14.3,14.3
			C54.5,516.6,48.1,510.2,48.1,502.3 M83.9,521.1l-7.5-7.5c2.5-3.1,4-7,4-11.3c0-9.9-8-17.9-17.9-17.9c-9.9,0-17.9,8-17.9,17.9
			c0,9.9,8,17.9,17.9,17.9c4.3,0,8.2-1.5,11.3-4l7.5,7.5L83.9,521.1z"/>
	</g>
	<g>
		<path class="st0" d="M653.3,318.5v25.1l-12.2-7.1h-5.3c-3,0-5.4-2.4-5.4-5.4c0-3,2.4-5.4,5.4-5.4h5.3L653.3,318.5z M635.7,322
			c-5,0-9.1,4.1-9.1,9.1c0,5,4.1,9.1,9.1,9.1h4.3l16.8,9.8v-37.8l-16.8,9.8H635.7z"/>
	</g>
	<g>
		<path class="st0" d="M753.6,321l-2.6,2.6c2,2,3.1,4.7,3.1,7.5c0,2.8-1.1,5.5-3.1,7.5l2.6,2.6c2.7-2.7,4.2-6.2,4.2-10
			S756.3,323.7,753.6,321"/>
		<path class="st0" d="M745.5,326.7c1.2,1.2,1.8,2.7,1.8,4.4c0,1.7-0.6,3.2-1.8,4.4l2.6,2.6c1.9-1.9,2.9-4.3,2.9-7
			c0-2.6-1-5.1-2.9-7L745.5,326.7z"/>
		<path class="st0" d="M738.9,318.5v25.1l-12.2-7.1h-5.3c-3,0-5.4-2.4-5.4-5.4c0-3,2.4-5.4,5.4-5.4h5.3L738.9,318.5z M721.4,322
			c-5,0-9.1,4.1-9.1,9.1c0,5,4.1,9.1,9.1,9.1h4.3l16.8,9.8v-37.8l-16.8,9.8H721.4z"/>
	</g>
	<g>
		<path class="st0" d="M47.8,260.3h32.7v-20.6h-7.6l-0.5-0.7c-1.9-2.6-5-4.1-8.2-4.1c-3.2,0-6.3,1.5-8.2,4.1l-0.5,0.7h-7.6V260.3z
			 M84.1,264H44.2v-27.8h9.4c2.6-3,6.5-4.8,10.5-4.8c4,0,7.9,1.8,10.5,4.8h9.4V264z"/>
		<path class="st0" d="M72,250.1h-3.6c0-2.3-1.9-4.2-4.2-4.2c-2.3,0-4.2,1.9-4.2,4.2h-3.6c0-4.3,3.5-7.9,7.9-7.9
			C68.5,242.2,72,245.7,72,250.1"/>
	</g>
	<g>
		<path class="st0" d="M735,165.2c-6.8,0-13.1-4-16.1-10.3c3.1-6.3,9.3-10.3,16.1-10.3c6.8,0,13.1,4,16.1,10.3
			C748.1,161.2,741.9,165.2,735,165.2 M754.9,154.2c-3.5-8-11.3-13.2-19.8-13.2c-8.5,0-16.3,5.2-19.8,13.2l-0.3,0.7l0.3,0.7
			c3.5,8,11.3,13.2,19.8,13.2c8.5,0,16.3-5.2,19.8-13.2l0.3-0.7L754.9,154.2z"/>
		<path class="st0" d="M735,159.1c-2.3,0-4.2-1.9-4.2-4.2c0-2.3,1.9-4.2,4.2-4.2s4.2,1.9,4.2,4.2C739.3,157.2,737.4,159.1,735,159.1
			 M735,147c-4.3,0-7.9,3.5-7.9,7.9s3.5,7.9,7.9,7.9s7.9-3.5,7.9-7.9S739.4,147,735,147"/>
	</g>
	<g>
		<path class="st0" d="M80.5,423.9v5.9c-1.4-0.3-2.4-1.5-2.4-3C78.1,425.4,79.1,424.2,80.5,423.9 M47.8,438.3v-23h26.6h6v4.9
			c-3.4,0.3-6,3.2-6,6.6c0,3.5,2.7,6.3,6,6.6v4.9H47.8z M52.1,409.3h18.7v2.4H48.3C48.9,410.3,50.4,409.3,52.1,409.3 M74.5,411.7v-6
			H52.1c-3.7,0-6.8,2.6-7.6,6h-0.2v1.8v1.8V442h39.9v-30.2H74.5z"/>
	</g>
	<g>
		<path class="st0" d="M651.3,419.6h3.6v-13.3h-3.6V419.6z M638.6,406.3c-4.2,0-7.7,2.8-8.7,6.9l-1.1,4.9c-0.3,1.2,0,2.5,0.8,3.5
			c0.8,1,2,1.6,3.2,1.6l7.6,0l0,8c0,1.3,0.8,2.4,1.9,2.8l5.4-12.8v-14.8H638.6z M644.6,437.7h-1.2c-3.7,0-6.7-3-6.7-6.6l0-4.4l-4,0
			c-2.4,0-4.6-1.1-6.1-2.9c-1.5-1.9-2-4.3-1.5-6.6l1.1-4.9c1.3-5.7,6.4-9.7,12.2-9.7h19.9v20.6h-7.9L644.6,437.7z"/>
	</g>
	<g>
		<rect x="639.4" y="170.6" class="st0" width="4.8" height="3.6"/>
		<path class="st0" d="M638.8,142.2c0-1.7,1.4-3,3-3c1.7,0,3,1.4,3,3v13.3c0,1.7-1.4,3-3,3c-1.7,0-3-1.4-3-3V142.2z M641.9,162.2
			c3.7,0,6.7-3,6.7-6.7v-13.3c0-3.7-3-6.7-6.7-6.7s-6.7,3-6.7,6.7v13.3C635.2,159.2,638.2,162.2,641.9,162.2"/>
		<path class="st0" d="M651.1,159.8c-2.1,3.3-5.6,5.3-9.4,5.3c-3.7,0-7.2-2-9.4-5.3l-3.1,2c2.8,4.4,7.4,7,12.4,7c5,0,9.6-2.6,12.4-7
			L651.1,159.8z"/>
	</g>
	<g>
		<path class="st0" d="M735,430.1l9.7,4.8l-1.9-10.7l6.4-6.5l-9.2-0.8l-4.9-9.8l-4.9,9.8l-9.2,0.8l6.4,6.5l-1.9,10.7L735,430.1z
			 M749.6,441.4l-14.5-7.3l-14.5,7.3l2.9-16L713,414.7l14.9-1.3L735,399l7.2,14.4l14.9,1.3l-10.5,10.7L749.6,441.4z"/>
	</g>
	<g>
		<path class="st0" d="M262.8,315.8c-7.7,0-13.9,6.3-13.9,14c0,9.4,10.5,18.1,13.9,20.6c3.4-2.5,13.9-11.2,13.9-20.6
			C276.7,322.1,270.5,315.8,262.8,315.8 M262.8,354.9l-1-0.7c-0.7-0.5-16.5-11.3-16.5-24.4c0-9.7,7.9-17.7,17.5-17.7
			s17.5,7.9,17.5,17.7c0,13-15.8,23.9-16.5,24.4L262.8,354.9z"/>
		<path class="st0" d="M270.7,328.5H267c0-2.3-1.9-4.2-4.2-4.2c-2.3,0-4.2,1.9-4.2,4.2h-3.6c0-4.3,3.5-7.9,7.9-7.9
			C267.1,320.6,270.7,324.2,270.7,328.5"/>
	</g>
	<g>
		<path class="st0" d="M247.4,263.8l-3.1-2c4.2-6.5,11.2-10.5,18.5-10.5c7.2,0,14.3,4,18.5,10.5l-3.1,2c-3.5-5.5-9.4-8.8-15.4-8.8
			C256.8,255,250.9,258.4,247.4,263.8"/>
		<path class="st0" d="M262.8,229.6c-4.3,0-7.9,3.5-7.9,7.9c0,4.3,3.5,7.9,7.9,7.9c4.3,0,7.9-3.5,7.9-7.9
			C270.7,233.1,267.1,229.6,262.8,229.6 M262.8,248.9c-6.3,0-11.5-5.2-11.5-11.5c0-6.3,5.2-11.5,11.5-11.5s11.5,5.2,11.5,11.5
			C274.3,243.8,269.1,248.9,262.8,248.9"/>
	</g>
	<g>
		<path class="st0" d="M565.9,347.4h-3.6c0-16.8-13.7-30.5-30.5-30.5v-3.6C550.6,313.2,565.9,328.5,565.9,347.4"/>
		<path class="st0" d="M555,347.8h-3.6c0-11.1-9-20.1-20.1-20.1v-3.6C544.4,324.1,555,334.7,555,347.8"/>
		<path class="st0" d="M543.6,347.4H540c0-4.6-3.7-8.3-8.3-8.3v-3.6C538.3,335.4,543.6,340.8,543.6,347.4"/>
	</g>
	<g>
		<path class="st0" d="M535.5,434.1h3.6v-13.3h-3.6V434.1z M542.7,434.1h9c4.2,0,7.7-2.8,8.7-6.9l1.1-4.9c0.3-1.2,0-2.5-0.8-3.5
			c-0.8-1-2-1.6-3.2-1.6l-7.6,0l0-8c0-1.3-0.8-2.4-1.9-2.8l-5.4,12.8V434.1z M551.7,437.7h-19.9v-20.6h7.9l6-14.5h1.2
			c3.7,0,6.7,3,6.7,6.6l0,4.4l4,0c2.4,0,4.6,1.1,6.1,2.9c1.5,1.9,2,4.3,1.5,6.6l-1.1,4.9C562.6,433.8,557.6,437.7,551.7,437.7"/>
	</g>
	<g>
		<polygon class="st0" points="164.1,321.4 164.1,334.7 176.1,340 177.5,336.7 167.7,332.3 167.7,321.4 		"/>
		<path class="st0" d="M165.9,316c7.6,0,14.3,4.8,16.7,12.1l3.4-1.1c-2.9-8.7-10.9-14.6-20.1-14.6c-9.2,0-17.2,5.8-20.1,14.6
			l3.4,1.1C151.6,320.8,158.3,316,165.9,316"/>
		<path class="st0" d="M187,332.5l0-0.3l-3.6,0.2l0,0.3c0,0.3,0,0.5,0,0.8c0,9.7-7.9,17.5-17.5,17.5s-17.5-7.9-17.5-17.5
			c0-0.3,0-0.5,0-0.8l0-0.3l-3.6-0.2l0,0.3c0,0.3,0,0.7,0,1c0,11.7,9.5,21.2,21.2,21.2s21.2-9.5,21.2-21.2
			C187.1,333.2,187,332.8,187,332.5"/>
	</g>
	<g>
		<path class="st0" d="M454.3,433.9c-1.9,0-3.8-0.4-5.6-1.2l-0.5-0.2l-7.5,1.1l1.1-7.5l-0.2-0.5c-0.8-1.8-1.2-3.7-1.2-5.6
			c0-7.7,6.2-13.9,13.9-13.9s13.9,6.2,13.9,13.9C468.2,427.7,462,433.9,454.3,433.9 M454.3,402.5c-9.7,0-17.5,7.9-17.5,17.5
			c0,2.3,0.4,4.5,1.3,6.6l-1.6,11.3l11.3-1.6c2.1,0.9,4.3,1.3,6.6,1.3c9.7,0,17.5-7.9,17.5-17.5C471.9,410.4,464,402.5,454.3,402.5"
			/>
		<rect x="452.5" y="416.4" class="st0" width="3.6" height="12.1"/>
		<path class="st0" d="M454.3,410.4c-1.3,0-2.4,1.1-2.4,2.4c0,1.3,1.1,2.4,2.4,2.4s2.4-1.1,2.4-2.4
			C456.7,411.4,455.7,410.4,454.3,410.4"/>
	</g>
	<g>
		<path class="st0" d="M363.4,251C363.4,251,363.4,251,363.4,251c2.6,1.3,5,3.1,7.1,5.2c3.3,1.5,6.3,4,8.4,7.3l3.1-2
			C377.7,255.1,370.7,251,363.4,251"/>
		<path class="st0" d="M364.7,229.4c3.7,0.6,6.6,3.8,6.6,7.8c0,3.9-2.9,7.2-6.6,7.8c-0.9,1.4-2.1,2.6-3.4,3.5
			c0.7,0.1,1.4,0.2,2.2,0.2c6.3,0,11.5-5.2,11.5-11.5s-5.2-11.5-11.5-11.5c-0.7,0-1.4,0.1-2.1,0.2
			C362.6,226.8,363.8,228,364.7,229.4"/>
		<path class="st0" d="M337.7,263.5l-3.1-2c4.2-6.5,11.2-10.5,18.5-10.5c7.2,0,14.3,4,18.5,10.5l-3.1,2c-3.5-5.5-9.4-8.8-15.4-8.8
			C347.1,254.7,341.2,258,337.7,263.5"/>
		<path class="st0" d="M353.1,229.3c-4.3,0-7.9,3.5-7.9,7.9c0,4.3,3.5,7.9,7.9,7.9c4.3,0,7.9-3.5,7.9-7.9
			C361,232.8,357.5,229.3,353.1,229.3 M353.1,248.6c-6.3,0-11.5-5.2-11.5-11.5c0-6.3,5.2-11.5,11.5-11.5s11.5,5.2,11.5,11.5
			C364.6,243.5,359.5,248.6,353.1,248.6"/>
	</g>
	<g>
		<path class="st0" d="M54.7,171.7l-1-5.6c3,2.1,6.6,3.3,10.4,3.3c3.8,0,7.4-1.2,10.4-3.3l-1,5.6H54.7z M75.8,159.2
			c-2.6,3.9-6.9,6.2-11.6,6.2c-4.7,0-9-2.3-11.6-6.2l-0.9-5.1h25L75.8,159.2z M51.6,143.7c0.5,0,0.9,0.1,1.3,0.3l2.8,1.1l0.2-3.1
			c0-0.1,0-0.2,0-0.3c0-2,1.6-3.6,3.6-3.6c1.2,0,2.4,0.6,3,1.7l1.7,1.9l1.7-1.9c0.7-1.1,1.8-1.7,3-1.7c2,0,3.6,1.6,3.6,3.6
			c0,0.1,0,0.2,0,0.3l0.2,3.1l2.7-1.1c0.4-0.2,0.9-0.3,1.3-0.3c1.7,0,3,1.3,3,3s-1.3,3-3,3H51.6c-1.7,0-3-1.3-3-3
			S49.9,143.7,51.6,143.7 M83.8,146.7c0-4.1-3.5-7.3-7.5-7.1c-0.9-3.2-3.8-5.6-7.4-5.6c-1.8,0-3.4,0.6-4.8,1.7
			c-1.3-1.1-3-1.7-4.8-1.7c-3.5,0-6.5,2.4-7.4,5.6c-0.2,0-0.3,0-0.5,0c-3.9,0-7.1,3.2-7.1,7.1c0,2.2,1.1,4.2,2.7,5.5l4,23.5h25.8
			l4-23.5C82.8,150.9,83.8,149,83.8,146.7"/>
	</g>
	<g>
		<path class="st0" d="M451.3,250.5c-7.2,0-14.3,4-18.5,10.5l3.1,2c3.5-5.5,9.4-8.8,15.4-8.8c6,0,11.9,3.4,15.4,8.8l3.1-2
			C465.6,254.5,458.5,250.5,451.3,250.5"/>
		<path class="st0" d="M451.3,228.7c4.3,0,7.9,3.5,7.9,7.9c0,4.3-3.5,7.9-7.9,7.9s-7.9-3.5-7.9-7.9
			C443.4,232.2,447,228.7,451.3,228.7 M451.3,248c6.3,0,11.5-5.2,11.5-11.5c0-6.3-5.2-11.5-11.5-11.5s-11.5,5.2-11.5,11.5
			C439.8,242.9,445,248,451.3,248"/>
		<polygon class="st0" points="475.5,242 471.3,242 471.3,237.8 467.6,237.8 467.6,242 463.4,242 463.4,245.6 467.6,245.6 
			467.6,249.9 471.3,249.9 471.3,245.6 475.5,245.6 		"/>
	</g>
	<g>
		<path class="st0" d="M448.5,343.7l-2.6-2.6l11-11l1.1,0.4c2.7,1.1,5.7,0.4,7.8-1.6c1.3-1.3,2.1-3,2.2-4.8l-1.7,1.7
			c-2.1,2.1-5.6,2.1-7.7,0c-2.1-2.1-2.1-5.6,0-7.7l1.7-1.7c-1.8,0.2-3.5,0.9-4.8,2.2c-2,2-2.7,5.1-1.6,7.8l0.4,1.1l-11,11l-2.6-2.6
			l9.4-9.4c-1-3.7,0-7.7,2.8-10.5c3.1-3.1,7.9-4.2,11.8-2.6l2.6,1l-6.2,6.2c-0.7,0.7-0.7,1.9,0,2.6c0.7,0.7,1.9,0.7,2.6,0l6.2-6.2
			l1,2.6c1.6,4,0.5,8.7-2.6,11.8c-2.8,2.8-6.8,3.8-10.5,2.8L448.5,343.7z"/>
		<path class="st0" d="M442.1,347.8c-1.5,0-2.8-0.6-3.8-1.6c-1-1-1.6-2.4-1.6-3.8c0-1.5,0.6-2.8,1.6-3.8l2.6,2.6
			c-0.3,0.3-0.5,0.8-0.5,1.3c0,0.5,0.2,0.9,0.5,1.3c0.7,0.7,1.9,0.7,2.6,0l2.6,2.6C444.9,347.2,443.5,347.8,442.1,347.8"/>
	</g>
	<g>
		<polygon class="st0" points="651.7,523.5 623.9,523.5 623.9,490.8 651.7,490.8 651.7,496.3 655.3,496.3 655.3,487.2 620.2,487.2 
			620.2,527.1 655.3,527.1 655.3,518 651.7,518 		"/>
		<polygon class="st0" points="656,499.8 653.4,502.4 656.4,505.3 637.8,505.3 637.8,509 656.4,509 653.4,512 656,514.5 
			663.3,507.2 		"/>
	</g>
	<g>
		<path class="st0" d="M545.7,250.5c-7.2,0-14.3,4-18.5,10.5l3.1,2c3.5-5.5,9.4-8.8,15.4-8.8c6,0,11.9,3.4,15.4,8.8l3.1-2
			C560,254.5,552.9,250.5,545.7,250.5"/>
		<path class="st0" d="M545.7,228.7c4.3,0,7.9,3.5,7.9,7.9c0,4.3-3.5,7.9-7.9,7.9c-4.3,0-7.9-3.5-7.9-7.9
			C537.9,232.2,541.4,228.7,545.7,228.7 M545.7,248c6.3,0,11.5-5.2,11.5-11.5c0-6.3-5.2-11.5-11.5-11.5s-11.5,5.2-11.5,11.5
			C534.2,242.9,539.4,248,545.7,248"/>
		<rect x="557.8" y="242" class="st0" width="12.1" height="3.6"/>
	</g>
	<g>
		<path class="st0" d="M191.8,66.3c0-0.2,0-0.3-0.1-0.5c0-0.3-0.1-0.5-0.1-0.8c0-0.2-0.1-0.4-0.1-0.5c-0.1-0.2-0.1-0.4-0.2-0.7
			c-0.1-0.2-0.1-0.4-0.2-0.6c-0.1-0.2-0.1-0.4-0.2-0.6c-0.1-0.4-0.3-0.7-0.5-1.1c-0.1-0.2-0.2-0.3-0.2-0.5c-0.1-0.2-0.2-0.4-0.3-0.6
			c-0.1-0.2-0.2-0.3-0.3-0.5c-0.1-0.2-0.2-0.4-0.4-0.5c-0.1-0.2-0.2-0.3-0.4-0.5c-0.1-0.2-0.2-0.3-0.4-0.5c-0.2-0.2-0.4-0.4-0.5-0.6
			c-0.1-0.1-0.2-0.2-0.3-0.3c-0.3-0.3-0.6-0.6-0.9-0.8c-0.1-0.1-0.2-0.1-0.3-0.2c-0.2-0.2-0.5-0.4-0.7-0.6c-0.1-0.1-0.2-0.1-0.3-0.2
			c-0.2-0.2-0.5-0.3-0.8-0.5c-0.1-0.1-0.2-0.1-0.3-0.2c-0.3-0.2-0.6-0.3-0.9-0.4c-0.1,0-0.2-0.1-0.3-0.1c-0.4-0.2-0.8-0.3-1.2-0.4
			c-0.6-6.5-6-11.5-12.6-11.5c-4.5,0-8.7,2.4-10.9,6.2c-0.8-0.1-1.6-0.2-2.4-0.2c-9,0-16.3,7.3-16.3,16.3c0,9,7.3,16.3,16.3,16.3
			v-3.6c-7,0-12.7-5.7-12.7-12.7c0-7,5.7-12.7,12.7-12.7c1,0,1.9,0.1,2.9,0.4l1.5,0.3l0.6-1.4c1.5-3.3,4.7-5.4,8.3-5.4
			c4.4,0,8.1,3.1,8.9,7.3c-0.1,0-0.3,0-0.4,0c-5,0-9.6,2.7-12.1,7.1l3.2,1.8c1.8-3.2,5.3-5.2,8.9-5.2c0.7,0,1.4,0.1,2.1,0.2
			c0,0,0.1,0,0.1,0c0.3,0.1,0.6,0.1,0.8,0.2c0.1,0,0.2,0.1,0.2,0.1c0.2,0.1,0.5,0.2,0.7,0.2c0.1,0,0.2,0.1,0.3,0.1
			c0.2,0.1,0.4,0.2,0.6,0.3c0.1,0,0.2,0.1,0.3,0.1c0.2,0.1,0.4,0.2,0.6,0.3c0.1,0.1,0.2,0.1,0.3,0.2c0.2,0.1,0.3,0.2,0.5,0.4
			c0.1,0.1,0.2,0.1,0.3,0.2c0.2,0.1,0.3,0.3,0.5,0.4c0.1,0.1,0.2,0.2,0.2,0.2c0.1,0.1,0.3,0.3,0.4,0.4c0.1,0.1,0.2,0.2,0.2,0.3
			c0.2,0.2,0.4,0.5,0.5,0.7c0.1,0.1,0.2,0.3,0.3,0.5c0.1,0.1,0.1,0.2,0.2,0.3c0.1,0.2,0.2,0.3,0.2,0.5c0.1,0.1,0.1,0.2,0.2,0.3
			c0.1,0.2,0.1,0.3,0.2,0.5c0.1,0.1,0.1,0.3,0.1,0.4c0.1,0.2,0.1,0.3,0.2,0.5c0,0.2,0.1,0.3,0.1,0.5c0,0.1,0.1,0.3,0.1,0.5
			c0,0.2,0.1,0.4,0.1,0.6c0,0.1,0,0.2,0,0.4c0,0.3,0.1,0.6,0.1,1c0,5.7-4.6,10.3-10.3,10.3v3.6c7.7,0,13.9-6.2,13.9-13.9
			C191.9,67.1,191.9,66.7,191.8,66.3"/>
		<polygon class="st0" points="158.5,73.6 161.1,76.2 164.1,73.2 164.1,86.9 167.7,86.9 167.7,73.2 170.7,76.2 173.3,73.6 
			165.9,66.2 		"/>
	</g>
	<g>
		<path class="st0" d="M641.8,69.2c-4.1,0-7.9-2.1-10.2-5.6l2.8-1.8c1.6,2.5,4.4,4.1,7.4,4.1c3,0,5.8-1.5,7.4-4.1l2.8,1.8
			C649.7,67.1,645.9,69.2,641.8,69.2"/>
		<path class="st0" d="M623,78.8h37.5v-6.2c-3.5-0.8-6-3.8-6-7.7c0-3.9,2.5-6.9,6-7.7V51H623v6.2c3.5,0.8,6,3.8,6,7.7
			c0,3.9-2.5,6.9-6,7.7V78.8z M664.2,82.4h-44.8V69.1h1.8c2.5,0,4.2-1.7,4.2-4.2c0-2.5-1.7-4.2-4.2-4.2h-1.8V47.3h44.8v13.3h-1.8
			c-2.5,0-4.2,1.7-4.2,4.2c0,2.5,1.7,4.2,4.2,4.2h1.8V82.4z"/>
	</g>
	<g>
		<polygon class="st0" points="566.4,162.6 536.8,162.6 531.9,138.8 526.2,138.8 526.2,135.1 534.9,135.1 539.7,159 563.3,159 
			565.5,143.9 569.1,144.4 		"/>
		<path class="st0" d="M545.9,167.5c-1,0-1.8,0.8-1.8,1.8c0,1,0.8,1.8,1.8,1.8c1,0,1.8-0.8,1.8-1.8
			C547.7,168.3,546.9,167.5,545.9,167.5 M545.9,174.7c-3,0-5.4-2.4-5.4-5.4c0-3,2.4-5.4,5.4-5.4s5.4,2.4,5.4,5.4
			C551.3,172.2,548.9,174.7,545.9,174.7"/>
		<path class="st0" d="M560,167.5c-1,0-1.8,0.8-1.8,1.8c0,1,0.8,1.8,1.8,1.8c1,0,1.8-0.8,1.8-1.8C561.8,168.3,561,167.5,560,167.5
			 M560,174.7c-3,0-5.4-2.4-5.4-5.4c0-3,2.4-5.4,5.4-5.4s5.4,2.4,5.4,5.4C565.5,172.2,563,174.7,560,174.7"/>
		<path class="st0" d="M559.7,145.2c-1.8-2.6-5-4-8.8-4s-7,1.5-8.8,4l-3-2.1c2.5-3.5,6.8-5.6,11.7-5.6s9.2,2,11.7,5.6L559.7,145.2z"
			/>
	</g>
	<g>
		<polygon class="st0" points="178.4,263.4 144.3,263.4 144.3,240.4 154.7,240.4 154.7,244 148,244 148,259.8 174.7,259.8 
			174.7,240.4 178.4,240.4 		"/>
		<path class="st0" d="M185.4,259l-3-2c2-3,2-7.1,0-10.1l3-2C188.2,249.1,188.2,254.7,185.4,259"/>
		<path class="st0" d="M165,233.1c-2.7,0-4.9,2.2-4.9,4.9c0,2.7,2.2,4.9,4.9,4.9c2.7,0,4.9-2.2,4.9-4.9
			C169.9,235.2,167.7,233.1,165,233.1 M165,246.4c-4.7,0-8.5-3.8-8.5-8.5c0-4.7,3.8-8.5,8.5-8.5s8.5,3.8,8.5,8.5
			C173.5,242.6,169.7,246.4,165,246.4"/>
	</g>
	<g>
		<path class="st0" d="M181.1,160.4c-2,0-3.6,1.6-3.6,3.6v5.5c0,2,1.6,3.6,3.6,3.6s3.6-1.6,3.6-3.6V164
			C184.7,162,183.1,160.4,181.1,160.4 M181.1,176.7c-4,0-7.2-3.2-7.2-7.2V164c0-4,3.2-7.2,7.2-7.2s7.2,3.2,7.2,7.2v5.5
			C188.3,173.5,185.1,176.7,181.1,176.7"/>
		<path class="st0" d="M150.7,160.4c-2,0-3.6,1.6-3.6,3.6v5.5c0,2,1.6,3.6,3.6,3.6s3.6-1.6,3.6-3.6V164
			C154.3,162,152.7,160.4,150.7,160.4 M150.7,176.7c-4,0-7.2-3.2-7.2-7.2V164c0-4,3.2-7.2,7.2-7.2s7.2,3.2,7.2,7.2v5.5
			C157.9,173.5,154.7,176.7,150.7,176.7"/>
		<path class="st0" d="M187.1,154.3h-3.6c0-11.3-7.9-17.5-17.5-17.5s-17.5,7.9-17.5,17.5h-3.6c0-11.7,9.5-21.2,21.2-21.2
			S187.1,142.6,187.1,154.3"/>
	</g>
	<g>
		<path class="st0" d="M348.9,345.4c-8.3,0-9.2-9.2-9.3-22.3h29.8c0,8.5,0.2,17.5,3.1,22.3H348.9z M368.1,351.6h-28.6v-7.2
			c1.9,2.9,4.9,4.7,9.3,4.7h19.2V351.6z M354.5,316.5c2.3,0,5.1,0.8,7.1,2.8h-14.2C349.4,317.3,352.1,316.5,354.5,316.5
			 M378.7,345.4c-5.6,0-5.6-13.4-5.6-24.2v-1.9h-6.9c-2.2-4-6.6-6.5-11.7-6.5c-5.1,0-9.5,2.5-11.7,6.5h-6.9v1.9v34.1h36v-6.2h6.8
			V345.4z"/>
		<polygon class="st0" points="352.6,331.7 354.5,331.7 354.5,341 358.2,341 358.2,328 352.6,328 		"/>
	</g>
	<g>
		<path class="st0" d="M454.2,514.8c-1,0-1.9-0.9-1.9-1.9c0-1,0.9-1.9,1.9-1.9c1,0,1.9,0.9,1.9,1.9
			C456.1,513.9,455.2,514.8,454.2,514.8 M456.1,507.5v-17.4h-3.8v17.4c-2.2,0.8-3.8,2.9-3.8,5.4c0,2.5,1.6,4.6,3.8,5.4v4.8h3.8v-4.8
			c2.2-0.8,3.8-2.9,3.8-5.4C459.9,510.4,458.3,508.3,456.1,507.5"/>
		<path class="st0" d="M469.4,508.5c-1,0-1.9-0.9-1.9-1.9c0-1,0.9-1.9,1.9-1.9c1,0,1.9,0.9,1.9,1.9
			C471.3,507.6,470.4,508.5,469.4,508.5 M475.1,506.6c0-2.5-1.6-4.6-3.8-5.4v-11.1h-3.8v11.1c-2.2,0.8-3.8,2.9-3.8,5.4
			c0,2.5,1.6,4.6,3.8,5.4V523h3.8v-11.1C473.5,511.1,475.1,509,475.1,506.6"/>
		<path class="st0" d="M439,500.9c-1,0-1.9-0.9-1.9-1.9s0.9-1.9,1.9-1.9c1,0,1.9,0.9,1.9,1.9S440,500.9,439,500.9 M440.9,493.6v-3.5
			h-3.8v3.5c-2.2,0.8-3.8,2.9-3.8,5.4c0,2.5,1.6,4.6,3.8,5.4V523h3.8v-18.7c2.2-0.8,3.8-2.9,3.8-5.4
			C444.7,496.5,443.1,494.4,440.9,493.6"/>
	</g>
</g>
</svg>
