<?xml version="1.0" encoding="utf-8"?>
<!-- Generator: Adobe Illustrator 27.3.1, SVG Export Plug-In . SVG Version: 6.00 Build 0)  -->
<svg version="1.1" id="Layer_1" xmlns="http://www.w3.org/2000/svg" xmlns:xlink="http://www.w3.org/1999/xlink" x="0px" y="0px"
	 viewBox="0 0 579 200" style="enable-background:new 0 0 579 200;" xml:space="preserve">
<g>
	<path d="M89.6,54.5H76.9l-0.8,14h-9.6v11.2H76l0.1,38c0,9.4,3.7,14.1,11.1,14.1h15.1v-12.4H91.6c-1.5,0-1.9-0.3-1.9-2.5V79.6h12.6
		V68.4H89.6V54.5z"/>
	<path d="M138.7,66.7c-8.5,0-16.4,3.4-22.2,9.5c-5.9,6.2-9.1,14.7-9.1,23.9c0,9.5,3,17.8,8.7,23.8c5.9,6.2,14.1,9.4,23.8,9.4
		c5.1,0,10.2-1.1,14.7-3.2c4.7-2.2,8.7-5.3,11.8-9.3l0.3-0.4l-7.9-8l-0.4,0.5c-4.3,5-10.6,7.8-17.3,7.8c-11.5,0-17.9-4.9-19.4-15
		h45.7v-0.5c0.1-4.4,0.1-6,0.1-8.3c0-8.1-2.7-15.6-7.7-21.2C154.7,69.8,147.4,66.7,138.7,66.7z M121.8,94.9c1.4-10.1,7-15,17.2-15
		c8.7,0,14.8,6,15.2,15H121.8z"/>
	<path d="M238.3,66.7c-8.5,0-16.4,3.4-22.2,9.5c-5.9,6.2-9.1,14.7-9.1,23.9c0,9.5,3,17.8,8.7,23.8c5.9,6.2,14.1,9.4,23.8,9.4
		c5.1,0,10.2-1.1,14.7-3.2c4.7-2.2,8.7-5.3,11.8-9.3l0.3-0.4l-7.9-8l-0.4,0.5c-4.3,5-10.6,7.8-17.3,7.8c-11.5,0-17.9-4.9-19.4-15
		H267v-0.5c0.1-4.4,0.1-6,0.1-8.3c0-8.1-2.7-15.6-7.7-21.2C254.3,69.8,246.9,66.7,238.3,66.7z M221.3,94.9c1.4-10.1,7-15,17.2-15
		c8.7,0,14.8,6,15.2,15H221.3z"/>
	<path d="M191.9,118.9c-0.2-0.3-0.4-1-0.4-2.1V45.3h-13.7v72.3c0,4.7,1,8.2,2.8,10.6c1.9,2.4,4.7,3.6,8.4,3.6h13.2v-12.4h-8.9
		C192.3,119.4,192,119.1,191.9,118.9z"/>
	<path d="M507.1,73.5c-3.7-4.5-9.1-6.8-15.8-6.8c-5.2,0-9.7,1.5-13.3,4.4c-3.1,2.5-5.7,6.1-7.7,10.8h-0.6
		c-2.7-9.8-9.5-15.2-19.2-15.2c-9.4,0-16.6,4.9-20.3,13.7h-0.5l-0.9-12h-11.7v63.3h13.7V96.4c0-3,0.9-7.6,3.3-11.4
		c1.9-3,5.6-6.6,12.1-6.6c7.8,0,11.7,5.1,11.7,15.3v38h13.7V96.4c0-4,1.3-8.4,3.5-11.6c2-2.9,5.7-6.4,12-6.4c3.7,0,6.6,1.2,8.5,3.6
		c2.1,2.5,3.1,6.5,3.1,11.7v38h13.7V92C512.6,84.2,510.7,77.9,507.1,73.5z"/>
	<path d="M306.2,80.3h0.2h0.2c2.2,0.1,12.7,0.9,17,11l11.3-5c0,0-5.3-19.6-29.2-19.6c-8.4,0-16.1,3.4-21.6,9.6
		c-5.6,6.2-8.7,14.7-8.7,24.1c0,19.1,12.8,33,30.5,33c6.1,0,11.6-1.3,16.4-4c5-2.8,9.1-6.9,12.1-12.2l0.2-0.4l-9.5-6.3l-0.3,0.5
		c-4,6.2-10.5,9.8-17.7,9.8c-5,0-9.6-2-12.8-5.7c-3.2-3.7-5-9-5-14.8c0-6.1,1.8-11.2,5.2-14.8C297.7,82.1,301.8,80.3,306.2,80.3z"/>
	<path d="M374.6,79.9c7.6,0,14.3,4.3,17.7,10.6h14.1c-4.1-13.8-16.8-23.8-31.8-23.8s-27.7,10.1-31.8,23.8H357
		C360.3,84.2,367,79.9,374.6,79.9z"/>
	<path d="M394.5,97c0.1,1,0.2,2,0.2,3c0,11.1-9,20.1-20.1,20.1c-11.1,0-20.1-9-20.1-20.1c0-1,0.1-2,0.2-3h-13.2c-0.1,1-0.1,2-0.1,3
		c0,18.4,14.9,33.3,33.2,33.3c18.3,0,33.2-15,33.2-33.3c0-1,0-2-0.1-3H394.5z"/>
</g>
</svg>
