<?xml version="1.0" encoding="utf-8"?>
<!-- Generator: Adobe Illustrator 26.3.1, SVG Export Plug-In . SVG Version: 6.00 Build 0)  -->
<svg version="1.1" id="Layer_1" xmlns="http://www.w3.org/2000/svg" xmlns:xlink="http://www.w3.org/1999/xlink" x="0px" y="0px"
	 viewBox="0 0 520.36 126" style="enable-background:new 0 0 520.36 126;" xml:space="preserve">
<style type="text/css">
	.st0{fill:#4402A3;}
	.st1{fill:#FFFFFF;}
	.st2{fill:none;stroke:#009FE3;stroke-width:0.5;stroke-miterlimit:10;}
	.st3{fill:none;stroke:#FF06FF;stroke-width:0.5;stroke-miterlimit:10;}
	.st4{fill:none;stroke:#FF06FF;stroke-width:0.5;stroke-miterlimit:10;stroke-dasharray:2.0259,2.0259;}
</style>
<g>
	<g>
		<path d="M8.34,15.02h0.95c0.6-0.01,1.07-0.17,1.41-0.47s0.51-0.72,0.51-1.24c0-1.17-0.58-1.75-1.74-1.75
			c-0.55,0-0.98,0.16-1.31,0.47c-0.33,0.31-0.49,0.73-0.49,1.24H6.4c0-0.79,0.29-1.44,0.86-1.96c0.58-0.52,1.31-0.78,2.2-0.78
			c0.94,0,1.67,0.25,2.21,0.75s0.8,1.19,0.8,2.07c0,0.43-0.14,0.85-0.42,1.26s-0.66,0.71-1.15,0.91c0.55,0.17,0.97,0.46,1.27,0.86
			c0.3,0.4,0.45,0.89,0.45,1.47c0,0.89-0.29,1.6-0.88,2.13s-1.34,0.79-2.28,0.79s-1.69-0.25-2.28-0.76s-0.88-1.17-0.88-2h1.27
			c0,0.52,0.17,0.94,0.51,1.26c0.34,0.31,0.8,0.47,1.37,0.47c0.61,0,1.08-0.16,1.4-0.48s0.49-0.78,0.49-1.37
			c0-0.58-0.18-1.02-0.53-1.33s-0.87-0.47-1.54-0.48H8.34V15.02z"/>
		<path d="M20.6,16.36c0,1.48-0.25,2.58-0.76,3.3s-1.3,1.08-2.37,1.08c-1.06,0-1.85-0.35-2.36-1.06c-0.51-0.7-0.77-1.75-0.79-3.15
			v-1.69c0-1.46,0.25-2.55,0.76-3.26s1.3-1.07,2.38-1.07c1.07,0,1.86,0.34,2.37,1.03c0.51,0.69,0.77,1.74,0.78,3.17V16.36z
			 M19.33,14.63c0-1.07-0.15-1.85-0.45-2.34c-0.3-0.49-0.78-0.73-1.43-0.73c-0.65,0-1.12,0.24-1.42,0.73s-0.45,1.24-0.46,2.25v2.02
			c0,1.08,0.16,1.87,0.47,2.38c0.31,0.51,0.79,0.77,1.42,0.77c0.62,0,1.09-0.24,1.39-0.72s0.46-1.24,0.48-2.28V14.63z"/>
		<path d="M12.87,27.99c0,1.13-0.26,2.03-0.77,2.72s-1.21,1.03-2.09,1.03c-0.9,0-1.6-0.29-2.12-0.85v3.56H6.63V24.21h1.16l0.06,0.82
			c0.52-0.64,1.23-0.96,2.15-0.96c0.89,0,1.59,0.33,2.11,1s0.78,1.6,0.78,2.8V27.99z M11.61,27.85c0-0.83-0.18-1.49-0.53-1.98
			s-0.84-0.72-1.46-0.72c-0.77,0-1.34,0.34-1.72,1.02v3.53c0.38,0.67,0.96,1.01,1.74,1.01c0.61,0,1.09-0.24,1.45-0.72
			C11.43,29.51,11.61,28.8,11.61,27.85z"/>
		<path d="M16.86,26.91l1.64-2.7h1.48l-2.42,3.66l2.5,3.74h-1.46l-1.71-2.77l-1.71,2.77H13.7l2.5-3.74l-2.42-3.66h1.46L16.86,26.91z
			"/>
	</g>
	<g>
		<path d="M43.05,62.86h-6.52v-0.91l3.45-3.83c0.51-0.58,0.86-1.05,1.06-1.41c0.19-0.36,0.29-0.74,0.29-1.12
			c0-0.52-0.16-0.95-0.47-1.28s-0.73-0.5-1.26-0.5c-0.63,0-1.12,0.18-1.47,0.54c-0.35,0.36-0.52,0.86-0.52,1.49h-1.26
			c0-0.92,0.29-1.66,0.89-2.22s1.38-0.85,2.37-0.85c0.93,0,1.66,0.24,2.19,0.73c0.54,0.48,0.81,1.13,0.81,1.94
			c0,0.98-0.62,2.15-1.87,3.5l-2.67,2.89h5V62.86z"/>
		<path d="M50.63,58.62c0,1.48-0.25,2.58-0.76,3.3S48.58,63,47.5,63c-1.06,0-1.85-0.35-2.36-1.06c-0.51-0.7-0.77-1.75-0.79-3.15
			V57.1c0-1.46,0.25-2.55,0.76-3.26s1.3-1.07,2.38-1.07c1.07,0,1.86,0.34,2.37,1.03c0.51,0.69,0.77,1.74,0.78,3.17V58.62z
			 M49.37,56.89c0-1.07-0.15-1.85-0.45-2.34c-0.3-0.49-0.78-0.73-1.43-0.73c-0.65,0-1.12,0.24-1.42,0.73s-0.45,1.24-0.46,2.25v2.02
			c0,1.08,0.16,1.87,0.47,2.38c0.31,0.51,0.79,0.77,1.42,0.77c0.62,0,1.09-0.24,1.39-0.72s0.46-1.24,0.48-2.28V56.89z"/>
		<path d="M42.91,70.25c0,1.13-0.26,2.03-0.77,2.72S40.92,74,40.04,74c-0.9,0-1.6-0.29-2.12-0.85v3.56h-1.26V66.47h1.16l0.06,0.82
			c0.52-0.64,1.23-0.96,2.15-0.96c0.89,0,1.59,0.33,2.11,1s0.78,1.6,0.78,2.8V70.25z M41.64,70.1c0-0.83-0.18-1.49-0.53-1.98
			s-0.84-0.72-1.46-0.72c-0.77,0-1.34,0.34-1.72,1.02v3.53c0.38,0.67,0.96,1.01,1.74,1.01c0.61,0,1.09-0.24,1.45-0.72
			C41.47,71.76,41.64,71.05,41.64,70.1z"/>
		<path d="M46.89,69.17l1.64-2.7h1.48l-2.42,3.66l2.5,3.74h-1.46l-1.71-2.77l-1.71,2.77h-1.47l2.5-3.74l-2.42-3.66h1.46L46.89,69.17
			z"/>
	</g>
	<g>
		<rect x="33.07" y="5.69" class="st0" width="110.27" height="30"/>
		<g>
			<g>
				<path class="st1" d="M53.95,15.11h3.41c1.09,0,1.96,0.28,2.63,0.85c0.67,0.57,1,1.32,1,2.27c0,0.62-0.19,1.16-0.57,1.63
					c-0.38,0.47-0.84,0.81-1.38,1.02v0.06c0.73,0.18,1.33,0.51,1.8,0.98s0.71,1.09,0.71,1.85c0,0.95-0.36,1.7-1.06,2.26
					c-0.71,0.55-1.64,0.83-2.79,0.83h-3.74V15.11z M57.37,20.6c0.54,0,1.02-0.11,1.44-0.32s0.74-0.5,0.96-0.86
					c0.22-0.36,0.34-0.77,0.34-1.22c0-0.78-0.26-1.35-0.77-1.71c-0.51-0.36-1.2-0.54-2.06-0.54h-2.46v4.66H57.37z M57.61,26.04
					c0.94,0,1.68-0.19,2.23-0.57c0.55-0.38,0.82-0.94,0.82-1.69c0-0.74-0.28-1.32-0.84-1.74c-0.56-0.43-1.29-0.64-2.18-0.64h-2.83
					v4.64H57.61z"/>
				<path class="st1" d="M63.24,16.43c-0.16-0.15-0.23-0.34-0.23-0.55c0-0.21,0.08-0.39,0.23-0.54c0.15-0.15,0.34-0.22,0.55-0.22
					c0.21,0,0.39,0.07,0.54,0.22c0.15,0.15,0.22,0.33,0.22,0.54c0,0.21-0.07,0.4-0.22,0.55s-0.33,0.23-0.54,0.23
					C63.58,16.66,63.39,16.58,63.24,16.43z M63.36,18.31h0.86v8.56h-0.86V18.31z"/>
				<path class="st1" d="M68.39,26.61c-0.59-0.34-1.07-0.85-1.43-1.53c-0.36-0.68-0.54-1.5-0.54-2.47c0-0.86,0.17-1.64,0.51-2.34
					c0.34-0.69,0.81-1.23,1.42-1.62c0.6-0.39,1.28-0.58,2.02-0.58c0.74,0,1.37,0.18,1.91,0.54s0.95,0.86,1.24,1.48
					s0.43,1.33,0.43,2.1v0.64h-6.66c0.03,0.76,0.19,1.4,0.48,1.92s0.66,0.91,1.11,1.17c0.45,0.26,0.94,0.38,1.45,0.38
					c0.58,0,1.12-0.15,1.64-0.46c0.52-0.3,0.92-0.74,1.22-1.3l0.69,0.38c-0.37,0.7-0.88,1.25-1.53,1.62s-1.33,0.57-2.06,0.57
					C69.62,27.12,68.98,26.95,68.39,26.61z M73.07,22.05c-0.02-0.98-0.28-1.76-0.78-2.33c-0.5-0.57-1.15-0.86-1.95-0.86
					c-0.49,0-0.95,0.12-1.39,0.36c-0.44,0.24-0.8,0.6-1.09,1.08s-0.46,1.06-0.53,1.74H73.07z"/>
				<path class="st1" d="M76.21,18.31h0.74v1.9h0.08c0.23-0.6,0.64-1.1,1.21-1.52s1.21-0.62,1.91-0.62c0.95,0,1.67,0.3,2.17,0.9
					c0.5,0.6,0.74,1.45,0.74,2.56v5.34h-0.86v-5.33c0-0.93-0.18-1.6-0.55-2.02c-0.37-0.42-0.92-0.62-1.64-0.62
					c-0.59,0-1.1,0.19-1.54,0.56c-0.44,0.37-0.78,0.81-1.02,1.31c-0.24,0.5-0.36,0.92-0.36,1.26v4.83h-0.86V18.31z"/>
				<path class="st1" d="M87.19,26.61c-0.59-0.34-1.07-0.85-1.43-1.53c-0.36-0.68-0.54-1.5-0.54-2.47c0-0.86,0.17-1.64,0.51-2.34
					c0.34-0.69,0.81-1.23,1.42-1.62c0.6-0.39,1.28-0.58,2.02-0.58c0.74,0,1.37,0.18,1.91,0.54s0.95,0.86,1.24,1.48
					s0.43,1.33,0.43,2.1v0.64h-6.66c0.03,0.76,0.19,1.4,0.48,1.92s0.66,0.91,1.11,1.17c0.45,0.26,0.94,0.38,1.45,0.38
					c0.58,0,1.12-0.15,1.64-0.46c0.52-0.3,0.92-0.74,1.22-1.3l0.69,0.38c-0.37,0.7-0.88,1.25-1.53,1.62s-1.33,0.57-2.06,0.57
					C88.42,27.12,87.78,26.95,87.19,26.61z M91.87,22.05c-0.02-0.98-0.28-1.76-0.78-2.33c-0.5-0.57-1.15-0.86-1.95-0.86
					c-0.49,0-0.95,0.12-1.39,0.36c-0.44,0.24-0.8,0.6-1.09,1.08s-0.46,1.06-0.53,1.74H91.87z"/>
				<path class="st1" d="M95.98,26.52c-0.63-0.39-1.11-0.93-1.46-1.62l0.8-0.4c0.3,0.59,0.71,1.04,1.22,1.34
					c0.52,0.31,1.1,0.46,1.74,0.46c0.62,0,1.13-0.13,1.54-0.4c0.41-0.27,0.62-0.63,0.62-1.09c0-0.32-0.1-0.58-0.3-0.79
					c-0.2-0.21-0.46-0.37-0.76-0.49c-0.3-0.12-0.72-0.26-1.26-0.42c-0.66-0.19-1.19-0.37-1.58-0.54c-0.39-0.17-0.72-0.41-1-0.73
					c-0.28-0.32-0.42-0.74-0.42-1.26c0-0.54,0.15-1.01,0.45-1.39c0.3-0.38,0.68-0.67,1.14-0.86c0.46-0.19,0.94-0.28,1.43-0.28
					c0.77,0,1.43,0.2,1.98,0.6c0.55,0.4,0.95,0.93,1.21,1.58l-0.8,0.27c-0.21-0.53-0.53-0.94-0.95-1.22
					c-0.42-0.28-0.92-0.42-1.48-0.42c-0.59,0-1.08,0.15-1.5,0.46C96.2,19.64,96,20.05,96,20.55c0,0.35,0.11,0.64,0.33,0.86
					s0.48,0.39,0.78,0.51c0.3,0.12,0.75,0.27,1.34,0.44c0.62,0.18,1.12,0.35,1.5,0.52c0.38,0.17,0.71,0.4,0.98,0.7
					c0.27,0.3,0.4,0.7,0.4,1.18c0,0.77-0.3,1.35-0.9,1.75c-0.6,0.4-1.34,0.6-2.2,0.6S96.61,26.91,95.98,26.52z"/>
				<path class="st1" d="M104.58,26.46c-0.21-0.27-0.31-0.66-0.31-1.16v-6.19h-1.47v-0.8h1.46v-1.92h0.86v1.92h2.34v0.8h-2.32v6.5
					c0,0.16,0.02,0.27,0.06,0.33s0.12,0.09,0.25,0.09h2.02v0.85h-2.02C105.07,26.87,104.79,26.73,104.58,26.46z"/>
				<path class="st1" d="M109.86,26.43c-0.51-0.42-0.76-1.01-0.76-1.77c0-0.78,0.34-1.4,1.02-1.86c0.68-0.46,1.57-0.69,2.66-0.69
					h2.18v-1.09c0-0.64-0.19-1.15-0.58-1.54c-0.38-0.39-0.92-0.58-1.6-0.58c-0.61,0-1.18,0.18-1.72,0.54
					c-0.54,0.36-0.94,0.89-1.19,1.57l-0.77-0.37c0.32-0.8,0.81-1.43,1.48-1.89c0.67-0.46,1.41-0.69,2.23-0.69
					c0.95,0,1.69,0.28,2.22,0.84c0.53,0.56,0.79,1.27,0.79,2.12v4.77c0,0.07,0.02,0.14,0.06,0.19s0.08,0.08,0.14,0.08h0.77v0.8
					h-0.85c-0.34,0-0.58-0.1-0.73-0.3c-0.14-0.2-0.22-0.5-0.22-0.9l0.02-0.85h-0.13c-0.28,0.67-0.69,1.21-1.22,1.62
					c-0.54,0.41-1.17,0.62-1.88,0.62C111,27.06,110.37,26.85,109.86,26.43z M110.52,25.84c0.36,0.26,0.82,0.38,1.38,0.38
					c0.5,0,0.97-0.14,1.42-0.43c0.44-0.29,0.81-0.69,1.1-1.2c0.29-0.51,0.47-1.1,0.54-1.76h-2.14c-0.81,0-1.49,0.16-2.02,0.48
					c-0.54,0.32-0.81,0.77-0.81,1.34C109.98,25.19,110.16,25.59,110.52,25.84z"/>
				<path class="st1" d="M118.88,18.31h0.7v1.36h0.06c0.33-0.92,1.1-1.38,2.3-1.38h0.67v0.85h-1.17c-0.57,0-0.99,0.17-1.28,0.5
					s-0.43,0.78-0.43,1.34v5.89h-0.86V18.31z"/>
			</g>
		</g>
	</g>
	<g>
		<g>
			<path d="M197.91,23.18v3.69h-1.73v-9.95h3.81c1.11,0,2,0.29,2.65,0.87c0.65,0.58,0.98,1.35,0.98,2.3c0,0.98-0.32,1.74-0.96,2.28
				c-0.64,0.54-1.54,0.81-2.69,0.81H197.91z M197.91,21.78h2.08c0.62,0,1.08-0.14,1.41-0.43s0.49-0.71,0.49-1.25
				c0-0.54-0.16-0.97-0.49-1.29s-0.78-0.49-1.35-0.5h-2.13V21.78z"/>
			<path d="M209.44,26.14c-0.49,0.57-1.18,0.86-2.08,0.86c-0.8,0-1.41-0.23-1.82-0.7c-0.41-0.47-0.62-1.15-0.62-2.04v-4.79h1.66
				v4.77c0,0.94,0.39,1.41,1.17,1.41c0.81,0,1.35-0.29,1.63-0.87v-5.31h1.66v7.4h-1.57L209.44,26.14z"/>
			<path d="M214.51,26.87h-1.66v-10.5h1.66V26.87z"/>
			<path d="M220.46,24.86c0-0.3-0.12-0.52-0.37-0.68c-0.24-0.15-0.65-0.29-1.21-0.41s-1.04-0.27-1.42-0.45
				c-0.83-0.4-1.24-0.98-1.24-1.74c0-0.64,0.27-1.17,0.81-1.6s1.22-0.64,2.05-0.64c0.88,0,1.6,0.22,2.14,0.66
				c0.54,0.44,0.82,1,0.82,1.7h-1.66c0-0.32-0.12-0.58-0.36-0.8s-0.55-0.32-0.94-0.32c-0.36,0-0.66,0.08-0.89,0.25
				c-0.23,0.17-0.35,0.39-0.35,0.68c0,0.26,0.11,0.45,0.32,0.59s0.65,0.28,1.3,0.43s1.16,0.31,1.53,0.51
				c0.37,0.2,0.65,0.44,0.83,0.71c0.18,0.28,0.27,0.62,0.27,1.01c0,0.67-0.28,1.2-0.83,1.62S220,27,219.1,27
				c-0.61,0-1.15-0.11-1.62-0.33s-0.84-0.52-1.11-0.9s-0.4-0.8-0.4-1.24h1.61c0.02,0.39,0.17,0.69,0.44,0.91s0.64,0.32,1.09,0.32
				c0.44,0,0.77-0.08,1-0.25S220.46,25.13,220.46,24.86z"/>
			<path d="M223.23,23.1c0-0.72,0.14-1.38,0.43-1.96s0.69-1.03,1.21-1.34s1.12-0.47,1.79-0.47c1,0,1.81,0.32,2.43,0.96
				c0.62,0.64,0.96,1.49,1.01,2.56l0.01,0.39c0,0.73-0.14,1.38-0.42,1.96c-0.28,0.57-0.68,1.02-1.2,1.33
				c-0.52,0.31-1.12,0.47-1.81,0.47c-1.04,0-1.88-0.35-2.5-1.04c-0.63-0.69-0.94-1.62-0.94-2.78V23.1z M224.89,23.24
				c0,0.76,0.16,1.36,0.47,1.79s0.75,0.65,1.31,0.65s1-0.22,1.31-0.66c0.31-0.44,0.47-1.08,0.47-1.92c0-0.75-0.16-1.34-0.48-1.78
				c-0.32-0.44-0.76-0.66-1.31-0.66c-0.54,0-0.97,0.22-1.29,0.65S224.89,22.39,224.89,23.24z"/>
			<path d="M236.89,25.49h4.52v1.38h-6.25v-9.95h1.73V25.49z"/>
			<path d="M242.58,17.55c0-0.26,0.08-0.47,0.24-0.64c0.16-0.17,0.39-0.25,0.69-0.25s0.53,0.08,0.7,0.25s0.25,0.38,0.25,0.64
				c0,0.25-0.08,0.46-0.25,0.63s-0.4,0.25-0.7,0.25s-0.53-0.08-0.69-0.25C242.66,18.01,242.58,17.8,242.58,17.55z M244.34,26.87
				h-1.66v-7.4h1.66V26.87z"/>
			<path d="M245.86,23.11c0-1.15,0.27-2.07,0.81-2.75c0.54-0.69,1.26-1.03,2.15-1.03c0.84,0,1.51,0.29,1.99,0.88l0.08-0.75h1.5v7.17
				c0,0.97-0.3,1.74-0.91,2.3c-0.6,0.56-1.42,0.84-2.44,0.84c-0.54,0-1.07-0.11-1.59-0.34c-0.52-0.23-0.91-0.52-1.18-0.89l0.79-1
				c0.51,0.61,1.14,0.91,1.89,0.91c0.55,0,0.99-0.15,1.31-0.45s0.48-0.74,0.48-1.32v-0.5c-0.48,0.53-1.12,0.8-1.91,0.8
				c-0.87,0-1.57-0.34-2.12-1.03C246.13,25.28,245.86,24.33,245.86,23.11z M247.51,23.26c0,0.74,0.15,1.33,0.46,1.75
				c0.3,0.43,0.72,0.64,1.26,0.64c0.67,0,1.17-0.29,1.49-0.86v-3.25c-0.31-0.56-0.81-0.84-1.48-0.84c-0.55,0-0.97,0.22-1.27,0.65
				C247.66,21.78,247.51,22.42,247.51,23.26z"/>
			<path d="M255.72,20.28c0.54-0.63,1.23-0.94,2.06-0.94c1.58,0,2.38,0.9,2.4,2.7v4.83h-1.66V22.1c0-0.51-0.11-0.87-0.33-1.08
				c-0.22-0.21-0.55-0.32-0.97-0.32c-0.67,0-1.16,0.3-1.49,0.89v5.28h-1.66v-10.5h1.66V20.28z"/>
			<path d="M263.94,17.67v1.8h1.31v1.23h-1.31v4.13c0,0.28,0.06,0.49,0.17,0.61c0.11,0.13,0.31,0.19,0.6,0.19
				c0.19,0,0.38-0.02,0.58-0.07v1.29c-0.38,0.1-0.74,0.16-1.09,0.16c-1.28,0-1.91-0.7-1.91-2.11V20.7h-1.22v-1.23h1.22v-1.8H263.94z
				"/>
			<path d="M274.39,26.87h-1.65v-8l-2.44,0.83v-1.39l3.88-1.43h0.21V26.87z"/>
			<path d="M283.02,16.87v1.37h-0.21c-0.93,0.01-1.67,0.27-2.23,0.77s-0.89,1.2-0.99,2.11c0.53-0.56,1.21-0.84,2.04-0.84
				c0.88,0,1.57,0.31,2.08,0.93c0.51,0.62,0.76,1.42,0.76,2.4c0,1.01-0.3,1.83-0.89,2.46c-0.6,0.63-1.38,0.94-2.34,0.94
				c-0.99,0-1.8-0.37-2.42-1.1c-0.62-0.73-0.93-1.7-0.93-2.88v-0.57c0-1.75,0.42-3.11,1.27-4.1c0.85-0.99,2.07-1.48,3.67-1.48
				H283.02z M281.24,21.62c-0.36,0-0.7,0.1-1,0.31c-0.3,0.21-0.52,0.48-0.67,0.82v0.51c0,0.74,0.16,1.33,0.46,1.76
				s0.71,0.65,1.2,0.65s0.88-0.18,1.17-0.55s0.43-0.85,0.43-1.46s-0.15-1.09-0.44-1.47S281.72,21.62,281.24,21.62z"/>
			<path d="M292.39,23.24c0,1.14-0.26,2.06-0.78,2.74S290.4,27,289.52,27c-0.81,0-1.46-0.27-1.95-0.8v3.51h-1.66V19.47h1.53
				l0.07,0.75c0.49-0.59,1.15-0.89,1.99-0.89c0.9,0,1.61,0.34,2.12,1.01c0.51,0.67,0.77,1.61,0.77,2.8V23.24z M290.74,23.1
				c0-0.74-0.15-1.32-0.44-1.76c-0.29-0.43-0.71-0.65-1.26-0.65c-0.68,0-1.17,0.28-1.46,0.84v3.28c0.3,0.57,0.79,0.86,1.48,0.86
				c0.53,0,0.94-0.21,1.24-0.64C290.59,24.61,290.74,23.97,290.74,23.1z"/>
			<path d="M295.88,17.67v1.8h1.31v1.23h-1.31v4.13c0,0.28,0.06,0.49,0.17,0.61c0.11,0.13,0.31,0.19,0.6,0.19
				c0.19,0,0.38-0.02,0.58-0.07v1.29c-0.38,0.1-0.74,0.16-1.09,0.16c-1.28,0-1.91-0.7-1.91-2.11V20.7H293v-1.23h1.22v-1.8H295.88z"
				/>
		</g>
	</g>
	<line class="st2" x1="153.35" y1="21.81" x2="183.67" y2="21.81"/>
	<g>
		<path d="M133.14,62.86h-6.52v-0.91l3.45-3.83c0.51-0.58,0.86-1.05,1.06-1.41c0.19-0.36,0.29-0.74,0.29-1.12
			c0-0.52-0.16-0.95-0.47-1.28s-0.73-0.5-1.26-0.5c-0.63,0-1.12,0.18-1.47,0.54c-0.35,0.36-0.52,0.86-0.52,1.49h-1.26
			c0-0.92,0.29-1.66,0.89-2.22s1.38-0.85,2.37-0.85c0.93,0,1.66,0.24,2.19,0.73c0.54,0.48,0.81,1.13,0.81,1.94
			c0,0.98-0.62,2.15-1.87,3.5l-2.67,2.89h5V62.86z"/>
		<path d="M140.72,58.62c0,1.48-0.25,2.58-0.76,3.3s-1.3,1.08-2.37,1.08c-1.06,0-1.85-0.35-2.36-1.06c-0.51-0.7-0.77-1.75-0.79-3.15
			V57.1c0-1.46,0.25-2.55,0.76-3.26s1.3-1.07,2.38-1.07c1.07,0,1.86,0.34,2.37,1.03c0.51,0.69,0.77,1.74,0.78,3.17V58.62z
			 M139.46,56.89c0-1.07-0.15-1.85-0.45-2.34c-0.3-0.49-0.78-0.73-1.43-0.73c-0.65,0-1.12,0.24-1.42,0.73s-0.45,1.24-0.46,2.25v2.02
			c0,1.08,0.16,1.87,0.47,2.38c0.31,0.51,0.79,0.77,1.42,0.77c0.62,0,1.09-0.24,1.39-0.72s0.46-1.24,0.48-2.28V56.89z"/>
		<path d="M133,70.25c0,1.13-0.26,2.03-0.77,2.72S131.01,74,130.14,74c-0.9,0-1.6-0.29-2.12-0.85v3.56h-1.26V66.47h1.16l0.06,0.82
			c0.52-0.64,1.23-0.96,2.15-0.96c0.89,0,1.59,0.33,2.11,1s0.78,1.6,0.78,2.8V70.25z M131.74,70.1c0-0.83-0.18-1.49-0.53-1.98
			s-0.84-0.72-1.46-0.72c-0.77,0-1.34,0.34-1.72,1.02v3.53c0.38,0.67,0.96,1.01,1.74,1.01c0.61,0,1.09-0.24,1.45-0.72
			C131.56,71.76,131.74,71.05,131.74,70.1z"/>
		<path d="M136.99,69.17l1.64-2.7h1.48l-2.42,3.66l2.5,3.74h-1.46l-1.71-2.77l-1.71,2.77h-1.47l2.5-3.74l-2.42-3.66h1.46
			L136.99,69.17z"/>
	</g>
	<line class="st3" x1="143.34" y1="0" x2="143.34" y2="41.19"/>
	<line class="st3" x1="123.46" y1="0" x2="123.46" y2="41.19"/>
	<line class="st3" x1="53.25" y1="0" x2="53.25" y2="41.19"/>
	<line class="st3" x1="33.37" y1="0" x2="33.37" y2="41.19"/>
	<g>
		<g>
			<line class="st3" x1="33.96" y1="21.81" x2="34.96" y2="21.81"/>
			<line class="st4" x1="36.99" y1="21.81" x2="141.32" y2="21.81"/>
			<line class="st3" x1="142.34" y1="21.81" x2="143.34" y2="21.81"/>
		</g>
	</g>
</g>
</svg>
