<?xml version="1.0" encoding="utf-8"?>
<!-- Generator: Adobe Illustrator 27.3.1, SVG Export Plug-In . SVG Version: 6.00 Build 0)  -->
<svg version="1.1" id="Layer_1" xmlns="http://www.w3.org/2000/svg" xmlns:xlink="http://www.w3.org/1999/xlink" x="0px" y="0px"
	 viewBox="0 0 1842.5 96.4" style="enable-background:new 0 0 1842.5 96.4;" xml:space="preserve">
<style type="text/css">
	.st0{fill:none;}
</style>
<g>
	<g>
		<path d="M731.6,26.3h-6.2l-0.4,6.7h-4.7v5.4h4.6l0,18.3c0,4.5,1.8,6.8,5.3,6.8h7.3v-6h-5.1c-0.7,0-0.9-0.1-0.9-1.2v-18h6.1V33
			h-6.1V26.3L731.6,26.3z"/>
		<path d="M755.3,32.1c-4.1,0-7.9,1.6-10.7,4.6c-2.8,3-4.4,7.1-4.4,11.6c0,4.6,1.4,8.6,4.2,11.5c2.8,3,6.8,4.6,11.5,4.6
			c2.5,0,4.9-0.5,7.1-1.5c2.3-1.1,4.2-2.6,5.7-4.5l0.1-0.2l-3.8-3.9l-0.2,0.2c-2.1,2.4-5.1,3.8-8.3,3.8c-5.5,0-8.6-2.4-9.3-7.2h22.1
			v-0.2c0-2.1,0-2.9,0-4c0-3.9-1.3-7.6-3.7-10.2C763,33.7,759.5,32.1,755.3,32.1 M762.7,45.8h-15.6c0.7-4.9,3.4-7.2,8.3-7.2
			C759.6,38.6,762.5,41.4,762.7,45.8"/>
		<path d="M803.3,32.1c-4.1,0-7.9,1.6-10.7,4.6c-2.8,3-4.4,7.1-4.4,11.6c0,4.6,1.4,8.6,4.2,11.5c2.8,3,6.8,4.6,11.5,4.6
			c2.5,0,4.9-0.5,7.1-1.5c2.3-1.1,4.2-2.6,5.7-4.5l0.1-0.2l-3.8-3.9l-0.2,0.2c-2.1,2.4-5.1,3.8-8.3,3.8c-5.5,0-8.6-2.4-9.3-7.2h22.1
			v-0.2c0-2.1,0-2.9,0-4c0-3.9-1.3-7.6-3.7-10.2C811,33.7,807.5,32.1,803.3,32.1 M810.8,45.8h-15.6c0.7-4.9,3.4-7.2,8.3-7.2
			C807.6,38.6,810.5,41.4,810.8,45.8"/>
		<path d="M781,57.3c-0.1-0.1-0.2-0.5-0.2-1V21.8h-6.6v34.9c0,2.3,0.5,4,1.3,5.1c0.9,1.2,2.3,1.7,4,1.7h6.4v-6h-4.3
			C781.2,57.6,781,57.4,781,57.3"/>
		<path d="M933,35.4c-1.8-2.2-4.4-3.3-7.6-3.3c-2.5,0-4.7,0.7-6.4,2.1c-1.5,1.2-2.7,2.9-3.7,5.2H915c-1.3-4.7-4.6-7.3-9.3-7.3
			c-4.5,0-8,2.4-9.8,6.6h-0.2l-0.4-5.8h-5.6v30.6h6.6v-17c0-1.4,0.4-3.7,1.6-5.5c0.9-1.4,2.7-3.2,5.8-3.2c3.8,0,5.7,2.5,5.7,7.4
			v18.3h6.6v-17c0-1.9,0.6-4,1.7-5.6c1-1.4,2.7-3.1,5.8-3.1c1.8,0,3.2,0.6,4.1,1.7c1,1.2,1.5,3.1,1.5,5.6v18.3h6.7V44.4
			C935.7,40.6,934.7,37.5,933,35.4"/>
		<path d="M845.1,53.5c-1.9,3-5.1,4.7-8.5,4.7c-2.4,0-4.6-1-6.2-2.7s-2.4-4.3-2.4-7.1c0-2.9,0.9-5.4,2.5-7.1
			c1.4-1.5,3.4-2.4,5.5-2.4h0.1h0.1c1.1,0,6.1,0.4,8.2,5.3l5.4-2.4c0,0-2.6-9.4-14.1-9.4c-4,0-7.8,1.6-10.5,4.6s-4.2,7.1-4.2,11.6
			c0,9.2,6.2,15.9,14.7,15.9c2.9,0,5.6-0.6,7.9-1.9c2.4-1.3,4.4-3.3,5.8-5.9l0.1-0.2l-4.6-3L845.1,53.5z"/>
		<path d="M869.1,38.5c3.7,0,6.9,2.1,8.5,5.1h6.8c-2-6.7-8.1-11.5-15.4-11.5c-7.2,0-13.4,4.9-15.4,11.5h6.8
			C862.2,40.6,865.4,38.5,869.1,38.5"/>
		<path d="M878.8,48.2c0,5.3-4.3,9.7-9.7,9.7c-5.3,0-9.7-4.3-9.7-9.7c0-0.5,0-1,0.1-1.4h-6.4c0,0.5,0,1,0,1.4
			c0,8.9,7.2,16.1,16,16.1c8.8,0,16-7.2,16-16.1c0-0.5,0-1,0-1.4h-6.4C878.7,47.3,878.8,47.8,878.8,48.2"/>
		<path d="M1055.6,31.5c-9.2,0-16.7,7.5-16.7,16.7s7.5,16.7,16.7,16.7s16.7-7.5,16.7-16.7S1064.8,31.5,1055.6,31.5 M1065.7,48.1
			c0,5.5-4.5,10.1-10.1,10.1c-5.5,0-10.1-4.5-10.1-10.1s4.5-10.1,10.1-10.1C1061.2,38.1,1065.7,42.6,1065.7,48.1"/>
		<path d="M1008.9,22.5c-1.3,1.2-2,3-2,5.2V33h-3.7v5.6h3.7v25.3h6.8V38.7h6.8v-5.6h-6.8v-5.4c0-0.9,0.4-1.3,1.2-1.3h7.1v-5.6h-8
			C1012,20.7,1010.1,21.3,1008.9,22.5"/>
		<path d="M1032.2,57.6c-0.1-0.1-0.2-0.5-0.2-1V20.8h-6.9v36.1c0,2.3,0.5,4.1,1.4,5.3c1,1.2,2.4,1.8,4.2,1.8h6.6v-6.2h-4.4
			C1032.4,57.8,1032.2,57.7,1032.2,57.6"/>
		<polygon points="1116.2,32.3 1109.3,58.3 1109.1,58.3 1101.6,32.5 1101.5,32.3 1094.5,32.3 1087.3,58.3 1087.1,58.3 1079.9,32.3 
			1072.6,32.3 1082,63.8 1082,64 1091.5,64 1098,41.7 1104.1,64 1113.6,64 1122.8,32.3 		"/>
		<path d="M1060.2,47.6L1060.2,47.6l-7-4c-0.2-0.1-0.4-0.1-0.6,0l0,0c-0.2,0.1-0.3,0.3-0.3,0.5v8c0,0.2,0.1,0.4,0.3,0.5
			c0.1,0,0.2,0.1,0.3,0.1s0.2,0,0.3-0.1l7-4c0.2-0.1,0.3-0.3,0.3-0.5C1060.5,47.9,1060.4,47.7,1060.2,47.6"/>
		<polyline points="968.2,24.1 968.2,66.8 970.2,66.8 970.2,24.1 		"/>
	</g>
	<rect x="0" y="0" class="st0" width="1842.5" height="96.4"/>
</g>
</svg>
