<?xml version="1.0" encoding="utf-8"?>
<!-- Generator: Adobe Illustrator 27.3.1, SVG Export Plug-In . SVG Version: 6.00 Build 0)  -->
<svg version="1.1" id="Layer_1" xmlns="http://www.w3.org/2000/svg" xmlns:xlink="http://www.w3.org/1999/xlink" x="0px" y="0px"
	 viewBox="0 0 1842.5 96.4" style="enable-background:new 0 0 1842.5 96.4;" xml:space="preserve">
<style type="text/css">
	.st0{fill:none;}
</style>
<g>
	<g>
		<path d="M1065.7,31.5c-9.2,0-16.7,7.5-16.7,16.7s7.5,16.7,16.7,16.7c9.2,0,16.7-7.5,16.7-16.7S1074.9,31.5,1065.7,31.5
			 M1075.7,48.1c0,5.5-4.5,10.1-10.1,10.1s-10.1-4.5-10.1-10.1s4.5-10.1,10.1-10.1S1075.7,42.6,1075.7,48.1"/>
		<path d="M1019,22.5c-1.3,1.2-2,3-2,5.2V33h-3.7v5.6h3.7v25.3h6.8V38.7h6.8v-5.6h-6.8v-5.4c0-0.9,0.4-1.3,1.2-1.3h7.1v-5.6h-8
			C1022,20.7,1020.3,21.3,1019,22.5"/>
		<path d="M1042.2,57.6c-0.1-0.1-0.2-0.5-0.2-1V20.8h-6.9v36.1c0,2.3,0.5,4.1,1.4,5.3c1,1.2,2.4,1.8,4.2,1.8h6.6v-6.2h-4.4
			C1042.4,57.8,1042.2,57.7,1042.2,57.6"/>
		<polygon points="1126.3,32.3 1119.3,58.3 1119.2,58.3 1111.6,32.5 1111.6,32.3 1104.6,32.3 1097.4,58.3 1097.2,58.3 1090,32.3 
			1082.7,32.3 1092.1,63.8 1092.1,64 1101.6,64 1108,41.7 1114.2,64 1123.7,64 1132.8,32.3 		"/>
		<path d="M1070.3,47.6L1070.3,47.6l-7-4c-0.2-0.1-0.4-0.1-0.6,0l0,0c-0.2,0.1-0.3,0.3-0.3,0.5v8c0,0.2,0.1,0.4,0.3,0.5
			c0.1,0,0.2,0.1,0.3,0.1c0.1,0,0.2,0,0.3-0.1l7-4c0.2-0.1,0.3-0.3,0.3-0.5C1070.6,47.9,1070.5,47.7,1070.3,47.6"/>
		<path d="M760.6,31.8c-4.2,0-8.1,1.7-11.1,4.7c-2.9,3.1-4.5,7.3-4.5,11.9c0,4.7,1.5,8.8,4.3,11.8c2.9,3.1,7,4.7,11.9,4.7
			c2.6,0,5.1-0.5,7.3-1.6c2.4-1.1,4.3-2.7,5.9-4.6l0.1-0.2l-3.9-4l-0.2,0.2c-2.1,2.5-5.3,3.9-8.6,3.9c-5.7,0-8.9-2.5-9.7-7.4H775V51
			c0-2.2,0-3,0-4.1c0-4-1.3-7.8-3.8-10.5C768.6,33.3,764.9,31.8,760.6,31.8 M768.3,45.8h-16.1c0.7-5,3.5-7.4,8.6-7.4
			C765,38.4,768,41.3,768.3,45.8"/>
		<path d="M845.6,31.8c-9.2,0-16.6,7.4-16.6,16.6s7.4,16.6,16.6,16.6c9.2,0,16.6-7.4,16.6-16.6S854.7,31.8,845.6,31.8 M855.6,48.3
			c0,5.5-4.5,10-10,10c-5.5,0-10-4.5-10-10c0-5.5,4.5-10,10-10S855.6,42.8,855.6,48.3"/>
		<path d="M726.6,31.7c-4.8,0-8.3,2.3-10.5,6.8h-0.2l-0.1-6h-5.5v42.7h6.7V58.3h0.2c0.8,1.9,2,3.4,3.4,4.5c1.8,1.4,4,2.1,6.5,2.1
			c3.8,0,7.3-1.6,9.9-4.6c2.6-3,4-7.3,4-12c0-4.7-1.4-8.9-4-11.9C734.3,33.3,730.6,31.7,726.6,31.7 M733.9,48.4
			c0,6.1-3.4,10.1-8.4,10.1c-2.6,0-4.7-1.1-6.2-3c-1.4-1.8-2.2-4.4-2.2-7.2c0-2.8,0.8-5.4,2.3-7.3c1.5-2,3.8-3,6.3-3
			c2.4,0,4.4,1,5.9,2.9C733.1,42.8,733.9,45.4,733.9,48.4"/>
		<path d="M786.7,38.3h-0.2l-0.4-5.7h-5.7v31.5h6.8V45.9c0-4.1,1.7-5.9,5.6-5.9h4.4v-7.4H795C790.5,32.6,787.8,34.5,786.7,38.3"/>
		<path d="M812.3,37c3.7,0,6.6,2,7.9,5.4l0.1,0.2l5.3-2l-0.1-0.2c-1.1-2.8-2.8-5-5-6.5c-2.3-1.5-5-2.3-8-2.3c-2.8,0-5.7,0.9-7.8,2.6
			c-2.3,1.8-3.6,4.3-3.6,7.2c0,2.7,1,4.9,2.9,6.6c1.6,1.4,3.9,2.6,7,3.4l0,0c0.2,0,0.4,0.1,0.7,0.1c1.9,0.4,3.7,0.8,5,1.4
			c1.3,0.7,2,1.5,2,2.7c0,2.5-2.9,3.6-5.8,3.6c-3.8,0-7.4-2-9.3-5.3l-0.1-0.2l-4.9,2.7l0.1,0.2c1.2,2.5,3.1,4.6,5.5,6
			c2.5,1.4,5.4,2.2,8.6,2.2c3.4,0,6.6-0.8,8.8-2.4c2.5-1.7,3.9-4.1,3.9-6.9c0-2.7-1.1-4.8-3.4-6.5c-2.2-1.5-5.1-2.4-7.3-2.9
			c-3.5-1-7.5-2.1-7.5-5.2C807.4,39,809.2,37,812.3,37"/>
		<path d="M883.6,31.8c-2.4,0-4.6,0.7-6.5,2c-1.7,1.2-3,2.8-3.9,4.8h-0.3v-5.9h-6.3v31.5h6.8V46.6c0-1.3,0.6-3.5,1.8-5.4
			c1.1-1.5,2.9-3.4,6-3.4c2.1,0,3.7,0.6,4.6,1.9c1,1.2,1.4,3,1.4,5.6v18.9h6.8V44.3c0-3.9-0.9-7-2.7-9.2
			C889.7,32.9,887,31.8,883.6,31.8"/>
		<path d="M926.3,57.9V43.7c0-3.5-1.1-6.5-3.2-8.6c-2.2-2.2-5.3-3.4-9.2-3.4c-6.8,0-11.5,3.1-14.4,9.4l-0.1,0.2l5.9,2.7l0.1-0.2
			c1.6-3.5,4.8-5.9,7.9-5.9c3.5,0,6.1,2.3,6.1,5.4v2.2h-7.2c-8,0-13.1,3.9-13.1,10.1c0,2.7,1,5,2.9,6.6c1.8,1.5,4.3,2.4,7.1,2.4
			c2.6,0,5-0.7,6.9-2.1c1.8-1.3,3.3-3,4.3-5.1h0.2l0,1.7c0,3.1,1.5,4.8,4.4,4.8h4.4v-5.4h-2.7C926.3,58.7,926.3,58.2,926.3,57.9
			 M919.4,51.4c-0.2,1.9-1.4,3.7-3.2,5.2c-1.6,1.3-3.7,2.2-5.1,2.2c-1.3,0-2.6-0.3-3.5-0.9c-0.9-0.6-1.4-1.4-1.4-2.5
			c0-1.3,0.8-2.4,2.4-3c1.4-0.6,3.5-1,5.8-1L919.4,51.4z"/>
		<path d="M941.7,57.9c-0.5,0-0.6-0.1-0.7-0.2c-0.1-0.1-0.2-0.5-0.2-1V21.1H934v35.9c0,2.3,0.5,4.1,1.4,5.3c0.9,1.2,2.4,1.8,4.1,1.8
			h6.6V58L941.7,57.9L941.7,57.9z"/>
		<polyline points="978.3,24.1 978.3,66.8 980.3,66.8 980.3,24.1 		"/>
	</g>
	<rect x="0" y="0" class="st0" width="1842.5" height="96.4"/>
</g>
</svg>
