<?xml version="1.0" encoding="utf-8"?>
<!-- Generator: Adobe Illustrator 27.3.1, SVG Export Plug-In . SVG Version: 6.00 Build 0)  -->
<svg version="1.1" id="Layer_1" xmlns="http://www.w3.org/2000/svg" xmlns:xlink="http://www.w3.org/1999/xlink" x="0px" y="0px"
	 viewBox="0 0 1842.5 96.4" style="enable-background:new 0 0 1842.5 96.4;" xml:space="preserve">
<style type="text/css">
	.st0{fill:none;}
</style>
<g>
	<g>
		<path d="M673.5,26.3h-6.2L667,33h-4.7v5.4h4.6l0,18.3c0,4.5,1.8,6.8,5.3,6.8h7.3v-6h-5.1c-0.7,0-0.9-0.1-0.9-1.2v-18h6.1V33h-6.1
			V26.3z"/>
		<path d="M697.2,32.1c-4.1,0-7.9,1.6-10.7,4.6c-2.8,3-4.4,7.1-4.4,11.6c0,4.6,1.4,8.6,4.2,11.5c2.8,3,6.8,4.6,11.5,4.6
			c2.5,0,4.9-0.5,7.1-1.5c2.3-1.1,4.2-2.6,5.7-4.5l0.1-0.2l-3.8-3.9l-0.2,0.2c-2.1,2.4-5.1,3.8-8.3,3.8c-5.5,0-8.6-2.4-9.3-7.2h22.1
			v-0.2c0-2.1,0-2.9,0-4c0-3.9-1.3-7.6-3.7-10.2C705,33.7,701.4,32.1,697.2,32.1 M704.7,45.8h-15.6c0.7-4.9,3.4-7.2,8.3-7.2
			C701.5,38.6,704.4,41.4,704.7,45.8"/>
		<path d="M745.3,32.1c-4.1,0-7.9,1.6-10.7,4.6c-2.8,3-4.4,7.1-4.4,11.6c0,4.6,1.4,8.6,4.2,11.5c2.8,3,6.8,4.6,11.5,4.6
			c2.5,0,4.9-0.5,7.1-1.5c2.3-1.1,4.2-2.6,5.7-4.5l0.1-0.2l-3.8-3.9l-0.2,0.2c-2.1,2.4-5.1,3.8-8.3,3.8c-5.5,0-8.6-2.4-9.3-7.2h22.1
			v-0.2c0-2.1,0-2.9,0-4c0-3.9-1.3-7.6-3.7-10.2C753,33.7,749.4,32.1,745.3,32.1 M752.7,45.8h-15.6c0.7-4.9,3.4-7.2,8.3-7.2
			C749.5,38.6,752.5,41.4,752.7,45.8"/>
		<path d="M722.9,57.3c-0.1-0.1-0.2-0.5-0.2-1V21.8h-6.6v34.9c0,2.3,0.5,4,1.3,5.1c0.9,1.2,2.3,1.7,4,1.7h6.4v-6h-4.3
			C723.1,57.6,722.9,57.4,722.9,57.3"/>
		<path d="M875,35.4c-1.8-2.2-4.4-3.3-7.6-3.3c-2.5,0-4.7,0.7-6.4,2.1c-1.5,1.2-2.7,2.9-3.7,5.2h-0.3c-1.3-4.7-4.6-7.3-9.3-7.3
			c-4.5,0-8,2.4-9.8,6.6h-0.2l-0.4-5.8h-5.6v30.6h6.6v-17c0-1.4,0.4-3.7,1.6-5.5c0.9-1.4,2.7-3.2,5.8-3.2c3.8,0,5.7,2.5,5.7,7.4
			v18.3h6.6v-17c0-1.9,0.6-4,1.7-5.6c1-1.4,2.7-3.1,5.8-3.1c1.8,0,3.2,0.6,4.1,1.7c1,1.2,1.5,3.1,1.5,5.6v18.3h6.6V44.4
			C877.6,40.6,876.7,37.5,875,35.4"/>
		<path d="M787,53.5c-1.9,3-5.1,4.7-8.5,4.7c-2.4,0-4.6-1-6.2-2.7s-2.4-4.3-2.4-7.1c0-2.9,0.9-5.4,2.5-7.1c1.4-1.5,3.4-2.4,5.5-2.4
			h0.1h0.1c1.1,0,6.1,0.4,8.2,5.3l5.4-2.4c0,0-2.6-9.4-14.1-9.4c-4,0-7.8,1.6-10.5,4.6c-2.7,3-4.2,7.1-4.2,11.6
			c0,9.2,6.2,15.9,14.7,15.9c2.9,0,5.6-0.6,7.9-1.9c2.4-1.3,4.4-3.3,5.8-5.9l0.1-0.2l-4.6-3L787,53.5z"/>
		<path d="M811,38.5c3.7,0,6.9,2.1,8.5,5.1h6.8c-2-6.7-8.1-11.5-15.4-11.5c-7.2,0-13.4,4.9-15.4,11.5h6.8
			C804.1,40.6,807.4,38.5,811,38.5"/>
		<path d="M820.8,48.2c0,5.3-4.3,9.7-9.7,9.7c-5.3,0-9.7-4.3-9.7-9.7c0-0.5,0-1,0.1-1.4h-6.4c0,0.5,0,1,0,1.4
			c0,8.9,7.2,16.1,16,16.1c8.8,0,16-7.2,16-16.1c0-0.5,0-1,0-1.4h-6.4C820.7,47.3,820.8,47.8,820.8,48.2"/>
		<path d="M994.3,31.8c-4.2,0-8.1,1.7-11.1,4.7c-2.9,3.1-4.5,7.3-4.5,11.9c0,4.7,1.5,8.8,4.3,11.8c2.9,3.1,7,4.7,11.9,4.7
			c2.6,0,5.1-0.5,7.3-1.6c2.4-1.1,4.3-2.7,5.9-4.6l0.1-0.2l-3.9-4l-0.2,0.2c-2.1,2.5-5.3,3.9-8.6,3.9c-5.7,0-8.9-2.5-9.7-7.4h22.8
			V51c0-2.2,0-3,0-4.1c0-4-1.3-7.8-3.8-10.5C1002.3,33.3,998.6,31.8,994.3,31.8 M1002,45.8h-16.1c0.7-5,3.5-7.4,8.6-7.4
			C998.7,38.4,1001.8,41.3,1002,45.8"/>
		<path d="M1079.3,31.8c-9.2,0-16.6,7.4-16.6,16.6s7.4,16.6,16.6,16.6c9.2,0,16.6-7.4,16.6-16.6S1088.5,31.8,1079.3,31.8
			 M1089.3,48.3c0,5.5-4.5,10-10,10c-5.5,0-10-4.5-10-10c0-5.5,4.5-10,10-10S1089.3,42.8,1089.3,48.3"/>
		<path d="M960.4,31.7c-4.8,0-8.3,2.3-10.5,6.8h-0.2l-0.1-6H944v42.7h6.7V58.3h0.2c0.8,1.9,2,3.4,3.4,4.5c1.8,1.4,4,2.1,6.5,2.1
			c3.8,0,7.3-1.6,9.9-4.6c2.6-3,4-7.3,4-12c0-4.7-1.4-8.9-4-11.9C968,33.3,964.4,31.7,960.4,31.7 M967.6,48.4
			c0,6.1-3.4,10.1-8.4,10.1c-2.6,0-4.7-1.1-6.2-3c-1.4-1.8-2.2-4.4-2.2-7.2c0-2.8,0.8-5.4,2.3-7.3c1.5-2,3.8-3,6.3-3
			c2.4,0,4.4,1,5.9,2.9C966.8,42.8,967.6,45.4,967.6,48.4"/>
		<path d="M1020.4,38.3h-0.2l-0.4-5.7h-5.7v31.5h6.8V45.9c0-4.1,1.7-5.9,5.6-5.9h4.4v-7.4h-2.2C1024.3,32.6,1021.5,34.5,1020.4,38.3
			"/>
		<path d="M1046.1,37c3.7,0,6.6,2,7.9,5.4l0.1,0.2l5.3-2l-0.1-0.2c-1.1-2.8-2.8-5-5-6.5c-2.3-1.5-5-2.3-8-2.3
			c-2.8,0-5.7,0.9-7.8,2.6c-2.3,1.8-3.6,4.3-3.6,7.2c0,2.7,1,4.9,2.9,6.6c1.6,1.4,3.9,2.6,7,3.4l0,0c0.2,0,0.4,0.1,0.7,0.1
			c1.9,0.4,3.7,0.8,5,1.4c1.3,0.7,2,1.5,2,2.7c0,2.5-2.9,3.6-5.8,3.6c-3.8,0-7.4-2-9.3-5.3l-0.1-0.2l-4.9,2.7l0.1,0.2
			c1.2,2.5,3.1,4.6,5.5,6c2.5,1.4,5.4,2.2,8.6,2.2c3.4,0,6.6-0.8,8.8-2.4c2.5-1.7,3.9-4.1,3.9-6.9c0-2.7-1.1-4.8-3.4-6.5
			c-2.2-1.5-5.1-2.4-7.3-2.9c-3.5-1-7.5-2.1-7.5-5.2C1041.1,39,1043,37,1046.1,37"/>
		<path d="M1117.3,31.8c-2.4,0-4.6,0.7-6.5,2c-1.7,1.2-3,2.8-3.9,4.8h-0.3v-5.9h-6.3v31.5h6.8V46.6c0-1.3,0.6-3.5,1.8-5.4
			c1.1-1.5,2.9-3.4,6-3.4c2.1,0,3.7,0.6,4.6,1.9c1,1.2,1.4,3,1.4,5.6v18.9h6.8V44.3c0-3.9-0.9-7-2.7-9.2
			C1123.3,32.9,1120.7,31.8,1117.3,31.8"/>
		<path d="M1160,57.9V43.7c0-3.5-1.1-6.5-3.2-8.6c-2.2-2.2-5.3-3.4-9.2-3.4c-6.8,0-11.5,3.1-14.4,9.4l-0.1,0.2l5.9,2.7l0.1-0.2
			c1.6-3.5,4.8-5.9,7.9-5.9c3.5,0,6.1,2.3,6.1,5.4v2.2h-7.2c-8,0-13.1,3.9-13.1,10.1c0,2.7,1,5,2.9,6.6c1.8,1.5,4.3,2.4,7.1,2.4
			c2.6,0,5-0.7,6.9-2.1c1.8-1.3,3.3-3,4.3-5.1h0.2l0,1.7c0,3.1,1.5,4.8,4.4,4.8h4.4v-5.4h-2.7C1160.1,58.7,1160,58.2,1160,57.9
			 M1153.1,51.4c-0.2,1.9-1.4,3.7-3.2,5.2c-1.6,1.3-3.7,2.2-5.1,2.2c-1.3,0-2.6-0.3-3.5-0.9c-0.9-0.6-1.4-1.4-1.4-2.5
			c0-1.3,0.8-2.4,2.4-3c1.4-0.6,3.5-1,5.8-1L1153.1,51.4z"/>
		<path d="M1175.4,57.9c-0.5,0-0.6-0.1-0.7-0.2c-0.1-0.1-0.2-0.5-0.2-1V21.1h-6.8v35.9c0,2.3,0.5,4.1,1.4,5.3
			c0.9,1.2,2.4,1.8,4.1,1.8h6.6V58L1175.4,57.9L1175.4,57.9z"/>
		<polyline points="910.2,24.1 910.2,66.8 912.1,66.8 912.1,24.1 		"/>
	</g>
	<rect x="0" y="0" class="st0" width="1842.5" height="96.4"/>
</g>
</svg>
