<?xml version="1.0" encoding="utf-8"?>
<!-- Generator: Adobe Illustrator 27.3.1, SVG Export Plug-In . SVG Version: 6.00 Build 0)  -->
<svg version="1.1" id="Layer_1" xmlns="http://www.w3.org/2000/svg" xmlns:xlink="http://www.w3.org/1999/xlink" x="0px" y="0px"
	 viewBox="0 0 1842.5 96.4" style="enable-background:new 0 0 1842.5 96.4;" xml:space="preserve">
<style type="text/css">
	.st0{fill:#FFFFFF;}
	.st1{fill:none;}
</style>
<g>
	<g>
		<path class="st0" d="M824.9,26.3h-6.1l-0.4,6.7h-4.6v5.4h4.6l0,18.3c0,4.5,1.8,6.8,5.3,6.8h7.3v-6h-5.2c-0.7,0-0.9-0.1-0.9-1.2
			v-18h6.1V33h-6.1L824.9,26.3L824.9,26.3z"/>
		<path class="st0" d="M848.6,32.1c-4.1,0-7.9,1.6-10.7,4.6c-2.8,3-4.4,7.1-4.4,11.5c0,4.6,1.4,8.6,4.2,11.5c2.8,3,6.8,4.5,11.5,4.5
			c2.5,0,4.9-0.5,7.1-1.5c2.3-1.1,4.2-2.6,5.7-4.5l0.1-0.2l-3.8-3.9l-0.2,0.2c-2.1,2.4-5.1,3.8-8.3,3.8c-5.5,0-8.6-2.4-9.3-7.2h22
			v-0.2c0-2.1,0-2.9,0-4c0-3.9-1.3-7.5-3.7-10.2C856.3,33.6,852.8,32.1,848.6,32.1z M840.4,45.7c0.7-4.9,3.4-7.2,8.3-7.2
			c4.2,0,7.1,2.9,7.3,7.2H840.4z"/>
		<path class="st0" d="M896.6,32.1c-4.1,0-7.9,1.6-10.7,4.6c-2.8,3-4.4,7.1-4.4,11.5c0,4.6,1.4,8.6,4.2,11.5c2.8,3,6.8,4.5,11.5,4.5
			c2.5,0,4.9-0.5,7.1-1.5c2.3-1.1,4.2-2.6,5.7-4.5l0.1-0.2l-3.8-3.9l-0.2,0.2c-2.1,2.4-5.1,3.8-8.3,3.8c-5.5,0-8.6-2.4-9.3-7.2h22
			v-0.2c0-2.1,0-2.9,0-4c0-3.9-1.3-7.5-3.7-10.2C904.3,33.6,900.7,32.1,896.6,32.1z M888.4,45.7c0.7-4.9,3.4-7.2,8.3-7.2
			c4.2,0,7.1,2.9,7.3,7.2H888.4z"/>
		<path class="st0" d="M874.2,57.3c-0.1-0.1-0.2-0.5-0.2-1V21.8h-6.6v34.8c0,2.3,0.5,4,1.3,5.1c0.9,1.2,2.3,1.7,4,1.7h6.4v-6h-4.3
			C874.4,57.5,874.3,57.4,874.2,57.3z"/>
		<path class="st0" d="M1026.1,35.4c-1.8-2.2-4.4-3.3-7.6-3.3c-2.5,0-4.7,0.7-6.4,2.1c-1.5,1.2-2.7,2.9-3.7,5.2h-0.3
			c-1.3-4.7-4.6-7.3-9.3-7.3c-4.5,0-8,2.4-9.8,6.6h-0.2l-0.4-5.8h-5.6v30.5h6.6v-17c0-1.4,0.4-3.7,1.6-5.5c0.9-1.4,2.7-3.2,5.8-3.2
			c3.8,0,5.6,2.5,5.6,7.4v18.3h6.6v-17c0-1.9,0.6-4,1.7-5.6c1-1.4,2.7-3.1,5.8-3.1c1.8,0,3.2,0.6,4.1,1.7c1,1.2,1.5,3.1,1.5,5.6
			v18.3h6.6V44.3C1028.8,40.6,1027.9,37.5,1026.1,35.4z"/>
		<path class="st0" d="M929.3,38.7L929.3,38.7h0.2c1.1,0,6.1,0.4,8.2,5.3l5.4-2.4c0,0-2.6-9.4-14.1-9.4c-4,0-7.8,1.6-10.4,4.6
			c-2.7,3-4.2,7.1-4.2,11.6c0,9.2,6.2,15.9,14.7,15.9c2.9,0,5.6-0.6,7.9-1.9c2.4-1.3,4.4-3.3,5.8-5.9l0.1-0.2l-4.6-3l-0.1,0.2
			c-1.9,3-5.1,4.7-8.5,4.7c-2.4,0-4.6-1-6.2-2.7s-2.4-4.3-2.4-7.1c0-2.9,0.9-5.4,2.5-7.1C925.2,39.6,927.2,38.7,929.3,38.7z"/>
		<path class="st0" d="M962.3,38.5c3.7,0,6.9,2.1,8.5,5.1h6.8c-2-6.7-8.1-11.5-15.3-11.5c-7.2,0-13.3,4.9-15.3,11.5h6.8
			C955.4,40.6,958.6,38.5,962.3,38.5z"/>
		<path class="st0" d="M971.9,46.7c0,0.5,0.1,1,0.1,1.4c0,5.3-4.3,9.7-9.7,9.7s-9.7-4.3-9.7-9.7c0-0.5,0-1,0.1-1.4h-6.4
			c0,0.5,0,1,0,1.4c0,8.9,7.2,16,16,16s16-7.2,16-16c0-0.5,0-1,0-1.4H971.9z"/>
	</g>
	<rect y="0" class="st1" width="1842.5" height="96.4"/>
</g>
</svg>
