<?xml version="1.0" encoding="utf-8"?>
<!-- Generator: Adobe Illustrator 26.5.0, SVG Export Plug-In . SVG Version: 6.00 Build 0)  -->
<svg version="1.1" id="Layer_1" xmlns="http://www.w3.org/2000/svg" xmlns:xlink="http://www.w3.org/1999/xlink" x="0px" y="0px"
	 viewBox="0 0 1600 200" style="enable-background:new 0 0 1600 200;" xml:space="preserve">
<style type="text/css">
	.st0{fill:#00dcaa;}
	.st1{fill:#00b8eb;}
	.st2{fill:#6E6E6E;}
	.st3{fill:none;}
</style>
<g>
	<g>
		<path class="st0" d="M1099.7,65.3c-19.1,0-34.6,15.5-34.6,34.6s15.5,34.6,34.6,34.6s34.6-15.5,34.6-34.6
			C1134.4,80.8,1118.9,65.3,1099.7,65.3 M1120.6,99.9c0,11.5-9.4,20.9-20.9,20.9c-11.5,0-20.9-9.4-20.9-20.9s9.4-20.9,20.9-20.9
			C1111.2,79,1120.6,88.4,1120.6,99.9"/>
		<path class="st0" d="M1002.9,46.7c-2.7,2.5-4.1,6.2-4.1,10.7v11.1h-7.7v11.7h7.7v52.5h14.1V80.3h14.1V68.6h-14.1V57.4
			c0-1.9,0.8-2.8,2.5-2.8h14.8V43h-16.5C1009.2,43,1005.5,44.3,1002.9,46.7"/>
		<path class="st0" d="M1051,119.5c-0.3-0.3-0.4-1-0.4-2.1V43.1h-14.3v75c0,4.8,1,8.5,3,11c2,2.5,4.9,3.7,8.7,3.7h13.7V120h-9.2
			C1051.4,120,1051.1,119.7,1051,119.5"/>
		<polygon class="st0" points="1225.4,67.1 1211.1,120.9 1210.9,120.9 1195.1,67.5 1194.9,67.1 1180.4,67.1 1165.4,120.9 
			1165.2,120.9 1150.2,67.1 1135.1,67.1 1154.4,132.4 1154.6,132.8 1174.2,132.8 1187.6,86.6 1200.4,132.8 1220.1,132.8 
			1239.1,67.1 		"/>
		<path class="st0" d="M1109.4,98.8L1109.4,98.8l-14.5-8.3c-0.4-0.2-0.9-0.2-1.2,0l0,0c-0.4,0.2-0.6,0.6-0.6,1.1v16.7
			c0,0.4,0.2,0.9,0.6,1.1c0.2,0.1,0.4,0.2,0.6,0.2s0.4-0.1,0.6-0.2l14.5-8.3c0.4-0.2,0.6-0.6,0.6-1.1
			C1109.9,99.4,1109.8,99,1109.4,98.8"/>
		<path class="st1" d="M466.6,65.9c-8.8,0-16.9,3.5-23,9.8c-6.1,6.4-9.4,15.2-9.4,24.7c0,9.8,3.1,18.3,9,24.5
			c6.1,6.4,14.6,9.7,24.7,9.7c5.3,0,10.5-1.1,15.2-3.3c4.9-2.3,9-5.5,12.2-9.6l0.3-0.4l-8.1-8.2l-0.4,0.5
			c-4.4,5.1-10.9,8.1-17.9,8.1c-11.9,0-18.5-5.1-20.1-15.4h47.4v-0.5c0.1-4.6,0.1-6.2,0.1-8.5c0-8.4-2.8-16.1-7.9-21.8
			C483.2,69.2,475.5,65.9,466.6,65.9 M482.6,95h-33.5c1.5-10.4,7.3-15.4,17.8-15.4C475.8,79.6,482.1,85.8,482.6,95"/>
		<path class="st1" d="M643,65.9c-19,0-34.4,15.4-34.4,34.4s15.4,34.4,34.4,34.4s34.4-15.4,34.4-34.4S662,65.9,643,65.9
			 M663.8,100.3c0,11.4-9.3,20.8-20.8,20.8c-11.4,0-20.8-9.3-20.8-20.8c0-11.4,9.3-20.8,20.8-20.8S663.8,88.8,663.8,100.3"/>
		<path class="st1" d="M396.2,65.8c-9.9,0-17.2,4.8-21.7,14.2H374l-0.3-12.4h-11.5v88.7H376v-35.4h0.4c1.7,3.9,4.1,7.1,7.1,9.4
			c3.7,2.9,8.2,4.4,13.4,4.4c7.9,0,15.2-3.4,20.5-9.6c5.3-6.3,8.3-15.1,8.3-24.9c0-9.7-2.9-18.5-8.3-24.7
			C412,69.2,404.5,65.8,396.2,65.8 M411.2,100.5c0,12.6-7,21-17.4,21c-5.3,0-9.8-2.2-12.9-6.3c-2.9-3.8-4.5-9.1-4.5-14.9
			c0-5.9,1.7-11.3,4.7-15.1c3.2-4.1,7.8-6.3,13.1-6.3c5,0,9.2,2.1,12.3,6C409.6,88.9,411.2,94.3,411.2,100.5"/>
		<path class="st1" d="M520.8,79.5h-0.4l-0.8-11.8h-11.9V133h14.2V95.2c0-8.6,3.5-12.3,11.6-12.3h9.1V67.6h-4.6
			C528.8,67.6,523.1,71.5,520.8,79.5"/>
		<path class="st1" d="M574,76.7c7.7,0,13.7,4.1,16.4,11.3l0.2,0.5l11-4.1l-0.2-0.5c-2.3-5.8-5.8-10.3-10.4-13.5
			c-4.7-3.2-10.3-4.8-16.7-4.8c-5.9,0-11.8,1.9-16.1,5.3c-4.8,3.7-7.4,9-7.4,14.9c0,5.6,2,10.2,6,13.7c3.4,3,8.1,5.3,14.6,7l0,0
			c0.5,0.1,0.9,0.2,1.4,0.3c3.9,0.9,7.7,1.7,10.3,3c2.8,1.4,4.1,3.2,4.1,5.7c0,5.1-6,7.4-12,7.4c-7.9,0-15.3-4.2-19.2-11l-0.3-0.5
			l-10.2,5.5l0.2,0.5c2.4,5.2,6.4,9.5,11.5,12.4c5.1,3,11.3,4.5,17.9,4.5c7.1,0,13.6-1.7,18.3-4.9c5.2-3.5,8-8.5,8-14.3
			c0.1-5.6-2.3-10-7.1-13.4c-4.5-3.1-10.5-4.9-15.2-6.1c-7.3-2.1-15.5-4.4-15.5-10.7C563.8,81,567.5,76.7,574,76.7"/>
		<path class="st1" d="M721.8,65.9c-4.9,0-9.6,1.5-13.4,4.2c-3.5,2.5-6.3,5.9-8.1,9.9h-0.6V67.7h-13.1V133h14.2V96.6
			c0-2.8,1.2-7.3,3.8-11.2c2.2-3.2,6.1-7.1,12.5-7.1c4.4,0,7.6,1.3,9.6,3.9c2,2.5,2.9,6.3,2.9,11.6V133h14.2V92
			c0-8.1-1.9-14.5-5.6-19.1C734.5,68.3,729,65.9,721.8,65.9"/>
		<path class="st1" d="M810.5,120.1V90.7c0-7.3-2.3-13.4-6.7-17.8c-4.5-4.6-11.1-7-19-7c-14.1,0-23.9,6.4-29.9,19.6l-0.2,0.5
			l12.3,5.7l0.2-0.5c3.4-7.3,10-12.2,16.4-12.2c7.2,0,12.6,4.8,12.6,11.2v4.6h-14.9c-16.7,0-27.1,8-27.1,20.9c0,5.6,2.1,10.4,6,13.7
			c3.7,3.2,8.9,4.9,14.7,4.9c5.3,0,10.3-1.5,14.4-4.4c3.8-2.6,6.8-6.3,8.9-10.6h0.5l-0.1,3.5c0,6.5,3.2,9.9,9.2,9.9h9.2v-11.2h-5.5
			C810.6,121.8,810.5,120.8,810.5,120.1 M796.1,106.7c-0.5,3.9-2.9,7.7-6.7,10.7c-3.4,2.7-7.6,4.5-10.6,4.5c-2.8,0-5.4-0.7-7.2-1.8
			c-1.9-1.2-2.9-3-2.9-5.1c0-2.7,1.7-4.9,4.9-6.3c3-1.3,7.2-2,12.1-2L796.1,106.7z"/>
		<path class="st1" d="M842.5,120.2c-1,0-1.3-0.2-1.5-0.4c-0.3-0.3-0.4-1-0.4-2.1V43.8h-14.2v74.6c0,4.8,1,8.5,2.9,10.9
			s4.9,3.7,8.6,3.7h13.6v-12.7L842.5,120.2L842.5,120.2z"/>
		<polyline class="st2" points="918.5,50.1 918.5,138.6 922.5,138.6 922.5,50.1 		"/>
	</g>
	<rect x="296.1" class="st3" width="1007.7" height="200"/>
</g>
</svg>
