<?xml version="1.0" encoding="utf-8"?>
<!-- Generator: Adobe Illustrator 26.5.0, SVG Export Plug-In . SVG Version: 6.00 Build 0)  -->
<svg version="1.1" id="Layer_1" xmlns="http://www.w3.org/2000/svg" xmlns:xlink="http://www.w3.org/1999/xlink" x="0px" y="0px"
	 viewBox="0 0 1600 200" style="enable-background:new 0 0 1600 200;" xml:space="preserve">
<style type="text/css">
	.st0{fill:none;}
</style>
<g>
	<g>
		<path d="M406.5,54.5h-12.8l-0.8,14h-9.7v11.2h9.6l0.1,38c0,9.4,3.7,14.2,11.1,14.2h15.1v-12.4h-10.6c-1.5,0-1.9-0.3-1.9-2.5V79.7
			h12.6V68.5h-12.7V54.5z"/>
		<path d="M455.6,66.7c-8.5,0-16.4,3.4-22.2,9.5c-5.9,6.2-9.1,14.7-9.1,24c0,9.6,3,17.8,8.7,23.8c5.9,6.2,14.1,9.5,23.9,9.5
			c5.1,0,10.2-1.1,14.7-3.2c4.7-2.2,8.7-5.3,11.8-9.3l0.3-0.4l-7.9-8l-0.4,0.5c-4.3,5-10.6,7.8-17.3,7.8c-11.5,0-17.9-4.9-19.4-15
			h45.8v-0.5c0.1-4.4,0.1-6,0.1-8.3c0-8.1-2.7-15.7-7.7-21.2C471.7,69.9,464.4,66.7,455.6,66.7 M471.1,95h-32.4
			c1.4-10.1,7-15,17.2-15C464.6,80,470.6,86,471.1,95"/>
		<path d="M555.3,66.7c-8.5,0-16.4,3.4-22.2,9.5c-5.9,6.2-9.1,14.7-9.1,24c0,9.6,3,17.8,8.7,23.8c5.9,6.2,14.1,9.5,23.9,9.5
			c5.1,0,10.2-1.1,14.7-3.2c4.7-2.2,8.7-5.3,11.8-9.3l0.3-0.4l-7.9-8l-0.4,0.5c-4.3,5-10.6,7.8-17.3,7.8c-11.5,0-17.9-4.9-19.4-15
			h45.8v-0.5c0.1-4.4,0.1-6,0.1-8.3c0-8.1-2.7-15.7-7.7-21.2C571.3,69.9,564,66.7,555.3,66.7 M570.8,95h-32.4c1.4-10.1,7-15,17.2-15
			C564.2,80,570.3,86,570.8,95"/>
		<path d="M508.9,119c-0.2-0.3-0.4-1-0.4-2.1V45.3h-13.7v72.4c0,4.7,1,8.2,2.8,10.6c1.9,2.4,4.7,3.6,8.4,3.6h13.2v-12.4h-8.9
			C509.4,119.5,509,119.2,508.9,119"/>
		<path d="M824.5,73.5c-3.7-4.5-9.1-6.8-15.8-6.8c-5.2,0-9.7,1.5-13.3,4.4c-3.1,2.5-5.7,6.1-7.7,10.8H787
			c-2.7-9.8-9.5-15.2-19.2-15.2c-9.4,0-16.6,4.9-20.4,13.7H747l-0.9-12h-11.7v63.4H748V96.5c0-3,0.9-7.6,3.4-11.4
			c1.9-3,5.6-6.6,12.1-6.6c7.8,0,11.8,5.1,11.8,15.3v38H789V96.5c0-4,1.3-8.4,3.5-11.6c2-2.9,5.7-6.4,12.1-6.4
			c3.8,0,6.6,1.2,8.5,3.6c2.1,2.5,3.1,6.5,3.1,11.7v38H830V92.1C830,84.3,828,77.9,824.5,73.5"/>
		<path d="M642,111c-4,6.2-10.5,9.8-17.7,9.8c-5,0-9.6-2-12.8-5.7s-5-9-5-14.8c0-6.1,1.8-11.2,5.2-14.8c3-3.2,7.1-5,11.5-5h0.2h0.2
			c2.2,0.1,12.7,0.9,17,11l11.3-5c0,0-5.3-19.6-29.2-19.6c-8.4,0-16.1,3.4-21.7,9.6c-5.6,6.2-8.7,14.8-8.7,24.1
			c0,19.1,12.9,33,30.6,33c6.1,0,11.6-1.3,16.4-4c5-2.8,9.1-6.9,12.1-12.2l0.2-0.4l-9.5-6.3L642,111z"/>
		<path d="M691.8,79.9c7.6,0,14.3,4.3,17.7,10.6h14.2c-4.1-13.8-16.8-23.9-31.9-23.9c-15,0-27.8,10.1-31.9,23.9h14.2
			C677.5,84.2,684.2,79.9,691.8,79.9"/>
		<path d="M712,100.1c0,11.1-9,20.2-20.1,20.2c-11.1,0-20.1-9-20.1-20.2c0-1,0.1-2,0.2-3h-13.3c-0.1,1-0.1,2-0.1,3
			c0,18.4,14.9,33.4,33.2,33.4c18.3,0,33.2-15,33.2-33.4c0-1,0-2-0.1-3h-13.3C711.8,98.1,712,99.1,712,100.1"/>
		<path d="M1078.8,65.3c-19.1,0-34.6,15.5-34.6,34.6s15.5,34.6,34.6,34.6c19.1,0,34.6-15.5,34.6-34.6S1097.9,65.3,1078.8,65.3
			 M1099.8,99.9c0,11.5-9.4,20.9-20.9,20.9s-20.9-9.4-20.9-20.9s9.4-20.9,20.9-20.9S1099.8,88.4,1099.8,99.9"/>
		<path d="M982,46.7c-2.7,2.5-4.1,6.2-4.1,10.7v11.1h-7.7v11.7h7.7v52.5H992V80.3h14.1V68.6H992V57.4c0-1.9,0.8-2.8,2.5-2.8h14.8V43
			h-16.5C988.3,43,984.5,44.3,982,46.7"/>
		<path d="M1030.2,119.5c-0.3-0.3-0.4-1-0.4-2.1V43.1h-14.3v75c0,4.8,1,8.5,3,11c2,2.5,4.9,3.7,8.7,3.7h13.7V120h-9.2
			C1030.6,120,1030.2,119.7,1030.2,119.5"/>
		<polygon points="1204.6,67.1 1190.2,120.9 1189.9,120.9 1174.2,67.5 1174.1,67.1 1159.6,67.1 1144.6,120.9 1144.3,120.9 
			1129.3,67.1 1114.2,67.1 1133.6,132.4 1133.7,132.8 1153.3,132.8 1166.8,86.6 1179.4,132.8 1199.2,132.8 1218.2,67.1 		"/>
		<path d="M1088.4,98.8L1088.4,98.8l-14.5-8.3c-0.4-0.2-0.9-0.2-1.2,0l0,0c-0.4,0.2-0.6,0.6-0.6,1.1v16.7c0,0.4,0.2,0.9,0.6,1.1
			c0.2,0.1,0.4,0.2,0.6,0.2s0.4-0.1,0.6-0.2l14.5-8.3c0.4-0.2,0.6-0.6,0.6-1.1C1089.1,99.4,1088.8,99,1088.4,98.8"/>
		<polyline points="897.5,50.1 897.5,138.6 901.6,138.6 901.6,50.1 		"/>
	</g>
	<rect x="317" class="st0" width="965.9" height="200"/>
</g>
</svg>
