<?xml version="1.0" encoding="utf-8"?>
<!-- Generator: Adobe Illustrator 26.5.0, SVG Export Plug-In . SVG Version: 6.00 Build 0)  -->
<svg version="1.1" id="Layer_1" xmlns="http://www.w3.org/2000/svg" xmlns:xlink="http://www.w3.org/1999/xlink" x="0px" y="0px"
	 viewBox="0 0 1600 200" style="enable-background:new 0 0 1600 200;" xml:space="preserve">
<style type="text/css">
	.st0{fill:#3C00A0;}
	.st1{fill:#00dcaa;}
	.st2{fill:#00b8eb;}
	.st3{fill:#6E6E6E;}
	.st4{fill:none;}
</style>
<g>
	<g>
		<g>
			<path class="st0" d="M93.3,54.5H80.5l-0.8,14H70v11.2h9.6l0.1,38c0,9.4,3.7,14.2,11.1,14.2h15.1v-12.4H95.3
				c-1.5,0-1.9-0.3-1.9-2.5V79.7H106V68.5H93.3V54.5z"/>
			<path class="st0" d="M142.4,66.7c-8.5,0-16.4,3.4-22.2,9.5c-5.9,6.2-9.1,14.7-9.1,24c0,9.6,3,17.8,8.7,23.8
				c5.9,6.2,14.1,9.5,23.9,9.5c5.1,0,10.2-1.1,14.7-3.2c4.7-2.2,8.7-5.3,11.8-9.3l0.3-0.4l-7.9-8l-0.4,0.5c-4.3,5-10.6,7.8-17.3,7.8
				c-11.5,0-17.9-4.9-19.4-15h45.8v-0.5c0.1-4.4,0.1-6,0.1-8.3c0-8.1-2.7-15.7-7.7-21.2C158.5,69.9,151.1,66.7,142.4,66.7 M157.9,95
				h-32.4c1.4-10.1,7-15,17.2-15C151.4,80,157.4,86,157.9,95"/>
			<path class="st0" d="M242.1,66.7c-8.5,0-16.4,3.4-22.2,9.5c-5.9,6.2-9.1,14.7-9.1,24c0,9.6,3,17.8,8.7,23.8
				c5.9,6.2,14.1,9.5,23.9,9.5c5.1,0,10.2-1.1,14.7-3.2c4.7-2.2,8.7-5.3,11.8-9.3l0.3-0.4l-7.9-8l-0.4,0.5c-4.3,5-10.6,7.8-17.3,7.8
				c-11.5,0-17.9-4.9-19.4-15H271v-0.5c0.1-4.4,0.1-6,0.1-8.3c0-8.1-2.7-15.7-7.7-21.2C258.1,69.9,250.7,66.7,242.1,66.7 M257.5,95
				h-32.4c1.4-10.1,7-15,17.2-15C251,80,257.1,86,257.5,95"/>
			<path class="st0" d="M195.7,119c-0.2-0.3-0.4-1-0.4-2.1V45.3h-13.7v72.4c0,4.7,1,8.2,2.8,10.6c1.9,2.4,4.7,3.6,8.4,3.6H206v-12.4
				h-8.9C196.1,119.5,195.8,119.2,195.7,119"/>
			<path class="st0" d="M511.2,73.5c-3.7-4.5-9.1-6.8-15.8-6.8c-5.2,0-9.7,1.5-13.3,4.4c-3.1,2.5-5.7,6.1-7.7,10.8h-0.6
				c-2.7-9.8-9.5-15.2-19.2-15.2c-9.4,0-16.6,4.9-20.4,13.7h-0.5l-0.9-12h-11.7v63.4h13.7V96.5c0-3,0.9-7.6,3.4-11.4
				c1.9-3,5.6-6.6,12.1-6.6c7.8,0,11.8,5.1,11.8,15.3v38h13.7V96.5c0-4,1.3-8.4,3.5-11.6c2-2.9,5.7-6.4,12.1-6.4
				c3.8,0,6.6,1.2,8.5,3.6c2.1,2.5,3.1,6.5,3.1,11.7v38h13.7V92.1C516.8,84.3,514.8,77.9,511.2,73.5"/>
			<path class="st0" d="M328.8,111c-4,6.2-10.5,9.8-17.7,9.8c-5,0-9.6-2-12.8-5.7c-3.2-3.7-5-9-5-14.8c0-6.1,1.8-11.2,5.2-14.8
				c3-3.2,7.1-5,11.5-5h0.2h0.2c2.2,0.1,12.7,0.9,17,11l11.3-5c0,0-5.3-19.6-29.2-19.6c-8.4,0-16.1,3.4-21.7,9.6s-8.7,14.8-8.7,24.1
				c0,19.1,12.9,33,30.6,33c6.1,0,11.6-1.3,16.4-4c5-2.8,9.1-6.9,12.1-12.2l0.2-0.4l-9.5-6.3L328.8,111z"/>
			<path class="st0" d="M378.6,79.9c7.6,0,14.3,4.3,17.7,10.6h14.2c-4.1-13.8-16.8-23.9-31.9-23.9c-15,0-27.8,10.1-31.9,23.9H361
				C364.3,84.2,370.9,79.9,378.6,79.9"/>
			<path class="st0" d="M398.7,100.1c0,11.1-9,20.2-20.1,20.2s-20.1-9-20.1-20.2c0-1,0.1-2,0.2-3h-13.3c-0.1,1-0.1,2-0.1,3
				c0,18.4,14.9,33.4,33.2,33.4s33.2-15,33.2-33.4c0-1,0-2-0.1-3h-13.3C398.6,98.1,398.7,99.1,398.7,100.1"/>
			<path class="st1" d="M1392,65.3c-19.1,0-34.6,15.5-34.6,34.6s15.5,34.6,34.6,34.6s34.6-15.5,34.6-34.6
				C1426.7,80.8,1411.2,65.3,1392,65.3 M1412.9,99.9c0,11.5-9.4,20.9-20.9,20.9s-20.9-9.4-20.9-20.9S1380.5,79,1392,79
				S1412.9,88.4,1412.9,99.9"/>
			<path class="st1" d="M1295.2,46.7c-2.7,2.5-4.1,6.2-4.1,10.7v11.1h-7.7v11.7h7.7v52.5h14.1V80.3h14.1V68.6h-14.1V57.4
				c0-1.9,0.8-2.8,2.5-2.8h14.8V43H1306C1301.5,43,1297.8,44.3,1295.2,46.7"/>
			<path class="st1" d="M1343.3,119.5c-0.3-0.3-0.4-1-0.4-2.1V43.1h-14.3v75c0,4.8,1,8.5,3,11c2,2.5,4.9,3.7,8.7,3.7h13.7V120h-9.2
				C1343.8,120,1343.4,119.7,1343.3,119.5"/>
			<polygon class="st1" points="1517.8,67.1 1503.4,120.9 1503.2,120.9 1487.3,67.5 1487.2,67.1 1472.8,67.1 1457.8,120.9 
				1457.5,120.9 1442.5,67.1 1427.4,67.1 1446.8,132.4 1446.8,132.8 1466.5,132.8 1479.9,86.6 1492.7,132.8 1512.4,132.8 
				1531.4,67.1 			"/>
			<path class="st1" d="M1401.7,98.8L1401.7,98.8l-14.5-8.3c-0.4-0.2-0.9-0.2-1.2,0l0,0c-0.4,0.2-0.6,0.6-0.6,1.1v16.7
				c0,0.4,0.2,0.9,0.6,1.1c0.2,0.1,0.4,0.2,0.6,0.2s0.4-0.1,0.6-0.2l14.5-8.3c0.4-0.2,0.6-0.6,0.6-1.1
				C1402.2,99.4,1402,99,1401.7,98.8"/>
			<path class="st2" d="M758.9,65.9c-8.8,0-16.9,3.5-23,9.8c-6.1,6.4-9.4,15.2-9.4,24.7c0,9.8,3.1,18.3,9,24.5
				c6.1,6.4,14.6,9.7,24.7,9.7c5.3,0,10.5-1.1,15.2-3.3c4.9-2.3,9-5.5,12.2-9.6l0.3-0.4l-8.1-8.2l-0.4,0.5
				c-4.4,5.1-10.9,8.1-17.9,8.1c-11.9,0-18.5-5.1-20.1-15.4h47.4v-0.5c0.1-4.6,0.1-6.2,0.1-8.5c0-8.4-2.8-16.1-7.9-21.8
				C775.5,69.2,767.8,65.9,758.9,65.9 M774.9,95h-33.5c1.5-10.4,7.3-15.4,17.8-15.4C768.1,79.6,774.4,85.8,774.9,95"/>
			<path class="st2" d="M935.3,65.9c-19,0-34.4,15.4-34.4,34.4s15.4,34.4,34.4,34.4s34.4-15.4,34.4-34.4S954.3,65.9,935.3,65.9
				 M956.1,100.3c0,11.4-9.3,20.8-20.8,20.8c-11.4,0-20.8-9.3-20.8-20.8c0-11.4,9.3-20.8,20.8-20.8S956.1,88.8,956.1,100.3"/>
			<path class="st2" d="M688.5,65.8c-9.9,0-17.2,4.8-21.7,14.2h-0.5L666,67.6h-11.5v88.7h13.8v-35.4h0.4c1.7,3.9,4.1,7.1,7.1,9.4
				c3.7,2.9,8.2,4.4,13.4,4.4c7.9,0,15.2-3.4,20.5-9.6c5.3-6.3,8.3-15.1,8.3-24.9c0-9.7-2.9-18.5-8.3-24.7
				C704.3,69.2,696.8,65.8,688.5,65.8 M703.5,100.5c0,12.6-7,21-17.4,21c-5.3,0-9.8-2.2-12.9-6.3c-2.9-3.8-4.5-9.1-4.5-14.9
				c0-5.9,1.7-11.3,4.7-15.1c3.2-4.1,7.8-6.3,13.1-6.3c5,0,9.2,2.1,12.3,6C701.9,88.9,703.5,94.3,703.5,100.5"/>
			<path class="st2" d="M813,79.5h-0.4l-0.8-11.8h-11.9V133h14.2V95.2c0-8.6,3.5-12.3,11.6-12.3h9.1V67.6h-4.6
				C821,67.6,815.4,71.5,813,79.5"/>
			<path class="st2" d="M866.3,76.7c7.7,0,13.7,4.1,16.4,11.3l0.2,0.5l11-4.1l-0.2-0.5c-2.3-5.8-5.8-10.3-10.4-13.5
				c-4.7-3.2-10.3-4.8-16.7-4.8c-5.9,0-11.8,1.9-16.1,5.3c-4.8,3.7-7.4,9-7.4,14.9c0,5.6,2,10.2,6,13.7c3.4,3,8.1,5.3,14.6,7l0,0
				c0.5,0.1,0.9,0.2,1.4,0.3c3.9,0.9,7.7,1.7,10.3,3c2.8,1.4,4.1,3.2,4.1,5.7c0,5.1-6,7.4-12,7.4c-7.9,0-15.3-4.2-19.2-11l-0.3-0.5
				l-10.2,5.5l0.2,0.5c2.4,5.2,6.4,9.5,11.5,12.4c5.1,3,11.3,4.5,17.9,4.5c7.1,0,13.6-1.7,18.3-4.9c5.2-3.5,8-8.5,8-14.3
				c0.1-5.6-2.3-10-7.1-13.4c-4.5-3.1-10.5-4.9-15.2-6.1c-7.3-2.1-15.5-4.4-15.5-10.7C856,81,859.8,76.7,866.3,76.7"/>
			<path class="st2" d="M1014.1,65.9c-4.9,0-9.6,1.5-13.4,4.2c-3.5,2.5-6.3,5.9-8.1,9.9H992V67.7H979V133h14.2V96.6
				c0-2.8,1.2-7.3,3.8-11.2c2.2-3.2,6.1-7.1,12.5-7.1c4.4,0,7.6,1.3,9.6,3.9c2,2.5,2.9,6.3,2.9,11.6V133h14.2V92
				c0-8.1-1.9-14.5-5.6-19.1C1026.8,68.3,1021.2,65.9,1014.1,65.9"/>
			<path class="st2" d="M1102.8,120.1V90.7c0-7.3-2.3-13.4-6.7-17.8c-4.5-4.6-11.1-7-19-7c-14.1,0-23.9,6.4-29.9,19.6L1047,86
				l12.3,5.7l0.2-0.5c3.4-7.3,10-12.2,16.4-12.2c7.2,0,12.6,4.8,12.6,11.2v4.6h-14.9c-16.7,0-27.1,8-27.1,20.9
				c0,5.6,2.1,10.4,6,13.7c3.7,3.2,8.9,4.9,14.7,4.9c5.3,0,10.3-1.5,14.4-4.4c3.8-2.6,6.8-6.3,8.9-10.6h0.5l-0.1,3.5
				c0,6.5,3.2,9.9,9.2,9.9h9.2v-11.2h-5.5C1102.9,121.8,1102.8,120.8,1102.8,120.1 M1088.4,106.7c-0.5,3.9-2.9,7.7-6.7,10.7
				c-3.4,2.7-7.6,4.5-10.6,4.5c-2.8,0-5.4-0.7-7.2-1.8c-1.9-1.2-2.9-3-2.9-5.1c0-2.7,1.7-4.9,4.9-6.3c3-1.3,7.2-2,12.1-2
				C1078.1,106.7,1088.4,106.7,1088.4,106.7z"/>
			<path class="st2" d="M1134.8,120.2c-1,0-1.3-0.2-1.5-0.4c-0.3-0.3-0.4-1-0.4-2.1V43.8h-14.2v74.6c0,4.8,1,8.5,2.9,10.9
				s4.9,3.7,8.6,3.7h13.6v-12.7L1134.8,120.2L1134.8,120.2z"/>
			<polyline class="st3" points="1210.8,50.1 1210.8,138.6 1214.8,138.6 1214.8,50.1 			"/>
			<polyline class="st3" points="584.3,50.1 584.3,138.6 588.4,138.6 588.4,50.1 			"/>
		</g>
	</g>
	<rect class="st4" width="1600" height="200"/>
</g>
</svg>
