<?xml version="1.0" encoding="utf-8"?>
<!-- Generator: Adobe Illustrator 27.3.1, SVG Export Plug-In . SVG Version: 6.00 Build 0)  -->
<svg version="1.1" id="Layer_1" xmlns="http://www.w3.org/2000/svg" xmlns:xlink="http://www.w3.org/1999/xlink" x="0px" y="0px"
	 viewBox="0 0 512 512" style="enable-background:new 0 0 512 512;" xml:space="preserve">
<style type="text/css">
	.st0{fill:#FFFFFF;}
</style>
<path class="st0" d="M272,0h124.1C408.8,0,421,5.1,430,14.1L497.9,82c9,9,14.1,21.2,14.1,33.9V336c0,26.5-21.5,48-48,48H272
	c-26.5,0-48-21.5-48-48V48C224,21.5,245.5,0,272,0z M48,128h144v64H64v256h192v-32h64v48c0,26.5-21.5,48-48,48H48
	c-26.5,0-48-21.5-48-48V176C0,149.5,21.5,128,48,128z"/>
</svg>
