<?xml version="1.0" encoding="utf-8"?>
<!-- Generator: Adobe Illustrator 27.3.1, SVG Export Plug-In . SVG Version: 6.00 Build 0)  -->
<svg version="1.1" id="Layer_1" xmlns="http://www.w3.org/2000/svg" xmlns:xlink="http://www.w3.org/1999/xlink" x="0px" y="0px"
	 viewBox="0 0 372.6 200" style="enable-background:new 0 0 372.6 200;" xml:space="preserve">
<g>
	<path d="M171.5,66.7c-18.4,0-33.3,15-33.3,33.3c0,18.4,15,33.3,33.3,33.3c18.4,0,33.3-15,33.3-33.3
		C204.8,81.6,189.8,66.7,171.5,66.7z M171.5,120.1c-11.1,0-20.1-9-20.1-20.1s9-20.1,20.1-20.1c11.1,0,20.1,9,20.1,20.1
		S182.6,120.1,171.5,120.1z"/>
	<path d="M78.1,48.8c-2.6,2.4-3.9,6-3.9,10.3v10.7h-7.4v11.3h7.4v50.6h13.6V81.1h13.6V69.8H87.7V59.1c0-1.9,0.8-2.7,2.4-2.7h14.3
		V45.2H88.5C84.2,45.2,80.6,46.4,78.1,48.8z"/>
	<path d="M124.5,118.9c-0.3-0.3-0.4-1-0.4-2.1V45.3h-13.7v72.3c0,4.7,1,8.2,2.8,10.6c1.9,2.4,4.7,3.6,8.4,3.6h13.2v-12.4h-8.9
		C124.9,119.4,124.6,119.1,124.5,118.9z"/>
	<polygon points="292.7,68.4 278.8,120.3 278.6,120.3 263.4,68.8 263.3,68.4 249.3,68.4 234.8,120.3 234.6,120.3 220.1,68.4 
		205.6,68.4 224.2,131.3 224.3,131.7 243.2,131.7 256.2,87.2 268.5,131.7 287.6,131.7 305.9,68.4 	"/>
	<path d="M180.7,99l-13.9-8c-0.4-0.2-0.8-0.2-1.2,0c-0.4,0.2-0.6,0.6-0.6,1v16c0,0.4,0.2,0.8,0.6,1c0.2,0.1,0.4,0.2,0.6,0.2
		s0.4-0.1,0.6-0.2l13.9-8c0.4-0.2,0.6-0.6,0.6-1C181.3,99.6,181.1,99.2,180.7,99z"/>
</g>
</svg>
