<?xml version="1.0" encoding="utf-8"?>
<!-- Generator: Adobe Illustrator 27.3.1, SVG Export Plug-In . SVG Version: 6.00 Build 0)  -->
<svg version="1.1" id="Layer_1" xmlns="http://www.w3.org/2000/svg" xmlns:xlink="http://www.w3.org/1999/xlink" x="0px" y="0px"
	 viewBox="0 0 965.9 200" style="enable-background:new 0 0 965.9 200;" xml:space="preserve">
<g>
	<path d="M89.5,54.5H76.7l-0.8,14h-9.7v11.2h9.6l0.1,38c0,9.4,3.7,14.2,11.1,14.2h15.1v-12.4H91.5c-1.5,0-1.9-0.3-1.9-2.5V79.7h12.6
		V68.5H89.5V54.5z"/>
	<path d="M138.6,66.7c-8.5,0-16.4,3.4-22.2,9.5c-5.9,6.2-9.1,14.7-9.1,24c0,9.6,3,17.8,8.7,23.8c5.9,6.2,14.1,9.5,23.9,9.5
		c5.1,0,10.2-1.1,14.7-3.2c4.7-2.2,8.7-5.3,11.8-9.3l0.3-0.4l-7.9-8l-0.4,0.5c-4.3,5-10.6,7.8-17.3,7.8c-11.5,0-17.9-4.9-19.4-15
		h45.8v-0.5c0.1-4.4,0.1-6,0.1-8.3c0-8.1-2.7-15.7-7.7-21.2C154.7,69.9,147.3,66.7,138.6,66.7z M121.7,95c1.4-10.1,7-15,17.2-15
		c8.7,0,14.7,6,15.2,15H121.7z"/>
	<path d="M238.3,66.7c-8.5,0-16.4,3.4-22.2,9.5c-5.9,6.2-9.1,14.7-9.1,24c0,9.6,3,17.8,8.7,23.8c5.9,6.2,14.1,9.5,23.9,9.5
		c5.1,0,10.2-1.1,14.7-3.2c4.7-2.2,8.7-5.3,11.8-9.3l0.3-0.4l-7.9-8l-0.4,0.5c-4.3,5-10.6,7.8-17.3,7.8c-11.5,0-17.9-4.9-19.4-15
		h45.8v-0.5c0.1-4.4,0.1-6,0.1-8.3c0-8.1-2.7-15.7-7.7-21.2C254.3,69.9,246.9,66.7,238.3,66.7z M221.3,95c1.4-10.1,7-15,17.2-15
		c8.7,0,14.8,6,15.2,15H221.3z"/>
	<path d="M191.9,119c-0.2-0.3-0.4-1-0.4-2.1V45.3h-13.7v72.4c0,4.7,1,8.2,2.8,10.6c1.9,2.4,4.7,3.6,8.4,3.6h13.2v-12.4h-8.9
		C192.3,119.5,192,119.2,191.9,119z"/>
	<path d="M491.6,66.7c-5.2,0-9.7,1.5-13.3,4.4c-3.1,2.5-5.7,6.1-7.7,10.8H470c-2.7-9.8-9.5-15.2-19.2-15.2
		c-9.4,0-16.6,4.9-20.4,13.7h-0.5l-0.9-12h-11.7v63.4H431V96.5c0-3,0.9-7.6,3.4-11.4c1.9-3,5.6-6.6,12.1-6.6
		c7.8,0,11.8,5.1,11.8,15.3v38H472V96.5c0-4,1.3-8.4,3.5-11.6c2-2.9,5.7-6.4,12.1-6.4c3.8,0,6.6,1.2,8.5,3.6
		c2.1,2.5,3.1,6.5,3.1,11.7v38h13.7V92.1c0-7.8-1.9-14.2-5.5-18.6C503.7,69,498.3,66.7,491.6,66.7z"/>
	<path d="M306.2,80.5h0.2h0.2c2.2,0.1,12.7,0.9,17,11l11.3-5c0,0-5.3-19.6-29.2-19.6c-8.4,0-16.1,3.4-21.7,9.6s-8.7,14.8-8.7,24.1
		c0,19.1,12.9,33,30.6,33c6.1,0,11.6-1.3,16.4-4c5-2.8,9.1-6.9,12.1-12.2l0.2-0.4l-9.5-6.3L325,111c-4,6.2-10.5,9.8-17.7,9.8
		c-5,0-9.6-2-12.8-5.7c-3.2-3.7-5-9-5-14.8c0-6.1,1.8-11.2,5.2-14.8C297.7,82.3,301.8,80.5,306.2,80.5z"/>
	<path d="M374.8,79.9c7.6,0,14.3,4.3,17.7,10.6h14.2c-4.1-13.8-16.8-23.9-31.9-23.9c-15,0-27.8,10.1-31.9,23.9h14.2
		C360.5,84.2,367.1,79.9,374.8,79.9z"/>
	<path d="M394.5,97.1c0.3,1,0.4,2,0.4,3c0,11.1-9,20.2-20.1,20.2s-20.1-9-20.1-20.2c0-1,0.1-2,0.2-3h-13.3c-0.1,1-0.1,2-0.1,3
		c0,18.4,14.9,33.4,33.2,33.4c18.3,0,33.2-15,33.2-33.4c0-1,0-2-0.1-3H394.5z"/>
	<path d="M761.8,65.3c-19.1,0-34.6,15.5-34.6,34.6s15.5,34.6,34.6,34.6s34.6-15.5,34.6-34.6C796.4,80.8,780.9,65.3,761.8,65.3z
		 M761.8,120.8c-11.5,0-20.9-9.4-20.9-20.9S750.3,79,761.8,79s20.9,9.4,20.9,20.9S773.3,120.8,761.8,120.8z"/>
	<path d="M664.9,46.7c-2.7,2.5-4.1,6.2-4.1,10.7v11.1h-7.7v11.7h7.7v52.5h14.1V80.3H689V68.6h-14.1V57.4c0-1.9,0.8-2.8,2.5-2.8h14.8
		V43h-16.5C671.3,43,667.5,44.3,664.9,46.7z"/>
	<path d="M713.1,119.5c-0.3-0.3-0.4-1-0.4-2.1V43.1h-14.3v75c0,4.8,1,8.5,3,11c2,2.5,4.9,3.7,8.7,3.7h13.7V120h-9.2
		C713.5,120,713.2,119.7,713.1,119.5z"/>
	<polygon points="887.5,67.1 873.2,120.9 872.9,120.9 857.1,67.5 857,67.1 842.5,67.1 827.5,120.9 827.3,120.9 812.3,67.1 
		797.2,67.1 816.5,132.4 816.6,132.8 836.3,132.8 849.7,86.6 862.4,132.8 882.2,132.8 901.2,67.1 	"/>
	<path d="M771.4,98.8l-14.5-8.3c-0.4-0.2-0.9-0.2-1.2,0c-0.4,0.2-0.6,0.6-0.6,1.1v16.7c0,0.4,0.2,0.9,0.6,1.1
		c0.2,0.1,0.4,0.2,0.6,0.2s0.4-0.1,0.6-0.2l14.5-8.3c0.4-0.2,0.6-0.6,0.6-1.1C772,99.4,771.8,99,771.4,98.8z"/>
	<rect x="580.5" y="50.1" width="4.1" height="88.5"/>
</g>
</svg>
