<?xml version="1.0" encoding="utf-8"?>
<!-- Generator: Adobe Illustrator 27.3.1, SVG Export Plug-In . SVG Version: 6.00 Build 0)  -->
<svg version="1.1" id="Layer_1" xmlns="http://www.w3.org/2000/svg" xmlns:xlink="http://www.w3.org/1999/xlink" x="0px" y="0px"
	 viewBox="0 0 965.9 200" style="enable-background:new 0 0 965.9 200;" xml:space="preserve">
<style type="text/css">
	.st0{fill:#3C00A0;}
	.st1{fill:#00dcaa;}
	.st2{fill:#6E6E6E;}
</style>
<g>
	<g>
		<g>
			<path class="st0" d="M93.3,54.5H80.5l-0.8,14H70v11.2h9.6l0.1,38c0,9.4,3.7,14.2,11.1,14.2h15.1v-12.4H95.3
				c-1.5,0-1.9-0.3-1.9-2.5V79.7H106V68.5H93.3V54.5z"/>
			<path class="st0" d="M142.4,66.7c-8.5,0-16.4,3.4-22.2,9.5c-5.9,6.2-9.1,14.7-9.1,24c0,9.6,3,17.8,8.7,23.8
				c5.9,6.2,14.1,9.5,23.9,9.5c5.1,0,10.2-1.1,14.7-3.2c4.7-2.2,8.7-5.3,11.8-9.3l0.3-0.4l-7.9-8l-0.4,0.5c-4.3,5-10.6,7.8-17.3,7.8
				c-11.5,0-17.9-4.9-19.4-15h45.8v-0.5c0.1-4.4,0.1-6,0.1-8.3c0-8.1-2.7-15.7-7.7-21.2C158.5,69.9,151.1,66.7,142.4,66.7z
				 M125.5,95c1.4-10.1,7-15,17.2-15c8.7,0,14.7,6,15.2,15H125.5z"/>
			<path class="st0" d="M242.1,66.7c-8.5,0-16.4,3.4-22.2,9.5c-5.9,6.2-9.1,14.7-9.1,24c0,9.6,3,17.8,8.7,23.8
				c5.9,6.2,14.1,9.5,23.9,9.5c5.1,0,10.2-1.1,14.7-3.2c4.7-2.2,8.7-5.3,11.8-9.3l0.3-0.4l-7.9-8l-0.4,0.5c-4.3,5-10.6,7.8-17.3,7.8
				c-11.5,0-17.9-4.9-19.4-15H271v-0.5c0.1-4.4,0.1-6,0.1-8.3c0-8.1-2.7-15.7-7.7-21.2C258.1,69.9,250.7,66.7,242.1,66.7z M225.1,95
				c1.4-10.1,7-15,17.2-15c8.7,0,14.8,6,15.2,15H225.1z"/>
			<path class="st0" d="M195.7,119c-0.2-0.3-0.4-1-0.4-2.1V45.3h-13.7v72.4c0,4.7,1,8.2,2.8,10.6c1.9,2.4,4.7,3.6,8.4,3.6H206v-12.4
				h-8.9C196.1,119.5,195.8,119.2,195.7,119z"/>
			<path class="st0" d="M511.2,73.5c-3.7-4.5-9.1-6.8-15.8-6.8c-5.2,0-9.7,1.5-13.3,4.4c-3.1,2.5-5.7,6.1-7.7,10.8h-0.6
				c-2.7-9.8-9.5-15.2-19.2-15.2c-9.4,0-16.6,4.9-20.4,13.7h-0.5l-0.9-12h-11.7v63.4h13.7V96.5c0-3,0.9-7.6,3.4-11.4
				c1.9-3,5.6-6.6,12.1-6.6c7.8,0,11.8,5.1,11.8,15.3v38h13.7V96.5c0-4,1.3-8.4,3.5-11.6c2-2.9,5.7-6.4,12.1-6.4
				c3.8,0,6.6,1.2,8.5,3.6c2.1,2.5,3.1,6.5,3.1,11.7v38h13.7V92.1C516.8,84.3,514.8,77.9,511.2,73.5z"/>
			<path class="st0" d="M310,80.5h0.2h0.2c2.2,0.1,12.7,0.9,17,11l11.3-5c0,0-5.3-19.6-29.2-19.6c-8.4,0-16.1,3.4-21.7,9.6
				s-8.7,14.8-8.7,24.1c0,19.1,12.9,33,30.6,33c6.1,0,11.6-1.3,16.4-4c5-2.8,9.1-6.9,12.1-12.2l0.2-0.4l-9.5-6.3l-0.1,0.3
				c-4,6.2-10.5,9.8-17.7,9.8c-5,0-9.6-2-12.8-5.7c-3.2-3.7-5-9-5-14.8c0-6.1,1.8-11.2,5.2-14.8C301.5,82.3,305.6,80.5,310,80.5z"/>
			<path class="st0" d="M378.6,79.9c7.6,0,14.3,4.3,17.7,10.6h14.2c-4.1-13.8-16.8-23.9-31.9-23.9c-15,0-27.8,10.1-31.9,23.9H361
				C364.3,84.2,370.9,79.9,378.6,79.9z"/>
			<path class="st0" d="M398.3,97.1c0.3,1,0.4,2,0.4,3c0,11.1-9,20.2-20.1,20.2s-20.1-9-20.1-20.2c0-1,0.1-2,0.2-3h-13.3
				c-0.1,1-0.1,2-0.1,3c0,18.4,14.9,33.4,33.2,33.4c18.3,0,33.2-15,33.2-33.4c0-1,0-2-0.1-3H398.3z"/>
		</g>
		<path class="st1" d="M761.7,65.3c-19.1,0-34.6,15.5-34.6,34.6s15.5,34.6,34.6,34.6s34.6-15.5,34.6-34.6
			C796.4,80.8,780.9,65.3,761.7,65.3 M782.6,99.9c0,11.5-9.4,20.9-20.9,20.9s-20.9-9.4-20.9-20.9S750.2,79,761.7,79
			S782.6,88.4,782.6,99.9"/>
		<path class="st1" d="M664.9,46.7c-2.7,2.5-4.1,6.2-4.1,10.7v11.1h-7.7v11.7h7.7v52.5h14.1V80.3H689V68.6h-14.1V57.4
			c0-1.9,0.8-2.8,2.5-2.8h14.8V43h-16.5C671.2,43,667.5,44.3,664.9,46.7"/>
		<path class="st1" d="M713,119.5c-0.3-0.3-0.4-1-0.4-2.1V43.1h-14.3v75c0,4.8,1,8.5,3,11c2,2.5,4.9,3.7,8.7,3.7h13.7V120h-9.2
			C713.5,120,713.1,119.7,713,119.5"/>
		<polygon class="st1" points="887.5,67.1 873.1,120.9 872.9,120.9 857,67.5 856.9,67.1 842.5,67.1 827.5,120.9 827.2,120.9 
			812.2,67.1 797.1,67.1 816.5,132.4 816.5,132.8 836.2,132.8 849.6,86.6 862.4,132.8 882.1,132.8 901.1,67.1 		"/>
		<path class="st1" d="M771.4,98.8L771.4,98.8l-14.5-8.3c-0.4-0.2-0.9-0.2-1.2,0l0,0c-0.4,0.2-0.6,0.6-0.6,1.1v16.7
			c0,0.4,0.2,0.9,0.6,1.1c0.2,0.1,0.4,0.2,0.6,0.2s0.4-0.1,0.6-0.2l14.5-8.3c0.4-0.2,0.6-0.6,0.6-1.1
			C771.9,99.4,771.7,99,771.4,98.8"/>
		<polyline class="st2" points="580.5,50.1 580.5,138.6 584.5,138.6 584.5,50.1 		"/>
	</g>
</g>
</svg>
