<?xml version="1.0" encoding="UTF-8"?><svg id="Layer_2" xmlns="http://www.w3.org/2000/svg" viewBox="0 0 215.24 185.14"><defs><style>.cls-1{fill:#8be1f7;}.cls-2{fill:#3f0a9e;}.cls-3{fill:#ca8afd;stroke-miterlimit:10;}.cls-3,.cls-4,.cls-5,.cls-6{stroke:#3f0a9e;stroke-width:3px;}.cls-4{fill:#f0e6ff;}.cls-4,.cls-5,.cls-7,.cls-6{stroke-linecap:round;stroke-linejoin:round;}.cls-5{fill:#fafafa;}.cls-7{stroke:#ff7474;stroke-width:8.51px;}.cls-7,.cls-6{fill:none;}</style></defs><g id="_Layer_"><g><g><rect class="cls-4" x="27.57" y="19.54" width="111.91" height="149.27" rx="8" ry="8" transform="translate(-34.91 51.53) rotate(-28.63)"/><line class="cls-7" x1="23.55" y1="67.69" x2="62.73" y2="46.31"/><line class="cls-7" x1="30.46" y1="80.35" x2="54.48" y2="67.24"/><line class="cls-6" x1="44.2" y1="105.5" x2="113.28" y2="67.8"/><line class="cls-6" x1="59.62" y1="133.77" x2="113.68" y2="104.26"/><line class="cls-6" x1="75.05" y1="162.03" x2="126.15" y2="134.14"/><line class="cls-6" x1="64.77" y1="143.19" x2="118.82" y2="113.68"/><line class="cls-6" x1="49.34" y1="114.93" x2="89.85" y2="92.81"/><line class="cls-6" x1="69.91" y1="152.61" x2="114.38" y2="128.34"/><line class="cls-6" x1="54.48" y1="124.35" x2="108.54" y2="94.84"/></g><rect class="cls-5" x="74.9" y="1.5" width="111.91" height="149.27" rx="8" ry="8"/><line class="cls-7" x1="90.91" y1="24.16" x2="154.58" y2="24.16"/><line class="cls-7" x1="90.91" y1="38.58" x2="137.07" y2="38.58"/><line class="cls-6" x1="90.91" y1="67.24" x2="169.62" y2="67.24"/><line class="cls-6" x1="90.91" y1="99.44" x2="152.5" y2="99.44"/><line class="cls-6" x1="90.91" y1="131.64" x2="149.13" y2="131.64"/><line class="cls-6" x1="90.91" y1="110.17" x2="152.5" y2="110.17"/><line class="cls-6" x1="90.91" y1="77.97" x2="137.07" y2="77.97"/><line class="cls-6" x1="90.91" y1="120.91" x2="141.58" y2="120.91"/><line class="cls-6" x1="90.91" y1="88.71" x2="152.5" y2="88.71"/><g><path class="cls-3" d="M185.65,78.25c-13.93,0-25.25,11.33-25.25,25.25s11.33,25.25,25.25,25.25,25.25-11.33,25.25-25.25-11.33-25.25-25.25-25.25Z"/><g><path class="cls-1" d="M212.67,84.27h0c-2.1-2.1-5.5-2.1-7.6,0l-20.27,20.27-6.22-6.22c-2.1-2.1-5.5-2.1-7.6,0-2.1,2.1-2.1,5.5,0,7.6l9.56,9.56c1.17,1.17,2.73,1.66,4.25,1.53,1.52,.13,3.09-.36,4.25-1.53l23.61-23.61c2.1-2.1,2.1-5.5,0-7.6Z"/><path class="cls-2" d="M184.33,118.04c-1.69,0-3.3-.66-4.49-1.84l-9.56-9.56c-1.2-1.21-1.87-2.81-1.87-4.51s.66-3.3,1.87-4.51c2.49-2.49,6.53-2.49,9.02,0l5.51,5.51,19.56-19.56c2.49-2.49,6.53-2.49,9.02,0,0,0,0,0,0,0,2.48,2.49,2.48,6.53,0,9.02l-23.61,23.61c-1.3,1.3-3.1,1.96-4.96,1.83-.16,.01-.32,.02-.47,.02Zm-9.55-20.28c-1.12,0-2.24,.43-3.09,1.28-.82,.82-1.28,1.92-1.28,3.09s.45,2.26,1.28,3.09l9.56,9.56c.9,.9,2.16,1.35,3.46,1.24,.06,0,.11,0,.17,0,1.3,.11,2.56-.34,3.46-1.24l23.61-23.61c1.7-1.7,1.7-4.47,0-6.17-1.7-1.7-4.47-1.7-6.17,0l-20.27,20.27c-.39,.39-1.03,.39-1.42,0l-6.22-6.22c-.85-.85-1.97-1.28-3.09-1.28Z"/></g></g></g></g></svg>