<?xml version="1.0" encoding="utf-8"?>
<!-- Generator: Adobe Illustrator 26.5.0, SVG Export Plug-In . SVG Version: 6.00 Build 0)  -->
<svg version="1.1" id="Layer_1" xmlns="http://www.w3.org/2000/svg" xmlns:xlink="http://www.w3.org/1999/xlink" x="0px" y="0px"
	 viewBox="0 0 350 350" style="enable-background:new 0 0 350 350;" xml:space="preserve">
<style type="text/css">
	.st0{fill:none;stroke:#3F0A9E;stroke-width:2.7;stroke-linecap:round;stroke-linejoin:round;stroke-dasharray:0,0,17.78,17.78;}
	.st1{fill:#FFFFFF;}
	.st2{fill:#F0E6FF;}
	.st3{fill:#3F0A9E;}
	.st4{fill:#8BE1F7;}
	.st5{fill:#00E6C2;}
	.st6{fill:none;stroke:#3F0A9E;stroke-width:3.6;stroke-miterlimit:10;}
	.st7{fill:#FFE780;}
	.st8{fill:#CA8AFD;}
	.st9{fill:#FF7474;}
</style>
<g>
	<g id="_Layer_">
		<g>
			<g>
				<circle class="st0" cx="174.9" cy="175.1" r="135.8"/>
				<path class="st1" d="M128.4,51.9c-2.4-7.5-11.1-14.1-19.4-11c-23.9,8.9-42.6,26.6-55.3,48.6C40.2,113,34,139.7,28.3,165.9
					c-1.8,8,2.4,17.4,11,19.4c8,1.8,17.5-2.4,19.4-11c2.6-11.9,5.2-23.9,8.7-35.6c1.8-6,3.7-11.9,6-17.7c0.1-0.2,0.8-2.1,1.1-2.7
					c0.3-0.7,1-2.3,1.1-2.5c1.3-2.7,2.6-5.4,4.1-8c2.4-4.4,5.2-8.7,8.1-12.8c0.2-0.3,0.3-0.5,0.5-0.7c0.1-0.1,0.3-0.3,0.4-0.5
					c0.7-0.9,1.5-1.8,2.2-2.6c1.7-1.9,3.4-3.8,5.2-5.5c1.9-1.9,4-3.7,6.1-5.5c0.2-0.1,0.3-0.2,0.4-0.3c0.1,0,0.1-0.1,0.2-0.1
					c0.9-0.6,1.8-1.3,2.8-1.9c2.3-1.5,4.6-2.9,7-4.2c0.9-0.5,1.9-0.9,2.8-1.4c-0.6,0.3,1.4-0.6,2.2-0.9
					C125.1,68.4,131.2,60.5,128.4,51.9L128.4,51.9z"/>
				<path class="st1" d="M277.4,266.2c-6.5-6-15.8-6-22.3,0c-0.3,0.3-3.2,2.8-3.1,2.8c-1.1,0.9-2.3,1.7-3.5,2.4
					c-2.9,1.9-5.9,3.6-8.9,5.1c-1.5,0.8-3.1,1.5-4.7,2.2c-0.6,0.3-1.3,0.6-1.9,0.9c-0.2,0.1-0.6,0.2-1.1,0.5
					c-3.2,1.2-6.5,2.5-9.8,3.6c-14.1,5-28.5,10-43.3,12.2c0.2-0.1-3.1,0.3-3.6,0.4c-1.8,0.1-3.5,0.3-5.3,0.4c-3.5,0.2-7,0.2-10.6,0
					c-3.2-0.1-6.4-0.4-9.6-0.8c0.4,0-3.7-0.6-4.2-0.7c-1.5-0.3-3-0.6-4.4-0.9c-6.6-1.5-13.1-3.5-19.5-6c0.7,0.2-3.4-1.5-3.8-1.7
					c-1.4-0.6-2.7-1.3-4.1-2c-3.6-1.9-7-3.9-10.4-6.1c-6.9-4.5-17.7-1.6-21.6,5.6c-4.1,7.8-1.8,16.8,5.7,21.5
					c28.7,18.5,63.5,25.7,97.2,20.9c16.7-2.4,32.9-7.9,48.7-13.6c16.1-5.9,31.5-13,44.2-24.7C283.5,282.9,283.5,271.8,277.4,266.2
					L277.4,266.2z"/>
				<path class="st1" d="M324.2,184.8c-4.3-16.9-8.5-34-13-50.9c-4-14.9-9.7-29.2-18.3-42c-15.5-23.1-37.1-41.2-60.8-55.5
					c-1.7,2-3.5,3.8-5.2,5.8c2.1,0.6,3.6,2.6,3.7,4.8c0.1,2.7-2.4,5-5,5c-0.1,0-0.2,0-0.3,0c-0.2,0-0.4,0.1-0.6,0.2
					c-0.2,0.1-0.4,0.2-0.6,0.3c-1,0.7-2.2,0.9-3.4,0.6c-0.1,0.2-0.2,0.5-0.3,0.8c-1.4,3.2-2.9,6.4-4.6,9.5c4.2,2.5,8.4,5.2,12.4,8
					c2.5,1.7,4.9,3.4,7.3,5.2c0.1,0.1,2.8,2.2,3.2,2.5c1.1,0.9,2.2,1.8,3.2,2.7c5,4.3,9.7,8.9,14.1,13.7c2,2.2,3.8,4.4,5.7,6.6
					c0.2,0.3,1.7,2.3,2,2.7c0.9,1.3,1.9,2.7,2.8,4c0,0,0,0.1,0.1,0.1h-12.8c-0.9,0-1.6,0.7-1.6,1.6s0.7,1.6,1.6,1.6h14.9
					c2.5,4.1,4.8,8.3,6.7,12.7c0,0,0.9,2.4,1,2.6c0.8,2.2,1.5,4.3,2.2,6.5c1.2,3.8,2.2,7.7,3.2,11.6c4.1,15.8,8.1,31.7,12.1,47.5
					c2,8,11.4,13.6,19.4,11C321.5,201.5,326.4,193.3,324.2,184.8L324.2,184.8z"/>
			</g>
			
				<ellipse transform="matrix(0.7071 -0.7071 0.7071 0.7071 -72.6 174.9641)" class="st2" cx="174.9" cy="175.1" rx="109.5" ry="109.5"/>
			<g>
				<g>
					<path class="st1" d="M336.8,183H221.5c-2.2,0-3.9-1.8-3.9-3.9V66.1c0-1.6,1.3-3,3-3h117.2c1.6,0,3,1.3,3,3V179
						C340.7,181.2,338.9,183,336.8,183L336.8,183z"/>
					<path class="st3" d="M336.8,184.6H221.5c-3.1,0-5.5-2.5-5.5-5.5V66.1c0-2.5,2.1-4.6,4.6-4.6h117.2c2.5,0,4.6,2.1,4.6,4.6V179
						C342.3,182.1,339.8,184.6,336.8,184.6z M220.5,64.7c-0.8,0-1.4,0.6-1.4,1.4V179c0,1.3,1,2.3,2.3,2.3h115.3c1.3,0,2.3-1,2.3-2.3
						V66.1c0-0.8-0.6-1.4-1.4-1.4H220.5z"/>
				</g>
				<g>
					<rect x="217.6" y="82.9" class="st4" width="123.1" height="37.6"/>
					<path class="st3" d="M340.7,122.2H217.6c-0.9,0-1.6-0.7-1.6-1.6V82.9c0-0.9,0.7-1.6,1.6-1.6h123.1c0.9,0,1.6,0.7,1.6,1.6v37.6
						C342.3,121.5,341.6,122.2,340.7,122.2L340.7,122.2z M219.2,119h119.9V84.5H219.2V119z"/>
				</g>
				<path class="st3" d="M267,159.1h-27.8c-0.9,0-1.6-0.7-1.6-1.6s0.7-1.6,1.6-1.6H267c0.9,0,1.6,0.7,1.6,1.6S267.8,159.1,267,159.1
					z"/>
				<path class="st3" d="M265.8,171.7H238c-0.9,0-1.6-0.7-1.6-1.6s0.7-1.6,1.6-1.6h27.8c0.9,0,1.6,0.7,1.6,1.6
					S266.7,171.7,265.8,171.7z"/>
				<g>
					<rect x="283.1" y="149" class="st5" width="47.1" height="21.5"/>
					<path class="st3" d="M330.3,172.1h-47.1c-0.9,0-1.6-0.7-1.6-1.6V149c0-0.9,0.7-1.6,1.6-1.6h47.1c0.9,0,1.6,0.7,1.6,1.6v21.5
						C331.9,171.4,331.2,172.1,330.3,172.1z M284.7,168.9h43.9v-18.3h-43.9V168.9z"/>
				</g>
				<line class="st6" x1="283.1" y1="149" x2="330.3" y2="170.5"/>
				<line class="st6" x1="330.3" y1="149" x2="283.1" y2="170.5"/>
				<g>
					<g>
						<circle class="st7" cx="254.7" cy="116.7" r="27.1"/>
						<path class="st3" d="M254.7,145.4c-15.8,0-28.7-12.9-28.7-28.7S238.9,88,254.7,88s28.7,12.9,28.7,28.7
							S270.5,145.4,254.7,145.4z M254.7,91.2c-14,0-25.5,11.4-25.5,25.5s11.4,25.5,25.5,25.5s25.5-11.4,25.5-25.5
							S268.8,91.2,254.7,91.2z"/>
					</g>
					<g>
						<g>
							<path class="st1" d="M268.4,103.4c3.8,3.8,5.7,8.8,5.7,13.7s-1.9,10-5.7,13.7c-3.8,3.8-8.8,5.7-13.7,5.7s-10-1.9-13.7-5.7
								L268.4,103.4L268.4,103.4z"/>
							<path class="st3" d="M254.7,138.2L254.7,138.2c-5.6,0-10.9-2.2-14.9-6.2c-0.6-0.6-0.6-1.6,0-2.3l27.5-27.5
								c0.3-0.3,0.7-0.5,1.1-0.5s0.8,0.2,1.1,0.5c4,4,6.2,9.3,6.2,14.9c0,5.6-2.2,10.9-6.2,14.9C265.6,136,260.3,138.2,254.7,138.2
								L254.7,138.2z M254.7,135L254.7,135c4.8,0,9.2-1.9,12.6-5.2c3.4-3.4,5.2-7.9,5.2-12.6c0-4.2-1.5-8.2-4.1-11.4l-25.1,25.1
								C246.4,133.5,250.4,135,254.7,135L254.7,135L254.7,135z"/>
						</g>
						<path class="st3" d="M268.4,132.5c-0.4,0-0.8-0.2-1.1-0.5l-13.7-13.7c-0.6-0.6-0.6-1.6,0-2.3s1.6-0.6,2.3,0l13.7,13.7
							c0.6,0.6,0.6,1.6,0,2.3C269.2,132.3,268.8,132.5,268.4,132.5L268.4,132.5z"/>
						<path class="st3" d="M254.7,138.2c-0.9,0-1.6-0.7-1.6-1.6v-19.4c0-0.9,0.7-1.6,1.6-1.6s1.6,0.7,1.6,1.6v19.4
							C256.3,137.5,255.6,138.2,254.7,138.2z"/>
					</g>
				</g>
			</g>
			<g>
				<g>
					<path class="st4" d="M156.8,181.4H193c7.1,0,12.8,5.7,12.8,12.8v36.2c0,7.1-5.7,12.8-12.8,12.8h-36.2
						c-7.1,0-12.8-5.7-12.8-12.8v-36.2C144,187.1,149.7,181.4,156.8,181.4z"/>
					<path class="st3" d="M193,244.7h-36.2c-7.9,0-14.3-6.4-14.3-14.3v-36.2c0-7.9,6.4-14.3,14.3-14.3H193c7.9,0,14.3,6.4,14.3,14.3
						v36.2C207.3,238.3,200.9,244.7,193,244.7L193,244.7z M156.8,182.9c-6.2,0-11.2,5.1-11.2,11.2v36.2c0,6.2,5.1,11.2,11.2,11.2
						H193c6.2,0,11.2-5.1,11.2-11.2v-36.2c0-6.2-5.1-11.2-11.2-11.2H156.8z"/>
				</g>
				<g>
					<path class="st8" d="M227.7,252.7h25.8c5,0,9.1,4.1,9.1,9.1v25.8c0,5-4.1,9.1-9.1,9.1h-25.8c-5,0-9.1-4.1-9.1-9.1v-25.8
						C218.6,256.7,222.6,252.7,227.7,252.7z"/>
					<path class="st3" d="M253.4,298.2h-25.8c-5.9,0-10.6-4.8-10.6-10.6v-25.8c0-5.9,4.8-10.6,10.6-10.6h25.8
						c5.9,0,10.6,4.8,10.6,10.6v25.8C264.1,293.4,259.3,298.2,253.4,298.2z M227.7,254.2c-4.2,0-7.6,3.4-7.6,7.6v25.8
						c0,4.2,3.4,7.6,7.6,7.6h25.8c4.2,0,7.6-3.4,7.6-7.6v-25.8c0-4.2-3.4-7.6-7.6-7.6H227.7z"/>
				</g>
				<g>
					<path class="st9" d="M162,265.4h25.8c5,0,9.1,4.1,9.1,9.1v25.8c0,5-4.1,9.1-9.1,9.1H162c-5,0-9.1-4.1-9.1-9.1v-25.8
						C152.9,269.5,157,265.4,162,265.4z"/>
					<path class="st3" d="M187.8,310.9H162c-5.9,0-10.6-4.8-10.6-10.6v-25.8c0-5.9,4.8-10.6,10.6-10.6h25.8
						c5.9,0,10.6,4.8,10.6,10.6v25.8C198.4,306.2,193.7,310.9,187.8,310.9L187.8,310.9z M162,266.9c-4.2,0-7.6,3.4-7.6,7.6v25.8
						c0,4.2,3.4,7.6,7.6,7.6h25.8c4.2,0,7.6-3.4,7.6-7.6v-25.8c0-4.2-3.4-7.6-7.6-7.6H162z"/>
				</g>
				<g>
					<path class="st8" d="M96.4,252.7h25.8c5,0,9.1,4.1,9.1,9.1v25.8c0,5-4.1,9.1-9.1,9.1H96.4c-5,0-9.1-4.1-9.1-9.1v-25.8
						C87.3,256.7,91.3,252.7,96.4,252.7z"/>
					<path class="st3" d="M122.1,298.2H96.4c-5.9,0-10.6-4.8-10.6-10.6v-25.8c0-5.9,4.8-10.6,10.6-10.6h25.8
						c5.9,0,10.6,4.8,10.6,10.6v25.8C132.8,293.4,128,298.2,122.1,298.2z M96.4,254.2c-4.2,0-7.6,3.4-7.6,7.6v25.8
						c0,4.2,3.4,7.6,7.6,7.6h25.8c4.2,0,7.6-3.4,7.6-7.6v-25.8c0-4.2-3.4-7.6-7.6-7.6H96.4z"/>
				</g>
				<path class="st3" d="M109.2,254.2c-0.9,0-1.5-0.7-1.5-1.5v-17.9c0-13.2,10.8-24,24-24H144c0.9,0,1.5,0.7,1.5,1.5
					s-0.7,1.5-1.5,1.5h-12.2c-11.6,0-21,9.4-21,21v17.9C110.8,253.5,110.1,254.2,109.2,254.2L109.2,254.2z"/>
				<path class="st3" d="M240.5,254.2c-0.9,0-1.5-0.7-1.5-1.5v-17.9c0-11.6-9.4-21-21-21h-12.2c-0.9,0-1.5-0.7-1.5-1.5
					s0.7-1.5,1.5-1.5H218c13.2,0,24,10.8,24,24v17.9C242.1,253.5,241.4,254.2,240.5,254.2L240.5,254.2z"/>
				<path class="st3" d="M174.9,266.9c-0.9,0-1.5-0.7-1.5-1.5v-22.2c0-0.9,0.7-1.5,1.5-1.5s1.5,0.7,1.5,1.5v22.2
					C176.4,266.3,175.7,266.9,174.9,266.9z"/>
				<g>
					<path class="st1" d="M171,192.4l-4.2,9.3l-10.2,1.2c-3.6,0.4-5.1,4.9-2.4,7.4l7.5,6.9l-2,10c-0.7,3.6,3.1,6.4,6.3,4.6l8.9-5
						l8.9,5c3.2,1.8,7-1,6.3-4.6l-2-10l7.5-6.9c2.7-2.5,1.2-7-2.4-7.4l-10.2-1.2l-4.2-9.3C177.2,189.1,172.5,189.1,171,192.4
						L171,192.4z"/>
					<path class="st3" d="M163.9,233.9c-1.2,0-2.4-0.4-3.4-1.1c-1.9-1.4-2.7-3.6-2.3-5.9l1.9-9.2l-6.9-6.3c-1.7-1.6-2.3-3.9-1.6-6.1
						c0.7-2.2,2.6-3.7,4.9-4l9.3-1.1l3.9-8.5c1-2.1,3-3.4,5.3-3.4s4.3,1.3,5.3,3.4l3.9,8.5l9.3,1.1c2.3,0.3,4.2,1.8,4.9,4
						c0.7,2.2,0.1,4.5-1.6,6.1l-6.9,6.3l1.9,9.2c0.5,2.3-0.4,4.5-2.3,5.9c-1.9,1.4-4.3,1.5-6.3,0.4l-8.1-4.6l-8.1,4.6
						C165.9,233.6,164.9,233.9,163.9,233.9L163.9,233.9z M174.9,225.2c0.3,0,0.5,0.1,0.8,0.2l8.9,5c1,0.5,2.1,0.5,3-0.2
						s1.3-1.7,1.1-2.8l-2-10c-0.1-0.5,0.1-1.1,0.5-1.4l7.5-6.9c0.8-0.8,1.1-1.8,0.8-2.9c-0.3-1.1-1.2-1.8-2.3-1.9l-10.2-1.2
						c-0.5-0.1-1-0.4-1.2-0.9l-4.2-9.3c-0.5-1-1.4-1.6-2.5-1.6s-2,0.6-2.5,1.6l0,0l-4.2,9.3c-0.2,0.5-0.7,0.8-1.2,0.9l-10.2,1.2
						c-1.1,0.1-2,0.8-2.3,1.9s-0.1,2.1,0.8,2.9l7.5,6.9c0.4,0.4,0.6,0.9,0.5,1.4l-2,10c-0.2,1.1,0.2,2.1,1.1,2.8
						c0.9,0.6,2,0.7,3,0.2l8.9-5C174.4,225.3,174.6,225.2,174.9,225.2L174.9,225.2z M171,192.4L171,192.4z"/>
				</g>
			</g>
			<g>
				<g>
					<path class="st4" d="M116.5,38.2l13.3,22.9l26.5,0.4c9.5,0.1,14.4,11.4,8.1,18.4l-17.6,19.7l7.8,25.3c2.8,9.1-6.4,17.2-15,13.4
						l-24.2-10.7l-21.6,15.3c-7.8,5.5-18.3-0.7-17.4-10.2l2.7-26.3L57.7,90.5c-7.6-5.7-5-17.7,4.3-19.7l25.9-5.6l8.5-25
						C99.5,31.2,111.7,30,116.5,38.2L116.5,38.2z"/>
					<path class="st3" d="M80.9,144.6c-4.3-2.5-6.6-7.1-6.1-12l2.6-25.5L56.9,91.6c-4-3-5.8-7.8-4.7-12.6s4.7-8.5,9.6-9.5L86.8,64
						l8.3-24.3c1.6-4.7,5.6-7.9,10.6-8.4c4.9-0.5,9.5,1.9,12,6.1l12.9,22.2l25.7,0.4c4.9,0.1,9.2,2.9,11.2,7.5s1.2,9.6-2.1,13.3
						l-17.1,19.1l7.6,24.5c1.5,4.7,0.1,9.7-3.6,13c-3.7,3.3-8.8,4.1-13.3,2.1l-23.5-10.4l-21,14.8c-1.8,1.3-3.9,2-6,2.2
						C85.9,146.5,83.3,145.9,80.9,144.6L80.9,144.6z M115.2,38.9c-1.9-3.3-5.5-5.1-9.3-4.8c-3.8,0.4-7,2.9-8.2,6.5l-8.5,25
						c-0.2,0.5-0.6,0.8-1,0.9l-25.9,5.6c-3.8,0.8-6.6,3.6-7.4,7.4s0.6,7.5,3.7,9.8l21.2,15.8c0.4,0.3,0.6,0.8,0.6,1.3l-2.7,26.3
						c-0.4,3.8,1.4,7.4,4.7,9.3c3.3,1.9,7.3,1.8,10.4-0.4l21.6-15.3c0.4-0.3,0.9-0.3,1.4-0.1L140,137c3.5,1.6,7.5,0.9,10.3-1.6
						c2.9-2.6,3.9-6.4,2.8-10.1l-7.8-25.3c-0.1-0.5,0-1,0.3-1.3l17.6-19.7c2.6-2.9,3.2-6.8,1.6-10.3c-1.5-3.5-4.9-5.7-8.7-5.8
						l-26.5-0.4c-0.5,0-0.9-0.3-1.2-0.7L115.2,38.9L115.2,38.9L115.2,38.9z M129.8,61.1L129.8,61.1L129.8,61.1z"/>
				</g>
				<g>
					<g>
						<path class="st1" d="M37.2,140.8l7.5-0.7l0.1,0.4c1.2-8.6,8.4-15.6,17.5-16.2l0,0c1.8-0.1,8.1-0.4,9.6-0.3l50,1
							c6.9,0.1,12.9,5.8,13.4,12.6l0,0c0,0.3,0,0.6-0.1,0.9l8.1-6.7l19.8-16.4c8.3-6.9,15.9,2.9,15.9,2.9s8,9.4-1.6,17.3L138,168
							c-1.9,1.6-4.2,3.1-7.7,3.4l-61.5,6.1L37.2,140.8L37.2,140.8z"/>
						<path class="st3" d="M130.5,172.9c3.8-0.4,6.3-2,8.4-3.7l39.2-32.4c3.2-2.6,4.9-5.7,5.2-9.1c0.5-5.5-3.1-9.8-3.4-10.2
							c-0.4-0.5-4.2-5.2-9.6-5.8c-2.9-0.3-5.7,0.6-8.2,2.7l-25.8,21.3c-1.4-6.7-7.5-12-14.5-12.1l-50-1c-1.6,0-7.9,0.2-9.7,0.3
							c-0.2,0-0.4,0-0.6,0.1c-8.8,0.9-16.1,7.4-17.9,15.8l-6.5,0.6c-0.8,0.1-1.3,0.8-1.2,1.5s0.8,1.3,1.5,1.2l6.4-0.6
							c0.2,0.2,0.6,0.4,0.9,0.4c0.7,0,1.3-0.5,1.4-1.2c1.2-8.1,8-14.4,16.2-15c1.9-0.1,8-0.4,9.4-0.3l50,1c6.2,0.1,11.5,5.1,12,11.2
							c0,0.2,0,0.5-0.1,0.8c-0.1,0.6,0.2,1.1,0.7,1.4s1.1,0.2,1.6-0.2l27.9-23.1c2-1.6,4-2.3,6.1-2.1c4.4,0.5,7.7,4.7,7.7,4.8
							c0,0,0,0,0.1,0.1c0,0,3.2,3.8,2.8,8.2c-0.2,2.6-1.6,5-4.2,7.1L137.2,167c-2.1,1.6-4,2.8-6.9,3.1h0l-61.5,6.1
							c-0.8,0.1-1.3,0.8-1.2,1.5s0.8,1.3,1.5,1.2L130.5,172.9L130.5,172.9L130.5,172.9z"/>
					</g>
					<path class="st3" d="M123.9,151c6.9-0.7,12.4-6.4,12.5-13.4c0.1-3.6-1.3-7.1-3.8-9.7c-2.6-2.7-6.1-4.2-9.8-4.3
						c-0.8,0-1.4,0.6-1.4,1.4c0,0.8,0.6,1.4,1.4,1.4c3,0.1,5.8,1.3,7.9,3.4c2,2.1,3.1,4.8,3,7.7c-0.1,6-5.2,10.8-11.4,10.7
						l-32.5-0.6c-0.8,0-1.4,0.6-1.4,1.4c0,0.8,0.6,1.4,1.4,1.4l32.5,0.6C122.7,151.1,123.3,151,123.9,151L123.9,151z"/>
					<path class="st3" d="M45.4,150.5c0.1,0,0.2,0,0.2,0c0.8-0.2,1.2-1,1-1.7c-2.1-7.7,1.7-14.3,1.7-14.3c0.4-0.7,0.2-1.5-0.5-1.9
						s-1.5-0.2-1.9,0.5c-0.2,0.3-4.4,7.7-2,16.5C44,150.2,44.7,150.6,45.4,150.5z"/>
					<path class="st3" d="M110.2,150.6c0.8-0.1,1.3-0.7,1.3-1.5l-0.3-4.7c0.1-3.5,3-6.2,6.5-6.2l5.8,0.1c0.8,0,1.4-0.6,1.4-1.4
						c0-0.8-0.6-1.4-1.4-1.4l-5.8-0.1c-5.1-0.1-9.3,4-9.3,9c0,0,0,0.1,0,0.1l0.3,4.7C108.7,150.1,109.4,150.7,110.2,150.6
						C110.2,150.6,110.2,150.6,110.2,150.6L110.2,150.6z"/>
					<path class="st3" d="M169.6,141.9l-3.4-2.7c0,0-0.1-0.1-0.1-0.1c-1.7-1.5-2.6-3.6-2.7-5.9c-0.1-2.3,0.8-4.4,2.3-6.1l3.7-3.9
						c0.5-0.6,1.4-0.6,2-0.1c0.6,0.5,0.6,1.4,0.1,2l-3.7,3.9c-1.1,1.1-1.6,2.6-1.6,4.1c0.1,1.5,0.7,2.9,1.8,3.9l3.4,2.7
						c0.6,0.5,0.7,1.4,0.2,2c-0.2,0.3-0.6,0.5-1,0.5C170.3,142.2,169.9,142.2,169.6,141.9L169.6,141.9z M167,138.1L167,138.1
						L167,138.1z"/>
				</g>
				<g>
					<path class="st1" d="M135.7,79.7L135.7,79.7c-2.2-2.7-6.2-3.1-9-0.9L105,96.6l-6.6-8.1c-2.2-2.7-6.2-3.1-9-0.9
						c-2.7,2.2-3.1,6.2-0.9,9L98.7,109c1.2,1.5,3,2.3,4.8,2.3c1.8,0.3,3.7-0.1,5.2-1.3l26.1-21.3C137.5,86.4,137.9,82.4,135.7,79.7
						L135.7,79.7z"/>
					<path class="st3" d="M102.8,112.7c-2.1-0.2-3.9-1.2-5.2-2.8L87.5,97.5c-1.3-1.6-1.9-3.6-1.7-5.7c0.2-2.1,1.2-3.9,2.8-5.2
						c3.3-2.7,8.2-2.2,10.9,1.1l5.7,7l20.7-16.9c3.3-2.7,8.2-2.2,10.9,1.1l0,0c2.7,3.3,2.2,8.2-1.1,10.9l-26.1,21.3
						c-1.7,1.4-4,2-6.2,1.6C103.2,112.7,103,112.7,102.8,112.7L102.8,112.7z M94,87.6c-1.3-0.1-2.6,0.2-3.6,1.1
						c-1,0.8-1.7,2-1.8,3.3c-0.1,1.3,0.3,2.6,1.1,3.6l10.2,12.4c0.9,1.1,2.3,1.8,3.8,1.8c0.1,0,0.2,0,0.2,0c1.5,0.3,2.9-0.1,4.1-1
						l26.1-21.3c2.1-1.7,2.4-4.9,0.7-7c-1.7-2.1-4.9-2.4-7-0.7l-21.7,17.8c-0.6,0.5-1.5,0.4-2-0.2l-6.6-8.1
						C96.5,88.3,95.2,87.7,94,87.6L94,87.6z"/>
				</g>
			</g>
		</g>
	</g>
</g>
</svg>
