<?xml version="1.0" encoding="utf-8"?>
<!-- Generator: Adobe Illustrator 26.5.0, SVG Export Plug-In . SVG Version: 6.00 Build 0)  -->
<svg version="1.1" id="Layer_2_00000103241565896391663590000003701713909890202017_"
	 xmlns="http://www.w3.org/2000/svg" xmlns:xlink="http://www.w3.org/1999/xlink" x="0px" y="0px" viewBox="0 0 215.2 185.1"
	 style="enable-background:new 0 0 215.2 185.1;" xml:space="preserve">
<style type="text/css">
	.st0{fill:#FFFFFF;stroke:#3F0A9E;stroke-width:3;stroke-miterlimit:10;}
	.st1{fill:#3F0A9E;stroke:#3F0A9E;stroke-width:3;stroke-linecap:round;stroke-linejoin:round;}
	.st2{fill:none;stroke:#FF7474;stroke-width:8.51;stroke-linecap:round;stroke-linejoin:round;}
	.st3{fill:#8BE1F7;stroke:#3F0A9E;stroke-width:3;stroke-miterlimit:10;}
	.st4{fill:#FFE780;stroke:#3F0A9E;stroke-width:3;stroke-miterlimit:10;}
	.st5{fill:none;stroke:#3F0A9E;stroke-width:3;stroke-linecap:round;stroke-linejoin:round;}
	.st6{fill:#00E6C2;stroke:#3F0A9E;stroke-width:3.14;stroke-linecap:round;stroke-linejoin:round;}
	.st7{fill:none;stroke:#FFFFFF;stroke-width:5;stroke-linecap:round;stroke-linejoin:round;}
</style>
<g id="_Layer__00000028306842513625843710000010652044387605866377_">
	<g>
		<g>
			<path class="st0" d="M2.1,28.4h164V168c0,3.3-2.7,6-6,6H8.1c-3.3,0-6-2.7-6-6V28.4L2.1,28.4z"/>
			<path class="st1" d="M8.1,12.2h152c3.3,0,6,2.7,6,6v11.1H2.1V18.2C2.1,14.9,4.8,12.2,8.1,12.2z"/>
			<line class="st2" x1="17.5" y1="50.9" x2="89.6" y2="50.9"/>
			<line class="st2" x1="17.5" y1="65.5" x2="65.6" y2="65.5"/>
			<g>
				<rect x="14.5" y="83.9" class="st3" width="139.3" height="66"/>
				<path class="st4" d="M153.7,81.7c1.4,17-13.1,31-30.2,28.8c-12-1.5-21.5-11.1-23.1-23.1c-2.2-17.1,11.8-31.6,28.8-30.2
					C142.1,58.2,152.6,68.7,153.7,81.7L153.7,81.7z"/>
			</g>
			<line class="st5" x1="27.9" y1="106" x2="97.3" y2="106"/>
			<line class="st5" x1="27.9" y1="116.7" x2="74.1" y2="116.7"/>
			<line class="st5" x1="27.9" y1="127.5" x2="89.5" y2="127.5"/>
			<rect x="27.9" y="142.1" class="st6" width="56.2" height="15.6"/>
		</g>
		<line class="st7" x1="70.9" y1="20.8" x2="94.1" y2="20.8"/>
	</g>
</g>
</svg>
