<?xml version="1.0" encoding="utf-8"?>
<!-- Generator: Adobe Illustrator 26.5.0, SVG Export Plug-In . SVG Version: 6.00 Build 0)  -->
<svg version="1.1" id="Layer_1" xmlns="http://www.w3.org/2000/svg" xmlns:xlink="http://www.w3.org/1999/xlink" x="0px" y="0px"
	 viewBox="0 0 350 350" style="enable-background:new 0 0 350 350;" xml:space="preserve">
<style type="text/css">
	.st0{fill:none;stroke:#3F0A9E;stroke-width:2.7;stroke-linecap:round;stroke-linejoin:round;stroke-dasharray:0,0,17.78,17.78;}
	.st1{fill:#FFFFFF;}
	.st2{fill:#F0E6FF;}
	.st3{fill:#3F0A9E;}
	.st4{fill:#00E6C2;}
	.st5{fill:#FF7474;}
	.st6{fill:#8BE1F7;}
	.st7{fill:#CA8AFD;}
</style>
<g>
	<g id="_Layer_">
		<g>
			<circle class="st0" cx="175.1" cy="175" r="135.8"/>
			<path class="st1" d="M310.8,113.4c-4.6-15.4-12.6-29.2-23.6-40.9c-5.6-6-16.6-6.1-22.3,0c-5.9,6.5-6,15.8,0,22.3
				c1,1.1,2,2.2,3,3.3c0.3,0.4,1.7,2.2,1.7,2.2c1.7,2.3,3.2,4.7,4.7,7.2c1.4,2.4,2.6,4.9,3.8,7.5c0.3,0.7,0.5,1.3,0.8,2
				c0.6,1.6,1.1,3.2,1.6,4.9c2.4,7.9,11.1,13.7,19.4,11C307.8,130.2,313.4,121.8,310.8,113.4L310.8,113.4z"/>
			<path class="st1" d="M127.7,48c-4.4-6.9-14.2-10.5-21.6-5.7c-10.4,6.8-22.5,10.6-32.6,17.9c-11.3,8.2-20,18.7-27.4,30.4
				c-14.5,22.9-27.1,50-24.8,77.8c0.7,8.2,6.8,16.1,15.8,15.8c7.9-0.4,16.5-7,15.8-15.8c-0.3-3.2-0.4-6.4-0.2-9.5
				c0.1-1.3,0.2-2.6,0.3-3.9c0-0.2,0-0.4,0.1-0.5c0.1-0.5,0.2-1.1,0.3-1.6c1-5.8,2.7-11.4,4.7-16.9c0.4-1,0.8-2,1.2-3.1
				c0,0,1.1-2.6,1.3-2.9c1.4-2.9,2.8-5.8,4.3-8.7c2.7-5,5.5-10,8.6-14.8c1.4-2.3,2.9-4.6,4.5-6.8c0.4-0.5,1.1-1.5,1.2-1.6
				c0.7-0.9,1.5-1.8,2.3-2.7c1.8-2,3.6-4,5.6-5.8c0.2-0.2,1.6-1.4,2.2-2c0.6-0.4,1.9-1.4,2.1-1.5c9.7-6.5,21-10.2,30.7-16.6
				C128.9,65,132.5,55.4,127.7,48L127.7,48z"/>
			
				<ellipse transform="matrix(0.7071 -0.7071 0.7071 0.7071 -72.4517 175.0949)" class="st2" cx="175.1" cy="175" rx="109.5" ry="109.5"/>
			<g>
				<g>
					<rect x="48.4" y="58.9" class="st1" width="111.1" height="111.1"/>
					<path class="st3" d="M159.5,171.5H48.4c-0.8,0-1.4-0.6-1.4-1.4V58.9c0-0.8,0.6-1.4,1.4-1.4h111.1c0.8,0,1.4,0.6,1.4,1.4V170
						C160.9,170.8,160.3,171.5,159.5,171.5z M49.8,168.6h108.2V60.3H49.8V168.6L49.8,168.6z"/>
				</g>
				<g>
					<path class="st4" d="M111.8,151.7H96V90.4H75.8V77.2H132v13.1h-20.2L111.8,151.7L111.8,151.7z"/>
					<path class="st3" d="M111.8,153.1H96c-0.8,0-1.4-0.6-1.4-1.4V91.8H75.8c-0.8,0-1.4-0.6-1.4-1.4V77.2c0-0.8,0.6-1.4,1.4-1.4H132
						c0.8,0,1.4,0.6,1.4,1.4v13.1c0,0.8-0.6,1.4-1.4,1.4h-18.8v59.9C113.3,152.5,112.6,153.1,111.8,153.1L111.8,153.1z M97.5,150.2
						h12.9V90.4c0-0.8,0.6-1.4,1.4-1.4h18.8V78.7H77.3v10.3H96c0.8,0,1.4,0.6,1.4,1.4L97.5,150.2L97.5,150.2z"/>
				</g>
				<g>
					<rect x="41.2" y="51.7" class="st5" width="14.4" height="14.4"/>
					<path class="st3" d="M55.6,67.5H41.2c-0.8,0-1.4-0.6-1.4-1.4V51.7c0-0.8,0.6-1.4,1.4-1.4h14.4c0.8,0,1.4,0.6,1.4,1.4v14.4
						C57,66.9,56.4,67.5,55.6,67.5z M42.6,64.7h11.5V53.1H42.6V64.7z"/>
				</g>
				<g>
					<rect x="41.2" y="103.8" class="st5" width="14.4" height="14.4"/>
					<path class="st3" d="M55.6,119.6H41.2c-0.8,0-1.4-0.6-1.4-1.4v-14.4c0-0.8,0.6-1.4,1.4-1.4h14.4c0.8,0,1.4,0.6,1.4,1.4v14.4
						C57,119,56.4,119.6,55.6,119.6z M42.6,116.8h11.5v-11.5H42.6C42.6,105.2,42.6,116.8,42.6,116.8z"/>
				</g>
				<g>
					<rect x="41.2" y="162.8" class="st5" width="14.4" height="14.4"/>
					<path class="st3" d="M55.6,178.7H41.2c-0.8,0-1.4-0.6-1.4-1.4v-14.4c0-0.8,0.6-1.4,1.4-1.4h14.4c0.8,0,1.4,0.6,1.4,1.4v14.4
						C57,178,56.4,178.7,55.6,178.7z M42.6,175.8h11.5v-11.5H42.6V175.8z"/>
				</g>
				<g>
					<rect x="152.3" y="162.8" class="st5" width="14.4" height="14.4"/>
					<path class="st3" d="M166.7,178.7h-14.4c-0.8,0-1.4-0.6-1.4-1.4v-14.4c0-0.8,0.6-1.4,1.4-1.4h14.4c0.8,0,1.4,0.6,1.4,1.4v14.4
						C168.1,178,167.5,178.7,166.7,178.7z M153.7,175.8h11.5v-11.5h-11.5V175.8z"/>
				</g>
				<g>
					<rect x="152.3" y="51.7" class="st5" width="14.4" height="14.4"/>
					<path class="st3" d="M166.7,67.5h-14.4c-0.8,0-1.4-0.6-1.4-1.4V51.7c0-0.8,0.6-1.4,1.4-1.4h14.4c0.8,0,1.4,0.6,1.4,1.4v14.4
						C168.1,66.9,167.5,67.5,166.7,67.5z M153.7,64.7h11.5V53.1h-11.5V64.7z"/>
				</g>
				<g>
					<rect x="152.3" y="107.3" class="st5" width="14.4" height="14.4"/>
					<path class="st3" d="M166.7,123.1h-14.4c-0.8,0-1.4-0.6-1.4-1.4v-14.4c0-0.8,0.6-1.4,1.4-1.4h14.4c0.8,0,1.4,0.6,1.4,1.4v14.4
						C168.1,122.5,167.5,123.1,166.7,123.1z M153.7,120.2h11.5v-11.5h-11.5C153.7,108.7,153.7,120.2,153.7,120.2z"/>
				</g>
				<g>
					<rect x="96.7" y="51.7" class="st5" width="14.4" height="14.4"/>
					<path class="st3" d="M111.1,67.5H96.7c-0.8,0-1.4-0.6-1.4-1.4V51.7c0-0.8,0.6-1.4,1.4-1.4h14.4c0.8,0,1.4,0.6,1.4,1.4v14.4
						C112.6,66.9,111.9,67.5,111.1,67.5z M98.2,64.7h11.5V53.1H98.2C98.2,53.1,98.2,64.7,98.2,64.7z"/>
				</g>
				<g>
					<rect x="96.7" y="162.8" class="st5" width="14.4" height="14.4"/>
					<path class="st3" d="M111.1,178.7H96.7c-0.8,0-1.4-0.6-1.4-1.4v-14.4c0-0.8,0.6-1.4,1.4-1.4h14.4c0.8,0,1.4,0.6,1.4,1.4v14.4
						C112.6,178,111.9,178.7,111.1,178.7z M98.2,175.8h11.5v-11.5H98.2C98.2,164.3,98.2,175.8,98.2,175.8z"/>
				</g>
			</g>
			<g>
				<g>
					<path class="st6" d="M199.6,94.1h41.1V142h-47.9v-41.1C192.8,97.2,195.8,94.1,199.6,94.1L199.6,94.1z"/>
					<path class="st3" d="M240.7,143.4h-47.9c-0.8,0-1.4-0.6-1.4-1.4v-41.1c0-4.6,3.7-8.3,8.3-8.3h41.1c0.8,0,1.4,0.6,1.4,1.4V142
						C242.1,142.8,241.5,143.4,240.7,143.4z M194.2,140.5h45v-45h-39.6c-3,0-5.4,2.4-5.4,5.4L194.2,140.5L194.2,140.5z"/>
				</g>
				<g>
					<path class="st5" d="M240.7,94.1h41.1c3.8,0,6.8,3.1,6.8,6.8V142h-47.9V94.1C240.7,94.1,240.7,94.1,240.7,94.1z"/>
					<path class="st3" d="M288.6,143.4h-47.9c-0.8,0-1.4-0.6-1.4-1.4V94.1c0-0.8,0.6-1.4,1.4-1.4h41.1c4.6,0,8.3,3.7,8.3,8.3V142
						C290,142.8,289.4,143.4,288.6,143.4L288.6,143.4z M242.1,140.5h45v-39.6c0-3-2.4-5.4-5.4-5.4h-39.6V140.5z"/>
				</g>
				<g>
					<path class="st1" d="M192.8,142h47.9v47.9h-41.1c-3.8,0-6.8-3.1-6.8-6.8V142L192.8,142z"/>
					<path class="st3" d="M240.7,191.3h-41.1c-4.6,0-8.3-3.7-8.3-8.3V142c0-0.8,0.6-1.4,1.4-1.4h47.9c0.8,0,1.4,0.6,1.4,1.4v47.9
						C242.1,190.7,241.5,191.3,240.7,191.3z M194.2,143.4V183c0,3,2.4,5.4,5.4,5.4h39.6v-45L194.2,143.4L194.2,143.4z"/>
				</g>
				<g>
					<path class="st7" d="M240.7,142h47.9V183c0,3.8-3.1,6.8-6.8,6.8h-41.1V142L240.7,142L240.7,142z"/>
					<path class="st3" d="M281.7,191.3h-41.1c-0.8,0-1.4-0.6-1.4-1.4V142c0-0.8,0.6-1.4,1.4-1.4h47.9c0.8,0,1.4,0.6,1.4,1.4V183
						C290,187.6,286.3,191.3,281.7,191.3L281.7,191.3z M242.1,188.4h39.6c3,0,5.4-2.4,5.4-5.4v-39.6h-45V188.4L242.1,188.4z"/>
				</g>
				<g>
					<path class="st7" d="M336.3,46.3L336.3,46.3c5.9,5.9,5.9,15.5,0,21.3l-16.7,16.7L298.3,63L315,46.3
						C320.8,40.4,330.4,40.4,336.3,46.3z"/>
					<path class="st3" d="M319.6,85.8c-0.4,0-0.7-0.1-1-0.4L297.3,64c-0.3-0.3-0.4-0.6-0.4-1s0.1-0.8,0.4-1l16.7-16.7
						c3.1-3.1,7.3-4.8,11.7-4.8s8.6,1.7,11.7,4.8s4.8,7.3,4.8,11.7s-1.7,8.6-4.8,11.7l-16.7,16.7C320.4,85.6,320,85.8,319.6,85.8
						L319.6,85.8z M300.3,63l19.3,19.3l15.7-15.7c5.3-5.3,5.3-14,0-19.3c-2.6-2.6-6-4-9.6-4s-7.1,1.4-9.6,4L300.3,63L300.3,63z"/>
				</g>
				<g>
					<path class="st1" d="M319.6,84.3L298.3,63l-31.5,31.5c-1.5,1.5-1.5,4,0,5.5l0,0c0.4,0.4,0.4,1.1,0,1.6l-6.4,6.4
						c-3.9,3.9-3.9,10.3,0,14.2l0,0c3.9,3.9,10.3,3.9,14.2,0l6.4-6.4c0.4-0.4,1.1-0.4,1.6,0l0,0c1.5,1.5,4,1.5,5.5,0
						C288.1,115.8,319.6,84.3,319.6,84.3z"/>
					<path class="st3" d="M267.5,126.6c-3.1,0-6-1.2-8.1-3.4c-4.5-4.5-4.5-11.8,0-16.3l6.2-6.2c-0.9-1-1.3-2.2-1.3-3.5
						c0-1.4,0.6-2.8,1.6-3.8L297.2,62c0.3-0.3,0.6-0.4,1-0.4s0.8,0.2,1,0.4l21.3,21.3c0.6,0.6,0.6,1.5,0,2l-31.5,31.5
						c-2,2-5.2,2.1-7.3,0.2l-6.2,6.2C273.5,125.4,270.6,126.6,267.5,126.6L267.5,126.6z M298.3,65l-30.5,30.5
						c-0.5,0.5-0.7,1.1-0.7,1.8s0.3,1.3,0.7,1.8c1,1,1,2.6,0,3.6l-6.4,6.4c-3.4,3.4-3.4,8.8,0,12.2c1.6,1.6,3.8,2.5,6.1,2.5
						s4.5-0.9,6.1-2.5l6.4-6.4c1-1,2.6-1,3.6,0c1,1,2.5,1,3.5,0l30.5-30.5L298.3,65L298.3,65z"/>
				</g>
				<g>
					<path class="st7" d="M328.9,82.9l-29.1-29.1c-1.9-1.9-4.9-1.9-6.7,0l0,0c-1.9,1.9-1.9,4.9,0,6.7l29.1,29.1
						c1.9,1.9,4.9,1.9,6.7,0l0,0C330.7,87.7,330.7,84.7,328.9,82.9z"/>
					<path class="st3" d="M325.5,92.4c-1.6,0-3.2-0.6-4.4-1.8L292,61.5c-2.4-2.4-2.4-6.3,0-8.8c2.4-2.4,6.3-2.4,8.8,0l29.1,29.1
						c1.2,1.2,1.8,2.7,1.8,4.4s-0.6,3.2-1.8,4.4C328.7,91.8,327.2,92.4,325.5,92.4L325.5,92.4z M296.4,53.8c-0.9,0-1.7,0.3-2.3,1
						c-1.3,1.3-1.3,3.4,0,4.7l29.1,29.1c0.6,0.6,1.5,1,2.3,1s1.7-0.3,2.3-1c0.6-0.6,1-1.5,1-2.3s-0.3-1.7-1-2.3l0,0l-29.1-29.1
						C298.1,54.1,297.2,53.8,296.4,53.8L296.4,53.8z"/>
				</g>
			</g>
			<path class="st1" d="M255.4,286.5c-6-5.5-16.5-6.6-22.3,0c-0.7,0.8-1.6,1.5-2.2,2.3c-0.1,0.1-0.1,0.1-0.1,0.2c0,0-0.1,0-0.1,0.1
				c-0.9,0.5-1.8,1.1-2.7,1.6c-0.8,0.4-3.4,1.1-0.3,0.2c-2.1,0.6-4.1,1.4-6.3,1.9c-0.9,0.2-1.7,0.4-2.6,0.5
				c-0.4,0.1-2.6,0.3-2.6,0.3c-9.3,0.8-18.7,1.2-28.1,1.5c-10.7,0.3-21.4,0.2-32.1-0.8c-1.4-0.1-2.7-0.3-4.1-0.4
				c-0.2,0-0.4,0-0.5-0.1c-0.3,0-0.6-0.1-1-0.2c-2.7-0.4-5.3-0.9-8-1.5c-5.3-1.2-10.5-2.7-15.6-4.6c-7.8-2.8-17.6,3.2-19.4,11
				c-2,8.9,2.7,16.3,11,19.4c23.2,8.5,48.4,9.4,72.8,8.6c21.7-0.7,48.4,0,64.1-17.8C260.9,302.6,262,292.5,255.4,286.5L255.4,286.5z
				"/>
			<path class="st3" d="M124.4,250.4H145v2c0,5.9,1.5,11.3,4.5,16.1c3,4.8,6.9,8.5,11.7,11.1s10,4,15.4,4s10.3-1.3,14.9-3.9
				s8.3-6.2,11.1-10.9c2.7-4.6,4.1-9.9,4.1-15.9v-2.4h21l0.2,4.6c0,9.4-2.4,17.9-7.2,25.4s-11.2,13.3-19.1,17.5
				c-7.9,4.2-16.5,6.3-25.6,6.3s-17.5-2.2-25.4-6.5c-7.9-4.3-14.3-10.3-19-17.9c-4.8-7.6-7.2-16.2-7.2-25.7
				C124.3,252.8,124.3,251.5,124.4,250.4L124.4,250.4z M136.1,218.5c4.9-5.9,10.9-10.6,17.9-13.9c7-3.3,14.3-5,22-5
				c12.4,0,23.1,3.6,32.1,10.8c9,7.2,15.1,16.6,18.2,28.4H205c-2.4-5.8-6.1-10.4-11.2-13.7c-5.1-3.3-11.1-5-17.7-5
				s-12.6,1.7-17.6,5.1c-5.1,3.4-8.9,8-11.3,13.6h-21.2C127.8,231.2,131.2,224.4,136.1,218.5L136.1,218.5z"/>
		</g>
	</g>
</g>
</svg>
