<?xml version="1.0" encoding="utf-8"?>
<!-- Generator: Adobe Illustrator 26.5.0, SVG Export Plug-In . SVG Version: 6.00 Build 0)  -->
<svg version="1.1" id="Layer_1" xmlns="http://www.w3.org/2000/svg" xmlns:xlink="http://www.w3.org/1999/xlink" x="0px" y="0px"
	 viewBox="0 0 350 350" style="enable-background:new 0 0 350 350;" xml:space="preserve">
<style type="text/css">
	.st0{fill:none;stroke:#3F0A9E;stroke-width:2.7;stroke-linecap:round;stroke-linejoin:round;stroke-dasharray:0,0,17.78,17.78;}
	.st1{fill:#FFFFFF;}
	.st2{fill:#F0E6FF;}
	.st3{fill:#8BE1F7;}
	.st4{fill:#3F0A9E;}
	.st5{fill:#FF7474;}
	.st6{fill:#FFE780;}
	.st7{fill:#CA8AFD;}
	.st8{fill:#00E6C2;}
</style>
<g>
	<g id="_Layer_">
		<g>
			<circle class="st0" cx="175" cy="175" r="135.8"/>
			<path class="st1" d="M139.8,287.8c-1.9-0.6-3.8-1.2-5.6-1.9c1.5,0.5,0.7,0.4-0.3-0.1c-0.9-0.4-1.8-0.8-2.7-1.3
				c-3.5-1.8-6.9-3.9-10.2-6.1c-1.5-1-2.9-2-4.3-3.1c-0.2-0.2-0.6-0.4-0.9-0.7c-0.8-0.6-1.6-1.3-2.3-1.9c-3.3-2.8-6.4-5.6-9.5-8.5
				c-6.4-6-12.6-12.1-18.8-18.3c-3-3-5.9-6-8.7-9.1c0,0,0,0,0,0c0-0.1-0.1-0.2-0.1-0.3c-0.3-0.6-0.7-1.2-1-1.8
				c0.8-7.6-3.2-15.9-11.2-17.8c-7.9-1.8-17.6,2.4-19.4,11c-2.5,12.2,2.1,22.4,9.8,31.4c0,1.3,0.2,2.6,0.5,3.9
				c7.3,27.1,31.5,41.7,55.1,53.1c5,2.4,11.1,2.6,15.9,0c1.8,0.7,3.6,1.3,5.4,1.8c7.9,2.4,17.5-2.8,19.4-11
				C152.7,298.7,148.2,290.4,139.8,287.8L139.8,287.8z"/>
			<path class="st1" d="M222,31.8c-18.1,0.9-36.1,1.9-54.2,2.8c-18.1,1-36.3,1.8-54.3,4.9c-16.9,2.9-34.8,8-48.1,19.3
				c-14.2,12.1-16.8,30.4-17.6,48c-0.4,8.2,7.5,16.1,15.8,15.8c8.9-0.4,15.3-6.9,15.8-15.8c0.2-3.4,0.4-6.9,0.7-10.3
				c0.2-1.9,0.2-2,0-0.2c0.2-1,0.3-1.9,0.6-2.9c0.3-1.4,0.8-2.8,1.1-4.2c0.3-0.7,0.4-1.2,0.5-1.3c0.3-0.5,0.5-1,0.8-1.5
				c0.3-0.5,2.6-3.3,1.1-1.8c0.9-1,1.8-1.9,2.8-2.8c0,0.1,1.5-1.1,2.1-1.4c1.6-1,3.2-1.9,4.9-2.7c0.5-0.2,2.5-1.1,2.5-1.1
				c3.1-1.1,6.2-2.2,9.3-3.1c3.7-1.1,7.5-1.9,11.2-2.7c1.9-0.4,3.8-0.7,5.7-1.1c0.4-0.1,3.7-0.6,3.9-0.6c15.4-2.1,31-2.5,46.4-3.3
				c16.3-0.8,32.6-1.7,48.9-2.6c8.2-0.4,16.1-6.9,15.8-15.8C237.3,39.4,230.7,31.3,222,31.8L222,31.8z"/>
			
				<ellipse transform="matrix(0.7071 -0.7071 0.7071 0.7071 -72.4864 175.0055)" class="st2" cx="175" cy="175" rx="109.5" ry="109.5"/>
			<g>
				<g>
					<g>
						<circle class="st3" cx="121.6" cy="102.6" r="63.2"/>
						<path class="st4" d="M121.7,167.2c-3.1,0-6.3-0.2-9.4-0.7c-17.1-2.5-32.2-11.5-42.5-25.3s-14.7-30.9-12.2-47.9
							c2.5-17.1,11.5-32.2,25.3-42.5s30.9-14.6,47.9-12.2c17.1,2.5,32.2,11.5,42.5,25.3s14.6,30.9,12.2,47.9
							c-2.5,17.1-11.5,32.2-25.3,42.5C148.9,162.8,135.5,167.2,121.7,167.2L121.7,167.2z M121.5,40.8c-30.2,0-56.6,22.2-61.1,52.9
							c-2.4,16.3,1.8,32.6,11.6,45.8s24.3,21.8,40.6,24.2c3,0.4,6,0.6,8.9,0.6c30.2,0,56.6-22.2,61.1-52.9
							c4.9-33.7-18.6-65.1-52.2-70C127.4,41,124.5,40.8,121.5,40.8L121.5,40.8z"/>
					</g>
					<g>
						
							<ellipse transform="matrix(0.9762 -0.2169 0.2169 0.9762 -19.3606 28.814)" class="st1" cx="121.6" cy="102.6" rx="38.6" ry="38.7"/>
						<path class="st4" d="M121.7,142.7c-1.9,0-3.9-0.1-5.8-0.4c-10.6-1.5-20-7.1-26.4-15.7c-6.4-8.6-9.1-19.1-7.6-29.7
							s7.1-20,15.7-26.4s19.1-9.1,29.7-7.6c21.9,3.2,37.1,23.6,33.9,45.4l-1.4-0.2l1.4,0.2c-1.5,10.6-7.1,20-15.7,26.4
							C138.6,139.9,130.2,142.7,121.7,142.7L121.7,142.7z M121.5,65.4c-8,0-15.7,2.6-22.2,7.4c-8,5.9-13.1,14.6-14.6,24.5
							c-1.4,9.8,1.1,19.6,7,27.6c5.9,8,14.6,13.1,24.5,14.6s19.6-1.1,27.6-7c8-5.9,13.1-14.6,14.6-24.5
							c2.9-20.3-11.2-39.2-31.5-42.2C125.1,65.5,123.3,65.4,121.5,65.4L121.5,65.4z"/>
					</g>
				</g>
				<g>
					<path class="st5" d="M137.2,101.7c0.1,1.2,0.1,2.5-0.1,3.8c-1.3,9-9.7,15.2-18.7,13.9c-9-1.3-15.2-9.7-13.9-18.7
						c1.3-9,9.7-15.2,18.7-13.9c1.2,0.2,2.3,0.5,3.4,0.9L137.2,101.7L137.2,101.7z"/>
					<path class="st4" d="M120.8,121.1c-0.9,0-1.7-0.1-2.6-0.2c-4.7-0.7-8.9-3.2-11.8-7c-2.9-3.8-4.1-8.6-3.4-13.3
						c0.7-4.7,3.2-8.9,7-11.8c3.8-2.9,8.6-4.1,13.3-3.4c1.3,0.2,2.5,0.5,3.7,0.9c0.7,0.3,1.1,1.1,0.9,1.8c-0.3,0.7-1.1,1.1-1.9,0.8
						c-1-0.4-2-0.6-3.1-0.8c-4-0.6-7.9,0.4-11.2,2.8s-5.3,5.9-5.9,9.9s0.4,7.9,2.8,11.2c2.4,3.2,5.9,5.3,9.9,5.9s7.9-0.4,11.2-2.8
						c3.2-2.4,5.3-5.9,5.9-9.9c0.2-1.2,0.2-2.3,0.1-3.5c-0.1-0.8,0.5-1.5,1.3-1.6c0.8-0.1,1.5,0.5,1.6,1.3c0.1,1.4,0.1,2.8-0.1,4.2
						C137.3,114.6,129.6,121.1,120.8,121.1L120.8,121.1z"/>
				</g>
				<g>
					<polygon class="st6" points="204.1,42.5 223.4,48.7 190,72.5 166.8,69.5 172.1,44.8 207.1,21.1 					"/>
					<path class="st4" d="M190,73.9c-0.1,0-0.1,0-0.2,0l-23.2-3c-0.4-0.1-0.8-0.3-1-0.6c-0.2-0.3-0.3-0.7-0.2-1.1l5.3-24.7
						c0.1-0.4,0.3-0.7,0.6-0.9l35-23.8c0.5-0.3,1.1-0.3,1.6,0c0.5,0.3,0.7,0.9,0.7,1.4l-2.9,20.3l18.1,5.8c0.5,0.2,0.9,0.6,1,1.2
						c0.1,0.5-0.1,1.1-0.6,1.4l-33.4,23.8C190.6,73.8,190.3,73.9,190,73.9L190,73.9z M168.5,68.2l21.1,2.8l30.6-21.8l-16.6-5.3
						c-0.7-0.2-1.1-0.9-1-1.6l2.6-18.2l-31.9,21.6L168.5,68.2L168.5,68.2z"/>
				</g>
				<path class="st4" d="M120.8,104.6c-0.4,0-0.9-0.2-1.2-0.6c-0.5-0.6-0.3-1.5,0.3-2l83.3-60.9c0.6-0.5,1.5-0.3,2,0.3
					c0.5,0.6,0.3,1.5-0.3,2l-83.3,60.9C121.4,104.5,121.1,104.6,120.8,104.6z"/>
			</g>
			<g>
				<g>
					<path class="st7" d="M69.4,251.3l6.4-0.1c0.7,0,1.4,0.5,1.6,1.2c0.6,1.8,1.4,3.6,2.3,5.3c0.3,0.6,0.2,1.4-0.3,2l-4.5,4.6
						c-1.2,1.2-1.2,3.2,0,4.4l8.6,8.4c1.2,1.2,3.2,1.2,4.4,0l4.5-4.6c0.5-0.5,1.3-0.6,1.9-0.3c1.7,0.9,3.5,1.6,5.3,2.1
						c0.7,0.2,1.2,0.8,1.2,1.6l0.1,6.4c0,1.7,1.4,3.1,3.1,3.1l12-0.1c1.7,0,3.1-1.4,3.1-3.1l-0.1-6.4c0-0.7,0.5-1.4,1.2-1.6
						c1.8-0.6,3.6-1.4,5.3-2.3c0.6-0.3,1.4-0.2,2,0.3l4.6,4.5c1.2,1.2,3.2,1.2,4.4,0l8.4-8.6c1.2-1.2,1.2-3.2,0-4.4l-4.6-4.5
						c-0.5-0.5-0.6-1.3-0.3-2c0.9-1.7,1.6-3.5,2.1-5.3c0.2-0.7,0.8-1.2,1.6-1.2l6.4-0.1c1.7,0,3.1-1.4,3.1-3.1l-0.1-12
						c0-1.7-1.4-3.1-3.1-3.1l-6.4,0.1c-0.7,0-1.4-0.5-1.6-1.2c-0.6-1.8-1.4-3.6-2.3-5.3c-0.3-0.6-0.2-1.4,0.3-2l4.5-4.6
						c1.2-1.2,1.2-3.2,0-4.4l-8.6-8.4c-1.2-1.2-3.2-1.2-4.4,0l-4.5,4.6c-0.5,0.5-1.3,0.6-1.9,0.3c-1.7-0.9-3.5-1.6-5.3-2.1
						c-0.7-0.2-1.2-0.8-1.2-1.6l-0.1-6.4c0-1.7-1.4-3.1-3.1-3.1l-12,0.1c-1.7,0-3.1,1.4-3.1,3.1l0.1,6.4c0,0.7-0.5,1.4-1.2,1.6
						c-1.8,0.6-3.6,1.4-5.3,2.3c-0.7,0.3-1.4,0.2-2-0.3l-4.6-4.5c-1.2-1.2-3.2-1.2-4.4,0l-8.4,8.6c-1.2,1.2-1.2,3.2,0,4.4l4.6,4.5
						c0.5,0.5,0.6,1.3,0.3,1.9c-0.9,1.7-1.6,3.5-2.2,5.3c-0.2,0.7-0.8,1.2-1.6,1.2l-6.4,0.1c-1.7,0-3.1,1.4-3.1,3.1l0.1,12
						C66.3,250,67.7,251.3,69.4,251.3L69.4,251.3z"/>
					<path class="st4" d="M104.1,286.7c-2.4,0-4.4-2-4.4-4.4l-0.1-6.4c0-0.1-0.1-0.3-0.3-0.3c-1.9-0.6-3.8-1.3-5.6-2.2
						c-0.2-0.1-0.3-0.1-0.4,0l-4.5,4.6c-1.7,1.8-4.5,1.8-6.3,0.1l-8.6-8.4c-0.8-0.8-1.3-1.9-1.3-3.1s0.4-2.3,1.3-3.1l4.5-4.6
						c0.1-0.1,0.1-0.3,0-0.4c-0.9-1.8-1.7-3.6-2.3-5.5c-0.1-0.1-0.2-0.2-0.3-0.2l0,0l-6.4,0.1l0,0c0,0,0,0,0,0c-2.4,0-4.4-2-4.4-4.4
						l-0.1-12c0-1.2,0.4-2.3,1.3-3.1c0.8-0.9,1.9-1.3,3.1-1.3l6.4-0.1c0.2,0,0.3-0.1,0.3-0.3c0.6-1.9,1.3-3.8,2.2-5.6
						c0.1-0.1,0.1-0.3-0.1-0.4l-4.6-4.5c-0.8-0.8-1.3-1.9-1.3-3.1s0.4-2.3,1.3-3.1l8.4-8.6c1.7-1.8,4.5-1.8,6.3-0.1l4.6,4.5
						c0.1,0.1,0.3,0.1,0.4,0c1.8-0.9,3.6-1.7,5.5-2.3c0.2-0.1,0.3-0.2,0.2-0.3l-0.1-6.4c0-1.2,0.4-2.3,1.3-3.1
						c0.8-0.9,1.9-1.3,3.1-1.3l12-0.1c1.2,0,2.3,0.4,3.1,1.3c0.9,0.8,1.3,1.9,1.3,3.1l0.1,6.4c0,0.1,0.1,0.3,0.3,0.3
						c1.9,0.6,3.8,1.3,5.6,2.2c0.1,0.1,0.3,0.1,0.4-0.1l4.5-4.6c1.7-1.8,4.5-1.8,6.3-0.1l8.6,8.4c1.8,1.7,1.8,4.5,0.1,6.3l-4.5,4.6
						c-0.1,0.1-0.1,0.3,0,0.4c0.9,1.8,1.7,3.6,2.3,5.5c0.1,0.1,0.2,0.2,0.3,0.2l0,0l6.4-0.1c0,0,0,0,0.1,0c1.2,0,2.3,0.4,3.1,1.3
						c0.9,0.8,1.3,1.9,1.3,3.1l0.1,12c0,1.2-0.4,2.3-1.3,3.1c-0.8,0.9-1.9,1.3-3.1,1.3l-6.4,0.1c-0.1,0-0.3,0.1-0.3,0.3
						c-0.6,1.9-1.3,3.8-2.2,5.5c-0.1,0.1-0.1,0.3,0,0.4l4.6,4.5c1.8,1.7,1.8,4.5,0.1,6.3l-8.4,8.6c-1.7,1.8-4.5,1.8-6.3,0.1
						l-4.6-4.5c-0.1-0.1-0.3-0.1-0.4,0c-1.8,0.9-3.6,1.7-5.5,2.3c-0.2,0-0.3,0.2-0.2,0.3l0.1,6.4c0,2.5-1.9,4.5-4.4,4.5L104.1,286.7
						C104.2,286.7,104.1,286.7,104.1,286.7L104.1,286.7z M93.6,270.6c0.5,0,0.9,0.1,1.4,0.3c1.6,0.8,3.4,1.5,5.1,2.1
						c1.3,0.4,2.1,1.5,2.1,2.8l0.1,6.4c0,1,0.8,1.8,1.8,1.8c0,0,0,0,0,0l12-0.1c1,0,1.8-0.8,1.8-1.8l-0.1-6.4c0-1.3,0.8-2.5,2.1-2.9
						c1.8-0.6,3.5-1.3,5.1-2.2c1.2-0.6,2.6-0.4,3.5,0.5l4.6,4.5c0.3,0.3,0.8,0.5,1.2,0.5c0,0,0,0,0,0c0.5,0,0.9-0.2,1.3-0.5l8.4-8.6
						c0.7-0.7,0.7-1.8,0-2.5l-4.6-4.5c-0.9-0.9-1.1-2.3-0.6-3.5c0.8-1.6,1.5-3.4,2.1-5.1c0.4-1.3,1.5-2.1,2.8-2.1l6.4-0.1
						c0.5,0,0.9-0.2,1.3-0.5c0.3-0.3,0.5-0.8,0.5-1.3l-0.1-12c0-0.5-0.2-0.9-0.5-1.3c-0.3-0.3-0.8-0.5-1.3-0.5l-6.4,0.1c0,0,0,0,0,0
						c-1.3,0-2.4-0.8-2.8-2.1c-0.6-1.8-1.3-3.5-2.2-5.1c-0.6-1.2-0.4-2.6,0.5-3.5l4.5-4.6c0.7-0.7,0.7-1.8,0-2.5l-8.6-8.4
						c-0.7-0.7-1.8-0.7-2.5,0l-4.5,4.6c-0.9,0.9-2.3,1.1-3.5,0.6c-1.6-0.8-3.4-1.5-5.1-2.1c-1.3-0.4-2.1-1.5-2.1-2.8l-0.1-6.4
						c0-0.5-0.2-0.9-0.5-1.3s-0.8-0.5-1.2-0.5c0,0,0,0,0,0l-12,0.1c-0.5,0-0.9,0.2-1.3,0.5s-0.5,0.8-0.5,1.3l0.1,6.4
						c0,1.3-0.8,2.4-2.1,2.9c-1.8,0.6-3.5,1.3-5.1,2.2c-1.2,0.6-2.6,0.4-3.5-0.5l-4.6-4.5c-0.7-0.7-1.8-0.7-2.5,0l-8.4,8.6
						c-0.3,0.3-0.5,0.8-0.5,1.3c0,0.5,0.2,0.9,0.5,1.3l4.6,4.5c0.9,0.9,1.2,2.3,0.6,3.5c-0.8,1.6-1.5,3.4-2.1,5.1
						c-0.4,1.3-1.5,2.1-2.8,2.1l-6.4,0.1c-0.5,0-0.9,0.2-1.3,0.5s-0.5,0.8-0.5,1.3l0.1,12c0,1,0.8,1.8,1.8,1.8c0,0,0,0,0,0l6.4-0.1
						c0,0,0,0,0,0c1.3,0,2.4,0.8,2.8,2.1c0.6,1.8,1.3,3.5,2.2,5.1c0.6,1.2,0.4,2.6-0.5,3.5l-4.5,4.6c-0.3,0.3-0.5,0.8-0.5,1.3
						c0,0.5,0.2,0.9,0.5,1.3l8.6,8.4c0.7,0.7,1.8,0.7,2.5,0l4.5-4.6C92.1,270.9,92.9,270.6,93.6,270.6L93.6,270.6z M69.4,251.3
						L69.4,251.3z"/>
				</g>
				<g>
					<g>
						<path class="st4" d="M81.8,306.3c-0.7,0-1.2-0.5-1.3-1.1L78.5,291c-0.2-1.2,0.3-2.3,1.4-3.1c0,0,0.1-0.1,0.1-0.1l12.4-7.2
							c0.6-0.4,1.4-0.1,1.8,0.5c0.4,0.6,0.2,1.4-0.5,1.8l-12.3,7.1c-0.1,0.1-0.3,0.3-0.3,0.5l2.1,14.1c0.1,0.7-0.4,1.4-1.1,1.5
							C82,306.2,81.9,306.2,81.8,306.3L81.8,306.3z"/>
						<path class="st4" d="M109.7,299.4c-10.4,0-20.9-2.8-30.2-8.7c-0.6-0.4-0.8-1.2-0.4-1.8s1.2-0.8,1.8-0.4
							c8.9,5.6,18.9,8.3,28.8,8.3c14.9,0,29.6-6.1,40.2-17.7c17.4-19,19.1-47.9,4-68.8c-0.4-0.6-0.3-1.4,0.3-1.9
							c0.6-0.4,1.4-0.3,1.9,0.3c7.6,10.5,11.4,23.5,10.7,36.5c-0.7,13.2-6,25.9-15,35.6C140.7,293,125.3,299.4,109.7,299.4
							L109.7,299.4z"/>
					</g>
					<g>
						<path class="st4" d="M125.1,203.4c-0.5,0-0.9-0.2-1.1-0.7c-0.4-0.6-0.1-1.4,0.5-1.8l12.5-7.3c0.1-0.1,0.2-0.2,0.2-0.4
							l-2.1-14.3c-0.1-0.7,0.4-1.4,1.1-1.5c0.7-0.1,1.4,0.4,1.5,1.1l2.1,14.3c0.2,1.2-0.4,2.4-1.5,3.1l-12.5,7.3
							C125.5,203.3,125.3,203.4,125.1,203.4L125.1,203.4z"/>
						<path class="st4" d="M64.3,276c-0.4,0-0.8-0.2-1.1-0.5C55.7,264.9,51.9,252,52.6,239c0.7-13.2,6-25.8,14.9-35.5
							c8.9-9.7,21-16.1,34.1-18c12.9-1.8,26.1,0.8,37.2,7.4c0.6,0.4,0.8,1.2,0.5,1.8c-0.4,0.6-1.2,0.8-1.8,0.5
							c-22-13.1-50.6-8.8-68,10.1c-17.3,18.9-19.1,47.7-4.2,68.6c0.4,0.6,0.3,1.4-0.3,1.9C64.8,275.9,64.5,276,64.3,276L64.3,276z"
							/>
					</g>
				</g>
				<g>
					<g>
						<g>
							<circle class="st1" cx="109.7" cy="241.8" r="24"/>
							<path class="st4" d="M109.7,267.2c-14,0-25.4-11.4-25.4-25.4s11.4-25.4,25.4-25.4s25.4,11.4,25.4,25.4
								S123.7,267.2,109.7,267.2z M109.7,219.1c-12.5,0-22.7,10.2-22.7,22.7s10.2,22.7,22.7,22.7s22.7-10.2,22.7-22.7
								S122.3,219.1,109.7,219.1z"/>
						</g>
						<path class="st4" d="M109.7,223.9c-0.7,0-1.3-0.6-1.3-1.3v-4.9c0-0.7,0.6-1.3,1.3-1.3s1.3,0.6,1.3,1.3v4.9
							C111,223.4,110.5,223.9,109.7,223.9z"/>
						<path class="st4" d="M109.7,267.2c-0.7,0-1.3-0.6-1.3-1.3V261c0-0.7,0.6-1.3,1.3-1.3s1.3,0.6,1.3,1.3v4.9
							C111,266.6,110.5,267.2,109.7,267.2z"/>
						<path class="st4" d="M133.8,243.1h-4.9c-0.7,0-1.3-0.6-1.3-1.3s0.6-1.3,1.3-1.3h4.9c0.7,0,1.3,0.6,1.3,1.3
							S134.5,243.1,133.8,243.1z"/>
						<path class="st4" d="M90.5,243.1h-4.8c-0.7,0-1.3-0.6-1.3-1.3s0.6-1.3,1.3-1.3h4.8c0.7,0,1.3,0.6,1.3,1.3
							S91.3,243.1,90.5,243.1z"/>
					</g>
					<path class="st4" d="M109.7,243.1c-0.4,0-0.7-0.1-0.9-0.4l-6.5-6.5c-0.5-0.5-0.5-1.4,0-1.9c0.5-0.5,1.4-0.5,1.9,0l5.6,5.6
						l9.4-9.4c0.5-0.5,1.4-0.5,1.9,0c0.5,0.5,0.5,1.4,0,1.9l-10.3,10.3C110.4,243,110.1,243.1,109.7,243.1L109.7,243.1z"/>
				</g>
			</g>
			<g>
				<g>
					<g>
						
							<ellipse transform="matrix(0.7071 -0.7071 0.7071 0.7071 -40.3115 217.6473)" class="st1" cx="242.6" cy="157.5" rx="44.4" ry="44.4"/>
						<path class="st4" d="M242.6,203.1c-25.2,0-45.7-20.5-45.7-45.7s20.5-45.7,45.7-45.7c25.2,0,45.7,20.5,45.7,45.7
							S267.8,203.1,242.6,203.1z M242.6,114.4c-23.8,0-43.1,19.3-43.1,43.1s19.3,43.1,43.1,43.1s43.1-19.3,43.1-43.1
							S266.4,114.4,242.6,114.4z"/>
					</g>
					<g>
						<path class="st8" d="M288.3,125L288.3,125c-3.5-3.6-9.3-3.6-12.8,0l-34.3,34.3l-10.5-10.5c-3.6-3.6-9.3-3.6-12.8,0
							c-3.6,3.5-3.6,9.3,0,12.8l16.2,16.2c2,2,4.6,2.8,7.2,2.6c2.6,0.2,5.2-0.6,7.2-2.6l39.9-39.9
							C291.8,134.3,291.8,128.5,288.3,125L288.3,125z"/>
						<path class="st4" d="M240.4,181.6c-2.7,0-5.4-1.1-7.3-3l-16.2-16.2c-1.9-2-3-4.6-3-7.3s1.1-5.4,3-7.3c2-2,4.6-3,7.3-3
							c2.8,0,5.4,1.1,7.3,3l9.6,9.6l33.4-33.4c4-4,10.6-4,14.6,0l0,0c4,4,4,10.6,0,14.6l-39.9,39.9c-2.1,2.1-5,3.2-8.1,3
							C240.9,181.6,240.6,181.6,240.4,181.6L240.4,181.6z M224.2,147.3c-2.1,0-4,0.8-5.5,2.3c-1.5,1.5-2.3,3.4-2.3,5.5
							s0.8,4.1,2.3,5.5l16.2,16.2c1.6,1.6,3.9,2.4,6.2,2.2c0.1,0,0.1,0,0.2,0c2.3,0.2,4.6-0.6,6.2-2.2l39.9-39.9c3-3.1,3-8,0-11.1
							c-3-3-8-3-11,0l-34.3,34.3c-0.5,0.5-1.3,0.5-1.8,0l-10.5-10.5C228.3,148.1,226.3,147.3,224.2,147.3L224.2,147.3z"/>
					</g>
				</g>
				<g>
					<g>
						<path class="st1" d="M322.3,220.6h-6.4v0.4c-2-8.1-9.5-14-18.1-13.7l0,0c-1.7,0.1-7.7,0.4-9.1,0.6l-47.4,5.7
							c-6.5,0.8-11.7,6.7-11.5,13.2l0,0c0,0.3,0.1,0.6,0.2,0.9l-8.4-5.6l-20.4-13.6c-8.6-5.7-14.8,4.3-14.8,4.3s-6.7,9.6,3.2,16.3
							l40.3,27c2.1,1.6,4.8,2.6,7.6,2.5h71.9L322.3,220.6L322.3,220.6z"/>
						<path class="st4" d="M237.3,259.7c-2.9,0-5.8-1-8.1-2.8l-40.2-27c-3.2-2.2-5.2-4.9-5.8-8.1c-1-5.1,2-9.6,2.3-10
							c0.3-0.5,3.5-5.3,8.5-6.4c2.7-0.6,5.4,0,8,1.8l26.6,17.9c0.6-6.5,5.9-12.1,12.6-12.9l47.4-5.7c1.5-0.2,7.5-0.5,9.2-0.6
							c8.6-0.2,16.4,5.3,19,13.3h5.6c0.7,0,1.3,0.6,1.3,1.3s-0.6,1.3-1.3,1.3h-5.4c-0.2,0.2-0.5,0.4-0.8,0.4c-0.6,0.1-1.2-0.3-1.4-1
							c-1.8-7.5-8.7-12.8-16.4-12.8c-0.2,0-0.3,0-0.5,0c-1.8,0.1-7.6,0.4-9,0.6l-47.4,5.7c-5.9,0.7-10.5,6-10.4,11.8
							c0,0.2,0.1,0.5,0.1,0.7c0.1,0.5-0.1,1-0.5,1.3c-0.4,0.3-1,0.3-1.4,0l-28.7-19.2c-2-1.4-4.1-1.8-6.1-1.4
							c-4.1,0.9-6.9,5.2-6.9,5.3c0,0,0,0,0,0.1c0,0-2.7,3.9-1.9,8.1c0.5,2.5,2.1,4.6,4.7,6.4l40.3,27c0,0,0,0,0.1,0
							c2,1.5,4.4,2.3,6.8,2.2c0,0,0,0,0,0h71.9c0.7,0,1.3,0.6,1.3,1.3s-0.6,1.3-1.3,1.3h-71.9C237.5,259.7,237.4,259.7,237.3,259.7
							L237.3,259.7z"/>
					</g>
					<path class="st4" d="M241.8,238.3c-6.6,0-12.3-4.9-13.1-11.4c-0.4-3.4,0.5-6.8,2.7-9.5c2.2-2.8,5.3-4.6,8.9-5
						c0.7-0.1,1.3,0.4,1.4,1.1c0.1,0.7-0.4,1.3-1.1,1.4c-2.9,0.3-5.4,1.8-7.2,4c-1.7,2.2-2.5,4.9-2.1,7.6c0.7,5.7,6,9.8,11.9,9.1
						l30.8-3.7c0.7-0.1,1.3,0.4,1.4,1.1c0.1,0.7-0.4,1.3-1.1,1.4l-30.8,3.7C242.8,238.3,242.3,238.3,241.8,238.3L241.8,238.3z"/>
					<path class="st4" d="M254.7,236.7c-0.7,0-1.2-0.5-1.3-1.2l-0.1-4.5c-0.4-3.3-3.5-5.7-6.8-5.3l-5.5,0.6
						c-0.7,0.1-1.3-0.4-1.4-1.1c-0.1-0.7,0.4-1.3,1.1-1.4l5.5-0.6c4.8-0.5,9.1,2.9,9.6,7.6c0,0,0,0.1,0,0.1l0.1,4.5
						C256,236.1,255.4,236.7,254.7,236.7C254.7,236.7,254.7,236.7,254.7,236.7L254.7,236.7z"/>
					<path class="st4" d="M196.6,234.4c-0.3,0-0.7-0.1-0.9-0.4c-0.5-0.5-0.5-1.3,0-1.8l3-2.9c1-1.1,1.4-2.5,1.3-3.9
						c-0.1-1.5-0.8-2.8-1.9-3.8l-3.8-3.3c-0.5-0.5-0.6-1.3-0.1-1.8s1.3-0.6,1.8-0.1l3.8,3.3c1.6,1.4,2.6,3.4,2.8,5.5
						c0.1,2.1-0.6,4.2-2,5.8c0,0,0,0.1-0.1,0.1l-3,2.9C197.2,234.3,196.9,234.4,196.6,234.4L196.6,234.4z M199.6,230.3L199.6,230.3z
						"/>
				</g>
			</g>
		</g>
	</g>
</g>
</svg>
