<?xml version="1.0" encoding="utf-8"?>
<!-- Generator: Adobe Illustrator 26.5.0, SVG Export Plug-In . SVG Version: 6.00 Build 0)  -->
<svg version="1.1" id="Layer_1" xmlns="http://www.w3.org/2000/svg" xmlns:xlink="http://www.w3.org/1999/xlink" x="0px" y="0px"
	 viewBox="0 0 350 350" style="enable-background:new 0 0 350 350;" xml:space="preserve">
<style type="text/css">
	.st0{fill:none;stroke:#3F0A9E;stroke-width:2.7;stroke-linecap:round;stroke-linejoin:round;stroke-dasharray:0,0,17.78,17.78;}
	.st1{fill:#F0E6FF;}
	.st2{fill:#FFFFFF;}
	.st3{fill:#3F0A9E;}
	.st4{fill:#FF7474;}
	.st5{fill:#8BE1F7;}
	.st6{fill:#FFE780;}
	.st7{fill:#00E6C2;}
	.st8{fill:#CA8AFD;}
</style>
<g>
	<g id="_Layer_">
		<g>
			<g>
				<circle class="st0" cx="175" cy="175" r="135.8"/>
				<circle class="st1" cx="175" cy="175" r="109.5"/>
				<path class="st2" d="M226.8,40.6c-28.2-9.9-58-12-87.5-7.8c-8.2,1.2-13.4,12-11,19.4c2.9,9,10.6,12.2,19.4,11
					c-2.7,0.4,1.8-0.2,2.3-0.2c1.6-0.2,3.3-0.3,4.9-0.4c3.3-0.2,6.5-0.4,9.8-0.4c6.3-0.1,12.6,0.2,18.8,0.8c1.1,0.1,2.2,0.2,3.3,0.4
					c0.4,0.1,2.7,0.4,3.1,0.5c3.2,0.5,6.4,1.1,9.6,1.9c6.4,1.4,12.7,3.3,18.9,5.5c7.8,2.7,17.6-3.1,19.4-11
					C239.8,51.2,235.1,43.5,226.8,40.6L226.8,40.6z"/>
				<path class="st2" d="M112.5,277.2c-2.5-1.8-5-3.7-7.5-5.5c-0.2-0.1-1.9-1.5-2.3-1.8c-1.2-1-2.5-2-3.7-3
					c-4.8-3.9-9.4-8.1-13.8-12.5c-2.4-2.4-4.6-4.9-6.8-7.4c-0.2-0.3-1.8-2.2-1.9-2.3c-0.7-1-1.4-1.9-2.1-2.9
					c-3.3-4.8-6.2-9.8-8.7-15c-0.1-0.1-1-2.2-1.1-2.5c-0.4-1-0.8-2-1.2-3c-1-2.7-1.9-5.5-2.7-8.3c-0.8-2.8-1.4-5.6-2-8.4
					c-0.3-1.4-0.5-2.9-0.8-4.3c-0.1-0.3-0.1-0.5-0.1-0.7c0-0.2,0-0.4-0.1-0.8c-0.4-5.8-0.7-11.5-0.4-17.4c0.1-1.7,0.2-3.4,0.4-5.1
					c0-0.4,0.1-0.8,0.1-1.1c0-0.1,0-0.2,0.1-0.4c0.6-3.1,1.1-6.1,1.9-9.2c2-8-2.6-17.4-11-19.4c-8.1-1.9-17.3,2.4-19.4,11
					c-7,28.4-3.7,57.8,8.4,84.3c12.3,27,35.2,46.1,58.8,63.1c6.7,4.8,17.8,1.4,21.5-5.6C122.4,290.6,119.6,282.4,112.5,277.2
					L112.5,277.2z"/>
				<path class="st2" d="M316.8,163.9c-7.6-1.7-18,2.3-19.4,11c-1.9,11.8-5,23.4-9.2,34.5c-0.5,1.3-1,2.6-1.5,3.8c0,0.1,0,0.1,0,0.1
					c-0.3,0.6-0.5,1.2-0.8,1.8c-1.2,2.7-2.5,5.4-3.9,8.1c-2.7,5.3-5.7,10.5-8.9,15.5c-1.5,2.3-3,4.6-4.6,6.9
					c-0.9,1.3-1.9,2.6-2.8,3.9c-0.1,0.2-0.3,0.3-0.3,0.4c-0.3,0.4-0.7,0.9-1,1.3c-3.7,4.6-7.7,9.1-11.9,13.4
					c-4.2,4.2-8.6,8.3-13.2,12.1c-1.1,0.9-2.1,1.7-3.2,2.6c2.6-2.1-0.9,0.7-1.2,0.9c-2.6,1.9-5.2,3.7-7.9,5.5
					c-6.9,4.5-10.4,14.1-5.6,21.5c4.4,6.9,14.2,10.5,21.6,5.6c44.5-29.3,76.5-76.9,85.1-129.7C329.1,175.2,325.7,165.9,316.8,163.9
					L316.8,163.9z"/>
				<g>
					<g>
						<g>
							<path class="st2" d="M109,147.4H58.2c-6.3,0-11.5,5.1-11.5,11.5v35.7c0,6.4,5.2,11.5,11.5,11.5h7.6c1.5,0,3,0.6,4.1,1.7
								l9.3,9.4c2.2,2.2,5.9,2.2,8.1,0l9.3-9.4c1.1-1.1,2.5-1.7,4.1-1.7h8.3c6.4,0,11.5-5.1,11.5-11.5v-35.7
								C120.5,152.6,115.4,147.4,109,147.4z"/>
							<path class="st3" d="M83.3,220.3c-1.9,0-3.8-0.8-5.1-2.1l-9.3-9.4c-0.8-0.8-1.9-1.2-3-1.2h-7.6c-7.2,0-13-5.8-13-13v-35.7
								c0-7.2,5.8-13,13-13H109c7.2,0,13,5.8,13,13v35.7c0,7.2-5.8,13-13,13h-8.3c-1.1,0-2.2,0.4-3,1.2l-9.3,9.4
								C87,219.6,85.2,220.3,83.3,220.3L83.3,220.3z M58.2,148.9c-5.5,0-10,4.5-10,10v35.7c0,5.5,4.5,10,10,10h7.6
								c1.9,0,3.8,0.8,5.1,2.1l9.3,9.4c0.8,0.8,1.9,1.2,3,1.2s2.2-0.4,3-1.2l9.3-9.4c1.4-1.4,3.2-2.1,5.1-2.1h8.3
								c5.5,0,10-4.5,10-10v-35.7c0-5.5-4.5-10-10-10H58.2L58.2,148.9z"/>
						</g>
						<g>
							<path class="st4" d="M101.3,179.4c2.6-4.5,1.3-10.4-2.9-13.4c-1.8-1.2-3.9-2-6.2-2c-3.8,0-7.1,1.9-9,4.8
								c-1.9-2.9-5.2-4.8-9-4.8c-1.3,0-2.6,0.2-3.8,0.7c-6.1,2.3-8.4,9.9-4.8,15.4c0,0.1,0.1,0.1,0.1,0.2c1.4,2,3.2,3.8,5.1,5.3
								l12.5,9.7l12.4-9.7C98,183.9,99.8,181.8,101.3,179.4C101.2,179.4,101.3,179.4,101.3,179.4L101.3,179.4z"/>
							<path class="st3" d="M83.3,196.8c-0.3,0-0.6-0.1-0.9-0.3l-12.5-9.7c-2.2-1.7-4-3.6-5.4-5.6c-0.1-0.1-0.1-0.2-0.2-0.2
								c-2-3.1-2.4-6.9-1.3-10.4c1.1-3.4,3.6-6,6.8-7.2c1.4-0.5,2.8-0.8,4.3-0.8c3.4,0,6.7,1.4,9,3.9c2.3-2.5,5.5-3.9,9-3.9
								c2.6,0,5,0.8,7.1,2.2c4.8,3.4,6.3,10.2,3.4,15.4l0,0l0,0.1c-1.4,2.4-3.4,4.6-5.8,6.5l-12.4,9.7
								C84,196.7,83.6,196.8,83.3,196.8L83.3,196.8z M74.2,165.5c-1.1,0-2.2,0.2-3.2,0.6c-2.4,0.9-4.2,2.8-5.1,5.3
								c-0.9,2.7-0.6,5.6,0.9,7.9c0,0.1,0.1,0.1,0.1,0.1c1.2,1.8,2.9,3.5,4.8,5l11.6,9l11.5-9c2.1-1.7,3.9-3.6,5.1-5.7l0,0
								c2.2-3.9,1.1-8.9-2.5-11.5c-1.6-1.1-3.4-1.7-5.3-1.7c-3.1,0-6,1.6-7.7,4.2c-0.3,0.4-0.7,0.7-1.2,0.7s-1-0.2-1.2-0.7
								C80.2,167.1,77.3,165.5,74.2,165.5L74.2,165.5z"/>
						</g>
					</g>
					<g>
						<g>
							<g>
								<path class="st5" d="M142.4,286.7H98.7c-4.1,0-7.3-3.6-6.7-7.7l1.8-13.3c1.4-10.3,10.3-18,20.7-18h12.1
									c10.4,0,19.2,7.7,20.7,18l1.9,13.3C149.7,283.1,146.5,286.7,142.4,286.7L142.4,286.7z"/>
								<path class="st3" d="M142.4,288.2H98.7c-2.4,0-4.7-1-6.2-2.8c-1.6-1.8-2.3-4.2-1.9-6.6l1.8-13.3c1.5-11,11.1-19.3,22.1-19.3
									h12.1c11.1,0,20.6,8.3,22.1,19.3l1.9,13.3c0.3,2.4-0.4,4.8-1.9,6.6C147.1,287.2,144.8,288.2,142.4,288.2L142.4,288.2z
									 M114.5,249.2c-9.6,0-17.9,7.2-19.2,16.7l-1.8,13.3c-0.2,1.5,0.2,3.1,1.2,4.2c1,1.2,2.5,1.8,4,1.8h43.7c1.5,0,3-0.7,4-1.8
									c1-1.2,1.5-2.7,1.2-4.2l-1.9-13.3c-1.3-9.5-9.6-16.7-19.2-16.7H114.5L114.5,249.2z"/>
							</g>
							<g>
								<circle class="st2" cx="120.5" cy="234" r="16.6"/>
								<path class="st3" d="M120.5,252.1c-9.9,0-18-8.1-18-18s8.1-18,18-18s18,8.1,18,18S130.5,252.1,120.5,252.1L120.5,252.1z
									 M120.5,219c-8.3,0-15.1,6.8-15.1,15.1s6.8,15.1,15.1,15.1s15.1-6.8,15.1-15.1S128.9,219,120.5,219L120.5,219z"/>
							</g>
						</g>
						<g>
							<g>
								<path class="st6" d="M66.1,286.7H22.4c-4.1,0-7.3-3.6-6.7-7.7l1.8-13.3c1.4-10.3,10.3-18,20.7-18h12.1
									c10.4,0,19.2,7.7,20.7,18l1.8,13.3C73.4,283.1,70.2,286.7,66.1,286.7L66.1,286.7z"/>
								<path class="st3" d="M66.1,288.2H22.4c-2.4,0-4.7-1-6.2-2.8c-1.6-1.8-2.3-4.2-2-6.6l1.8-13.3c1.5-11,11-19.3,22.1-19.3h12.1
									c11.1,0,20.6,8.3,22.1,19.3l1.8,13.3c0.3,2.4-0.4,4.8-1.9,6.6C70.8,287.2,68.5,288.2,66.1,288.2L66.1,288.2z M38.2,249.2
									c-9.6,0-17.9,7.2-19.2,16.7l-1.8,13.3c-0.2,1.5,0.2,3.1,1.2,4.2c1,1.2,2.5,1.8,4,1.8h43.7c1.5,0,3-0.7,4-1.8
									c1-1.2,1.5-2.7,1.2-4.2l-1.8-13.3c-1.3-9.5-9.6-16.7-19.2-16.7H38.2L38.2,249.2z"/>
							</g>
							<g>
								<circle class="st2" cx="44.3" cy="234" r="16.6"/>
								<path class="st3" d="M44.3,252.1c-10,0-18-8.1-18-18s8.1-18,18-18s18,8.1,18,18S54.2,252.1,44.3,252.1z M44.3,219
									c-8.3,0-15.1,6.8-15.1,15.1s6.8,15.1,15.1,15.1s15.1-6.8,15.1-15.1S52.6,219,44.3,219L44.3,219z"/>
							</g>
						</g>
						<g>
							<g>
								<path class="st7" d="M104.2,306.3H60.6c-4.1,0-7.3-3.6-6.7-7.7l1.8-13.3c1.4-10.3,10.3-18,20.7-18h12.1
									c10.4,0,19.2,7.7,20.7,18l1.9,13.3C111.5,302.6,108.4,306.3,104.2,306.3L104.2,306.3z"/>
								<path class="st3" d="M104.2,307.7H60.6c-2.4,0-4.7-1-6.2-2.8c-1.6-1.8-2.3-4.2-1.9-6.6l1.8-13.3c1.5-11,11-19.3,22.1-19.3
									h12.1c11.1,0,20.6,8.3,22.2,19.3l1.9,13.3c0.3,2.4-0.4,4.8-1.9,6.6C108.9,306.7,106.6,307.7,104.2,307.7L104.2,307.7z
									 M76.4,268.7c-9.6,0-17.9,7.2-19.2,16.7l-1.8,13.3c-0.2,1.5,0.2,3.1,1.2,4.2c1,1.2,2.5,1.8,4,1.8h43.7c1.5,0,3-0.7,4-1.8
									s1.5-2.7,1.2-4.2l-1.9-13.3c-1.3-9.5-9.6-16.7-19.2-16.7H76.4L76.4,268.7z"/>
							</g>
							<g>
								<circle class="st2" cx="82.4" cy="253.5" r="16.6"/>
								<path class="st3" d="M82.4,271.6c-9.9,0-18-8.1-18-18s8.1-18,18-18s18,8.1,18,18S92.3,271.6,82.4,271.6z M82.4,238.5
									c-8.3,0-15.1,6.8-15.1,15.1s6.8,15.1,15.1,15.1s15.1-6.8,15.1-15.1S90.7,238.5,82.4,238.5L82.4,238.5z"/>
							</g>
						</g>
					</g>
				</g>
				<g>
					<g>
						<path class="st2" d="M302.1,179.1c0.5-0.1,1-0.1,1.5-0.1c5.7,0,10.3,4.6,10.3,10.3c0,1.3-0.2,2.5-0.7,3.7h0l-11.1,36.8
							L302.1,179.1L302.1,179.1z"/>
						<path class="st3" d="M302.1,231.2c-0.1,0-0.3,0-0.4-0.1c-0.8-0.2-1.3-1.1-1-1.9l11.1-36.8c0-0.1,0.1-0.2,0.1-0.3
							c0.3-0.9,0.5-1.9,0.5-3c0-4.8-3.9-8.8-8.8-8.8c-0.4,0-0.9,0-1.3,0.1c-0.8,0.1-1.6-0.4-1.7-1.3s0.5-1.6,1.3-1.7
							c0.6-0.1,1.2-0.1,1.8-0.1c6.5,0,11.8,5.3,11.8,11.8c0,1.4-0.3,2.9-0.8,4.2c0,0,0,0.1,0,0.1l-11.1,36.6
							C303.4,230.8,302.8,231.2,302.1,231.2L302.1,231.2z"/>
					</g>
					<g>
						<path class="st2" d="M282.9,168.7c1.8-3.1,5.1-5.1,8.9-5.1c5.7,0,10.3,4.6,10.3,10.3l0,0v55.8L282.9,168.7L282.9,168.7z"/>
						<path class="st3" d="M302.1,231.2c-0.9,0-1.5-0.7-1.5-1.5v-55.8c0-4.8-3.9-8.8-8.8-8.8c-3.1,0-6,1.7-7.6,4.4
							c-0.4,0.7-1.4,1-2.1,0.6s-1-1.4-0.5-2.1c2.1-3.6,6-5.9,10.2-5.9c6.5,0,11.8,5.3,11.8,11.8v55.8
							C303.6,230.6,303,231.2,302.1,231.2L302.1,231.2z"/>
					</g>
					<g>
						<path class="st2" d="M302.1,304.7v-75l-20.8-66.1h0c-0.8-4.9-5-8.6-10.1-8.6c-5.5,0-10.1,4.5-10.3,9.9c-0.1,1.7,0.3,3.4,1,4.9
							l0,0l11.9,35.9l0,0c-7.5-10.4-19.7-17.2-33.5-17.2c-18.2,0-33.7,11.8-39.1,28.2c-2.1,6.4,2.8,13,9.6,13h0.6
							c4.3,0,8.1-2.8,9.5-6.9c3.1-8.7,11.8-14.7,21.8-13.6c9.5,1,17.1,8.7,18.1,18.1c1.4,12.4-8.3,23-20.5,23
							c-9,0-16.6-5.7-19.4-13.7c-1.4-4.1-5.2-6.9-9.5-6.9h-0.6c-6.8,0-11.7,6.7-9.5,13.1c2.2,6.6,43.6,61.9,43.6,61.9L302.1,304.7
							L302.1,304.7z"/>
						<path class="st3" d="M244.9,306.3c-0.5,0-0.9-0.2-1.2-0.6c-4.2-5.7-41.6-55.7-43.9-62.3c-1.2-3.5-0.6-7.3,1.6-10.3
							c1-1.4,2.2-2.5,3.6-3.3c-1.4-0.8-2.7-1.9-3.6-3.3c-2.2-3-2.7-6.7-1.6-10.2c5.8-17.5,22.1-29.3,40.6-29.3
							c11.1,0,21.7,4.4,29.6,11.9l-9.4-28.6c-0.8-1.7-1.2-3.6-1.1-5.5c0.2-6.3,5.5-11.4,11.8-11.4l0,0c5.8,0,10.7,4.1,11.6,9.8
							l20.7,66c0,0.1,0.1,0.3,0.1,0.5v75c0,0.9-0.7,1.5-1.5,1.5s-1.5-0.7-1.5-1.5v-74.8L279.9,164c0-0.1-0.1-0.2-0.1-0.4
							c-0.8-4.1-4.4-7.1-8.6-7.1l0,0c-4.7,0-8.6,3.8-8.8,8.5c0,1.4,0.2,2.8,0.8,4.1c0,0.1,0.1,0.2,0.1,0.2l11.8,35.8
							c0.1,0.3,0.1,0.6,0.1,0.9c-0.1,0.4-0.3,0.8-0.6,1c-0.4,0.3-0.9,0.4-1.4,0.2c-0.4-0.1-0.6-0.4-0.8-0.7
							C265,196.2,253,190,240.3,190c-17.1,0-32.3,10.9-37.7,27.2c-0.8,2.5-0.4,5.2,1.2,7.4c1.6,2.3,4.1,3.6,6.9,3.6h0.6
							c3.6,0,6.8-2.3,8.1-5.9c3.5-9.7,13.1-15.7,23.4-14.6c10.2,1.1,18.4,9.3,19.5,19.5c0.7,6.4-1.2,12.5-5.5,17.3
							c-4.2,4.7-10.2,7.4-16.5,7.4c-9.4,0-17.7-5.9-20.9-14.7c-1.2-3.5-4.5-5.9-8.1-5.9h-0.6c-2.8,0-5.3,1.3-6.9,3.5
							c-1.6,2.2-2,5-1.1,7.6c1.8,5.2,31.9,46.2,43.4,61.5c0.5,0.7,0.4,1.6-0.3,2.1C245.5,306.1,245.2,306.2,244.9,306.3L244.9,306.3
							z M217,229.7c2.4,1.4,4.3,3.6,5.3,6.4c2.7,7.6,9.9,12.7,18,12.7c5.4,0,10.6-2.3,14.2-6.4c3.7-4.1,5.4-9.4,4.7-14.9
							c-1-8.8-8-15.8-16.8-16.8c-8.9-1-17.2,4.2-20.1,12.6C221.4,226.1,219.4,228.3,217,229.7L217,229.7z"/>
					</g>
					<g>
						<path class="st2" d="M281.4,232.6c0.7-10.1-2.2-19.5-7.6-27L281.4,232.6L281.4,232.6z"/>
						<path class="st3" d="M281.4,234.2c0,0-0.1,0-0.1,0c-0.8-0.1-1.5-0.8-1.4-1.6c0.6-9.4-1.9-18.4-7.4-26
							c-0.5-0.7-0.3-1.6,0.4-2.1c0.7-0.5,1.6-0.3,2.1,0.4c5.8,8.1,8.6,18,7.9,28C282.9,233.5,282.2,234.2,281.4,234.2L281.4,234.2z"
							/>
					</g>
				</g>
				<path class="st2" d="M293.7,81.6c-2.3-12.1-13-20-22.8-26.2c-8.9-5.6-18.6-9.9-28.2-14.2c-7.5-3.4-17.3-2.4-21.6,5.7
					c-3.6,6.9-2.4,17.9,5.6,21.5c8.1,3.7,16.3,7.3,24,11.7c1.9,1.1,3.7,2.2,5.5,3.3c0.9,0.6,1.8,1.2,2.7,1.8c0.1,0.1,0.9,0.7,1.4,1
					c0.4,0.3,1,0.8,1.1,0.9c0.5,0.5,1.1,1.1,1.6,1.6c0,0,0,0.1,0,0.1c-0.2-0.2-0.3-0.2,0,0.1c0,0.2,0,0.5,0.1,0.9
					c1.5,8.1,11.8,13.5,19.4,11C291.4,98.1,295.3,90.3,293.7,81.6L293.7,81.6z"/>
				<path class="st2" d="M144.4,41.4c-2.5-7.6-11.1-14-19.4-11c-7.2,2.6-14.3,5.5-21.3,8.6c-7.6,3.3-9.9,15-5.7,21.5
					c5.1,7.8,13.5,9.2,21.5,5.6c0.6-0.2,1.7-0.7,2.1-0.9c1.1-0.5,2.3-0.9,3.4-1.4c2.7-1.1,5.4-2.1,8.2-3.1
					C141.2,58,147.2,50,144.4,41.4L144.4,41.4z"/>
			</g>
			<g>
				<g>
					<g>
						<g>
							<path class="st2" d="M221.2,181.8h-75.1c-4,0-7.2-3.2-7.2-7.2V56.8h106.8v100.5L221.2,181.8L221.2,181.8z"/>
							<path class="st3" d="M221.2,183.4h-75.1c-4.9,0-8.8-4-8.8-8.8V56.8c0-0.9,0.7-1.6,1.6-1.6h106.8c0.9,0,1.6,0.7,1.6,1.6v100.5
								c0,0.9-0.7,1.6-1.6,1.6s-1.6-0.7-1.6-1.6V58.4H140.5v116.1c0,3.1,2.5,5.6,5.6,5.6h75.1c0.9,0,1.6,0.7,1.6,1.6
								S222.1,183.4,221.2,183.4L221.2,183.4z"/>
						</g>
						<g>
							<path class="st7" d="M143.4,34.1h97.7c2.5,0,4.5,2,4.5,4.5v18.2H138.9V38.6C138.9,36.1,140.9,34.1,143.4,34.1L143.4,34.1z"/>
							<path class="st3" d="M245.7,58.4H138.9c-0.9,0-1.6-0.7-1.6-1.6V38.6c0-3.4,2.8-6.1,6.1-6.1h97.7c3.4,0,6.1,2.8,6.1,6.1v18.2
								C247.3,57.7,246.6,58.4,245.7,58.4L245.7,58.4z M140.5,55.2h103.5V38.6c0-1.6-1.3-2.9-2.9-2.9h-97.7c-1.6,0-2.9,1.3-2.9,2.9
								C140.5,38.6,140.5,55.2,140.5,55.2z"/>
						</g>
					</g>
					<g>
						<path class="st8" d="M221.2,181.8v-17.2c0-4,3.2-7.2,7.2-7.2h17.2L221.2,181.8L221.2,181.8z"/>
						<path class="st3" d="M221.2,183.4c-0.2,0-0.4,0-0.6-0.1c-0.6-0.2-1-0.8-1-1.5v-17.2c0-4.9,4-8.8,8.8-8.8h17.2
							c0.6,0,1.2,0.4,1.5,1s0.1,1.3-0.4,1.8l-24.4,24.4C222.1,183.2,221.7,183.4,221.2,183.4L221.2,183.4z M228.5,158.9
							c-3.1,0-5.6,2.5-5.6,5.6v13.3l19-18.9L228.5,158.9L228.5,158.9z"/>
					</g>
				</g>
				<g>
					<path class="st3" d="M229,82.5h-73.5c-0.9,0-1.6-0.7-1.6-1.6s0.7-1.6,1.6-1.6H229c0.9,0,1.6,0.7,1.6,1.6S229.9,82.5,229,82.5
						L229,82.5z"/>
					<g>
						<g>
							
								<ellipse transform="matrix(0.2297 -0.9733 0.9733 0.2297 29.1902 281.2663)" class="st8" cx="192.3" cy="122.2" rx="40.6" ry="40.6"/>
							<path class="st3" d="M192.3,164.4c-23.3,0-42.2-18.9-42.2-42.2S169,80,192.3,80s42.2,18.9,42.2,42.2S215.6,164.4,192.3,164.4
								z M192.3,83.2c-21.5,0-39,17.5-39,39s17.5,39,39,39s39-17.5,39-39S213.8,83.2,192.3,83.2z"/>
						</g>
						<g>
							<g>
								<path class="st2" d="M212.9,102.2c5.7,5.7,8.5,13.1,8.5,20.6s-2.9,14.9-8.5,20.6c-5.7,5.7-13.1,8.5-20.6,8.5
									s-14.9-2.8-20.6-8.5L212.9,102.2L212.9,102.2z"/>
								<path class="st3" d="M192.3,153.6C192.3,153.6,192.3,153.6,192.3,153.6c-8.2,0-15.9-3.2-21.7-9c-0.3-0.3-0.5-0.7-0.5-1.1
									s0.2-0.8,0.5-1.1l41.2-41.2c0.6-0.6,1.6-0.6,2.3,0c5.8,5.8,9,13.5,9,21.7s-3.2,15.9-9,21.7S200.5,153.6,192.3,153.6
									L192.3,153.6z M192.3,150.4L192.3,150.4c7.4,0,14.3-2.9,19.5-8.1s8.1-12.1,8.1-19.5c0-6.8-2.5-13.2-7-18.3L174,143.4
									C179,147.9,185.4,150.4,192.3,150.4L192.3,150.4L192.3,150.4z"/>
							</g>
							<path class="st3" d="M212.9,145c-0.4,0-0.8-0.2-1.1-0.5L191.1,124c-0.6-0.6-0.6-1.6,0-2.3c0.6-0.6,1.6-0.6,2.3,0l20.6,20.6
								c0.6,0.6,0.6,1.6,0,2.3C213.7,144.9,213.3,145,212.9,145L212.9,145z"/>
							<path class="st3" d="M192.3,124.4c-0.9,0-1.6-0.7-1.6-1.6s0.7-1.6,1.6-1.6h29.1c0.9,0,1.6,0.7,1.6,1.6c0,0.9-0.7,1.6-1.6,1.6
								H192.3z"/>
							<path class="st3" d="M192.3,153.6c-0.9,0-1.6-0.7-1.6-1.6v-29.1c0-0.9,0.7-1.6,1.6-1.6s1.6,0.7,1.6,1.6V152
								C193.9,152.8,193.1,153.6,192.3,153.6z"/>
						</g>
					</g>
					<g>
						<rect x="185.7" y="75" class="st4" width="13.2" height="13.2"/>
						<path class="st3" d="M198.9,89.8h-13.2c-0.9,0-1.6-0.7-1.6-1.6V75c0-0.9,0.7-1.6,1.6-1.6h13.2c0.9,0,1.6,0.7,1.6,1.6v13.2
							C200.5,89.1,199.8,89.8,198.9,89.8z M187.3,86.6h10v-10h-10V86.6z"/>
					</g>
				</g>
			</g>
		</g>
	</g>
</g>
</svg>
