<?xml version="1.0" encoding="utf-8"?>
<!-- Generator: Adobe Illustrator 27.3.1, SVG Export Plug-In . SVG Version: 6.00 Build 0)  -->
<svg version="1.1" id="Layer_1" xmlns="http://www.w3.org/2000/svg" xmlns:xlink="http://www.w3.org/1999/xlink" x="0px" y="0px"
	 viewBox="0 0 1592.3 200" style="enable-background:new 0 0 1592.3 200;" xml:space="preserve">
<style type="text/css">
	.st0{fill:#FFFFFF;}
</style>
<g>
	<path class="st0" d="M89.5,54.5H76.7l-0.8,14h-9.7v11.2h9.6l0.1,38c0,9.4,3.7,14.2,11.1,14.2h15.1v-12.4H91.5
		c-1.5,0-1.9-0.3-1.9-2.5V79.7h12.6V68.5H89.5V54.5z"/>
	<path class="st0" d="M138.6,66.7c-8.5,0-16.4,3.4-22.2,9.5c-5.9,6.2-9.1,14.7-9.1,24c0,9.6,3,17.8,8.7,23.8
		c5.9,6.2,14.1,9.5,23.9,9.5c5.1,0,10.2-1.1,14.7-3.2c4.7-2.2,8.7-5.3,11.8-9.3l0.3-0.4l-7.9-8l-0.4,0.5c-4.3,5-10.6,7.8-17.3,7.8
		c-11.5,0-17.9-4.9-19.4-15h45.8v-0.5c0.1-4.4,0.1-6,0.1-8.3c0-8.1-2.7-15.7-7.7-21.2C154.7,69.9,147.3,66.7,138.6,66.7z M121.7,95
		c1.4-10.1,7-15,17.2-15c8.7,0,14.7,6,15.2,15H121.7z"/>
	<path class="st0" d="M238.3,66.7c-8.5,0-16.4,3.4-22.2,9.5c-5.9,6.2-9.1,14.7-9.1,24c0,9.6,3,17.8,8.7,23.8
		c5.9,6.2,14.1,9.5,23.9,9.5c5.1,0,10.2-1.1,14.7-3.2c4.7-2.2,8.7-5.3,11.8-9.3l0.3-0.4l-7.9-8l-0.4,0.5c-4.3,5-10.6,7.8-17.3,7.8
		c-11.5,0-17.9-4.9-19.4-15h45.8v-0.5c0.1-4.4,0.1-6,0.1-8.3c0-8.1-2.7-15.7-7.7-21.2C254.3,69.9,246.9,66.7,238.3,66.7z M221.3,95
		c1.4-10.1,7-15,17.2-15c8.7,0,14.8,6,15.2,15H221.3z"/>
	<path class="st0" d="M191.9,119c-0.2-0.3-0.4-1-0.4-2.1V45.3h-13.7v72.4c0,4.7,1,8.2,2.8,10.6c1.9,2.4,4.7,3.6,8.4,3.6h13.2v-12.4
		h-8.9C192.3,119.5,192,119.2,191.9,119z"/>
	<path class="st0" d="M491.6,66.7c-5.2,0-9.7,1.5-13.3,4.4c-3.1,2.5-5.7,6.1-7.7,10.8H470c-2.7-9.8-9.5-15.2-19.2-15.2
		c-9.4,0-16.6,4.9-20.4,13.7h-0.5l-0.9-12h-11.7v63.4H431V96.5c0-3,0.9-7.6,3.4-11.4c1.9-3,5.6-6.6,12.1-6.6
		c7.8,0,11.8,5.1,11.8,15.3v38H472V96.5c0-4,1.3-8.4,3.5-11.6c2-2.9,5.7-6.4,12.1-6.4c3.8,0,6.6,1.2,8.5,3.6
		c2.1,2.5,3.1,6.5,3.1,11.7v38h13.7V92.1c0-7.8-1.9-14.2-5.5-18.6C503.7,69,498.3,66.7,491.6,66.7z"/>
	<path class="st0" d="M306.2,80.5h0.2h0.2c2.2,0.1,12.7,0.9,17,11l11.3-5c0,0-5.3-19.6-29.2-19.6c-8.4,0-16.1,3.4-21.7,9.6
		c-5.6,6.2-8.7,14.8-8.7,24.1c0,19.1,12.9,33,30.6,33c6.1,0,11.6-1.3,16.4-4c5-2.8,9.1-6.9,12.1-12.2l0.2-0.4l-9.5-6.3L325,111
		c-4,6.2-10.5,9.8-17.7,9.8c-5,0-9.6-2-12.8-5.7c-3.2-3.7-5-9-5-14.8c0-6.1,1.8-11.2,5.2-14.8C297.7,82.3,301.8,80.5,306.2,80.5z"/>
	<path class="st0" d="M374.8,79.9c7.6,0,14.3,4.3,17.7,10.6h14.2c-4.1-13.8-16.8-23.9-31.9-23.9c-15,0-27.8,10.1-31.9,23.9h14.2
		C360.5,84.2,367.1,79.9,374.8,79.9z"/>
	<path class="st0" d="M394.5,97.1c0.3,1,0.4,2,0.4,3c0,11.1-9,20.2-20.1,20.2c-11.1,0-20.1-9-20.1-20.2c0-1,0.1-2,0.2-3h-13.3
		c-0.1,1-0.1,2-0.1,3c0,18.4,14.9,33.4,33.2,33.4c18.3,0,33.2-15,33.2-33.4c0-1,0-2-0.1-3H394.5z"/>
	<path class="st0" d="M1388.2,65.3c-19.1,0-34.6,15.5-34.6,34.6c0,19.1,15.5,34.6,34.6,34.6s34.6-15.5,34.6-34.6
		C1422.8,80.8,1407.3,65.3,1388.2,65.3z M1388.2,120.8c-11.5,0-20.9-9.4-20.9-20.9s9.4-20.9,20.9-20.9s20.9,9.4,20.9,20.9
		S1399.7,120.8,1388.2,120.8z"/>
	<path class="st0" d="M1291.3,46.7c-2.7,2.5-4.1,6.2-4.1,10.7v11.1h-7.7v11.7h7.7v52.5h14.1V80.3h14.1V68.6h-14.1V57.4
		c0-1.9,0.8-2.8,2.5-2.8h14.8V43h-16.5C1297.7,43,1293.9,44.3,1291.3,46.7z"/>
	<path class="st0" d="M1339.5,119.5c-0.3-0.3-0.4-1-0.4-2.1V43.1h-14.3v75c0,4.8,1,8.5,3,11c2,2.5,4.9,3.7,8.7,3.7h13.7V120h-9.2
		C1339.9,120,1339.6,119.7,1339.5,119.5z"/>
	<polygon class="st0" points="1513.9,67.1 1499.6,120.9 1499.3,120.9 1483.5,67.5 1483.4,67.1 1468.9,67.1 1453.9,120.9 
		1453.7,120.9 1438.7,67.1 1423.6,67.1 1442.9,132.4 1443,132.8 1462.7,132.8 1476.1,86.6 1488.8,132.8 1508.6,132.8 1527.6,67.1 	
		"/>
	<path class="st0" d="M1397.8,98.8l-14.5-8.3c-0.4-0.2-0.9-0.2-1.2,0c-0.4,0.2-0.6,0.6-0.6,1.1v16.7c0,0.4,0.2,0.9,0.6,1.1
		c0.2,0.1,0.4,0.2,0.6,0.2s0.4-0.1,0.6-0.2l14.5-8.3c0.4-0.2,0.6-0.6,0.6-1.1C1398.4,99.4,1398.2,99,1397.8,98.8z"/>
	<path class="st0" d="M755.1,65.9c-8.8,0-16.9,3.5-23,9.8c-6.1,6.4-9.4,15.2-9.4,24.7c0,9.8,3.1,18.3,9,24.5
		c6.1,6.4,14.6,9.7,24.7,9.7c5.3,0,10.5-1.1,15.2-3.3c4.9-2.3,9-5.5,12.2-9.6l0.3-0.4l-8.1-8.2l-0.4,0.5c-4.4,5.1-10.9,8.1-17.9,8.1
		c-11.9,0-18.5-5.1-20.1-15.4H785v-0.5c0.1-4.6,0.1-6.2,0.1-8.5c0-8.4-2.8-16.1-7.9-21.8C771.7,69.2,764,65.9,755.1,65.9z M737.6,95
		c1.5-10.4,7.3-15.4,17.8-15.4c8.9,0,15.2,6.2,15.7,15.4H737.6z"/>
	<path class="st0" d="M931.5,65.9c-19,0-34.4,15.4-34.4,34.4s15.4,34.4,34.4,34.4s34.4-15.4,34.4-34.4S950.5,65.9,931.5,65.9z
		 M931.5,121.1c-11.4,0-20.8-9.3-20.8-20.8c0-11.4,9.3-20.8,20.8-20.8s20.8,9.3,20.8,20.8C952.3,111.7,943,121.1,931.5,121.1z"/>
	<path class="st0" d="M684.7,65.8c-9.9,0-17.2,4.8-21.7,14.2h-0.5l-0.3-12.4h-11.5v88.7h13.8v-35.4h0.4c1.7,3.9,4.1,7.1,7.1,9.4
		c3.7,2.9,8.2,4.4,13.4,4.4c7.9,0,15.2-3.4,20.5-9.6c5.3-6.3,8.3-15.1,8.3-24.9c0-9.7-2.9-18.5-8.3-24.7
		C700.5,69.2,693,65.8,684.7,65.8z M682.3,121.5c-5.3,0-9.8-2.2-12.9-6.3c-2.9-3.8-4.5-9.1-4.5-14.9c0-5.9,1.7-11.3,4.7-15.1
		c3.2-4.1,7.8-6.3,13.1-6.3c5,0,9.2,2.1,12.3,6c3.1,4,4.7,9.4,4.7,15.6C699.7,113.1,692.7,121.5,682.3,121.5z"/>
	<path class="st0" d="M809.2,79.5h-0.4L808,67.7h-11.9V133h14.2V95.2c0-8.6,3.5-12.3,11.6-12.3h9.1V67.6h-4.6
		C817.2,67.6,811.6,71.5,809.2,79.5z"/>
	<path class="st0" d="M862.5,76.7c7.7,0,13.7,4.1,16.4,11.3l0.2,0.5l11-4.1l-0.2-0.5c-2.3-5.8-5.8-10.3-10.4-13.5
		c-4.7-3.2-10.3-4.8-16.7-4.8c-5.9,0-11.8,1.9-16.1,5.3c-4.8,3.7-7.4,9-7.4,14.9c0,5.6,2,10.2,6,13.7c3.4,3,8.1,5.3,14.6,7
		c0.5,0.1,0.9,0.2,1.4,0.3c3.9,0.9,7.7,1.7,10.3,3c2.8,1.4,4.1,3.2,4.1,5.7c0,5.1-6,7.4-12,7.4c-7.9,0-15.3-4.2-19.2-11l-0.3-0.5
		l-10.2,5.5l0.2,0.5c2.4,5.2,6.4,9.5,11.5,12.4c5.1,3,11.3,4.5,17.9,4.5c7.1,0,13.6-1.7,18.3-4.9c5.2-3.5,8-8.5,8-14.3
		c0.1-5.6-2.3-10-7.1-13.4c-4.5-3.1-10.5-4.9-15.2-6.1c-7.3-2.1-15.5-4.4-15.5-10.7C852.2,81,856,76.7,862.5,76.7z"/>
	<path class="st0" d="M1010.3,65.9c-4.9,0-9.6,1.5-13.4,4.2c-3.5,2.5-6.3,5.9-8.1,9.9h-0.6V67.7h-13.1V133h14.2V96.6
		c0-2.8,1.2-7.3,3.8-11.2c2.2-3.2,6.1-7.1,12.5-7.1c4.4,0,7.6,1.3,9.6,3.9c2,2.5,2.9,6.3,2.9,11.6V133h14.2V92
		c0-8.1-1.9-14.5-5.6-19.1C1022.9,68.3,1017.4,65.9,1010.3,65.9z"/>
	<path class="st0" d="M1098.9,120.1V90.7c0-7.3-2.3-13.4-6.7-17.8c-4.5-4.6-11.1-7-19-7c-14.1,0-23.9,6.4-29.9,19.6l-0.2,0.5
		l12.3,5.7l0.2-0.5c3.4-7.3,10-12.2,16.4-12.2c7.2,0,12.6,4.8,12.6,11.2v4.6h-14.9c-16.7,0-27.1,8-27.1,20.9c0,5.6,2.1,10.4,6,13.7
		c3.7,3.2,8.9,4.9,14.7,4.9c5.3,0,10.3-1.5,14.4-4.4c3.8-2.6,6.8-6.3,8.9-10.6h0.5l-0.1,3.5c0,6.5,3.2,9.9,9.2,9.9h9.2v-11.2h-5.5
		C1099.1,121.8,1098.9,120.8,1098.9,120.1z M1077.9,117.4c-3.4,2.7-7.6,4.5-10.6,4.5c-2.8,0-5.4-0.7-7.2-1.8c-1.9-1.2-2.9-3-2.9-5.1
		c0-2.7,1.7-4.9,4.9-6.3c3-1.3,7.2-2,12.1-2h10.4C1084.1,110.6,1081.7,114.4,1077.9,117.4z"/>
	<path class="st0" d="M1130.9,120.2c-1,0-1.3-0.2-1.5-0.4c-0.3-0.3-0.4-1-0.4-2.1V43.8h-14.2v74.6c0,4.8,1,8.5,2.9,10.9
		c1.9,2.4,4.9,3.7,8.6,3.7h13.6v-12.7L1130.9,120.2L1130.9,120.2z"/>
	<rect x="1206.9" y="50.1" class="st0" width="4.1" height="88.5"/>
	<rect x="580.5" y="50.1" class="st0" width="4.1" height="88.5"/>
</g>
</svg>
