<?xml version="1.0" encoding="utf-8"?>
<!-- Generator: Adobe Illustrator 27.3.1, SVG Export Plug-In . SVG Version: 6.00 Build 0)  -->
<svg version="1.1" id="Layer_1" xmlns="http://www.w3.org/2000/svg" xmlns:xlink="http://www.w3.org/1999/xlink" x="0px" y="0px"
	 viewBox="0 0 310.8 304.3" style="enable-background:new 0 0 310.8 304.3;" xml:space="preserve">
<style type="text/css">
	.st0{fill:#FFFFFF;}
</style>
<path class="st0" d="M181.1,147.5c-13.4,0-24.4-10.9-24.4-24.4h-11.4c0,19.7,16.1,35.8,35.8,35.8V147.5z"/>
<path class="st0" d="M213.9,63.1H63.1v60c0,65.1,53,118,118,118v-11.4c-58.8,0-106.6-47.8-106.6-106.6V74.5h139.4
	c11.7,0,22.4,9.6,22.4,20.2v93.9h-55.2v0c-36.1,0-65.5-29.4-65.5-65.5h-11.4c0,42.4,34.5,76.9,76.9,76.9v0h66.6V94.7
	C247.7,77.9,231.9,63.1,213.9,63.1z"/>
</svg>
