<?xml version="1.0" encoding="utf-8"?>
<!-- Generator: Adobe Illustrator 27.3.1, SVG Export Plug-In . SVG Version: 6.00 Build 0)  -->
<svg version="1.1" id="Layer_1" xmlns="http://www.w3.org/2000/svg" xmlns:xlink="http://www.w3.org/1999/xlink" x="0px" y="0px"
	 viewBox="0 0 967.9 353.9" style="enable-background:new 0 0 967.9 353.9;" xml:space="preserve">
<style type="text/css">
	.st0{fill:#FFFFFF;}
</style>
<g>
	<g>
		<path class="st0" d="M242.3,81.4H77.7v65.4c0,71,57.7,128.7,128.7,128.7v-12.4c-64.3,0-116.3-52.3-116.3-116.3v-53H242
			c12.8,0,24.6,10.6,24.6,22.1v102.5h-60.2c-39.4,0-71.4-32-71.4-71.4h-12.4c0,46.2,37.6,83.8,83.8,83.8H279v-115
			C279.2,97.6,261.9,81.4,242.3,81.4z"/>
		<path class="st0" d="M206.7,173.5c-14.6,0-26.6-11.9-26.6-26.6h-12.4c0,21.4,17.6,39,39,39V173.5z"/>
		<path class="st0" d="M880.2,141.6L880.2,141.6c-2.3-0.1-2.5-1-2.5-2.8L878,53h-16l-0.2,85.9c0,9.2,2.9,15.8,13.1,15.8h15.3v-13.1
			H880.2z"/>
		<path class="st0" d="M379.5,78c-11,0-20.1,6.3-25,15.8H354l-0.2-14h-13.7l-0.2,99.6h16v-37.9h0.5c3.6,7.4,10.1,14.2,23,14.2
			c20.3,0,32.5-18,32.5-39.2C411.7,95.3,400,78,379.5,78z M375.4,140.6c-12.6,0-19.4-11-19.4-23.9c0-13.1,7.4-24.1,20.1-24.1
			c12.6,0,19.4,12.2,19.4,24.8C395.5,131.2,387.4,140.6,375.4,140.6z"/>
		<path class="st0" d="M457.9,78c-20.5,0-37.2,17.4-37.2,39.4c0,24.6,18.5,38.3,37.9,38.3c11.9,0,23.2-4.7,31.3-14.6l-9.5-9.5
			c-5,5-11.5,9.7-20.7,9.7c-12.4,0-22.1-7.2-23.4-17.8h55v-8.8C491.3,93.5,478.4,78,457.9,78z M436.3,111.1
			c1.4-11,10.6-18.5,21-18.5c11.9,0,18.3,8.1,18.5,18.5H436.3z"/>
		<path class="st0" d="M654.7,78.2c-21.4,0-39.2,17.6-39.2,39c0,21.4,17.6,39.2,38.8,39.2c21.4,0,39-17.6,39-39
			C693.2,95.8,676.7,78.2,654.7,78.2z M654.2,141.7c-13.5,0-23.7-11-23.7-24.6c0-13.7,10.4-24.6,23.7-24.3c13.3,0,23.7,11,23.7,24.6
			C677.9,131,667.5,141.7,654.2,141.7z"/>
		<path class="st0" d="M578.7,91c6.5,0,14.2,3.6,17.8,11.7l11.7-5.9C604,87.2,594.7,78,578.7,78c-15.3,0-27.5,10.4-27.5,22.5
			c0,14.2,14,19.2,25.2,23c8.3,2.5,15.3,5.4,15.3,11.3c0,5.6-5.6,8.3-12.4,8.3c-9.7,0-17.1-5.6-23.2-13.1l-9.9,8.3
			c7,10.8,19.2,17.8,32.7,17.8c14.9,0,28.8-8.1,28.8-22.8s-14.4-19.2-26.1-22.8c-8.3-2.7-14.4-4.7-14.4-11
			C567,94.6,572.2,91,578.7,91z"/>
		<path class="st0" d="M843.3,139v-32.5c0-18-12.2-27.9-29.3-27.9c-14.9,0-27.5,8.1-33.8,22.3l13.3,6.5c3.8-8.3,11.7-14.4,20.3-14.4
			c9,0,13.5,5.9,13.5,13.5v4.7h-14.4c-18.7,0-32.9,8.8-32.9,23.4c0,14.4,11.3,21.4,23,21.4c11.3,0,21.4-6.1,26.4-16.9h0.7v3.6
			c0,8.1,4.3,11.7,10.6,11.7h10.1v-13.1h-5.6C843.5,141.3,843.3,140.6,843.3,139z M806.3,142.9c-6.1,0-10.4-3.4-10.4-9.2
			c0-7.7,7.4-11.3,17.8-11.3h13.7C826.2,134.8,816.2,143.1,806.3,142.9z"/>
		<path class="st0" d="M742.8,78.2c-12.4,0-19.6,7.2-24.6,16H718v-14h-14.4l-0.2,73.9h16v-38.3c0-11.5,6.3-23.7,18.9-23.7
			c9.9,0,13.7,7.7,13.7,17.8v44.2h16v-46.9C767.8,90.4,759,78.2,742.8,78.2z"/>
		<path class="st0" d="M519.7,111.1c0-9.9,3.8-15.3,13.1-15.3h10.1v-16h-4.7c-10.6,0-15.8,4.1-19.4,13.5h-0.5V79.8h-14.4l-0.2,73.9
			h16L519.7,111.1z"/>
		<path class="st0" d="M374.5,197.9c-14.9,0-23.4,9-27.3,18.9h-0.7v-16.7h-7v104.1h7v-45.3h0.7c3.6,10.1,12.4,19.2,26.8,19.2
			c19.2,0,33.8-15.5,33.8-39.9C408.1,214.3,394.1,197.9,374.5,197.9z M373.9,270.9c-17.8,0-26.6-15.5-26.6-32.7
			c0-17.8,9.7-33.4,27.3-33.4c15.8,0,25.7,13.3,25.7,33.4C400.2,258.9,389.2,270.9,373.9,270.9z"/>
		<path class="st0" d="M478.9,266.4v-42.1c0-14.4-9-26.1-26.6-26.1c-14.4,0-27.3,8.6-32.9,22.8l6.8,3.2
			c4.7-12.6,15.8-18.7,25.9-18.7c12.4,0,19.4,7.7,19.4,18.9v9.7h-19.4c-19.2,0-32.7,8.6-32.7,22.5c0,13.9,10.6,21.2,23.7,21.2
			c13.1,0,22.8-8.3,27.5-19.8h1.1l-0.2,7.4c0,6.8,2,10.6,8.3,10.6h7.4v-7h-6.8C479.8,268.8,478.9,267.7,478.9,266.4z M444.2,270.2
			c-9.5,0-16.9-4.1-16.9-14c0-10.6,11.5-16.2,25-16.2h18.9C469.6,258,457.5,270.2,444.2,270.2z"/>
		<path class="st0" d="M526.2,269.5h-0.9l-25.5-69.4H492l27.7,75.9h4.3l-4.3,11.3c-1.8,4.7-4.1,7.9-7.9,7.9h-12.6v7h13.5
			c6.3,0,9.9-4.3,13.3-12.6l34.3-89.5h-7.9L526.2,269.5z"/>
	</g>
</g>
</svg>
