<?xml version="1.0" encoding="utf-8"?>
<!-- Generator: Adobe Illustrator 27.3.1, SVG Export Plug-In . SVG Version: 6.00 Build 0)  -->
<svg version="1.1" id="Layer_1" xmlns="http://www.w3.org/2000/svg" xmlns:xlink="http://www.w3.org/1999/xlink" x="0px" y="0px"
	 viewBox="0 0 967.9 200" style="enable-background:new 0 0 967.9 200;" xml:space="preserve">
<style type="text/css">
	.st0{fill:#FFFFFF;}
</style>
<g>
	<path class="st0" d="M146.3,60.9H66.7v31.7l0,0c0,34.4,28,62.4,62.4,62.4v-6c-31.1-0.1-56.4-25.3-56.4-56.4V66.9h73.6
		c6.2,0,11.9,5.1,11.9,10.7v49.6H129c-19.1,0-34.6-15.5-34.6-34.6h-6c0,22.4,18.2,40.6,40.6,40.6h35.2V77.6
		C164.2,68.7,155.8,60.9,146.3,60.9z"/>
	<path class="st0" d="M129,105.5c-7.1,0-12.9-5.8-12.9-12.9h-6c0,10.4,8.5,18.9,18.9,18.9V105.5z"/>
	<path class="st0" d="M309.6,66.8c-8.9,0-17.1,3.3-23,9.3c-6,6.1-9.3,14.6-9.3,23.9c0,9.6,2.8,17.8,8.2,23.6
		c5.7,6.3,14.2,9.6,24.6,9.6c12.1,0,23.3-6.9,28.3-17.6l0.3-0.7l-11.2-5.1l-0.3,0.6c-3.5,6.7-9.5,10.3-17.3,10.3
		c-13,0-17.2-8.3-18.3-15.5h47.8v-6.6c0-9.2-2.6-17.1-7.6-22.7C326.5,69.9,318.8,66.8,309.6,66.8z M291.6,94.5
		c1.6-10.1,8-15.9,17.7-15.9c4.7,0,8.7,1.5,11.6,4.4c2.8,2.8,4.4,6.8,4.6,11.5H291.6z"/>
	<path class="st0" d="M239,66.5c-11.6,0-20.6,5.9-23.7,15.4V68.2h-11.8v86.2h12.9v-32.2c2.8,5.4,10.4,10.8,21.4,10.8
		c7.5,0,15-3.4,20.4-9.3c5.8-6.3,9-15,9-24.4C267.3,80.6,255.2,66.5,239,66.5z M236.3,121c-11.1,0-18.6-8.5-18.6-21.2
		c0-12.7,7.8-21.2,19.4-21.2c10.1,0,16.9,8.3,16.9,20.7C253.9,112,246.7,121,236.3,121z"/>
	<path class="st0" d="M360.2,81V68.4h-11.4v63.1h12.9v-39c0-7.4,3.7-11.2,11-11.2h10.4v-13h-6.3C370.4,68.3,363.4,69.9,360.2,81z"/>
	<path class="st0" d="M419.2,96.3c-8.1-2-15-3.8-15-9.8c0-5.2,4.2-8.5,11-8.5c6.4,0,11.7,3.8,14.1,10.2l10.5-6.4
		c-1.6-3.6-3.9-6.8-6.9-9.2c-4.7-3.9-10.5-5.8-17.4-5.8c-6.4,0-12.5,1.9-17,5.4c-4.9,3.7-7.6,8.8-7.6,14.5
		c0,14.1,12.6,17.2,22.7,19.8c7.5,1.9,14,3.5,13.8,8.8c-0.1,4.2-4.6,6.9-11.5,6.9c-7.8,0-13.6-4.1-16.1-11.5l-0.3-0.7l-11.8,4.6
		l0.2,0.7c3.9,11.6,14,18.3,27.8,18.3c14.8,0,24.8-7.6,24.9-18.8C440.9,101.7,429.4,98.8,419.2,96.3z"/>
	<path class="st0" d="M556.8,66.5c-9.5,0-17.9,6.1-21.2,15.3V68.4h-11.8v63.1h12.9v-30.9c0-13.5,6.4-21.6,17.1-21.6
		c8.1,0,13.1,5.8,13.1,15.1v37.4h12.9V94.3C579.7,76.9,571.2,66.5,556.8,66.5z"/>
	<path class="st0" d="M643.2,118.1V90.5c0-14.5-9.7-23.8-24.7-23.8c-12.1,0-21.9,6-27.9,16.9l11,4.6c4.4-6.6,10-10,16.4-10
		c7.7,0,12.3,4.4,12.3,11.7v5.4h-14.1c-6.7,0-13,1.7-17.7,4.8c-5.4,3.6-8.2,8.6-8.2,14.6c0,11,8,18.4,19.9,18.4
		c9.5,0,17.5-5.6,20.9-14.6v1.5c0,7.7,3.5,11.7,10.1,11.7h8.9v-11.3h-5.5C643.6,120.3,643.2,120.3,643.2,118.1z M612.4,121.7
		c-5.6,0-9.2-3-9.2-7.9c0-2.1,0.8-4,2.2-5.4c2.5-2.4,7-3.8,12.6-3.8c0.2,0,0.3,0,0.5,0h11.8C629.9,113.6,621.5,121.7,612.4,121.7z"
		/>
	<path class="st0" d="M671,117.1l-0.1-71.7H658l0.1,68.4c0,6.1,1,10.2,3.3,13.1c2.5,3.2,6.7,4.7,12.8,4.7h9.3v-12.3h-11
		C671.2,119.2,671,119.2,671,117.1z"/>
	<path class="st0" d="M481,66.7c-18.4,0-33.3,15-33.3,33.3c0,18.4,15,33.3,33.3,33.3s33.3-15,33.3-33.3
		C514.3,81.6,499.4,66.7,481,66.7z M481,120.9c-11.5,0-20.9-9.4-20.9-20.9s9.4-20.9,20.9-20.9s20.9,9.4,20.9,20.9
		S492.5,120.9,481,120.9z"/>
	<path class="st0" d="M745.8,65.8c-12.5,0-19.7,7.6-23,15.8h-0.5v-14h-5.9V155h5.9v-38.1h0.6c3,8.4,10.3,16.1,22.5,16.1
		c16.1,0,28.4-13,28.4-33.4C773.9,79.7,762.3,65.8,745.8,65.8z M745.2,127c-14.9,0-22.4-13-22.4-27.4c0-14.9,8.1-27.9,22.8-27.9
		c13.2,0,21.6,11.2,21.6,27.9C767.4,117.2,758.1,127,745.2,127z"/>
	<path class="st0" d="M833.4,123.3V87.9c0-12.1-7.6-22-22.4-22c-12,0-22.8,7.1-27.6,19.1l5.7,2.7c4-10.6,13.2-15.7,21.6-15.7
		c10.3,0,16.2,6.4,16.2,15.8V96h-16.2c-16.1,0-27.4,7.1-27.4,18.9c0,11.8,8.9,17.8,19.9,17.8c10.9,0,19.1-7,23.1-16.6h1l-0.1,6.3
		c0,5.7,1.8,8.9,7,8.9h6.3v-5.9h-5.7C834.1,125.4,833.4,124.5,833.4,123.3z M804.2,126.5c-7.8,0-14.3-3.3-14.3-11.7
		c0-8.9,9.6-13.6,21-13.6H827C825.5,116.3,815.4,126.5,804.2,126.5z"/>
	<path class="st0" d="M894.6,67.6v0.1L873,126h-0.8l-21.4-58.3h-6.7l23.3,63.6h3.6l-3.7,9.5c-1.5,3.9-3.4,6.5-6.7,6.5H850v5.9h11.4
		c5.4,0,8.3-3.6,11.1-10.6l28.8-75H894.6z"/>
</g>
</svg>
