<?xml version="1.0" encoding="utf-8"?>
<!-- Generator: Adobe Illustrator 27.3.1, SVG Export Plug-In . SVG Version: 6.00 Build 0)  -->
<svg version="1.1" id="Layer_1" xmlns="http://www.w3.org/2000/svg" xmlns:xlink="http://www.w3.org/1999/xlink" x="0px" y="0px"
	 viewBox="0 0 1870.4 571.2" style="enable-background:new 0 0 1870.4 571.2;" xml:space="preserve">
<style type="text/css">
	.st0{fill:#FFFFFF;}
</style>
<g>
	<g>
		<path class="st0" d="M576.5,275.2c3-19.1,15.2-30.1,33.6-30.1c8.9,0,16.5,2.9,21.9,8.4c5.4,5.3,8.3,12.8,8.6,21.7H576.5z
			 M549.5,285.6c0,18.2,5.4,33.6,15.5,44.7c10.9,11.9,27,18.2,46.5,18.2c23,0,44-13.1,53.6-33.3l0.6-1.3l-21.3-9.7l-0.6,1.2
			c-6.7,12.8-18,19.5-32.8,19.5c-24.6,0-32.5-15.6-34.7-29.4h90.5V283c0-17.5-5-32.4-14.3-43c-9.9-11.3-24.4-17.2-42-17.2
			c-16.9,0-32.3,6.3-43.5,17.7C555.7,251.9,549.5,268,549.5,285.6"/>
		<path class="st0" d="M438.2,285.5c0-24.1,14.8-40.2,36.7-40.2c19.1,0,31.9,15.7,31.9,39.1c0,24.3-13.8,41.3-33.5,41.3
			C452.3,325.7,438.2,309.6,438.2,285.5 M433.8,251.8v-26h-22.3V389H436v-60.9c5.4,10.3,19.7,20.5,40.4,20.5
			c14.2,0,28.3-6.4,38.7-17.6c11-11.9,17.1-28.3,17.1-46.2c0-35.5-23-62.3-53.5-62.3C456.6,222.6,439.6,233.7,433.8,251.8"/>
		<path class="st0" d="M684.8,225.9v119.5h24.4v-73.8c0-14.1,7-21.2,20.8-21.2h19.7v-24.7h-11.9c-12.2,0-25.4,2.9-31.5,24v-23.8
			H684.8z"/>
		<path class="st0" d="M857.1,251.1c-3.1-6.9-7.5-12.8-13-17.5c-8.8-7.3-19.9-11.1-32.9-11.1c-12.2,0-23.6,3.6-32.3,10.1
			c-9.2,7-14.3,16.7-14.3,27.5c0,26.6,23.8,32.6,43,37.4c14.2,3.6,26.4,6.6,26.2,16.6c-0.2,7.9-8.7,13-21.7,13
			c-14.8,0-25.7-7.7-30.5-21.7l-0.5-1.4l-22.3,8.7l0.4,1.3c7.4,22,26.6,34.5,52.6,34.5c28,0,47-14.3,47.2-35.6
			c0.1-24.2-21.7-29.6-40.9-34.5c-15.2-3.8-28.4-7.1-28.4-18.5c0-9.9,8-16,20.8-16c12.2,0,22.1,7.3,26.7,19.3L857.1,251.1z"/>
		<path class="st0" d="M1078.5,222.2c-18,0-33.9,11.5-40.2,28.9v-25.2H1016v119.5h24.4v-58.6c0-25.6,12.1-40.9,32.4-40.9
			c15.3,0,24.7,11,24.7,28.7v70.8h24.4v-70.5C1122,241.8,1105.7,222.2,1078.5,222.2"/>
		<path class="st0" d="M1217.7,294.1c-0.8,17.2-16.6,32.5-33.9,32.5c-10.7,0-17.3-5.7-17.3-14.9c0-4.1,1.4-7.5,4.2-10.3
			c4.7-4.6,13.3-7.3,23.8-7.3c0.3,0,0.6,0,0.9,0H1217.7z M1242.2,320v-52.3c0-27.4-18.4-45-46.8-45c-22.8,0-41.4,11.3-52.7,31.9
			l20.8,8.7c8.3-12.4,18.9-19,31.1-19c14.5,0,23.2,8.3,23.2,22.1v10.1H1191c-12.7,0-24.6,3.2-33.5,9.2
			c-10.1,6.7-15.5,16.3-15.5,27.6c0,20.8,15.1,34.8,37.6,34.8c18,0,33-10.6,39.6-27.7v2.9c0,14.5,6.6,22.1,19.1,22.1h16.9V324h-10.4
			C1242.8,324,1242.2,324,1242.2,320"/>
		<path class="st0" d="M1297.4,322c-2.3,0-2.7,0-2.7-4l-0.2-135.7H1270l0.2,129.4c0,11.5,2,19.4,6.2,24.7c4.8,6,12.7,9,24.2,9h17.6
			V322H1297.4z"/>
		<path class="st0" d="M935,246.1c-21.8,0-39.5,17.7-39.5,39.5c0,21.8,17.7,39.5,39.5,39.5c21.8,0,39.5-17.7,39.5-39.5
			C974.5,263.8,956.8,246.1,935,246.1 M935,348.7c-34.8,0-63.1-28.3-63.1-63.1c0-34.8,28.3-63.1,63.1-63.1
			c34.8,0,63.1,28.3,63.1,63.1C998.1,320.4,969.8,348.7,935,348.7"/>
		<path class="st0" d="M1435.3,336.8c24.3,0,41.9-18.7,41.9-51.8c0-31.7-16-52.9-41-52.9c-27.9,0-43.2,24.8-43.2,52.9
			C1393,312.2,1407.1,336.8,1435.3,336.8 M1380.8,224.2h11.3v26.6h0.9c6.1-15.5,19.8-29.9,43.4-29.9c31.1,0,53.1,26.3,53.1,63.9
			c0,38.7-23.4,63.3-53.8,63.3c-23,0-36.9-14.4-42.5-30.4h-1.1v72h-11.3V224.2z"/>
		<path class="st0" d="M1546.9,335.9c21.2,0,40.3-19.4,43-47.7h-30.2c-21.6,0-39.8,8.8-39.8,25.7
			C1519.9,329.6,1532.1,335.9,1546.9,335.9 M1507.5,313.8c0-22.3,21.4-35.8,51.8-35.8h30.6v-15.3c0-17.8-11-29.9-30.6-29.9
			c-16,0-33.3,9.7-41,29.7l-10.8-5.2c9-22.7,29.5-36.2,52.2-36.2c27.9,0,42.3,18.7,42.3,41.6v67.1c0,2.3,1.3,3.8,2.7,3.8h10.8v11.3
			h-11.9c-9.9,0-13.3-6.1-13.3-16.9l0.2-11.9h-1.8c-7.4,18.2-23,31.5-43.7,31.5C1524.4,347.6,1507.5,336.1,1507.5,313.8"/>
		<path class="st0" d="M1635,224.4l40.5,110.3h1.6l41-110.3h12.6l-54.5,142c-5.2,13.3-10.8,20-20.9,20h-21.6v-11.3h20
			c6.1,0,9.7-5,12.6-12.4l7-18h-6.8l-44.1-120.4H1635z"/>
	</g>
	<g>
		<polygon class="st0" points="126.7,152.1 125.7,152.1 125.7,125.6 373.2,125.6 373.2,150.1 372.2,150.1 372.2,126.6 126.7,126.6 
					"/>
	</g>
	<g>
		<polygon class="st0" points="1360.9,152.1 1359.9,152.1 1359.9,125.6 1744.7,125.6 1744.7,150.1 1743.7,150.1 1743.7,126.6 
			1360.9,126.6 		"/>
	</g>
	<g>
		<polygon class="st0" points="398.7,152.1 397.7,152.1 397.7,125.6 1337.2,125.6 1337.2,150.1 1336.2,150.1 1336.2,126.6 
			398.7,126.6 		"/>
	</g>
	<path class="st0" d="M194.7,92.9h-2.4V64.3h2.4V92.9z M214.6,87.5c0-1.2-0.5-2.1-1.4-2.8c-0.9-0.7-2.3-1.3-4.2-1.7
		c-1.9-0.4-3.3-0.9-4.4-1.4c-1-0.5-1.8-1.1-2.3-1.9c-0.5-0.7-0.8-1.6-0.8-2.7c0-1.7,0.7-3.1,2.1-4.2c1.4-1.1,3.2-1.6,5.4-1.6
		c2.4,0,4.3,0.6,5.7,1.8c1.4,1.2,2.2,2.7,2.2,4.6h-2.4c0-1.2-0.5-2.3-1.6-3.1c-1-0.8-2.4-1.2-3.9-1.2c-1.5,0-2.8,0.3-3.7,1
		c-0.9,0.7-1.4,1.6-1.4,2.7c0,1.1,0.4,1.9,1.2,2.5c0.8,0.6,2.2,1.1,4.3,1.6c2.1,0.5,3.6,1,4.6,1.6c1,0.5,1.8,1.2,2.3,2
		c0.5,0.8,0.7,1.7,0.7,2.8c0,1.8-0.7,3.2-2.2,4.3c-1.4,1.1-3.3,1.6-5.7,1.6c-2.5,0-4.5-0.6-6-1.8c-1.5-1.2-2.3-2.7-2.3-4.5h2.4
		c0.1,1.4,0.7,2.4,1.7,3.2c1.1,0.8,2.5,1.1,4.2,1.1c1.6,0,3-0.4,4-1.1C214.1,89.5,214.6,88.6,214.6,87.5z M220.9,82
		c0-2,0.4-3.9,1.2-5.5c0.8-1.6,1.9-2.9,3.4-3.8c1.4-0.9,3.1-1.4,4.9-1.4c2.8,0,5.1,1,6.9,3c1.8,2,2.6,4.6,2.6,7.9v0.5
		c0,2.1-0.4,3.9-1.2,5.5c-0.8,1.6-1.9,2.9-3.3,3.8c-1.4,0.9-3.1,1.3-4.9,1.3c-2.8,0-5.1-1-6.9-3c-1.8-2-2.6-4.6-2.6-7.9V82z
		 M223.3,82.6c0,2.5,0.7,4.6,2,6.3c1.3,1.6,3,2.4,5.2,2.4c2.1,0,3.8-0.8,5.2-2.4c1.3-1.6,2-3.8,2-6.5V82c0-1.6-0.3-3.1-0.9-4.5
		c-0.6-1.3-1.4-2.4-2.5-3.1c-1.1-0.7-2.3-1.1-3.7-1.1c-2.1,0-3.8,0.8-5.1,2.5c-1.3,1.6-2,3.8-2,6.5V82.6z M248.4,66.2v5.4h4.4v1.9
		h-4.4v14.2c0,1.2,0.2,2.1,0.6,2.6c0.4,0.6,1.1,0.9,2.1,0.9c0.4,0,1-0.1,1.9-0.2l0.1,1.9c-0.6,0.2-1.5,0.3-2.5,0.3
		c-1.6,0-2.8-0.5-3.5-1.4c-0.7-0.9-1.1-2.3-1.1-4.1V73.6h-3.9v-1.9h3.9v-5.4H248.4z M257.5,65.5c0-0.4,0.1-0.8,0.4-1.1
		c0.3-0.3,0.7-0.5,1.2-0.5c0.5,0,0.9,0.2,1.2,0.5c0.3,0.3,0.4,0.7,0.4,1.1s-0.1,0.8-0.4,1.1c-0.3,0.3-0.7,0.4-1.2,0.4
		c-0.5,0-0.9-0.1-1.2-0.4C257.7,66.4,257.5,66,257.5,65.5z M260.3,92.9h-2.4V71.7h2.4V92.9z M283.8,82.5c0,3.3-0.7,5.9-2.2,7.9
		c-1.5,1.9-3.4,2.9-5.9,2.9c-2.9,0-5.1-1-6.7-3.1v10.8h-2.3V71.7h2.2l0.1,3c1.5-2.3,3.8-3.4,6.7-3.4c2.5,0,4.5,1,6,2.9
		c1.4,1.9,2.2,4.6,2.2,8V82.5z M281.4,82.1c0-2.7-0.6-4.9-1.7-6.4c-1.1-1.6-2.7-2.4-4.7-2.4c-1.4,0-2.7,0.3-3.7,1
		c-1,0.7-1.8,1.7-2.4,3v10.2c0.6,1.2,1.4,2.1,2.4,2.8c1,0.6,2.3,1,3.7,1c2,0,3.5-0.8,4.6-2.4C280.9,87.4,281.4,85.1,281.4,82.1z
		 M287.7,82c0-2,0.4-3.9,1.2-5.5c0.8-1.6,1.9-2.9,3.4-3.8c1.4-0.9,3.1-1.4,4.9-1.4c2.8,0,5.1,1,6.9,3c1.8,2,2.6,4.6,2.6,7.9v0.5
		c0,2.1-0.4,3.9-1.2,5.5c-0.8,1.6-1.9,2.9-3.3,3.8c-1.4,0.9-3.1,1.3-4.9,1.3c-2.8,0-5.1-1-6.9-3c-1.8-2-2.6-4.6-2.6-7.9V82z
		 M290,82.6c0,2.5,0.7,4.6,2,6.3c1.3,1.6,3,2.4,5.2,2.4c2.1,0,3.8-0.8,5.2-2.4c1.3-1.6,2-3.8,2-6.5V82c0-1.6-0.3-3.1-0.9-4.5
		c-0.6-1.3-1.4-2.4-2.5-3.1c-1.1-0.7-2.3-1.1-3.7-1.1c-2.1,0-3.8,0.8-5.1,2.5c-1.3,1.6-2,3.8-2,6.5V82.6z"/>
	<path class="st0" d="M1369.5,89.4l0.2,0.6l0.2-0.6l9-25.1h2.7l-10.6,28.6h-2.3l-10.6-28.6h2.6L1369.5,89.4z M1400,89.6
		c-1.7,2.5-4.2,3.8-7.5,3.8c-1.8,0-3.4-0.4-4.9-1.3c-1.5-0.9-2.6-2.1-3.4-3.7c-0.8-1.6-1.2-3.4-1.2-5.4v-0.8c0-2,0.4-3.9,1.2-5.5
		c0.8-1.6,1.9-2.9,3.3-3.9c1.4-0.9,2.9-1.4,4.6-1.4c2.6,0,4.6,0.9,6.1,2.6c1.5,1.8,2.3,4.2,2.3,7.2v1.3h-15.2v0.5
		c0,2.4,0.7,4.4,2.1,6c1.4,1.6,3.1,2.4,5.2,2.4c1.3,0,2.4-0.2,3.3-0.7c1-0.5,1.8-1.2,2.6-2.2L1400,89.6L1400,89.6z M1392.1,73.3
		c-1.8,0-3.3,0.6-4.5,1.9c-1.2,1.3-1.9,3-2.2,5.2h12.7v-0.3c-0.1-2-0.6-3.7-1.7-5C1395.3,73.9,1393.9,73.3,1392.1,73.3z
		 M1414.9,73.7c-0.5-0.1-1-0.1-1.6-0.1c-1.5,0-2.7,0.4-3.7,1.2c-1,0.8-1.7,2-2.2,3.6v14.6h-2.3V71.7h2.3l0,3.4
		c1.2-2.5,3.2-3.8,6-3.8c0.7,0,1.2,0.1,1.6,0.3L1414.9,73.7z M1423.2,66.2v5.4h4.4v1.9h-4.4v14.2c0,1.2,0.2,2.1,0.6,2.6
		c0.4,0.6,1.1,0.9,2.1,0.9c0.4,0,1-0.1,1.9-0.2l0.1,1.9c-0.6,0.2-1.5,0.3-2.5,0.3c-1.6,0-2.8-0.5-3.5-1.4c-0.7-0.9-1.1-2.3-1.1-4.1
		V73.6h-3.9v-1.9h3.9v-5.4H1423.2z M1432.3,65.5c0-0.4,0.1-0.8,0.4-1.1c0.3-0.3,0.7-0.5,1.2-0.5c0.5,0,0.9,0.2,1.2,0.5
		c0.3,0.3,0.4,0.7,0.4,1.1s-0.1,0.8-0.4,1.1c-0.3,0.3-0.7,0.4-1.2,0.4c-0.5,0-0.9-0.1-1.2-0.4C1432.5,66.4,1432.3,66,1432.3,65.5z
		 M1435.1,92.9h-2.4V71.7h2.4V92.9z M1449.3,91.3c1.6,0,3-0.5,4.1-1.4c1.1-0.9,1.7-2.1,1.8-3.6h2.3c-0.1,1.3-0.5,2.5-1.2,3.5
		c-0.7,1.1-1.7,1.9-3,2.5s-2.6,0.9-4,0.9c-2.8,0-5-1-6.6-2.9c-1.6-1.9-2.4-4.5-2.4-7.8v-0.7c0-2.1,0.4-3.9,1.1-5.6
		c0.7-1.6,1.8-2.9,3.2-3.7c1.4-0.9,3-1.3,4.8-1.3c2.3,0,4.3,0.7,5.8,2.1c1.5,1.4,2.3,3.2,2.4,5.5h-2.3c-0.1-1.7-0.7-3-1.8-4
		c-1.1-1-2.5-1.5-4.1-1.5c-2.1,0-3.8,0.8-4.9,2.3c-1.2,1.5-1.8,3.7-1.8,6.4v0.7c0,2.7,0.6,4.8,1.8,6.3
		C1445.6,90.6,1447.2,91.3,1449.3,91.3z M1475.6,92.9c-0.2-0.7-0.4-1.7-0.5-3c-0.8,1.1-1.9,1.9-3.2,2.5c-1.3,0.6-2.6,0.9-4.1,0.9
		c-2,0-3.7-0.6-5-1.7c-1.3-1.1-1.9-2.6-1.9-4.3c0-2.1,0.9-3.7,2.6-4.9c1.7-1.2,4.1-1.8,7.2-1.8h4.3v-2.4c0-1.5-0.5-2.7-1.4-3.6
		c-0.9-0.9-2.3-1.3-4.1-1.3c-1.6,0-3,0.4-4.1,1.3c-1.1,0.8-1.6,1.8-1.6,3l-2.4,0c0-1.7,0.8-3.2,2.4-4.4c1.6-1.2,3.5-1.9,5.8-1.9
		c2.4,0,4.2,0.6,5.6,1.8c1.4,1.2,2.1,2.8,2.1,5v10.1c0,2.1,0.2,3.6,0.6,4.6v0.2H1475.6z M1468.2,91.2c1.6,0,3-0.4,4.2-1.1
		c1.2-0.8,2.1-1.8,2.7-3v-4.7h-4.2c-2.3,0-4.2,0.5-5.5,1.3c-1.3,0.8-2,2-2,3.4c0,1.2,0.4,2.2,1.3,3
		C1465.7,90.9,1466.8,91.2,1468.2,91.2z M1486.4,92.9h-2.4V62.8h2.4V92.9z M1518.3,89.6c-1.7,2.5-4.2,3.8-7.5,3.8
		c-1.8,0-3.4-0.4-4.9-1.3c-1.5-0.9-2.6-2.1-3.4-3.7c-0.8-1.6-1.2-3.4-1.2-5.4v-0.8c0-2,0.4-3.9,1.2-5.5c0.8-1.6,1.9-2.9,3.3-3.9
		c1.4-0.9,2.9-1.4,4.6-1.4c2.6,0,4.6,0.9,6.1,2.6c1.5,1.8,2.3,4.2,2.3,7.2v1.3h-15.2v0.5c0,2.4,0.7,4.4,2.1,6
		c1.4,1.6,3.1,2.4,5.2,2.4c1.3,0,2.4-0.2,3.3-0.7c1-0.5,1.8-1.2,2.6-2.2L1518.3,89.6L1518.3,89.6z M1510.3,73.3
		c-1.8,0-3.3,0.6-4.5,1.9c-1.2,1.3-1.9,3-2.2,5.2h12.7v-0.3c-0.1-2-0.6-3.7-1.7-5C1513.6,73.9,1512.1,73.3,1510.3,73.3z
		 M1525.6,71.7l0.1,3.6c0.8-1.3,1.8-2.3,3-3c1.2-0.7,2.5-1,3.9-1c2.3,0,4,0.6,5.1,1.9c1.1,1.3,1.7,3.2,1.7,5.8v13.9h-2.3V79
		c0-1.9-0.4-3.3-1.2-4.2c-0.8-0.9-2.1-1.4-3.8-1.4c-1.5,0-2.7,0.5-3.9,1.4c-1.1,0.9-1.9,2.1-2.5,3.7v14.6h-2.3V71.7H1525.6z
		 M1558.2,81.3v11.6h-2.4V64.3h9.7c3,0,5.3,0.8,7,2.3c1.7,1.5,2.6,3.6,2.6,6.3c0,2.7-0.8,4.8-2.5,6.2c-1.7,1.5-4.1,2.2-7.2,2.2
		H1558.2z M1558.2,79.2h7.3c2.3,0,4.1-0.6,5.4-1.7c1.2-1.1,1.8-2.7,1.8-4.7c0-2-0.6-3.6-1.8-4.7c-1.2-1.2-3-1.8-5.2-1.8h-7.5V79.2z
		 M1593.6,90.2c-1.4,2.1-3.7,3.1-6.8,3.1c-2.3,0-4-0.7-5.2-2c-1.2-1.3-1.8-3.3-1.8-5.8V71.7h2.3v13.5c0,4,1.6,6.1,4.9,6.1
		c3.4,0,5.6-1.4,6.5-4.2V71.7h2.4v21.3h-2.3L1593.6,90.2z M1604.7,92.9h-2.4V62.8h2.4V92.9z M1623.8,87.5c0-1.2-0.5-2.1-1.4-2.8
		c-0.9-0.7-2.3-1.3-4.2-1.7c-1.9-0.4-3.3-0.9-4.4-1.4c-1-0.5-1.8-1.1-2.3-1.9c-0.5-0.7-0.8-1.6-0.8-2.7c0-1.7,0.7-3.1,2.1-4.2
		c1.4-1.1,3.2-1.6,5.4-1.6c2.4,0,4.3,0.6,5.7,1.8c1.4,1.2,2.2,2.7,2.2,4.6h-2.4c0-1.2-0.5-2.3-1.6-3.1c-1-0.8-2.4-1.2-3.9-1.2
		c-1.5,0-2.8,0.3-3.7,1c-0.9,0.7-1.4,1.6-1.4,2.7c0,1.1,0.4,1.9,1.2,2.5c0.8,0.6,2.2,1.1,4.3,1.6c2.1,0.5,3.6,1,4.6,1.6
		c1,0.5,1.8,1.2,2.3,2c0.5,0.8,0.7,1.7,0.7,2.8c0,1.8-0.7,3.2-2.2,4.3c-1.4,1.1-3.3,1.6-5.7,1.6c-2.5,0-4.5-0.6-6-1.8
		c-1.5-1.2-2.3-2.7-2.3-4.5h2.4c0.1,1.4,0.7,2.4,1.7,3.2c1.1,0.8,2.5,1.1,4.2,1.1c1.6,0,3-0.4,4-1.1
		C1623.3,89.5,1623.8,88.6,1623.8,87.5z M1630.1,82c0-2,0.4-3.9,1.2-5.5c0.8-1.6,1.9-2.9,3.4-3.8c1.4-0.9,3.1-1.4,4.9-1.4
		c2.8,0,5.1,1,6.9,3c1.8,2,2.6,4.6,2.6,7.9v0.5c0,2.1-0.4,3.9-1.2,5.5c-0.8,1.6-1.9,2.9-3.3,3.8c-1.4,0.9-3.1,1.3-4.9,1.3
		c-2.8,0-5.1-1-6.9-3c-1.8-2-2.6-4.6-2.6-7.9V82z M1632.5,82.6c0,2.5,0.7,4.6,2,6.3c1.3,1.6,3,2.4,5.2,2.4c2.1,0,3.8-0.8,5.2-2.4
		c1.3-1.6,2-3.8,2-6.5V82c0-1.6-0.3-3.1-0.9-4.5c-0.6-1.3-1.4-2.4-2.5-3.1c-1.1-0.7-2.3-1.1-3.7-1.1c-2.1,0-3.8,0.8-5.1,2.5
		c-1.3,1.6-2,3.8-2,6.5V82.6z M1666.7,90.9h14.1v2h-16.6V64.3h2.4V90.9z M1684.8,65.5c0-0.4,0.1-0.8,0.4-1.1
		c0.3-0.3,0.7-0.5,1.2-0.5c0.5,0,0.9,0.2,1.2,0.5c0.3,0.3,0.4,0.7,0.4,1.1s-0.1,0.8-0.4,1.1c-0.3,0.3-0.7,0.4-1.2,0.4
		c-0.5,0-0.9-0.1-1.2-0.4C1684.9,66.4,1684.8,66,1684.8,65.5z M1687.6,92.9h-2.4V71.7h2.4V92.9z M1693,82.1c0-3.3,0.7-6,2.2-7.9
		c1.5-1.9,3.5-2.9,6-2.9c2.9,0,5.1,1.2,6.6,3.5l0.1-3.1h2.2v20.8c0,2.7-0.8,4.9-2.3,6.5c-1.5,1.6-3.6,2.4-6.2,2.4
		c-1.5,0-2.9-0.3-4.2-1c-1.3-0.7-2.4-1.5-3.2-2.6l1.3-1.4c1.7,2,3.6,3.1,5.9,3.1c2,0,3.5-0.6,4.6-1.7c1.1-1.2,1.7-2.8,1.7-4.8v-2.7
		c-1.5,2.1-3.7,3.1-6.6,3.1c-2.5,0-4.4-1-5.9-2.9c-1.5-2-2.2-4.6-2.2-8V82.1z M1695.4,82.5c0,2.7,0.5,4.8,1.6,6.4
		c1.1,1.6,2.6,2.3,4.6,2.3c2.9,0,4.9-1.3,6.1-3.9v-9.9c-0.5-1.4-1.3-2.4-2.4-3.1c-1-0.7-2.3-1.1-3.7-1.1c-2,0-3.5,0.8-4.6,2.3
		C1695.9,77.2,1695.4,79.5,1695.4,82.5z M1718.6,75.3c0.8-1.3,1.8-2.3,3-2.9c1.2-0.7,2.5-1,3.9-1c2.3,0,4,0.6,5.1,1.9
		c1.1,1.3,1.7,3.2,1.7,5.8v13.9h-2.3V79c0-1.9-0.4-3.3-1.2-4.2c-0.8-0.9-2.1-1.4-3.8-1.4c-1.5,0-2.7,0.5-3.9,1.4
		c-1.1,0.9-1.9,2.1-2.5,3.7v14.6h-2.3V62.8h2.3V75.3z M1742,66.2v5.4h4.4v1.9h-4.4v14.2c0,1.2,0.2,2.1,0.6,2.6
		c0.4,0.6,1.1,0.9,2.1,0.9c0.4,0,1-0.1,1.9-0.2l0.1,1.9c-0.6,0.2-1.5,0.3-2.5,0.3c-1.6,0-2.8-0.5-3.5-1.4c-0.7-0.9-1.1-2.3-1.1-4.1
		V73.6h-3.9v-1.9h3.9v-5.4H1742z"/>
	<path class="st0" d="M679,92.9h-2.4V62.8h2.4V92.9z M684,82c0-2,0.4-3.9,1.2-5.5c0.8-1.6,1.9-2.9,3.4-3.8c1.4-0.9,3.1-1.4,4.9-1.4
		c2.8,0,5.1,1,6.9,3c1.8,2,2.6,4.6,2.6,7.9v0.5c0,2.1-0.4,3.9-1.2,5.5c-0.8,1.6-1.9,2.9-3.3,3.8c-1.4,0.9-3.1,1.3-4.9,1.3
		c-2.8,0-5.1-1-6.9-3c-1.8-2-2.6-4.6-2.6-7.9V82z M686.4,82.6c0,2.5,0.7,4.6,2,6.3c1.3,1.6,3,2.4,5.2,2.4c2.1,0,3.8-0.8,5.2-2.4
		c1.3-1.6,2-3.8,2-6.5V82c0-1.6-0.3-3.1-0.9-4.5c-0.6-1.3-1.4-2.4-2.5-3.1c-1.1-0.7-2.3-1.1-3.7-1.1c-2.1,0-3.8,0.8-5.1,2.5
		c-1.3,1.6-2,3.8-2,6.5V82.6z M706.9,82.1c0-3.3,0.7-6,2.2-7.9c1.5-1.9,3.5-2.9,6-2.9c2.9,0,5.1,1.2,6.6,3.5l0.1-3.1h2.2v20.8
		c0,2.7-0.8,4.9-2.3,6.5c-1.5,1.6-3.6,2.4-6.2,2.4c-1.5,0-2.9-0.3-4.2-1c-1.3-0.7-2.4-1.5-3.2-2.6l1.3-1.4c1.7,2,3.6,3.1,5.9,3.1
		c2,0,3.5-0.6,4.6-1.7c1.1-1.2,1.7-2.8,1.7-4.8v-2.7c-1.5,2.1-3.7,3.1-6.6,3.1c-2.5,0-4.4-1-5.9-2.9c-1.5-2-2.2-4.6-2.2-8V82.1z
		 M709.3,82.5c0,2.7,0.5,4.8,1.6,6.4c1.1,1.6,2.6,2.3,4.6,2.3c2.9,0,4.9-1.3,6.1-3.9v-9.9c-0.5-1.4-1.3-2.4-2.4-3.1
		c-1-0.7-2.3-1.1-3.7-1.1c-2,0-3.5,0.8-4.6,2.3C709.9,77.2,709.3,79.5,709.3,82.5z M728.9,82c0-2,0.4-3.9,1.2-5.5
		c0.8-1.6,1.9-2.9,3.4-3.8c1.4-0.9,3.1-1.4,4.9-1.4c2.8,0,5.1,1,6.9,3c1.8,2,2.6,4.6,2.6,7.9v0.5c0,2.1-0.4,3.9-1.2,5.5
		c-0.8,1.6-1.9,2.9-3.3,3.8c-1.4,0.9-3.1,1.3-4.9,1.3c-2.8,0-5.1-1-6.9-3c-1.8-2-2.6-4.6-2.6-7.9V82z M731.3,82.6
		c0,2.5,0.7,4.6,2,6.3c1.3,1.6,3,2.4,5.2,2.4c2.1,0,3.8-0.8,5.2-2.4c1.3-1.6,2-3.8,2-6.5V82c0-1.6-0.3-3.1-0.9-4.5
		c-0.6-1.3-1.4-2.4-2.5-3.1c-1.1-0.7-2.3-1.1-3.7-1.1c-2.1,0-3.8,0.8-5.1,2.5c-1.3,1.6-2,3.8-2,6.5V82.6z M765.5,81.3v11.6H763V64.3
		h9.7c3,0,5.3,0.8,7,2.3c1.7,1.5,2.6,3.6,2.6,6.3c0,2.7-0.8,4.8-2.5,6.2c-1.7,1.5-4.1,2.2-7.2,2.2H765.5z M765.5,79.2h7.3
		c2.3,0,4.1-0.6,5.4-1.7c1.2-1.1,1.8-2.7,1.8-4.7c0-2-0.6-3.6-1.8-4.7c-1.2-1.2-3-1.8-5.2-1.8h-7.5V79.2z M802.8,89.6
		c-1.7,2.5-4.2,3.8-7.5,3.8c-1.8,0-3.4-0.4-4.9-1.3c-1.5-0.9-2.6-2.1-3.4-3.7c-0.8-1.6-1.2-3.4-1.2-5.4v-0.8c0-2,0.4-3.9,1.2-5.5
		c0.8-1.6,1.9-2.9,3.3-3.9c1.4-0.9,2.9-1.4,4.6-1.4c2.6,0,4.6,0.9,6.1,2.6c1.5,1.8,2.3,4.2,2.3,7.2v1.3H788v0.5c0,2.4,0.7,4.4,2.1,6
		c1.4,1.6,3.1,2.4,5.2,2.4c1.3,0,2.4-0.2,3.3-0.7c1-0.5,1.8-1.2,2.6-2.2L802.8,89.6L802.8,89.6z M794.8,73.3c-1.8,0-3.3,0.6-4.5,1.9
		c-1.2,1.3-1.9,3-2.2,5.2h12.7v-0.3c-0.1-2-0.6-3.7-1.7-5C798,73.9,796.6,73.3,794.8,73.3z M817.6,73.7c-0.5-0.1-1-0.1-1.6-0.1
		c-1.5,0-2.7,0.4-3.7,1.2c-1,0.8-1.7,2-2.2,3.6v14.6h-2.3V71.7h2.3l0,3.4c1.2-2.5,3.2-3.8,6-3.8c0.7,0,1.2,0.1,1.6,0.3L817.6,73.7z
		 M834,87.5c0-1.2-0.5-2.1-1.4-2.8c-0.9-0.7-2.3-1.3-4.2-1.7c-1.9-0.4-3.3-0.9-4.4-1.4c-1-0.5-1.8-1.1-2.3-1.9
		c-0.5-0.7-0.8-1.6-0.8-2.7c0-1.7,0.7-3.1,2.1-4.2c1.4-1.1,3.2-1.6,5.4-1.6c2.4,0,4.3,0.6,5.7,1.8c1.4,1.2,2.2,2.7,2.2,4.6h-2.4
		c0-1.2-0.5-2.3-1.6-3.1c-1-0.8-2.4-1.2-3.9-1.2c-1.5,0-2.8,0.3-3.7,1c-0.9,0.7-1.4,1.6-1.4,2.7c0,1.1,0.4,1.9,1.2,2.5
		c0.8,0.6,2.2,1.1,4.3,1.6c2.1,0.5,3.6,1,4.6,1.6c1,0.5,1.8,1.2,2.3,2c0.5,0.8,0.7,1.7,0.7,2.8c0,1.8-0.7,3.2-2.2,4.3
		c-1.4,1.1-3.3,1.6-5.7,1.6c-2.5,0-4.5-0.6-6-1.8c-1.5-1.2-2.3-2.7-2.3-4.5h2.4c0.1,1.4,0.7,2.4,1.7,3.2c1.1,0.8,2.5,1.1,4.2,1.1
		c1.6,0,3-0.4,4-1.1C833.5,89.5,834,88.6,834,87.5z M840.4,82c0-2,0.4-3.9,1.2-5.5c0.8-1.6,1.9-2.9,3.4-3.8c1.4-0.9,3.1-1.4,4.9-1.4
		c2.8,0,5.1,1,6.9,3c1.8,2,2.6,4.6,2.6,7.9v0.5c0,2.1-0.4,3.9-1.2,5.5c-0.8,1.6-1.9,2.9-3.3,3.8c-1.4,0.9-3.1,1.3-4.9,1.3
		c-2.8,0-5.1-1-6.9-3c-1.8-2-2.6-4.6-2.6-7.9V82z M842.7,82.6c0,2.5,0.7,4.6,2,6.3c1.3,1.6,3,2.4,5.2,2.4c2.1,0,3.8-0.8,5.2-2.4
		c1.3-1.6,2-3.8,2-6.5V82c0-1.6-0.3-3.1-0.9-4.5c-0.6-1.3-1.4-2.4-2.5-3.1c-1.1-0.7-2.3-1.1-3.7-1.1c-2.1,0-3.8,0.8-5.1,2.5
		c-1.3,1.6-2,3.8-2,6.5V82.6z M866.4,71.7l0.1,3.6c0.8-1.3,1.8-2.3,3-3c1.2-0.7,2.5-1,3.9-1c2.3,0,4,0.6,5.1,1.9
		c1.1,1.3,1.7,3.2,1.7,5.8v13.9h-2.3V79c0-1.9-0.4-3.3-1.2-4.2c-0.8-0.9-2.1-1.4-3.8-1.4c-1.5,0-2.7,0.5-3.9,1.4
		c-1.1,0.9-1.9,2.1-2.5,3.7v14.6h-2.3V71.7H866.4z M899.7,92.9c-0.2-0.7-0.4-1.7-0.5-3c-0.8,1.1-1.9,1.9-3.2,2.5
		c-1.3,0.6-2.6,0.9-4.1,0.9c-2,0-3.7-0.6-5-1.7c-1.3-1.1-1.9-2.6-1.9-4.3c0-2.1,0.9-3.7,2.6-4.9c1.7-1.2,4.1-1.8,7.2-1.8h4.3v-2.4
		c0-1.5-0.5-2.7-1.4-3.6c-0.9-0.9-2.3-1.3-4.1-1.3c-1.6,0-3,0.4-4.1,1.3c-1.1,0.8-1.6,1.8-1.6,3l-2.4,0c0-1.7,0.8-3.2,2.4-4.4
		c1.6-1.2,3.5-1.9,5.8-1.9c2.4,0,4.2,0.6,5.6,1.8c1.4,1.2,2.1,2.8,2.1,5v10.1c0,2.1,0.2,3.6,0.6,4.6v0.2H899.7z M892.3,91.2
		c1.6,0,3-0.4,4.2-1.1c1.2-0.8,2.1-1.8,2.7-3v-4.7H895c-2.3,0-4.2,0.5-5.5,1.3c-1.3,0.8-2,2-2,3.4c0,1.2,0.4,2.2,1.3,3
		C889.7,90.9,890.9,91.2,892.3,91.2z M910.5,92.9h-2.4V62.8h2.4V92.9z M926.3,81.4c0-2.9,0.4-5.6,1.1-8.3c0.7-2.7,1.8-5.2,3.2-7.4
		c1.4-2.2,2.9-3.8,4.6-4.8l0.6,1.6c-0.9,0.6-1.7,1.5-2.6,2.7c-0.9,1.2-1.6,2.6-2.3,4.2c-0.7,1.6-1.2,3.4-1.6,5.5
		c-0.4,2-0.6,4.3-0.6,6.9c0,2.7,0.3,5.4,0.9,7.9c0.6,2.5,1.5,4.8,2.6,6.7c1.1,1.9,2.3,3.4,3.6,4.4l-0.6,1.5c-1.7-1-3.2-2.6-4.6-4.8
		c-1.4-2.2-2.5-4.7-3.2-7.3C926.7,87.4,926.3,84.5,926.3,81.4z M943.2,64.3l10.5,25.2l10.6-25.2h3.2v28.6h-2.4V80.5l0.2-12.8
		l-10.6,25.2h-1.9l-10.6-25.1l0.2,12.6v12.5H940V64.3H943.2z M987.7,92.9c-0.2-0.7-0.4-1.7-0.5-3c-0.8,1.1-1.9,1.9-3.2,2.5
		c-1.3,0.6-2.6,0.9-4.1,0.9c-2,0-3.7-0.6-5-1.7c-1.3-1.1-1.9-2.6-1.9-4.3c0-2.1,0.9-3.7,2.6-4.9c1.7-1.2,4.1-1.8,7.2-1.8h4.3v-2.4
		c0-1.5-0.5-2.7-1.4-3.6c-0.9-0.9-2.3-1.3-4.1-1.3c-1.6,0-3,0.4-4.1,1.3c-1.1,0.8-1.6,1.8-1.6,3l-2.4,0c0-1.7,0.8-3.2,2.4-4.4
		c1.6-1.2,3.5-1.9,5.8-1.9c2.4,0,4.2,0.6,5.6,1.8c1.4,1.2,2.1,2.8,2.1,5v10.1c0,2.1,0.2,3.6,0.6,4.6v0.2H987.7z M980.3,91.2
		c1.6,0,3-0.4,4.2-1.1c1.2-0.8,2.1-1.8,2.7-3v-4.7H983c-2.3,0-4.2,0.5-5.5,1.3c-1.3,0.8-2,2-2,3.4c0,1.2,0.4,2.2,1.3,3
		C977.7,90.9,978.9,91.2,980.3,91.2z M1005.6,73.7c-0.5-0.1-1-0.1-1.6-0.1c-1.5,0-2.7,0.4-3.7,1.2c-1,0.8-1.7,2-2.2,3.6v14.6h-2.3
		V71.7h2.3l0,3.4c1.2-2.5,3.2-3.8,6-3.8c0.7,0,1.2,0.1,1.6,0.3L1005.6,73.7z M1016.8,91.3c1.6,0,3-0.5,4.1-1.4
		c1.1-0.9,1.7-2.1,1.8-3.6h2.3c-0.1,1.3-0.5,2.5-1.2,3.5c-0.7,1.1-1.7,1.9-3,2.5c-1.2,0.6-2.6,0.9-4,0.9c-2.8,0-5-1-6.6-2.9
		c-1.6-1.9-2.4-4.5-2.4-7.8v-0.7c0-2.1,0.4-3.9,1.1-5.6c0.7-1.6,1.8-2.9,3.2-3.7c1.4-0.9,3-1.3,4.8-1.3c2.3,0,4.3,0.7,5.8,2.1
		c1.5,1.4,2.3,3.2,2.4,5.5h-2.3c-0.1-1.7-0.7-3-1.8-4c-1.1-1-2.5-1.5-4.1-1.5c-2.1,0-3.8,0.8-4.9,2.3c-1.2,1.5-1.8,3.7-1.8,6.4v0.7
		c0,2.7,0.6,4.8,1.8,6.3C1013,90.6,1014.7,91.3,1016.8,91.3z M1043.1,92.9c-0.2-0.7-0.4-1.7-0.5-3c-0.8,1.1-1.9,1.9-3.2,2.5
		c-1.3,0.6-2.6,0.9-4.1,0.9c-2,0-3.7-0.6-5-1.7c-1.3-1.1-1.9-2.6-1.9-4.3c0-2.1,0.9-3.7,2.6-4.9c1.7-1.2,4.1-1.8,7.2-1.8h4.3v-2.4
		c0-1.5-0.5-2.7-1.4-3.6c-0.9-0.9-2.3-1.3-4.1-1.3c-1.6,0-3,0.4-4.1,1.3c-1.1,0.8-1.6,1.8-1.6,3l-2.4,0c0-1.7,0.8-3.2,2.4-4.4
		c1.6-1.2,3.5-1.9,5.8-1.9c2.4,0,4.2,0.6,5.6,1.8c1.4,1.2,2.1,2.8,2.1,5v10.1c0,2.1,0.2,3.6,0.6,4.6v0.2H1043.1z M1035.7,91.2
		c1.6,0,3-0.4,4.2-1.1c1.2-0.8,2.1-1.8,2.7-3v-4.7h-4.2c-2.3,0-4.2,0.5-5.5,1.3c-1.3,0.8-2,2-2,3.4c0,1.2,0.4,2.2,1.3,3
		C1033.2,90.9,1034.3,91.2,1035.7,91.2z M1058.3,81.7c0,2.9-0.4,5.7-1.1,8.3c-0.7,2.7-1.8,5.1-3.2,7.3c-1.4,2.2-2.9,3.8-4.6,4.9
		l-0.6-1.5c1.3-0.9,2.5-2.3,3.6-4.3c1.1-1.9,2-4.2,2.6-6.7c0.6-2.6,0.9-5.3,0.9-8.3c0-2.7-0.3-5.3-0.9-7.8c-0.6-2.5-1.5-4.8-2.6-6.8
		c-1.1-2-2.3-3.4-3.5-4.3l0.6-1.5c1.6,1,3.2,2.6,4.6,4.8c1.4,2.2,2.5,4.7,3.2,7.4C1057.9,75.8,1058.3,78.6,1058.3,81.7z"/>
</g>
<path class="st0" d="M935,246.1c-21.8,0-39.5,17.7-39.5,39.5c0,21.8,17.7,39.5,39.5,39.5c21.8,0,39.5-17.7,39.5-39.5
	C974.5,263.8,956.8,246.1,935,246.1 M935,348.7c-34.8,0-63.1-28.3-63.1-63.1c0-34.8,28.3-63.1,63.1-63.1c34.8,0,63.1,28.3,63.1,63.1
	C998.1,320.4,969.8,348.7,935,348.7"/>
<path class="st0" d="M268.8,296c-13.4,0-24.4-10.9-24.4-24.4H233c0,19.7,16.1,35.8,35.8,35.8V296z"/>
<path class="st0" d="M301.5,211.6H150.8v60c0,65.1,53,118,118,118v-11.4c-58.8,0-106.6-47.8-106.6-106.6V223h139.4
	c11.7,0,22.4,9.6,22.4,20.2v93.9h-55.2v0c-36.1,0-65.5-29.4-65.5-65.5h-11.4c0,42.4,34.5,76.9,76.9,76.9v0h66.6V243.2
	C335.4,226.4,319.6,211.6,301.5,211.6z"/>
</svg>
