<?xml version="1.0" encoding="utf-8"?>
<!-- Generator: Adobe Illustrator 27.3.1, SVG Export Plug-In . SVG Version: 6.00 Build 0)  -->
<svg version="1.1" id="Layer_1" xmlns="http://www.w3.org/2000/svg" xmlns:xlink="http://www.w3.org/1999/xlink" x="0px" y="0px"
	 viewBox="0 0 705.6 353.9" style="enable-background:new 0 0 705.6 353.9;" xml:space="preserve">
<style type="text/css">
	.st0{fill:#FFFFFF;}
</style>
<g>
	<g>
		<path class="st0" d="M617.9,141.5c-2.3,0-2.5-0.9-2.5-2.7l0.3-85.8h-16l-0.2,85.9c0,9.2,2.9,15.8,13.1,15.8h15.3v-13.1
			L617.9,141.5L617.9,141.5z"/>
		<path class="st0" d="M117.2,78c-11,0-20.1,6.3-25,15.8h-0.5l-0.2-14H77.8l-0.2,99.6h16v-37.9h0.5c3.6,7.4,10.1,14.2,23,14.2
			c20.3,0,32.5-18,32.5-39.2C149.4,95.3,137.7,78,117.2,78z M113.1,140.6c-12.6,0-19.4-11-19.4-23.9c0-13.1,7.4-24.1,20.1-24.1
			c12.6,0,19.4,12.2,19.4,24.8C133.2,131.2,125.1,140.6,113.1,140.6z"/>
		<path class="st0" d="M195.6,78c-20.5,0-37.2,17.4-37.2,39.4c0,24.6,18.5,38.3,37.9,38.3c11.9,0,23.2-4.7,31.3-14.6l-9.5-9.5
			c-5,5-11.5,9.7-20.7,9.7c-12.4,0-22.1-7.2-23.4-17.8h55v-8.8C229,93.5,216.1,78,195.6,78z M174,111.1c1.4-11,10.6-18.5,21-18.5
			c11.9,0,18.3,8.1,18.5,18.5H174z"/>
		<path class="st0" d="M392.4,78.2c-21.4,0-39.2,17.6-39.2,39s17.6,39.2,38.8,39.2c21.4,0,39-17.6,39-39
			C430.9,95.8,414.4,78.2,392.4,78.2z M391.9,141.7c-13.5,0-23.7-11-23.7-24.6c0-13.7,10.4-24.6,23.7-24.3c13.3,0,23.7,11,23.7,24.6
			S405.2,141.7,391.9,141.7z"/>
		<path class="st0" d="M316.4,91c6.5,0,14.2,3.6,17.8,11.7l11.7-5.9c-4.2-9.6-13.5-18.8-29.5-18.8c-15.3,0-27.5,10.4-27.5,22.5
			c0,14.2,14,19.2,25.2,23c8.3,2.5,15.3,5.4,15.3,11.3c0,5.6-5.6,8.3-12.4,8.3c-9.7,0-17.1-5.6-23.2-13.1l-9.9,8.3
			c7,10.8,19.2,17.8,32.7,17.8c14.9,0,28.8-8.1,28.8-22.8s-14.4-19.2-26.1-22.8c-8.3-2.7-14.4-4.7-14.4-11
			C304.7,94.6,309.9,91,316.4,91z"/>
		<path class="st0" d="M581,139v-32.5c0-18-12.2-27.9-29.3-27.9c-14.9,0-27.5,8.1-33.8,22.3l13.3,6.5C535,99.1,542.9,93,551.5,93
			c9,0,13.5,5.9,13.5,13.5v4.7h-14.4c-18.7,0-32.9,8.8-32.9,23.4c0,14.4,11.3,21.4,23,21.4c11.3,0,21.4-6.1,26.4-16.9h0.7v3.6
			c0,8.1,4.3,11.7,10.6,11.7h10.1v-13.1h-5.6C581.2,141.3,581,140.6,581,139z M544,142.9c-6.1,0-10.4-3.4-10.4-9.2
			c0-7.7,7.4-11.3,17.8-11.3h13.7C563.9,134.8,553.9,143.1,544,142.9z"/>
		<path class="st0" d="M480.5,78.2c-12.4,0-19.6,7.2-24.6,16h-0.2v-14h-14.4l-0.2,73.9h16v-38.3c0-11.5,6.3-23.7,18.9-23.7
			c9.9,0,13.7,7.7,13.7,17.8v44.2h16v-46.9C505.5,90.4,496.7,78.2,480.5,78.2z"/>
		<path class="st0" d="M257.4,111.1c0-9.9,3.8-15.3,13.1-15.3h10.1v-16h-4.7c-10.6,0-15.8,4.1-19.4,13.5H256V79.8h-14.4l-0.2,73.9
			h16L257.4,111.1z"/>
		<path class="st0" d="M112.2,197.9c-14.9,0-23.4,9-27.3,18.9h-0.7v-16.7h-7v104.1h7v-45.3h0.7c3.6,10.1,12.4,19.2,26.8,19.2
			c19.2,0,33.8-15.5,33.8-39.9C145.8,214.3,131.8,197.9,112.2,197.9z M111.6,270.9c-17.8,0-26.6-15.5-26.6-32.7
			c0-17.8,9.7-33.4,27.3-33.4c15.8,0,25.7,13.3,25.7,33.4C137.9,258.9,126.9,270.9,111.6,270.9z"/>
		<path class="st0" d="M216.6,266.4v-42.1c0-14.4-9-26.1-26.6-26.1c-14.4,0-27.3,8.6-32.9,22.8l6.8,3.2
			c4.7-12.6,15.8-18.7,25.9-18.7c12.4,0,19.4,7.7,19.4,18.9v9.7h-19.4c-19.2,0-32.7,8.6-32.7,22.5s10.6,21.2,23.7,21.2
			s22.8-8.3,27.5-19.8h1.1l-0.2,7.4c0,6.8,2,10.6,8.3,10.6h7.4v-7h-6.8C217.5,268.8,216.6,267.7,216.6,266.4z M181.9,270.2
			c-9.5,0-16.9-4.1-16.9-14c0-10.6,11.5-16.2,25-16.2h18.9C207.3,258,195.2,270.2,181.9,270.2z"/>
		<path class="st0" d="M263.9,269.5H263l-25.5-69.4h-7.8l27.7,75.9h4.3l-4.3,11.3c-1.8,4.7-4.1,7.9-7.9,7.9h-12.6v7h13.5
			c6.3,0,9.9-4.3,13.3-12.6l34.3-89.5h-7.9L263.9,269.5z"/>
	</g>
</g>
</svg>
