<?xml version="1.0" encoding="UTF-8"?>
<svg id="Layer_1" data-name="Layer 1" xmlns="http://www.w3.org/2000/svg" version="1.1" viewBox="0 0 579 152.4">
  <defs>
    <style>
      .cls-1 {
        fill: #fff;
        stroke-width: 0px;
      }
    </style>
  </defs>
  <path class="cls-1" d="M77.9,43.6l-19.6,19.2c-1.8,1.8-2.9,4.3-2.9,6.9v28.7h32.3s0-.1,0-.1c0-12.7,10.4-23.1,23.1-23.1h.2v-9.5l-22.5-22.1c-2.9-2.9-7.7-2.9-10.6,0ZM107.2,71.7c-11.9,1.6-21.4,11.1-23,23h-25s0-25,0-25c0-1.6.6-3.1,1.8-4.2l19.6-19.2c1.5-1.4,3.9-1.4,5.3,0l21.3,21v4.5Z"/>
  <path class="cls-1" d="M96.6,98.3h3.7c0-5.8,4.7-10.5,10.5-10.5v-3.7c-7.8,0-14.2,6.4-14.2,14.2Z"/>
  <path class="cls-1" d="M153.7,73.6c-5.2-1.7-9.3-3-9.3-6.4s2.2-4.5,6-4.5,7.6,2,9.5,6.1l6.1-3.1c-2.2-5.5-7.9-9.8-15.6-9.8s-13.4,4.8-13.4,11.4,7.8,10.7,13.7,12.6c4.6,1.5,8.6,3,8.6,5.7s-2.6,4.3-7.3,4.3-8.9-1.9-11.6-6.7l-5.6,3.7c3.3,6.9,10.3,9.7,16.9,9.8,7.7,0,14.7-3.8,14.7-10.8s-7.6-10.4-12.7-12.1Z"/>
  <path class="cls-1" d="M220.6,55.8c-6.7,0-11.3,4-13.2,9.5h-.5c-1.4-5.6-5.3-9.5-11.7-9.5s-11.2,3.8-12.8,8.5h-.5v-7.4h-7.2v38.7h7.9v-20.2c0-5.5,3-12.9,9.6-12.9s8,3,8,9.8v23.3h7.9v-20.8c0-5.2,3.3-12.3,10.1-12.3s7.5,4.2,7.5,9.8v23.3h7.9v-24.4c0-9.5-4.6-15.4-12.9-15.4Z"/>
  <path class="cls-1" d="M272.7,88v-17.6c0-9.3-5.9-14.6-14.9-14.6s-14,4.5-16.6,12.1l6.5,2.7c2.3-5.6,5.1-8.1,10.1-8.1s7.5,3,7.5,8.7v2.4h-9.1c-8.4,0-16,4.2-16,12.1s5.4,10.8,12.1,10.8,11.7-3.9,14-9h.7v2.5c0,3.7,1.7,5.6,5.1,5.6h4.5v-6.2h-3c-.7,0-1-.5-1-1.4ZM253.9,89.7c-3,0-6.1-1.6-6.1-4.6s4.9-5.7,11.1-5.7h6.4c-.6,5.1-5.9,10.3-11.4,10.3Z"/>
  <path class="cls-1" d="M290.6,64h-.5v-7.1h-7v38.7h7.9v-22.4c0-5,1.9-7.7,7.3-7.7h5.1v-8.6h-2.5c-4.5,0-8.7,1.5-10.3,7.2Z"/>
  <path class="cls-1" d="M318.2,48.2h-7.3l-.5,8.7h-6v6.3h6v23.9c0,5.7,2.3,8.5,6.7,8.5h10.8v-7h-8c-1.2,0-1.5-.4-1.5-1.9v-23.5h9.5v-6.3h-9.6v-8.7Z"/>
  <path class="cls-1" d="M356.9,55.7c-6.7,0-10.7,3.8-13,8.5h-.5v-21.8h-7.4v53.1h7.9v-20c0-5.7,3.2-13.2,10.3-13.2s7.7,2.7,7.7,10v23.1h7.9v-24.4c0-9-4.1-15.4-12.9-15.4Z"/>
  <path class="cls-1" d="M395.7,55.8c-11.1,0-18.9,8.5-18.9,20.4s7.5,20.4,18.6,20.4,18.7-9,18.7-20.5-7.3-20.3-18.4-20.3ZM395.5,89.8c-7.2,0-11.1-6.1-11.1-13.6s4-13.6,11.3-13.6,11,6.1,11,13.6-4,13.6-11.1,13.6Z"/>
  <path class="cls-1" d="M467.5,55.8c-6.7,0-11.3,4-13.2,9.5h-.5c-1.4-5.6-5.3-9.5-11.7-9.5s-11.2,3.8-12.8,8.5h-.5v-7.4h-7.2v38.7h7.9v-20.2c0-5.5,3-12.9,9.6-12.9s8,3,8,9.8v23.3h7.9v-20.8c0-5.2,3.3-12.3,10.1-12.3s7.5,4.2,7.5,9.8v23.3h7.9v-24.4c0-9.5-4.6-15.4-12.9-15.4Z"/>
  <path class="cls-1" d="M523.6,74.3c0-9.8-6.4-18.5-17.4-18.5s-18.7,8.7-18.7,20.5,9.6,20.4,19.5,20.4,12-2.6,16-7.7l-4.3-4.6c-3.3,3.7-7.5,5.5-11.6,5.5s-10.6-3.5-11.8-10.4h28.3c0-2.7,0-3.8,0-5.1ZM495.2,73.4c1-7.4,5.8-10.8,10.6-10.8s10.1,3.9,10.2,10.8h-20.8Z"/>
</svg>