<?xml version="1.0" encoding="utf-8"?>
<!-- Generator: Adobe Illustrator 27.3.1, SVG Export Plug-In . SVG Version: 6.00 Build 0)  -->
<svg version="1.1" id="Layer_1" xmlns="http://www.w3.org/2000/svg" xmlns:xlink="http://www.w3.org/1999/xlink" x="0px" y="0px"
	 viewBox="0 0 363.7 447.2" style="enable-background:new 0 0 363.7 447.2;" xml:space="preserve">
<style type="text/css">
	.st0{fill:#5A50F9;}
</style>
<g>
	<path class="st0" d="M102.8,98.9l11.8-25.8c0.9-2-1.7-3.8-3.3-2.3L92.2,88.5l-16-15.6c-0.8-0.8-2.1-0.8-2.9,0
		C68,78,68,86.4,73.3,91.6l1.6,1.6c-6.3,6.4-9.4,13.6-9.4,21.4c0,8.5,3.9,16.2,11.4,22.9c0.8,0.7,2.1,0.7,2.9-0.1
		c0.8-0.8,0.7-2.1-0.1-2.8c-6.8-6-10.1-12.7-10.1-20c0-7.3,3.2-14,9.6-20c0.8-0.8,0.8-2.1,0-2.8l-3.1-3c-3.2-3.1-3.7-8-1.3-11.6
		l41.9,41c2.8,2.7,2.8,7.2,0,9.9c-2.8,2.7-7.4,2.7-10.2,0l-1.1-1.1l-1.2-1.2c-0.7-0.7-1.8-0.8-2.7-0.2c-5.7,4-13.5,3.4-18.5-1.5
		c-3.6-3.5-5-8.6-3.8-13.4c0.3-1.1-0.4-2.2-1.5-2.4c-1.1-0.3-2.2,0.4-2.5,1.4c-1.6,6.1,0.2,12.6,4.8,17.2c6,5.8,15.2,6.9,22.3,2.8
		l1.2,1.2c4.4,4.3,11.6,4.3,16,0c4.4-4.3,4.4-11.2,0-15.5L102.8,98.9z"/>
	<path class="st0" d="M150.1,108.5l-4.8-1.3l-1.3-4.5c-0.2-0.7-0.8-1.1-1.5-1.1c-0.7,0-1.3,0.4-1.5,1.1l-1.3,4.6l-4.7,1.3
		c-0.7,0.2-1.1,0.8-1.1,1.5c0,0.7,0.5,1.3,1.1,1.5l4.8,1.3l1.3,4.5c0.2,0.7,0.8,1.1,1.5,1.1c0.7,0,1.4-0.4,1.5-1.1l1.3-4.5
		c0,0,0,0,0,0l4.7-1.3c0.7-0.2,1.1-0.8,1.1-1.5C151.3,109.3,150.8,108.7,150.1,108.5z"/>
	<path class="st0" d="M132.9,86.7l4,1l1.1,3.8c0.2,0.6,0.7,1,1.4,1c0.7,0,1.2-0.4,1.4-1l1.1-3.8l4-1.1c0.7-0.2,1.1-0.7,1.1-1.4
		c0-0.6-0.4-1.2-1.1-1.3l-4-1l-1.1-3.8c-0.2-0.6-0.7-1-1.4-1c-0.7,0-1.2,0.4-1.4,1l-1.1,3.8l-4,1.1c-0.6,0.2-1.1,0.7-1.1,1.3
		C131.9,86,132.3,86.5,132.9,86.7z"/>
	<path class="st0" d="M84.7,106.8c0.2,2.1,2,3.8,4.3,4.1l3,0.4l0.3,0.1c0.7,0.2,1.2,0.8,1.3,1.4c0.1,0.5-0.1,0.9-0.4,1.2
		c-0.3,0.3-0.7,0.6-1.2,0.6l-1.4,0.1l-0.3,0c-0.3,0-0.6-0.1-0.9-0.3c-0.3-0.2-0.5-0.6-0.6-1l-0.1-0.3c-0.1-0.3-0.3-0.5-0.5-0.7
		c-0.3-0.2-0.7-0.4-1.2-0.3c-0.4,0-0.8,0.2-1.1,0.5c-0.3,0.3-0.4,0.7-0.3,1.1c0.3,2.2,2.2,3.8,4.6,3.9l0.1,0.5l0.1,0.3
		c0.2,0.6,0.8,1,1.5,1l0.2,0c0.4,0,0.8-0.2,1-0.5c0.3-0.3,0.4-0.7,0.3-1.1l-0.1-0.5l0.4-0.1c2-0.8,3.3-2.7,3-4.8
		c-0.3-2.1-2-3.8-4.3-4.1l-3-0.4l-0.3-0.1c-0.7-0.2-1.2-0.8-1.3-1.4c-0.1-0.9,0.6-1.8,1.6-1.9l1.4-0.1l0.3,0c0.8,0,1.4,0.6,1.5,1.3
		l0.1,0.3c0.2,0.7,0.9,1.1,1.7,1c0.9-0.1,1.5-0.8,1.4-1.6l-0.1-0.4c-0.5-2-2.3-3.4-4.5-3.5l-0.1-0.5l-0.1-0.3
		c-0.1-0.3-0.3-0.5-0.5-0.7c-0.3-0.2-0.7-0.4-1.2-0.3c-0.4,0-0.8,0.2-1.1,0.5c-0.3,0.3-0.4,0.7-0.3,1.1l0.1,0.5l-0.4,0.2
		C85.7,102.8,84.5,104.7,84.7,106.8z"/>
	<path class="st0" d="M134.9,97.4c0-0.8-0.5-1.5-1.3-1.7l-6.3-1.7c-0.1,0-0.2-0.1-0.2-0.2l-1.8-6c-0.2-0.8-1-1.3-1.8-1.3
		c-0.8,0-1.6,0.5-1.8,1.3l-1.8,6c0,0.1-0.1,0.2-0.2,0.2l-6.4,1.7c-0.8,0.2-1.4,0.9-1.4,1.7c0,0.8,0.5,1.5,1.4,1.7l6.3,1.7
		c0.1,0,0.2,0.1,0.2,0.2l1.8,6c0.2,0.8,1,1.3,1.8,1.3c0.9,0,1.6-0.5,1.8-1.3l1.8-6c0-0.1,0.1-0.2,0.2-0.2l6.3-1.7
		C134.4,98.9,134.9,98.2,134.9,97.4z"/>
</g>
<path class="st0" d="M289.3,97.1c-0.2-2.1-2-3.7-4.1-3.7h-4.9l-0.7-0.9c-2.9-3.6-6.6-6.6-10.8-8.5V71.6l0-0.3
	c-0.1-0.6-0.7-1.1-1.3-1.1c-2.4,0-4.8,0.7-6.9,2.1v-0.7l0-0.3c-0.1-0.6-0.7-1.1-1.3-1.1c-5.8,0-10.8,4-12.1,9.6
	c-14.1,0.7-25.6,7.4-30,16.5c-0.1-0.1-0.2-0.1-0.3-0.1l-0.8-0.3c-0.8-0.4-1.7-0.8-2.5-1.4c0.2-0.4,0.3-0.8,0.5-1.3l0.4-1.1
	c0.5-1.4,1-2.9,1.3-4.4c0.4-2,0.2-4.3-1.4-5.7c-1.5-1.5-3.7-1.3-5.3-0.2c-3.3,2.3-4.8,6.6-2.4,10.2c0.9,1.3,1.9,2.4,3.1,3.4
	c-1.1,2-2.5,3.9-4,5.7l-1.8,2.2c-1.2,1.5,0.8,3.7,2.1,2.2l1.9-2.2c1.6-1.9,3.1-3.8,4.3-5.9c0.9,0.5,1.7,1,2.6,1.4
	c0.4,0.2,0.7,0.3,1.1,0.5l-0.2,0.5l0,0.1l-0.2,0.9c-0.2,1.2-0.4,2.4-0.4,3.7c0,7.8,5.2,15.2,13.9,19.8l0.9,7.3l0.1,0.4
	c0.6,1.6,2.2,2.7,4,2.5h3.2l0.4,0c1.7,0,3.3-1.2,3.7-3l0.4-3.1l1.7,0.2c4.5,0.6,9,0.5,13.5-0.2l0.4,3.2l0.1,0.4
	c0.6,1.6,2.2,2.7,4,2.5h3.2l0.4,0c1.7,0,3.3-1.2,3.7-2.9l1-7.4l1-0.5c4.5-2.5,8.2-6.2,10.7-10.7l4.6-1.2l0.4-0.1
	c1.6-0.6,2.6-2.1,2.6-3.8V97.6L289.3,97.1z M212.8,87.3l-0.1,0.6c-0.4,1.4-0.8,2.8-1.3,4.2l-0.2,0.5c-0.8-0.8-1.5-1.6-2.1-2.6
	c-0.8-1.2-0.8-2.5-0.1-3.8c0.5-0.9,2-2.7,3.1-2.2C213.1,84.6,213,86.1,212.8,87.3z M246,88.6l-0.5,0.1l-1.8,0.3l-1.5,0.3l-1.2,0.3
	l-1.3,0.3l-1.3,0.4c-4.4,1.3-9.6,3.7-12.7,7.6c-0.3,0.4-0.8,0.6-1.3,0.6c-0.4,0-0.7-0.1-1-0.4c-0.7-0.6-0.8-1.6-0.3-2.3
	c3.2-4,8.1-6.5,12.5-8.1l1.5-0.5c0.2-0.1,0.5-0.1,0.7-0.2l1.4-0.4l1.3-0.3l1.2-0.3l1.5-0.3l1.2-0.2l1.2-0.2l0.4,0
	c0.8,0.1,1.4,0.7,1.5,1.5C247.6,87.7,246.9,88.5,246,88.6z M260.5,75.9l0.4-0.4c0.2-0.2,0.5-0.5,0.8-0.7c1.8-1.3,4.3,0,4.3,2.2V82
	l0,0.2c-0.1,0.3-0.5,0.5-0.8,0.4c-1.4-0.5-2.8-0.9-4.2-1.3c-0.2-0.1-0.4-0.3-0.4-0.5V75.9z M273.4,100.2c-1.1,0-2.1-0.9-2.1-2.1
	l0-0.5c-0.2-2.1-2-3.7-4.1-3.7c-2.3,0-4.2,1.8-4.2,4.1l0,0.3c-0.2,1-1,1.7-2,1.7c-1.2,0-2.1-0.9-2.1-2.1c0-4.6,3.7-8.3,8.3-8.3
	c4.6,0,8.3,3.7,8.3,8.3C275.5,99.3,274.6,100.2,273.4,100.2z"/>
<g>
	<path class="st0" d="M108.8,331.2l0.4-1.2l0.1-0.3c0.1-0.9-0.5-1.7-1.4-1.9c-1.1-0.3-2.1,0.3-2.3,1.3l-0.4,1.2l-0.6-0.1
		c-3.4-0.2-6.6,1.8-7.6,5.1c-0.9,3.1,0.5,6.4,3.4,8l4.1,2.2l0.4,0.2c1.1,0.8,1.6,2.3,1.3,3.6c-0.5,1.8-2.4,2.8-4.2,2.3l-2.2-0.6
		l-0.4-0.1c-1.5-0.6-2.3-2.1-1.9-3.6l0.1-0.3c0.1-0.9-0.5-1.7-1.4-1.9c-1-0.3-2.1,0.3-2.4,1.3c-1,3.4,1,6.9,4.3,8.1l-0.4,1.2
		l-0.1,0.3c-0.1,0.9,0.5,1.7,1.4,1.9c1,0.3,2-0.3,2.3-1.3l0.4-1.2l0.6,0.1c3.4,0.2,6.6-1.9,7.6-5.1c0.9-3.2-0.5-6.4-3.4-8l-4.1-2.2
		l-0.4-0.2c-1.1-0.8-1.7-2.3-1.3-3.6c0.5-1.8,2.4-2.8,4.2-2.3l2.2,0.6l0.4,0.1c1.5,0.6,2.3,2.1,1.9,3.7l-0.1,0.3
		c-0.1,0.9,0.5,1.7,1.4,1.9c1.1,0.3,2.1-0.3,2.4-1.3C114.1,335.9,112.1,332.4,108.8,331.2z"/>
	<path class="st0" d="M148.8,322.7c-2.8-2.2-5.5-0.8-7.4,0.7l-0.6,0.5l-0.5,0.5l-1.2,1.1c-0.2,0.2-0.4,0.4-0.7,0.6l-0.7,0.5
		c-1.4,1-3.1,1.8-5.1,2.5c-0.7,0.3-1.5,0.4-2.4,0.6l-1,0.2c-0.9,0.2-1.8,0.4-2.7,0.8l1.3-4.3l0.1-0.5c0.7-3.2-0.8-6.2-3.7-7.1
		l-24.9-7.3l-0.5-0.1c-2.8-0.5-5.8,1.5-6.8,4.6l-2.6,8.2l-0.5-0.6c-1-1.2-2.3-2-3.6-2.9l-0.9-0.6c-0.4-0.3-0.8-0.6-1.2-0.9
		c-1.9-1.7-3.3-3.3-4.3-5c-0.2-0.3-0.4-0.8-0.6-1.2l-0.6-1.4l-0.3-0.7c-1.2-2.2-3.2-4.8-6.8-3.7c-2.3,0.7-4,2.5-4.5,4.7
		c-0.4,1.8-0.2,4,0.6,6c0.3,0.8,0.7,1.6,1.1,2.3c-0.9,0.6-1.6,1.5-2,2.5c-1.7,4,2.4,7.7,5.1,8.8l0.7,0.3l0.9,0.3
		c-0.1,0.9-0.1,2.1,0.6,3.5c0.6,1.3,1.7,2.3,3.2,2.9c1,0.4,2.2,0.5,3.3,0.5c1.4,0,2.7-0.2,3.7-0.6c0.7-0.2,1.3-0.6,2-1l-6.9,22.2
		l-0.1,0.5c-0.7,3.1,0.8,6.2,3.7,7.1l24.9,7.2l0.5,0.1c2.9,0.5,5.8-1.4,6.8-4.6l8.4-26.9l0.3,0.6c0.5,1,1.3,2.1,2.4,3
		c1.1,0.9,3.6,2.5,6.4,2.5c1.6,0,3-0.5,4-1.5c1.1-1,1.6-2.1,1.9-3c0.4,0,0.9,0,1.3,0l0.7,0c2.9-0.2,7.6-2.2,7.6-6.3
		c0-1.1-0.3-2.2-0.9-3c0.7-0.5,1.3-1,1.8-1.7c1.5-1.6,2.6-3.6,2.8-5.3C151.5,326.4,150.6,324.2,148.8,322.7z M85.2,333.8l-0.1,0.1
		l-0.6,0.5c-0.8,0.6-1.5,1-2.3,1.3c-1,0.4-3.1,0.6-4.6,0.1c-0.7-0.3-1.1-0.7-1.4-1.2c-0.4-0.8-0.4-1.6-0.2-2.2l0-0.1l0.2-0.3
		c0.5-0.9,0-2-1-2.3l-0.9-0.2c-0.5-0.1-0.9-0.3-1.4-0.5l0,0l-0.3-0.1l-0.6-0.3c-1.5-0.8-3.7-2.8-3-4.5c0.3-0.7,0.7-1.1,1.2-1.3
		l0.2-0.1l0.4-0.1l0.3-0.1c1-0.4,1.3-1.7,0.6-2.5c-0.7-0.9-1.4-2-1.8-3.1c-0.6-1.5-0.7-3.1-0.5-4.2c0.2-1,1.1-1.9,2.3-2.3
		c1.3-0.4,2.1,0.4,3.4,3.5l0.2,0.5c0.2,0.6,0.5,1.1,0.8,1.5c1.2,2,2.7,3.8,5,5.8c0.7,0.6,1.5,1.1,2.2,1.6l0.3,0.2l0.6,0.4
		c1.2,0.7,2.1,1.5,2.7,2.5c0.1,0.2,0.2,0.4,0.3,0.7L85.2,333.8z M118.8,337l-5.7,19.3l-0.2,0.6c-1.7,4.8-6.9,7.4-11.9,6l-6.5-1.9
		l-0.6-0.2c-4.8-1.7-7.4-6.9-6-11.8l5.7-19.3l0.2-0.6c1.7-4.8,6.9-7.4,11.9-6l6.5,1.9l0.6,0.2C117.5,326.9,120.2,332,118.8,337z
		 M147.8,328c-0.2,1.1-0.9,2.5-2,3.6c-0.8,0.9-1.8,1.6-2.8,2.2l-0.6,0.3l-0.3,0.2c-0.7,0.6-0.6,1.7,0.3,2.1l0.6,0.3l0.1,0.1l0.2,0.2
		c0.4,0.4,0.6,0.9,0.6,1.6c0,1.9-3.1,3-4.7,3l-0.2,0l-0.2,0c-0.1,0-0.2,0-0.3,0l-0.6,0c-0.6,0-1.1-0.1-1.6-0.2l-0.6-0.1l-0.3,0
		c-0.8,0-1.4,0.8-1.2,1.6l0.2,0.6l0,0.4c-0.1,0.6-0.4,1.1-1,1.6c-0.4,0.4-1,0.6-1.7,0.6c-1.5,0-3.3-1-4.1-1.6
		c-1.1-0.9-1.8-2.2-2.2-3.1l-0.2-0.6l2.1-6.8l0.6-0.3c0.9-0.4,1.9-0.6,2.9-0.8l1.1-0.2c0.6-0.1,1.3-0.3,1.9-0.5
		c2.8-1,4.9-2.1,6.7-3.5c0.6-0.4,1.1-1,1.7-1.5c2.4-2.3,3.4-2.8,4.4-2C147.5,325.9,148,327,147.8,328z"/>
</g>
<g>
	<path class="st0" d="M145.6,240.5l1.2,0.1l0.3,0c0.6,0.2,1,0.7,0.9,1.3l0,0.3c0,0.3,0.2,0.6,0.4,0.8c0.3,0.3,0.7,0.5,1.1,0.5
		c0.9,0,1.6-0.6,1.7-1.5l0-0.4c-0.1-1.9-1.4-3.6-3.3-4.1l0-0.3l0-0.3c0-0.3-0.2-0.6-0.4-0.8c-0.3-0.3-0.7-0.5-1.1-0.5
		c-0.4,0-0.8,0.1-1.2,0.4c-0.3,0.3-0.5,0.7-0.5,1.1l0,0.3l-0.4,0.1c-1.9,0.5-3.3,2.1-3.4,4.1c-0.2,2.1,1.1,4,3.1,4.7l2.5,0.8
		l0.3,0.1c0.5,0.3,0.8,0.8,0.7,1.4c0,0.4-0.2,0.7-0.5,1c-0.3,0.2-0.6,0.4-1,0.3l-1.2-0.1l-0.3,0c-0.2-0.1-0.5-0.2-0.6-0.4
		c-0.2-0.3-0.3-0.6-0.3-0.9l0-0.3c-0.1-0.7-0.7-1.3-1.4-1.4c-0.4,0-0.8,0.1-1.2,0.4c-0.3,0.3-0.5,0.7-0.6,1.1
		c-0.1,2.1,1.2,4,3.3,4.6l0,0.3l0,0.3c0.1,0.7,0.7,1.3,1.5,1.4l0.1,0l0.3,0c0.3,0,0.5-0.2,0.7-0.3c0.3-0.3,0.5-0.7,0.6-1.1l0-0.3
		l0.4-0.1c1.9-0.5,3.3-2.1,3.4-4.1c0.2-2.1-1.1-4-3.1-4.7l-2.5-0.8l-0.3-0.1c-0.5-0.3-0.8-0.8-0.7-1.4c0-0.4,0.2-0.7,0.5-1
		C144.9,240.6,145.2,240.4,145.6,240.5z"/>
	<path class="st0" d="M101.6,228.8c-1.1,0.2-2,1.1-2,2.2v10.3l0,0.5c0.3,4.1,3.9,7.3,8.2,7.3c5,0,9.1-3.9,9.1-8.7v-9.3l0-0.4
		c-0.2-1.1-1.2-2-2.5-2h-12.6L101.6,228.8z"/>
	<path class="st0" d="M73,192.3l0-0.3l0-0.3c0-0.3-0.2-0.6-0.4-0.8c-0.3-0.3-0.6-0.5-1.1-0.5c-0.4,0-0.8,0.1-1.1,0.3
		c-0.3,0.2-0.5,0.6-0.5,1l0,0.3l-0.5,0.1c-1.9,0.5-3.2,2-3.4,3.8c-0.2,1.9,1.1,3.7,3.1,4.4l2.5,0.8l0.3,0.1c0.5,0.3,0.8,0.8,0.7,1.3
		c0,0.4-0.2,0.7-0.5,0.9c-0.3,0.2-0.6,0.3-1,0.3l-1.2-0.1l-0.3,0c-0.2-0.1-0.5-0.2-0.6-0.4c-0.2-0.2-0.3-0.5-0.3-0.9l0-0.3
		c-0.1-0.7-0.7-1.2-1.4-1.3c-0.4,0-0.8,0.1-1.1,0.3c-0.3,0.3-0.5,0.6-0.5,1c-0.1,2,1.2,3.7,3.2,4.3l0,0.3l0,0.3
		c0.1,0.7,0.7,1.2,1.5,1.3l0.1,0c0.4,0,0.7-0.1,1-0.3c0.3-0.3,0.5-0.6,0.6-1l0-0.3l0.5-0.1c1.9-0.4,3.2-2,3.4-3.8
		c0.2-1.9-1.1-3.7-3.1-4.4l-2.5-0.8l-0.3-0.1c-0.5-0.3-0.8-0.8-0.7-1.3c0-0.4,0.2-0.7,0.5-0.9c0.3-0.2,0.6-0.4,1-0.3l1.2,0.1l0.3,0
		c0.6,0.1,1,0.7,0.9,1.2l0,0.3c0,0.3,0.2,0.6,0.4,0.8c0.3,0.3,0.6,0.5,1.1,0.5c0.9,0.1,1.6-0.5,1.7-1.4l0-0.4
		C76.2,194.3,74.8,192.8,73,192.3z"/>
	<path class="st0" d="M108.1,193c-16.9,0-30.7,13.6-30.7,30.5c0,16.8,13.7,30.5,30.7,30.5c16.9,0,30.7-13.6,30.7-30.5
		C138.7,206.6,125,193,108.1,193z M116.8,202l0-0.3l0-0.3c0.1-0.4,0.2-0.8,0.5-1c0.3-0.4,0.8-0.6,1.3-0.6c0.5,0,1,0.2,1.3,0.5
		c0.4,0.3,0.6,0.8,0.6,1.3l0,0.3l0.5,0.1c2.1,0.6,3.7,2.5,3.7,4.7l0,0.3c-0.1,0.9-0.9,1.5-1.8,1.6l-0.3,0c-0.9-0.2-1.5-0.9-1.6-1.8
		l0-0.3c-0.1-0.3-0.2-0.5-0.4-0.7c-0.3-0.2-0.6-0.4-1-0.4l-1.4,0l-0.3,0c-0.7,0.1-1.2,0.8-1.2,1.5c0,0.7,0.5,1.3,1.2,1.5l2.9,0.7
		l0.5,0.1c2.1,0.7,3.6,2.6,3.6,4.9c0.1,2.4-1.6,4.6-3.9,5.2l0,0.3l0,0.3c-0.1,0.4-0.2,0.8-0.5,1.1c-0.3,0.3-0.8,0.5-1.3,0.5l-0.4,0
		c-0.9-0.1-1.5-0.9-1.6-1.8l0-0.3l-0.5-0.1c-2.1-0.6-3.6-2.5-3.7-4.8c0-0.5,0.2-1,0.5-1.3c0.3-0.4,0.8-0.6,1.3-0.6l0.4,0
		c0.9,0.2,1.5,0.9,1.5,1.8l0,0.3c0.1,0.3,0.2,0.5,0.4,0.7c0.3,0.2,0.6,0.4,1,0.4l1.4,0l0.3,0c0.3-0.1,0.6-0.2,0.8-0.4
		c0.3-0.3,0.4-0.7,0.4-1.1c0-0.7-0.5-1.3-1.2-1.5l-2.9-0.6l-0.5-0.1c-2.1-0.7-3.6-2.7-3.6-4.9C112.8,204.7,114.5,202.6,116.8,202z
		 M97.1,212.9l-2.8-0.9l-0.5-0.2c-2.1-0.9-3.3-3-3.2-5.2c0.2-2.4,2-4.4,4.4-4.8l0-0.3l0-0.3c0.1-0.4,0.3-0.7,0.6-1
		c0.4-0.3,0.9-0.5,1.4-0.4c0.5,0,1,0.3,1.3,0.6c0.3,0.4,0.5,0.9,0.4,1.4l0,0.3l0.4,0.2c2,0.8,3.4,2.8,3.2,5.1l-0.1,0.3
		c-0.2,0.9-1,1.5-2,1.4c-0.5,0-1-0.3-1.3-0.6c-0.3-0.4-0.5-0.9-0.4-1.4l0-0.3c-0.1-0.6-0.6-1.1-1.3-1.2l-1.4-0.1l-0.3,0
		c-0.7,0.1-1.3,0.7-1.3,1.4c-0.1,0.7,0.4,1.4,1,1.6l2.8,0.9l0.4,0.2c2,0.9,3.3,3,3.2,5.2c-0.2,2.4-2,4.4-4.4,4.8l0,0.3l0,0.3
		c-0.1,0.4-0.3,0.7-0.6,1c-0.3,0.3-0.7,0.4-1.2,0.4l-0.2,0c-1.1-0.1-1.8-0.9-1.8-2l0-0.3l-0.4-0.2c-2-0.8-3.4-2.8-3.2-5.1
		c0.1-1.1,1-1.8,2-1.7c0.5,0,1,0.3,1.3,0.6c0.3,0.4,0.5,0.9,0.4,1.4l0,0.3c0,0.3,0.1,0.5,0.3,0.7c0.2,0.3,0.6,0.4,0.9,0.5l1.4,0.1
		l0.3,0c0.3,0,0.6-0.2,0.8-0.3c0.3-0.3,0.5-0.6,0.5-1C98.2,213.8,97.8,213.1,97.1,212.9z M131.3,223.8c0.3,0.3,0.5,0.6,0.5,1
		c0,9.9-5.3,15.6-12.2,18.4c-0.6,5.5-5.3,9.3-11.5,9.3l-0.6,0c-4.8-0.2-9.1-2.9-11.1-9.6l-0.7-0.3c-6-3.2-11.4-9.1-11.4-17.7
		c0-0.8,0.6-1.4,1.4-1.4l0.6,0l5.1,0.5c5.5,0.5,11,0.8,16.6,0.8c7.4,0,14.8-0.5,22.1-1.4C130.6,223.4,131,223.5,131.3,223.8z"/>
</g>
<path class="st0" d="M289.2,211.4L289.2,211.4c0-0.2-0.1-0.3-0.2-0.4v-0.1l-13.6-19.6l-0.3-0.3c0,0-0.1,0-0.1-0.1l-0.3-0.2
	c0,0-0.1,0-0.1-0.1l-0.3-0.1h-0.1c-0.1,0-0.3-0.1-0.5-0.1l-54.6,0c-0.1,0-0.2,0-0.3,0.1h-0.1l-0.3,0.1c0,0-0.1,0-0.1,0.1
	c0,0.1-0.1,0.1-0.1,0.1l-0.2,0.1l-0.1,0l0,0.1l-0.3,0.3L203.9,211v0.1l-0.2,0.3v0.1c-0.1,0.2-0.1,0.3-0.1,0.5v0.6
	c0,0.1,0.1,0.2,0.1,0.4v0.1l0.3,0.4l40.9,40.9l0.3,0.3h0.2c0.1,0,0.1,0.1,0.2,0.1c0,0,0.1,0,0.1,0.1l1.7,0c0,0,0.1,0,0.1-0.1
	c0.1,0,0.1-0.1,0.2-0.1h0.1l0.4-0.4l40.9-41c0.1-0.1,0.1-0.2,0.2-0.3v-0.1c0.1-0.1,0.1-0.2,0.1-0.4v-0.6
	C289.3,211.6,289.3,211.6,289.2,211.4z M252.8,194.3h14.6c1.1,0,1.7,1.2,1.1,2.1l-7.3,10.5c-0.5,0.8-1.7,0.8-2.2,0l-7.3-10.5
	C251,195.5,251.7,194.3,252.8,194.3z M247.6,197.4l7.3,10.5c0.6,0.9,0,2.1-1.1,2.1h-17.2l8.7-12.6
	C245.9,196.7,247.1,196.7,247.6,197.4z M225.6,194.3h14.6c1.1,0,1.7,1.2,1.1,2.1l-7.3,10.5c-0.5,0.8-1.7,0.8-2.2,0l-7.3-10.5
	C223.9,195.5,224.5,194.3,225.6,194.3z M210.8,208l7.3-10.6c0.5-0.8,1.7-0.8,2.2,0l7.3,10.6c0.6,0.9,0,2.1-1.1,2.1h-14.6
	C210.8,210.2,210.2,208.9,210.8,208z M237.9,241.5l-25.3-25.3c-0.9-0.9-0.3-2.3,0.9-2.3h16.9c0.6,0,1.1,0.4,1.3,0.9l8.4,25.3
	C240.5,241.5,238.9,242.5,237.9,241.5z M247.8,242.7c-0.4,1.2-2.1,1.2-2.5,0l-9-27c-0.3-0.9,0.4-1.8,1.3-1.8h17.9
	c0.9,0,1.6,0.9,1.3,1.8L247.8,242.7z M280.4,216.2l-25.3,25.3c-1,1-2.7,0-2.2-1.4l8.4-25.3c0.2-0.6,0.7-0.9,1.3-0.9h16.9
	C280.7,213.9,281.3,215.4,280.4,216.2z M281.1,210.2h-14.6c-1.1,0-1.7-1.2-1.1-2.1l7.3-10.5c0.5-0.8,1.7-0.8,2.2,0l7.3,10.5
	C282.8,208.9,282.2,210.2,281.1,210.2z"/>
<path class="st0" d="M286.6,328.2c-0.2,0.1-0.3,0.2-0.5,0.3l-1.7,0.9l-1.2,0.6l-1.3,0.6l-1.3,0.6c-0.2,0.1-0.4,0.2-0.7,0.3l-1.3,0.6
	c-3.3,1.4-6.5,2.3-8.4,1.9c-3.3-0.8-7.5-4.8-11.4-9.4l-1.1-1.4l-1.1-1.4c-0.2-0.2-0.4-0.5-0.5-0.7l-1.1-1.4l-1-1.4l-1-1.4l-0.9-1.3
	l-0.9-1.3l-1.2-1.8l-1.1-1.6l-0.9-1.4c-0.7-1.1-2.3-1.1-3,0l-0.6,0.9l-1.8,2.7l-1.3,1.8l-1.4,2l-1,1.4l-1,1.4l-1.1,1.4l-1.1,1.4
	c-0.2,0.2-0.4,0.5-0.6,0.7l-1.1,1.4l-1.1,1.3c-3.6,4.1-7.3,7.4-10.2,8.1c-2.2,0.5-6-0.8-9.8-2.4l-1.3-0.6l-1.3-0.6l-1.2-0.6
	l-1.2-0.6l-1.6-0.9l-0.2-0.1c-1.3-0.5-2.8,0.7-2.4,2.1l9.7,39.4l0.1,0.4c0.6,1.8,2.3,3.1,4.3,3.1h57.3l0.4,0
	c1.8-0.2,3.4-1.5,3.9-3.3l9.9-39.6l0-0.2C289.4,328.6,287.9,327.5,286.6,328.2z M248.4,349.6c-1.6,0-3-1.3-3-3c0-1.6,1.3-3,3-3
	s3,1.3,3,3C251.3,348.3,250,349.6,248.4,349.6z M267.6,356c-3.2,10.5-12.7,7.1-12.4-0.4c0-0.6,0.5-1,1.1-1h10.3l0.2,0
	C267.4,354.8,267.8,355.4,267.6,356z M269.8,349.6c-1.6,0-3-1.3-3-3c0-1.6,1.3-3,3-3c1.6,0,3,1.3,3,3
	C272.8,348.3,271.4,349.6,269.8,349.6z"/>
</svg>
