<?xml version="1.0" encoding="utf-8"?>
<!-- Generator: Adobe Illustrator 27.3.1, SVG Export Plug-In . SVG Version: 6.00 Build 0)  -->
<svg version="1.1" id="Layer_1" xmlns="http://www.w3.org/2000/svg" xmlns:xlink="http://www.w3.org/1999/xlink" x="0px" y="0px"
	 viewBox="0 0 363.7 447.2" style="enable-background:new 0 0 363.7 447.2;" xml:space="preserve">
<style type="text/css">
	.st0{fill:#FFFFFF;}
</style>
<path class="st0" d="M139.4,78.1c0.7,0,1.2,0.4,1.4,1L142,83l4,1c0.7,0.1,1.1,0.7,1.1,1.3c0,0.7-0.4,1.2-1.1,1.4l-4,1.1l-1.1,3.8
	c-0.2,0.6-0.7,1-1.4,1c-0.7,0-1.2-0.4-1.4-1l-1.1-3.8l-4-1c-0.6-0.2-1-0.7-1.1-1.4c0-0.6,0.4-1.1,1.1-1.3l4-1.1l1.1-3.8
	C138.2,78.5,138.7,78.1,139.4,78.1 M123.4,86.4c0.8,0,1.6,0.5,1.8,1.3l1.8,6c0,0.1,0.1,0.2,0.2,0.2l6.3,1.7c0.8,0.2,1.3,0.9,1.3,1.7
	c0,0.8-0.5,1.5-1.4,1.8l-6.3,1.7c-0.1,0-0.2,0.1-0.2,0.2l-1.8,6c-0.2,0.8-1,1.3-1.8,1.3c-0.8,0-1.6-0.5-1.8-1.3l-1.8-6
	c0-0.1-0.1-0.2-0.2-0.2l-6.3-1.7c-0.8-0.2-1.4-0.9-1.4-1.7c0-0.8,0.5-1.5,1.4-1.7l6.4-1.7c0.1,0,0.2-0.1,0.2-0.2l1.8-6
	C121.9,86.9,122.6,86.4,123.4,86.4 M142.4,101.5c0.7,0,1.3,0.4,1.5,1.1l1.3,4.5l4.8,1.3c0.7,0.2,1.1,0.8,1.1,1.5
	c0,0.7-0.5,1.3-1.1,1.5l-4.7,1.3c0,0,0,0,0,0l-1.3,4.5c-0.2,0.7-0.8,1.1-1.5,1.1c-0.7,0-1.3-0.4-1.5-1.1l-1.3-4.5l-4.8-1.3
	c-0.7-0.2-1.1-0.8-1.1-1.5c0-0.7,0.5-1.3,1.1-1.5l4.7-1.3l1.3-4.6C141.1,102,141.7,101.5,142.4,101.5 M89.5,99.7
	c0.4,0,0.8,0.1,1.2,0.3c0.2,0.2,0.4,0.4,0.5,0.7l0.1,0.3l0.1,0.5c2.2,0.1,4,1.5,4.5,3.5l0.1,0.4c0.1,0.8-0.5,1.5-1.4,1.6
	c-0.8,0.1-1.5-0.4-1.7-1l-0.1-0.3c-0.1-0.8-0.7-1.3-1.5-1.3l-0.3,0l-1.4,0.1c-1,0.1-1.7,0.9-1.6,1.9c0.1,0.7,0.6,1.2,1.3,1.4
	l0.3,0.1l3,0.4c2.3,0.3,4,2,4.3,4.1c0.3,2.1-1,4-3,4.8l-0.4,0.1l0.1,0.5c0,0.4-0.1,0.8-0.3,1.1c-0.3,0.3-0.6,0.5-1,0.5l-0.2,0
	c-0.7,0-1.3-0.4-1.5-1l-0.1-0.3l-0.1-0.5c-2.3-0.1-4.3-1.8-4.6-3.9c0-0.4,0.1-0.8,0.3-1.1c0.3-0.3,0.7-0.5,1.1-0.5
	c0.4,0,0.8,0.1,1.2,0.3c0.2,0.2,0.4,0.4,0.5,0.7l0.1,0.3c0,0.4,0.3,0.8,0.6,1c0.3,0.2,0.6,0.3,0.9,0.3l0.3,0l1.4-0.1
	c0.5,0,0.9-0.3,1.2-0.6c0.3-0.3,0.4-0.8,0.4-1.2c-0.1-0.7-0.6-1.2-1.3-1.4l-0.3-0.1l-3-0.4c-2.3-0.3-4-2-4.3-4.1c-0.3-2,1-4,3-4.8
	l0.4-0.2l-0.1-0.5c-0.1-0.4,0.1-0.8,0.3-1.1C88.7,100,89.1,99.8,89.5,99.7 M114.6,73.1l-11.8,25.8l16.9,16.5
	c4.4,4.3,4.4,11.2,0,15.5c-4.4,4.3-11.6,4.3-16,0l-1.2-1.2c-7.1,4-16.3,3-22.3-2.8c-4.7-4.5-6.4-11.1-4.8-17.2
	c0.3-1.1,1.4-1.7,2.5-1.4c1.1,0.3,1.8,1.4,1.5,2.4c-1.3,4.8,0.1,9.8,3.8,13.4c5,4.9,12.9,5.4,18.5,1.5c0.8-0.6,2-0.5,2.7,0.2
	l1.2,1.2l1.1,1.1c2.8,2.7,7.4,2.7,10.2,0c2.8-2.7,2.8-7.1,0-9.9l-41.9-41c-2.4,3.6-1.9,8.4,1.3,11.6l3.1,3c0.8,0.8,0.8,2.1,0,2.8
	c-6.5,6-9.6,12.7-9.6,20c0,7.3,3.3,13.9,10.1,20c0.8,0.7,0.9,2,0.1,2.8c-0.8,0.8-2.1,0.9-2.9,0.1c-7.6-6.8-11.4-14.4-11.4-22.9
	c0-7.9,3.2-15,9.4-21.4l-1.6-1.6C68,86.4,68,78,73.3,72.8c0.8-0.8,2.1-0.8,2.9,0l16,15.6l19.1-17.7C113,69.3,115.5,71.1,114.6,73.1"
	/>
<path class="st0" d="M266,77c0-2.2-2.6-3.5-4.3-2.2c-0.3,0.2-0.5,0.4-0.8,0.7l-0.4,0.4v4.9c0,0.2,0.2,0.4,0.4,0.5
	c1.4,0.4,2.8,0.8,4.2,1.3c0.4,0.1,0.7-0.1,0.8-0.4l0-0.2V77z M212,84.1c-1.2-0.5-2.6,1.3-3.1,2.2c-0.7,1.3-0.7,2.5,0.1,3.8
	c0.6,0.9,1.3,1.8,2.1,2.6l0.2-0.5c0.5-1.4,1-2.8,1.3-4.2l0.1-0.6C213,86.1,213.1,84.6,212,84.1 M245.9,85.3l-0.4,0l-1.2,0.2
	l-1.2,0.2l-1.5,0.3l-1.2,0.3l-1.3,0.3l-1.4,0.4c-0.2,0.1-0.5,0.1-0.7,0.2l-1.5,0.5c-4.4,1.6-9.3,4.1-12.5,8.1
	c-0.6,0.7-0.4,1.7,0.3,2.3c0.3,0.2,0.6,0.4,1,0.4c0.5,0,1-0.2,1.3-0.6c3.1-3.9,8.4-6.2,12.7-7.6l1.3-0.4l1.3-0.3l1.2-0.3l1.5-0.3
	l1.8-0.3l0.5-0.1c0.9-0.1,1.6-0.9,1.5-1.8C247.4,86,246.7,85.4,245.9,85.3 M267.2,89.9c-4.6,0-8.3,3.7-8.3,8.3
	c0,1.1,0.9,2.1,2.1,2.1c1,0,1.9-0.8,2-1.7l0-0.3c0-2.3,1.9-4.1,4.2-4.1c2.1,0,3.9,1.6,4.1,3.7l0,0.5c0,1.1,0.9,2.1,2.1,2.1
	c1.2,0,2.1-0.9,2.1-2.1C275.5,93.6,271.8,89.9,267.2,89.9 M267.3,70.2c0.7,0,1.2,0.5,1.3,1.1l0,0.3V84c4.2,2,7.9,4.9,10.8,8.5
	l0.7,0.9h4.9c2.1,0,3.9,1.6,4.1,3.7l0,0.4v10.2c0,1.7-1,3.2-2.6,3.8l-0.4,0.1l-4.6,1.2c-2.5,4.5-6.2,8.2-10.7,10.7l-1,0.5l-1,7.4
	c-0.4,1.7-1.9,2.9-3.7,2.9l-0.4,0h-3.2c-1.8,0.2-3.4-0.9-4-2.5l-0.1-0.4l-0.4-3.2c-4.5,0.7-9,0.8-13.5,0.2l-1.7-0.2l-0.4,3.1
	c-0.4,1.7-1.9,2.9-3.7,3l-0.4,0h-3.2c-1.8,0.2-3.4-0.9-4-2.5l-0.1-0.4l-0.9-7.3c-8.7-4.6-13.9-12-13.9-19.8c0-1.2,0.1-2.5,0.4-3.7
	l0.2-0.9l0-0.1l0.2-0.5c-0.4-0.2-0.8-0.3-1.1-0.5c-0.9-0.4-1.8-0.9-2.6-1.4c-1.2,2.1-2.7,4.1-4.3,5.9l-1.9,2.2
	c-1.3,1.5-3.3-0.7-2.1-2.2l1.8-2.2c1.5-1.8,2.8-3.6,4-5.7c-1.2-1-2.2-2.1-3.1-3.4c-2.4-3.6-1-7.9,2.4-10.2c1.6-1.1,3.8-1.3,5.3,0.2
	c1.5,1.5,1.8,3.7,1.4,5.7c-0.3,1.5-0.8,3-1.3,4.4l-0.4,1.1c-0.2,0.4-0.3,0.9-0.5,1.3c0.8,0.5,1.7,1,2.5,1.4l0.8,0.3
	c0.1,0,0.2,0.1,0.3,0.1c4.3-9.1,15.9-15.8,30-16.5c1.2-5.6,6.3-9.7,12.1-9.6c0.7,0,1.2,0.5,1.3,1.1l0,0.3v0.7
	C262.5,71,264.9,70.2,267.3,70.2"/>
<path class="st0" d="M75.2,313.9c-1.3-3.1-2.1-3.9-3.4-3.5c-1.2,0.4-2,1.2-2.3,2.3c-0.2,1.2-0.1,2.7,0.5,4.2c0.4,1.1,1,2.2,1.8,3.1
	c0.7,0.8,0.4,2.1-0.6,2.5l-0.3,0.1l-0.4,0.1l-0.2,0.1c-0.6,0.2-0.9,0.7-1.2,1.3c-0.7,1.7,1.5,3.7,3,4.5l0.6,0.3l0.3,0.1l0.1,0
	c0.5,0.2,1,0.4,1.4,0.5l0.9,0.2c1,0.2,1.5,1.4,1,2.3l-0.2,0.3l0,0.1c-0.3,0.6-0.2,1.4,0.2,2.2c0.2,0.5,0.7,0.9,1.4,1.2
	c1.5,0.5,3.6,0.3,4.6-0.1c0.7-0.3,1.5-0.7,2.3-1.3l0.6-0.5l0.1-0.1l2.1-6.7c-0.1-0.3-0.2-0.5-0.3-0.7c-0.6-1-1.6-1.7-2.7-2.5
	l-0.6-0.4l-0.3-0.2c-0.8-0.5-1.5-1-2.2-1.6c-2.2-2-3.8-3.8-5-5.8c-0.3-0.5-0.5-1-0.8-1.5L75.2,313.9z M146.6,325.2
	c-1-0.8-2-0.3-4.4,2c-0.5,0.5-1.1,1.1-1.7,1.5c-1.8,1.4-4,2.5-6.7,3.5c-0.6,0.2-1.3,0.4-1.9,0.5l-1.1,0.2c-1,0.2-2,0.4-2.9,0.8
	l-0.6,0.3l-2.1,6.8l0.2,0.6c0.4,0.8,1.1,2.1,2.2,3.1c0.8,0.7,2.6,1.6,4.1,1.6c0.7,0,1.2-0.2,1.7-0.6c0.6-0.5,0.9-1.1,1-1.6l0-0.4
	l-0.2-0.6c-0.2-0.8,0.4-1.6,1.2-1.6l0.3,0l0.6,0.1c0.5,0.1,1,0.1,1.6,0.2l0.6,0c0.1,0,0.2,0,0.3,0l0.2,0l0.2,0c1.6,0,4.7-1.2,4.7-3
	c0-0.7-0.2-1.2-0.6-1.6l-0.2-0.2l-0.1-0.1l-0.6-0.3c-0.9-0.4-1-1.5-0.3-2.1l0.3-0.2l0.6-0.3c1-0.5,2-1.3,2.8-2.2
	c1.1-1.1,1.8-2.5,2-3.6C148,327,147.5,325.9,146.6,325.2 M105.4,329c0.3-1,1.3-1.6,2.3-1.3c0.9,0.3,1.5,1.1,1.4,1.9l-0.1,0.3
	l-0.4,1.2c3.4,1.2,5.3,4.7,4.3,8.1c-0.3,1-1.3,1.5-2.4,1.3c-0.9-0.2-1.5-1.1-1.4-1.9l0.1-0.3c0.4-1.5-0.4-3.1-1.9-3.7l-0.4-0.1
	l-2.2-0.6c-1.9-0.5-3.7,0.5-4.3,2.3c-0.4,1.3,0.1,2.8,1.3,3.6l0.4,0.2l4.1,2.2c2.9,1.6,4.3,4.8,3.4,8c-0.9,3.3-4.2,5.3-7.6,5.1
	l-0.6-0.1l-0.4,1.2c-0.3,1-1.3,1.6-2.3,1.3c-1-0.2-1.5-1-1.4-1.9l0.1-0.3l0.4-1.2c-3.4-1.2-5.3-4.7-4.3-8.1c0.3-1,1.3-1.6,2.4-1.3
	c0.9,0.3,1.5,1.1,1.4,1.9l-0.1,0.3c-0.4,1.5,0.4,3,1.9,3.6l0.4,0.1l2.2,0.6c1.9,0.5,3.7-0.5,4.3-2.3c0.4-1.3-0.1-2.8-1.3-3.6
	l-0.4-0.2l-4.1-2.2c-2.9-1.6-4.3-4.8-3.4-8c0.9-3.3,4.2-5.3,7.6-5.1l0.6,0.1L105.4,329z M105.6,323.1c-4.9-1.4-10.1,1.2-11.9,6
	l-0.2,0.6l-5.7,19.3c-1.5,4.9,1.2,10.1,6,11.8l0.6,0.2l6.5,1.9c4.9,1.4,10.1-1.2,11.9-6l0.2-0.6l5.7-19.3c1.5-4.9-1.2-10.1-6-11.8
	l-0.6-0.2L105.6,323.1z M70.7,307.4c3.6-1.2,5.7,1.4,6.8,3.7l0.3,0.7l0.6,1.4c0.2,0.5,0.4,0.9,0.6,1.2c1,1.7,2.4,3.3,4.3,5
	c0.3,0.3,0.8,0.6,1.2,0.9l0.9,0.6c1.3,0.8,2.6,1.7,3.6,2.9l0.5,0.6l2.6-8.2c1-3.1,4-5.1,6.8-4.6l0.5,0.1l24.9,7.3
	c2.8,0.8,4.4,3.9,3.7,7.1l-0.1,0.5l-1.3,4.3c0.9-0.4,1.8-0.6,2.7-0.8l1-0.2c0.8-0.2,1.7-0.3,2.4-0.6c2.1-0.8,3.7-1.6,5.1-2.5
	l0.7-0.5c0.2-0.2,0.4-0.3,0.7-0.6l1.2-1.1l0.5-0.5l0.6-0.5c1.9-1.5,4.6-2.9,7.4-0.7c1.8,1.5,2.7,3.7,2.4,5.8
	c-0.3,1.8-1.3,3.7-2.8,5.3c-0.6,0.6-1.2,1.2-1.8,1.7c0.6,0.9,0.9,1.9,0.9,3c0,4.1-4.8,6-7.6,6.3l-0.7,0c-0.4,0-0.9,0-1.3,0
	c-0.2,0.9-0.8,2-1.9,3c-1,1-2.4,1.5-4,1.5c-2.8,0-5.3-1.6-6.4-2.5c-1.1-0.9-1.8-2-2.4-3l-0.3-0.6l-8.4,26.9c-1,3.2-4,5.1-6.8,4.6
	l-0.5-0.1L82,367.5c-2.8-0.8-4.4-3.9-3.7-7.1l0.1-0.5l6.9-22.2c-0.7,0.4-1.3,0.7-2,1c-1,0.3-2.3,0.6-3.7,0.6c-1.1,0-2.3-0.2-3.3-0.5
	c-1.5-0.6-2.6-1.6-3.2-2.9c-0.6-1.4-0.7-2.6-0.6-3.5l-0.9-0.3l-0.7-0.3c-2.6-1.1-6.7-4.8-5.1-8.8c0.4-1.1,1.1-1.9,2-2.5
	c-0.4-0.7-0.8-1.5-1.1-2.3c-0.8-2.1-1-4.3-0.6-6C66.7,309.8,68.4,308.1,70.7,307.4"/>
<path class="st0" d="M71.6,190.4c0.4,0,0.8,0.2,1.1,0.5c0.2,0.2,0.3,0.5,0.4,0.8l0,0.3l0,0.3c1.9,0.5,3.2,2,3.3,3.8l0,0.4
	c-0.1,0.8-0.8,1.4-1.7,1.4c-0.4,0-0.8-0.2-1.1-0.5c-0.2-0.2-0.3-0.5-0.4-0.8l0-0.3c0-0.6-0.4-1.1-0.9-1.2l-0.3,0l-1.2-0.1
	c-0.4,0-0.7,0.1-1,0.3c-0.3,0.2-0.5,0.6-0.5,0.9c0,0.5,0.2,1,0.7,1.3l0.3,0.1l2.5,0.8c2,0.6,3.3,2.4,3.1,4.4
	c-0.1,1.8-1.5,3.4-3.4,3.8l-0.5,0.1l0,0.3c0,0.4-0.2,0.8-0.6,1c-0.3,0.2-0.6,0.3-1,0.3l-0.1,0c-0.8-0.1-1.4-0.6-1.5-1.3l0-0.3l0-0.3
	c-2-0.5-3.4-2.3-3.2-4.3c0-0.4,0.2-0.8,0.5-1c0.3-0.2,0.7-0.4,1.1-0.3c0.8,0.1,1.4,0.6,1.4,1.3l0,0.3c0,0.3,0.1,0.6,0.3,0.9
	c0.2,0.2,0.4,0.3,0.6,0.4l0.3,0l1.2,0.1c0.4,0,0.7-0.1,1-0.3c0.3-0.2,0.5-0.6,0.5-0.9c0-0.5-0.3-1-0.7-1.3l-0.3-0.1l-2.5-0.8
	c-2-0.6-3.3-2.4-3.1-4.4c0.1-1.8,1.5-3.3,3.4-3.8l0.5-0.1l0-0.3c0-0.4,0.2-0.8,0.5-1C70.7,190.5,71.2,190.4,71.6,190.4 M95.7,200.2
	c-0.3,0.3-0.5,0.6-0.6,1l0,0.3l0,0.3c-2.4,0.4-4.2,2.4-4.4,4.8c-0.2,2.2,1.1,4.3,3.2,5.2l0.5,0.2l2.8,0.9c0.7,0.2,1.1,0.9,1,1.6
	c0,0.4-0.2,0.8-0.5,1c-0.2,0.2-0.5,0.3-0.8,0.3l-0.3,0l-1.4-0.1c-0.4,0-0.7-0.2-0.9-0.5c-0.2-0.2-0.3-0.4-0.3-0.7l0-0.3
	c0-0.5-0.1-1-0.4-1.4c-0.3-0.4-0.8-0.6-1.3-0.6c-1.1-0.1-2,0.7-2,1.7c-0.1,2.3,1.2,4.3,3.2,5.1l0.4,0.2l0,0.3c-0.1,1,0.7,1.9,1.8,2
	l0.2,0c0.4,0,0.8-0.1,1.2-0.4c0.3-0.3,0.5-0.6,0.6-1l0-0.3l0-0.3c2.4-0.4,4.2-2.4,4.4-4.8c0.2-2.2-1.1-4.3-3.2-5.2l-0.5-0.2
	l-2.8-0.9c-0.7-0.2-1.1-0.9-1-1.6c0.1-0.7,0.6-1.3,1.3-1.4l0.3,0l1.4,0.1c0.7,0,1.2,0.5,1.3,1.2l0,0.3c0,0.5,0.1,1,0.4,1.4
	c0.3,0.4,0.8,0.6,1.3,0.6c1,0.1,1.7-0.5,2-1.4l0.1-0.3c0.2-2.2-1.2-4.3-3.2-5.1l-0.4-0.1l0-0.3c0-0.5-0.1-1-0.4-1.4
	c-0.3-0.4-0.8-0.6-1.3-0.6C96.6,199.8,96.1,199.9,95.7,200.2 M118.7,199.8c-0.5,0-1,0.2-1.3,0.6c-0.3,0.3-0.4,0.6-0.5,1l0,0.3l0,0.3
	c-2.3,0.6-4,2.8-3.9,5.2c0,2.2,1.5,4.2,3.6,4.9l0.5,0.1l2.9,0.6c0.7,0.2,1.2,0.8,1.2,1.5c0,0.4-0.1,0.8-0.4,1.1
	c-0.2,0.2-0.5,0.4-0.8,0.4l-0.3,0l-1.4,0c-0.3,0-0.7-0.1-1-0.4c-0.2-0.2-0.3-0.4-0.4-0.7l0-0.3c0-0.9-0.7-1.7-1.5-1.8l-0.4,0
	c-0.5,0-1,0.2-1.3,0.6c-0.3,0.4-0.5,0.8-0.5,1.3c0.1,2.3,1.6,4.1,3.7,4.8l0.5,0.1l0,0.3c0,0.9,0.7,1.6,1.6,1.8l0.4,0
	c0.5,0,1-0.2,1.3-0.5c0.3-0.3,0.5-0.7,0.5-1.1l0-0.3l0-0.3c2.3-0.6,4-2.7,3.9-5.2c0-2.2-1.5-4.2-3.6-4.9l-0.5-0.1l-2.9-0.7
	c-0.7-0.1-1.2-0.8-1.2-1.5c0-0.8,0.5-1.4,1.2-1.5l0.3,0l1.4,0c0.4,0,0.7,0.1,1,0.4c0.2,0.2,0.3,0.4,0.4,0.7l0,0.3
	c0,0.9,0.7,1.7,1.6,1.8l0.3,0c1,0,1.7-0.7,1.8-1.6l0-0.3c-0.1-2.2-1.6-4.1-3.7-4.7l-0.5-0.1l0-0.3c0-0.5-0.2-1-0.6-1.3
	C119.6,199.9,119.2,199.8,118.7,199.8 M114.5,228.7c1.3,0,2.3,0.9,2.5,2l0,0.4v9.3c0,4.8-4.1,8.7-9.1,8.7c-4.4,0-7.9-3.2-8.2-7.3
	l0-0.5v-10.3c0-1.1,0.8-2,2-2.2l0.3,0H114.5z M85.8,223.4c-0.8,0-1.4,0.6-1.4,1.4c0,8.6,5.4,14.6,11.3,17.7l0.7,0.3
	c2,6.7,6.3,9.4,11.1,9.6l0.6,0c6.2,0,10.9-3.8,11.5-9.3c6.9-2.8,12.2-8.5,12.2-18.4c0-0.4-0.2-0.8-0.5-1c-0.3-0.3-0.7-0.4-1.1-0.3
	c-7.3,0.9-14.7,1.4-22.1,1.4c-5.5,0-11.1-0.3-16.6-0.8l-5.1-0.5L85.8,223.4z M108.1,193c16.9,0,30.6,13.6,30.7,30.5
	c0,16.8-13.7,30.5-30.7,30.5c-16.9,0-30.7-13.6-30.7-30.5C77.4,206.6,91.1,193,108.1,193 M146.5,235.6c0.4,0,0.8,0.2,1.1,0.5
	c0.2,0.2,0.3,0.5,0.4,0.8l0,0.3l0,0.3c1.9,0.5,3.2,2.2,3.3,4.1l0,0.4c-0.1,0.9-0.8,1.5-1.7,1.5c-0.4,0-0.8-0.2-1.1-0.5
	c-0.2-0.2-0.3-0.5-0.4-0.8l0-0.3c0-0.6-0.4-1.2-0.9-1.3l-0.3,0l-1.2-0.1c-0.4,0-0.8,0.1-1,0.3c-0.3,0.2-0.5,0.6-0.5,1
	c0,0.6,0.2,1.1,0.7,1.4l0.3,0.1l2.5,0.8c2,0.7,3.3,2.6,3.1,4.7c-0.1,2-1.6,3.6-3.4,4.1l-0.4,0.1l0,0.3c0,0.4-0.2,0.8-0.6,1.1
	c-0.2,0.2-0.5,0.3-0.7,0.3l-0.3,0l-0.1,0c-0.8-0.1-1.4-0.6-1.5-1.4l0-0.3l0-0.3c-2-0.6-3.4-2.4-3.3-4.6c0-0.4,0.2-0.8,0.6-1.1
	c0.3-0.3,0.7-0.4,1.2-0.4c0.8,0.1,1.4,0.7,1.4,1.4l0,0.3c0,0.3,0.1,0.7,0.3,0.9c0.2,0.2,0.4,0.3,0.6,0.4l0.3,0l1.2,0.1
	c0.4,0,0.8-0.1,1-0.3c0.3-0.2,0.5-0.6,0.5-1c0-0.6-0.3-1.1-0.7-1.4l-0.3-0.1l-2.5-0.8c-2-0.7-3.3-2.6-3.1-4.7c0.1-2,1.6-3.6,3.4-4.1
	l0.4-0.1l0-0.3c0-0.4,0.2-0.8,0.5-1.1C145.7,235.7,146.1,235.6,146.5,235.6"/>
<path class="st0" d="M267.4,194.3h-14.6c-1.1,0-1.7,1.2-1.1,2.1l7.3,10.5c0.5,0.8,1.7,0.8,2.2,0l7.3-10.5
	C269.1,195.5,268.5,194.3,267.4,194.3 M240.2,194.3h-14.6c-1.1,0-1.7,1.2-1.1,2.1l7.3,10.5c0.5,0.8,1.7,0.8,2.2,0l7.3-10.5
	C241.9,195.5,241.3,194.3,240.2,194.3 M245.4,197.4l-8.7,12.6h17.2c1.1,0,1.7-1.2,1.1-2.1l-7.3-10.5
	C247.1,196.7,245.9,196.7,245.4,197.4 M272.7,197.5l-7.3,10.5c-0.6,0.9,0,2.1,1.1,2.1h14.6c1.1,0,1.7-1.2,1.1-2.1l-7.3-10.5
	C274.3,196.8,273.2,196.8,272.7,197.5 M218.1,197.4l-7.3,10.6c-0.6,0.9,0,2.1,1.1,2.1h14.6c1.1,0,1.7-1.2,1.1-2.1l-7.3-10.6
	C219.8,196.7,218.7,196.7,218.1,197.4 M279.5,213.9h-16.9c-0.6,0-1.1,0.4-1.3,0.9l-8.4,25.3c-0.4,1.4,1.2,2.4,2.2,1.4l25.3-25.3
	C281.3,215.4,280.7,213.9,279.5,213.9 M230.4,213.9h-16.9c-1.2,0-1.8,1.5-0.9,2.3l25.3,25.3c1,1,2.7,0,2.2-1.4l-8.4-25.3
	C231.5,214.3,231,213.9,230.4,213.9 M255.4,213.9h-17.9c-0.9,0-1.6,0.9-1.3,1.8l9,27c0.4,1.2,2.1,1.2,2.5,0l9-27
	C257,214.8,256.4,213.9,255.4,213.9 M273.7,190.4c0.2,0,0.4,0.1,0.5,0.1h0.1l0.3,0.1c0,0.1,0.1,0.1,0.1,0.1l0.3,0.2
	c0,0.1,0.1,0.1,0.1,0.1l0.3,0.3l13.6,19.6v0.1c0.1,0.1,0.2,0.2,0.2,0.3v0.1c0.1,0.2,0.1,0.3,0.1,0.5v0.6c0,0.2,0,0.3-0.1,0.4v0.1
	c-0.1,0.1-0.1,0.2-0.2,0.3l-40.9,41l-0.4,0.4h-0.1c-0.1,0-0.1,0.1-0.2,0.1c0,0.1,0,0.1-0.1,0.1l-1.7,0c0-0.1,0-0.1-0.1-0.1
	c-0.1,0-0.1-0.1-0.2-0.1h-0.2l-0.3-0.3L204,213.3l-0.3-0.4v-0.1c0-0.2-0.1-0.3-0.1-0.4v-0.6c0-0.2,0-0.3,0.1-0.5v-0.1l0.2-0.3V211
	l13.6-19.6l0.3-0.3l0-0.1l0.1,0l0.2-0.1c0,0,0.1-0.1,0.1-0.1c0-0.1,0-0.1,0.1-0.1l0.3-0.1h0.1c0.1-0.1,0.2-0.1,0.3-0.1L273.7,190.4z
	"/>
<path class="st0" d="M269.8,343.7c-1.6,0-3,1.3-3,3c0,1.6,1.3,3,3,3c1.6,0,3-1.3,3-3C272.8,345,271.4,343.7,269.8,343.7
	 M248.4,343.7c-1.6,0-3,1.3-3,3c0,1.6,1.3,3,3,3c1.6,0,3-1.3,3-3C251.3,345,250,343.7,248.4,343.7 M266.6,354.6h-10.3
	c-0.6,0-1.1,0.5-1.1,1c-0.3,7.4,9.2,10.8,12.4,0.4c0.2-0.6-0.2-1.3-0.8-1.4L266.6,354.6z M247.9,309.7l0.9,1.4l1.1,1.6l1.2,1.8
	l0.9,1.3l0.9,1.3l1,1.4l1,1.4l1.1,1.4c0.2,0.2,0.4,0.5,0.5,0.7l1.1,1.4l1.1,1.4c4,4.7,8.1,8.7,11.4,9.4c1.9,0.5,5.1-0.5,8.4-1.9
	l1.3-0.6c0.2-0.1,0.4-0.2,0.7-0.3l1.3-0.6l1.3-0.6l1.2-0.6l1.7-0.9c0.2-0.1,0.4-0.2,0.5-0.3c1.3-0.7,2.8,0.4,2.7,1.8l0,0.2
	l-9.9,39.6c-0.5,1.8-2,3.1-3.9,3.3l-0.4,0h-57.3c-2,0-3.7-1.3-4.3-3.1l-0.1-0.4l-9.7-39.4c-0.4-1.5,1.1-2.7,2.4-2.1l0.2,0.1l1.6,0.9
	l1.2,0.6l1.2,0.6l1.3,0.6l1.3,0.6c3.7,1.7,7.6,3,9.8,2.4c2.9-0.7,6.6-4,10.2-8.1l1.1-1.3l1.1-1.4c0.2-0.2,0.4-0.5,0.6-0.7l1.1-1.4
	l1.1-1.4l1-1.4l1-1.4l1.4-2l1.3-1.8l1.8-2.7l0.6-0.9C245.6,308.6,247.2,308.6,247.9,309.7"/>
</svg>
